<svg id="Grupo_54439" data-name="Grupo 54439" xmlns="http://www.w3.org/2000/svg" xmlns:xlink="http://www.w3.org/1999/xlink" width="177.588" height="177.588" viewBox="0 0 177.588 177.588">
  <defs>
    <clipPath id="clip-path">
      <rect id="Rectángulo_5482" data-name="Rectángulo 5482" width="177.588" height="177.588" fill="none"/>
    </clipPath>
  </defs>
  <g id="Grupo_54439-2" data-name="Grupo 54439" clip-path="url(#clip-path)">
    <path id="Trazado_147158" data-name="Trazado 147158" d="M177.588,88.794A88.794,88.794,0,1,1,88.794,0a88.793,88.793,0,0,1,88.794,88.794" fill="#f28705"/>
    <path id="Trazado_147159" data-name="Trazado 147159" d="M163.281,88.793A74.488,74.488,0,1,1,88.793,14.305a74.487,74.487,0,0,1,74.488,74.488Z" fill="#fff"/>
    <path id="Trazado_147160" data-name="Trazado 147160" d="M87.023,62.234A35.412,35.412,0,1,1,51.612,97.645,35.411,35.411,0,0,1,87.023,62.234" fill="#57b7eb"/>
    <path id="Trazado_147161" data-name="Trazado 147161" d="M101.187,117.122a35.374,35.374,0,0,1-32.318-49.84,35.39,35.39,0,1,0,50.472,44.8,35.2,35.2,0,0,1-18.154,5.044" fill="#4891d3"/>
    <path id="Trazado_147162" data-name="Trazado 147162" d="M110.908,71.556,92.335,99.416l17.705,5.312-7.082,5.311v8.853l-7.082,7.082.876,5.7a35.346,35.346,0,0,0,14.165-60.114Z" fill="#c4f236"/>
    <path id="Trazado_147163" data-name="Trazado 147163" d="M51.611,97.646a35.412,35.412,0,0,0,27.868,34.586L76.4,118.893l14.164-8.853-12.394-8.853,7.083-8.853L76.4,83.481,73.92,64.772A35.4,35.4,0,0,0,51.611,97.646" fill="#c4f236"/>
    <path id="Trazado_147164" data-name="Trazado 147164" d="M119.353,112.093a35.482,35.482,0,0,1-22.61,19.582l-.868-5.7,7.083-7.082v-1.823A34.832,34.832,0,0,0,119.353,112.093Z" fill="#a1d51c"/>
    <path id="Trazado_147165" data-name="Trazado 147165" d="M76.4,118.892l3.081,13.332A35.373,35.373,0,0,1,68.856,67.281a35.39,35.39,0,0,0,16.431,46.07Z" fill="#a1d51c"/>
    <path id="Trazado_147166" data-name="Trazado 147166" d="M122.434,37.447l4.026,6.224L133.376,41l-.4,7.4,7.162,1.907-4.675,5.754,4.675,5.753-7.162,1.907.4,7.4-6.916-2.667-4.026,6.222-4.026-6.222-6.916,2.667.4-7.4-7.162-1.907,4.675-5.753-4.675-5.754L111.89,48.4l-.4-7.4,6.916,2.669Z" fill="#f9e109"/>
    <path id="Trazado_147167" data-name="Trazado 147167" d="M119.815,64.118l-4.494,1.733.262-4.81-4.656-1.24,3.038-3.737-3.038-3.74,4.656-1.239-.262-4.811,4.494,1.734,2.619-4.044,2.618,4.044,4.494-1.734-.262,4.811,4.657,1.239-3.039,3.74,3.039,3.737-4.657,1.24.262,4.81-4.494-1.733-2.618,4.044Z" fill="#fcbc04"/>
    <path id="Trazado_147168" data-name="Trazado 147168" d="M122.434,49.84a7.083,7.083,0,1,1-7.082,7.083,7.083,7.083,0,0,1,7.082-7.083" fill="#f8664f"/>
    <path id="Trazado_147169" data-name="Trazado 147169" d="M90.564,58.693a10.669,10.669,0,0,1,1.81.165,14.156,14.156,0,0,1,24.71,0,10.533,10.533,0,0,1,11.032,5.2c.177-.011.338-.051.515-.051a7.968,7.968,0,1,1-4.494,14.543,10.576,10.576,0,0,1-11.767-.859,14.1,14.1,0,0,1-15.283,0,10.624,10.624,0,1,1-6.523-19" fill="#d0d8da"/>
    <path id="Trazado_147170" data-name="Trazado 147170" d="M133.943,72.858a7.933,7.933,0,0,1-4.494-1.392,10.578,10.578,0,0,1-11.767-.858,14.1,14.1,0,0,1-15.283,0A10.611,10.611,0,0,1,85.5,59.984,10.624,10.624,0,1,0,97.087,77.69a14.1,14.1,0,0,0,15.283,0,10.58,10.58,0,0,0,11.768.859,7.939,7.939,0,0,0,12.42-6.166,7.912,7.912,0,0,1-2.615.475" fill="#93999a"/>
    <path id="Trazado_147171" data-name="Trazado 147171" d="M106.5,85.252l3.541-14.165L94.1,90.564l8.853,1.77L99.417,106.5l15.935-19.476Z" fill="#f9e109"/>
    <path id="Trazado_147172" data-name="Trazado 147172" d="M108.27,88.793h-7.082l8.853-17.706L94.1,90.564l8.853,1.77L99.417,106.5Z" fill="#fcbc04"/>
    <path id="Trazado_147173" data-name="Trazado 147173" d="M44.529,111.81H65.776a3.541,3.541,0,1,1,0,7.082H44.529a3.541,3.541,0,0,1,0-7.082" fill="#d0d8da"/>
    <path id="Trazado_147174" data-name="Trazado 147174" d="M40.988,104.728H69.317a3.541,3.541,0,1,1,0,7.082H40.988a3.541,3.541,0,0,1,0-7.082" fill="#d0d8da"/>
    <path id="Trazado_147175" data-name="Trazado 147175" d="M48.07,118.892H62.235a3.541,3.541,0,1,1,0,7.082H48.07a3.541,3.541,0,0,1,0-7.082" fill="#d0d8da"/>
    <path id="Trazado_147176" data-name="Trazado 147176" d="M49.841,125.975h7.082a3.541,3.541,0,0,1,0,7.082H49.841a3.541,3.541,0,0,1,0-7.082" fill="#d0d8da"/>
    <path id="Trazado_147177" data-name="Trazado 147177" d="M48.07,133.057h3.541a3.541,3.541,0,0,1,0,7.082H48.07a3.541,3.541,0,0,1,0-7.082" fill="#d0d8da"/>
    <path id="Trazado_147178" data-name="Trazado 147178" d="M44.529,111.81a3.541,3.541,0,0,0,0,7.082H65.776a3.541,3.541,0,0,0,3.541-3.541H48.07a3.541,3.541,0,0,1-3.541-3.541" fill="#93999a"/>
    <path id="Trazado_147179" data-name="Trazado 147179" d="M40.988,104.728a3.541,3.541,0,0,0,0,7.082H69.317a3.541,3.541,0,0,0,3.541-3.541H44.529a3.541,3.541,0,0,1-3.541-3.541" fill="#93999a"/>
    <path id="Trazado_147180" data-name="Trazado 147180" d="M48.07,118.892a3.541,3.541,0,0,0,0,7.082H62.235a3.541,3.541,0,0,0,3.541-3.541H51.611a3.541,3.541,0,0,1-3.541-3.541" fill="#93999a"/>
    <path id="Trazado_147181" data-name="Trazado 147181" d="M49.841,125.975a3.541,3.541,0,0,0,0,7.082h7.082a3.541,3.541,0,0,0,3.541-3.541H53.382a3.541,3.541,0,0,1-3.541-3.541" fill="#93999a"/>
    <path id="Trazado_147182" data-name="Trazado 147182" d="M48.07,133.057a3.541,3.541,0,0,0,0,7.082h3.541a3.541,3.541,0,0,0,3.541-3.541H51.611a3.541,3.541,0,0,1-3.541-3.541" fill="#93999a"/>
    <path id="Trazado_147183" data-name="Trazado 147183" d="M67.547,56.923a5.382,5.382,0,0,0-.931.094,6.933,6.933,0,0,0-7.791-3.426,8.837,8.837,0,0,0-15.889,3.35c-.06,0-.117-.018-.177-.018a5.311,5.311,0,1,0,3.794,9.03,8.748,8.748,0,0,0,9.753.228,6.992,6.992,0,0,0,7.99.234,5.248,5.248,0,0,0,3.251,1.131,5.311,5.311,0,1,0,0-10.623" fill="#d0d8da"/>
    <path id="Trazado_147184" data-name="Trazado 147184" d="M71.088,62.234a5.247,5.247,0,0,1-3.251-1.14,6.992,6.992,0,0,1-7.99-.234,8.748,8.748,0,0,1-9.753-.228,5.291,5.291,0,0,1-9.074-3.4,5.3,5.3,0,1,0,5.533,8.715,8.748,8.748,0,0,0,9.753.229,6.994,6.994,0,0,0,7.99.233,5.249,5.249,0,0,0,3.251,1.132,5.312,5.312,0,0,0,5.312-5.312c0-.108-.025-.209-.032-.315a5.267,5.267,0,0,1-1.739.315" fill="#93999a"/>
    <path id="Trazado_147185" data-name="Trazado 147185" d="M133.057,122.434H106.5a1.771,1.771,0,1,1,0-3.541h26.558a3.541,3.541,0,1,0,0-7.082,1.771,1.771,0,1,1,0-3.542,7.083,7.083,0,0,1,0,14.165" fill="#84d2f4"/>
    <path id="Trazado_147186" data-name="Trazado 147186" d="M113.581,136.6H101.187a1.771,1.771,0,1,1,0-3.541h12.394a1.771,1.771,0,1,1,0,3.541" fill="#84d2f4"/>
    <path id="Trazado_147187" data-name="Trazado 147187" d="M120.663,115.351H108.269a1.771,1.771,0,1,1,0-3.541h12.394a1.771,1.771,0,1,1,0,3.541" fill="#84d2f4"/>
    <path id="Trazado_147188" data-name="Trazado 147188" d="M124.205,140.139a1.771,1.771,0,1,1,0-3.541,3.541,3.541,0,0,0,0-7.082H113.582a1.771,1.771,0,0,1,0-3.542h10.623a7.083,7.083,0,0,1,0,14.165" fill="#84d2f4"/>
    <path id="Trazado_147189" data-name="Trazado 147189" d="M88.793,122.434H85.252a1.771,1.771,0,1,1,0-3.541h3.541a1.771,1.771,0,1,1,0,3.541" fill="#84d2f4"/>
    <path id="Trazado_147190" data-name="Trazado 147190" d="M95.876,115.351H92.335a1.771,1.771,0,1,1,0-3.541h3.541a1.771,1.771,0,1,1,0,3.541" fill="#84d2f4"/>
    <path id="Trazado_147191" data-name="Trazado 147191" d="M46.3,78.169a1.77,1.77,0,0,1-1.594-.979l-1.77-3.541A1.771,1.771,0,1,1,46.1,72.066l1.771,3.541A1.771,1.771,0,0,1,46.3,78.169Z" fill="#84d2f4"/>
    <path id="Trazado_147192" data-name="Trazado 147192" d="M53.382,78.169a1.77,1.77,0,0,1-1.594-.979l-1.77-3.541a1.771,1.771,0,0,1,3.169-1.583l1.771,3.541a1.771,1.771,0,0,1-1.576,2.562Z" fill="#84d2f4"/>
    <path id="Trazado_147193" data-name="Trazado 147193" d="M60.464,78.169a1.77,1.77,0,0,1-1.594-.979L57.1,73.649a1.771,1.771,0,0,1,3.169-1.583l1.771,3.541a1.771,1.771,0,0,1-1.576,2.562Z" fill="#84d2f4"/>
    <path id="Trazado_147194" data-name="Trazado 147194" d="M67.547,78.169a1.77,1.77,0,0,1-1.594-.979l-1.77-3.541a1.771,1.771,0,1,1,3.169-1.583l1.771,3.541a1.771,1.771,0,0,1-1.576,2.562Z" fill="#84d2f4"/>
    <path id="Trazado_147195" data-name="Trazado 147195" d="M49.841,87.022a1.772,1.772,0,0,1-1.594-.979L46.477,82.5a1.771,1.771,0,1,1,3.169-1.583l1.771,3.541a1.771,1.771,0,0,1-1.576,2.562" fill="#84d2f4"/>
    <path id="Trazado_147196" data-name="Trazado 147196" d="M56.923,87.022a1.772,1.772,0,0,1-1.594-.979L53.559,82.5a1.771,1.771,0,0,1,3.169-1.583L58.5,84.46a1.771,1.771,0,0,1-1.576,2.562" fill="#84d2f4"/>
    <path id="Trazado_147197" data-name="Trazado 147197" d="M64,87.022a1.772,1.772,0,0,1-1.594-.979L60.641,82.5a1.771,1.771,0,0,1,3.169-1.583l1.771,3.541A1.771,1.771,0,0,1,64,87.022" fill="#84d2f4"/>
    <path id="Trazado_147198" data-name="Trazado 147198" d="M71.088,87.022a1.772,1.772,0,0,1-1.594-.979L67.724,82.5a1.771,1.771,0,1,1,3.169-1.583l1.771,3.541a1.771,1.771,0,0,1-1.576,2.562" fill="#84d2f4"/>
    <path id="Trazado_147199" data-name="Trazado 147199" d="M53.382,97.646a1.772,1.772,0,0,1-1.594-.979l-1.77-3.541a1.771,1.771,0,0,1,3.169-1.583l1.771,3.541a1.771,1.771,0,0,1-1.576,2.562" fill="#84d2f4"/>
    <path id="Trazado_147200" data-name="Trazado 147200" d="M60.464,97.646a1.772,1.772,0,0,1-1.594-.979L57.1,93.126a1.771,1.771,0,0,1,3.169-1.583l1.771,3.541a1.771,1.771,0,0,1-1.576,2.562Z" fill="#84d2f4"/>
    <path id="Trazado_147201" data-name="Trazado 147201" d="M67.547,97.646a1.772,1.772,0,0,1-1.594-.979l-1.77-3.541a1.771,1.771,0,1,1,3.169-1.583l1.771,3.541a1.771,1.771,0,0,1-1.576,2.562" fill="#84d2f4"/>
    <path id="Trazado_147202" data-name="Trazado 147202" d="M72.858,95.875a1.772,1.772,0,0,1-1.594-.979l-1.77-3.541a1.771,1.771,0,1,1,3.169-1.583l1.771,3.541a1.771,1.771,0,0,1-1.576,2.562Z" fill="#84d2f4"/>
  </g>
</svg>
