<svg xmlns="http://www.w3.org/2000/svg" xmlns:xlink="http://www.w3.org/1999/xlink" width="1030" height="475.91" viewBox="0 0 1030 475.91">
  <defs>
    <clipPath id="clip-path">
      <rect id="Rectángulo_5229" data-name="Rectángulo 5229" width="124" height="124" transform="translate(0.129)" fill="none"/>
    </clipPath>
    <clipPath id="clip-path-2">
      <rect id="Rectángulo_5230" data-name="Rectángulo 5230" width="133.245" height="133.245" fill="none"/>
    </clipPath>
    <clipPath id="clip-path-4">
      <rect id="Rectángulo_5234" data-name="Rectángulo 5234" width="135.072" height="135.072" fill="none"/>
    </clipPath>
  </defs>
  <g id="Grupo_54396" data-name="Grupo 54396" transform="translate(-285 -530.863)">
    <rect id="Rectángulo_5150" data-name="Rectángulo 5150" width="333.94" height="73.69" rx="21" transform="translate(464.167 653.98)" fill="#f28705"/>
    <text id="Los_aspectos_físicos_y_biológicos_naturaleza_" data-name="Los aspectos físicos y 
biológicos (naturaleza)" transform="translate(490 684.157)" fill="#fff" font-size="18" font-family="Roboto-Black, Roboto" font-weight="800"><tspan x="0" y="0">Los aspectos físicos y </tspan><tspan x="0" y="25">biológicos (naturaleza)</tspan></text>
    <rect id="Rectángulo_5151" data-name="Rectángulo 5151" width="346.956" height="73.69" rx="21" transform="translate(867.414 560.845)" fill="#f7b769"/>
    <text id="Factores_abióticos" data-name="Factores abióticos" transform="translate(903.176 604.141)" fill="#12263f" font-size="18" font-family="Roboto-Black, Roboto" font-weight="800"><tspan x="0" y="0">Factores abióticos</tspan></text>
    <rect id="Rectángulo_5152" data-name="Rectángulo 5152" width="346.956" height="73.69" rx="21" transform="translate(867.414 713.431)" fill="#f7b769"/>
    <text id="Factores_bióticos" data-name="Factores bióticos" transform="translate(903.176 756.638)" fill="#12263f" font-size="18" font-family="Roboto-Black, Roboto" font-weight="800"><tspan x="0" y="0">Factores bióticos</tspan></text>
    <rect id="Rectángulo_5153" data-name="Rectángulo 5153" width="333.94" height="73.69" rx="21" transform="translate(464.167 892.449)" fill="#f28705"/>
    <text id="Los_aspectos_sociales_creados_por_el_ser_humano_" data-name="Los aspectos sociales 
(creados por el ser humano)" transform="translate(489.694 922.242)" fill="#fff" font-size="18" font-family="Roboto-Black, Roboto" font-weight="800"><tspan x="0" y="0">Los aspectos sociales </tspan><tspan x="0" y="25">(creados por el ser humano)</tspan></text>
    <rect id="Rectángulo_5154" data-name="Rectángulo 5154" width="352.074" height="73.69" rx="21" transform="translate(874.578 892.449)" fill="#f7b769"/>
    <text id="Economía_política_tecnología_cultura_historia_moral_estética." data-name="Economía, política, tecnología, 
cultura, historia, moral, estética." transform="translate(903.176 920.394)" fill="#12263f" font-size="18" font-family="Roboto-Black, Roboto" font-weight="800"><tspan x="0" y="0">Economía, política, tecnología, </tspan><tspan x="0" y="25">cultura, historia, moral, estética.</tspan></text>
    <line id="Línea_295" data-name="Línea 295" x2="38.892" transform="translate(387.859 807.699)" fill="none" stroke="#afafaf" stroke-width="2"/>
    <rect id="Rectángulo_5147" data-name="Rectángulo 5147" width="398.269" height="86.995" rx="21" transform="translate(307.517 1006.773) rotate(-90)" fill="#efe307"/>
    <text id="Componentes_ambientales" data-name="Componentes ambientales" transform="translate(355.951 941.56) rotate(-90)" fill="#12263f" font-size="18" font-family="Roboto-Black, Roboto" font-weight="800"><tspan x="0" y="0">Componentes ambientales</tspan></text>
    <line id="Línea_296" data-name="Línea 296" y2="238.666" transform="translate(426.75 690.825)" fill="none" stroke="#afafaf" stroke-width="2"/>
    <line id="Línea_297" data-name="Línea 297" x2="38.892" transform="translate(425.727 691.337)" fill="none" stroke="#afafaf" stroke-width="2"/>
    <line id="Línea_298" data-name="Línea 298" x2="38.892" transform="translate(425.727 928.782)" fill="none" stroke="#afafaf" stroke-width="2"/>
    <line id="Línea_299" data-name="Línea 299" x2="48.162" transform="translate(798.27 691.023)" fill="none" stroke="#afafaf" stroke-width="2"/>
    <line id="Línea_300" data-name="Línea 300" y1="152.695" transform="translate(845.409 597.689)" fill="none" stroke="#afafaf" stroke-width="2"/>
    <line id="Línea_301" data-name="Línea 301" x2="23.087" transform="translate(844.326 597.689)" fill="none" stroke="#afafaf" stroke-width="2"/>
    <line id="Línea_302" data-name="Línea 302" x2="23.087" transform="translate(844.326 750.187)" fill="none" stroke="#afafaf" stroke-width="2"/>
    <line id="Línea_303" data-name="Línea 303" x2="79.831" transform="translate(795.2 929.096)" fill="none" stroke="#afafaf" stroke-width="2"/>
    <g id="Grupo_53831" data-name="Grupo 53831" transform="translate(285 667.285) rotate(-90)">
      <g id="Grupo_53833" data-name="Grupo 53833" clip-path="url(#clip-path)">
        <path id="Trazado_134425" data-name="Trazado 134425" d="M123.84,61.92A61.92,61.92,0,1,1,61.92,0a61.92,61.92,0,0,1,61.92,61.92" fill="#efe307"/>
        <path id="Trazado_134426" data-name="Trazado 134426" d="M103.888,51.944A51.944,51.944,0,1,1,51.944,0a51.944,51.944,0,0,1,51.944,51.944" transform="translate(9.976 9.976)" fill="#fff"/>
        <path id="Trazado_134427" data-name="Trazado 134427" d="M64.771,50.434a3.429,3.429,0,0,0-4.831-1.023l-.842.442-4.36-3.476a25.932,25.932,0,0,0-14.947-5.606,9.513,9.513,0,0,1,2.735-5.034,21.13,21.13,0,0,0,3.076.193,20.324,20.324,0,0,0,9.385-2.072,1.038,1.038,0,0,0-.949-1.847,18.815,18.815,0,0,1-9.351,1.824A118.608,118.608,0,0,1,61.715,22.277a16.973,16.973,0,0,1-4.031,7.053,1.038,1.038,0,0,0,1.481,1.455,19.524,19.524,0,0,0,4.961-9.621A1.8,1.8,0,0,0,62.248,19.1c-10.178.194-19.786,4.547-21.061,14.756a1.574,1.574,0,0,0-.009.3,12.854,12.854,0,0,0-1.585,1.86V27.373c4.495-4.092,5.913-9.492,4.8-15.544A33.159,33.159,0,0,0,39.9.743a1.592,1.592,0,0,0-2.693,0,33.154,33.154,0,0,0-4.493,11.085c-1.107,6.037.3,11.443,4.8,15.543v8.463a12.989,12.989,0,0,0-1.46-1.684,1.614,1.614,0,0,0-.008-.3C34.775,23.657,25.16,19.289,14.986,19.1a1.8,1.8,0,0,0-1.878,2.069c1.619,8.249,7.858,14.769,18.483,14.769a21.721,21.721,0,0,0,3.117-.2,9.494,9.494,0,0,1,2.739,5.028,25.921,25.921,0,0,0-11.892,3.442c-.419-.149-.8-.275-1.117-.37a12.276,12.276,0,0,0-9.468,1.108l-7.46,4.182a2.967,2.967,0,0,0-3.605-.489l-2.419,1.4A2.98,2.98,0,0,0,.4,54.1L9.221,69.381a2.974,2.974,0,0,0,4.065,1.089l2.419-1.4a2.977,2.977,0,0,0,1.125-4l1.821-1.615a2.014,2.014,0,0,1,1.946-.409l8.39,2.7a7.279,7.279,0,0,0,3.359.454l16.761-1.72a7.364,7.364,0,0,0,3.409-1.26c12.323-8.482,11.583-7.956,11.691-8.057a3.763,3.763,0,0,0,.565-4.733ZM59.066,21.4A119.27,119.27,0,0,0,43.675,31.978C45.85,24.249,53.928,22.023,59.066,21.4Zm-25.5,10.581a119.26,119.26,0,0,0-15.38-10.572c6.923.859,13.488,3.824,15.38,10.572M15.516,22.275A118.556,118.556,0,0,1,32.549,33.837C20.6,34.254,16.726,26.423,15.516,22.275ZM42.354,12.2c.89,4.85-.04,8.937-2.761,12.183v-20A29,29,0,0,1,42.354,12.2m-7.6,0a29,29,0,0,1,2.759-7.81V24.385c-2.72-3.246-3.648-7.331-2.759-12.181M53.444,48l3.646,2.908-4.563,2.4A13.565,13.565,0,0,1,47.8,54.785l.024-.4a1,1,0,0,0,0-.161,5.129,5.129,0,0,0-4.283-4.668l-.028,0-8.331-1.011c-2.639-.4-3-1.555-7.085-3.327A24,24,0,0,1,53.444,48m9.392,5.6-11.5,7.91a5.278,5.278,0,0,1-2.444.905l-16.761,1.72a5.339,5.339,0,0,1-2.482-.356l-8.419-2.706a4.1,4.1,0,0,0-3.959.833l-1.5,1.33-3.359-5.818a1.038,1.038,0,0,0-1.8,1.038L15,66.047a.9.9,0,0,1-.329,1.229l-2.419,1.4a.9.9,0,0,1-1.229-.33L2.2,53.061a.9.9,0,0,1,.329-1.229l2.419-1.4a.9.9,0,0,1,1.229.329l2.011,3.483a1.038,1.038,0,0,0,1.8-1.038L8.635,50.878l7.351-4.122a10.191,10.191,0,0,1,7.857-.93c6.445,1.93,7.22,4.2,11.043,4.767l.028,0,8.331,1.011a3.055,3.055,0,0,1,2.5,2.733l-.036.593-10.59.692a1.038,1.038,0,0,0,.067,2.074l.069,0c11.208-1.013,13.69-.163,18.237-2.553,7.926-4.17,7.48-3.923,7.585-4a1.355,1.355,0,0,1,1.949.412,1.666,1.666,0,0,1-.191,2.044" transform="translate(29.24 26.485)" fill="#7c6a00"/>
      </g>
    </g>
    <g id="Grupo_53835" data-name="Grupo 53835" transform="translate(691.124 624.203)">
      <g id="Grupo_53834" data-name="Grupo 53834" clip-path="url(#clip-path-2)">
        <path id="Trazado_134428" data-name="Trazado 134428" d="M133.245,66.623A66.622,66.622,0,1,1,66.623,0a66.622,66.622,0,0,1,66.622,66.622" transform="translate(0 0)" fill="#f28705"/>
        <path id="Trazado_134429" data-name="Trazado 134429" d="M122.264,66.377A55.889,55.889,0,1,1,66.376,10.488a55.888,55.888,0,0,1,55.889,55.889" transform="translate(0.246 0.246)" fill="#fff"/>
        <path id="Trazado_134430" data-name="Trazado 134430" d="M70.387,62.417a20.007,20.007,0,0,0-1.037-4.457,7.228,7.228,0,0,0,1.894-2.74c4.213-2.429,9.819-6.438,11.9-13.5a23.561,23.561,0,0,0,0-12.978,1.23,1.23,0,0,0-1.175-.9H80.71a1.271,1.271,0,0,0-.264.028,24.871,24.871,0,0,0-10.59,5.18,23.753,23.753,0,0,0-4.589,5.2,17.447,17.447,0,0,0-8.609-3.73L43.64,32.774a1.231,1.231,0,0,0-1.375,1.437l1.489,8.241a21.07,21.07,0,0,0,4.83,10.085A20.807,20.807,0,0,0,62,59.592l1.706.189a7.08,7.08,0,0,0,3.5-.491,17.444,17.444,0,0,1,.685,3,20.9,20.9,0,1,0,2.493.123Zm1.05-27.482a22.374,22.374,0,0,1,9.41-4.632h.167a21.015,21.015,0,0,1-.225,10.722c-1.567,5.31-5.364,8.654-9.024,11v-.149a17.711,17.711,0,0,0-.584-4.451,26.658,26.658,0,0,1,6.291-7.569L75.9,37.966a28.679,28.679,0,0,0-5.781,6.49,17.464,17.464,0,0,0-3.026-4.491,21.391,21.391,0,0,1,4.347-5.03m-7.453,22.4-1.706-.191a18.355,18.355,0,0,1-11.837-6.223,18.622,18.622,0,0,1-4.266-8.905l-1.187-6.577,11.346,1.523A15,15,0,0,1,69.3,51.878v.652a4.832,4.832,0,0,1-1.033,2.994,17.728,17.728,0,0,0-1.016-1.693q-.316-.457-.67-.915a19.812,19.812,0,0,0-9.177-6.556l-.8,2.324a17.362,17.362,0,0,1,8.041,5.743q.31.4.585.8a15.018,15.018,0,0,1,1.048,1.782A4.736,4.736,0,0,1,63.984,57.332ZM49.626,83.19a18.338,18.338,0,0,1,2.13-8.582l2.717,1.817a3.674,3.674,0,0,0,2.046.615H64.6a1.231,1.231,0,0,1,.87.36l2.945,2.953a1.228,1.228,0,0,1,.231,1.419l-.985,1.974a1.221,1.221,0,0,1-1.1.681H60.484a3.689,3.689,0,0,0-2.609,6.3,13.74,13.74,0,0,1,4.05,9.772v.065a18.463,18.463,0,0,1-12.3-17.372m18.449,18.449a18.453,18.453,0,0,1-3.69-.369V100.5a16.185,16.185,0,0,0-4.771-11.517,1.23,1.23,0,0,1,.87-2.1h6.07a3.673,3.673,0,0,0,3.3-2.039l.984-1.975a3.691,3.691,0,0,0-.691-4.26L67.2,75.662a3.661,3.661,0,0,0-2.6-1.081H56.519a1.221,1.221,0,0,1-.681-.207l-2.785-1.857a18.357,18.357,0,0,1,24.289-5.253L74.66,69.947A5.717,5.717,0,0,0,73,73.966v4.92A5.719,5.719,0,0,0,74.66,82.9l3.539,3.54a3.245,3.245,0,0,1,.945,2.28,5.72,5.72,0,0,0,1.666,4.019L82.6,94.531a18.414,18.414,0,0,1-14.522,7.108M84,92.458l-1.452-1.452a3.247,3.247,0,0,1-.945-2.28,5.724,5.724,0,0,0-1.665-4.02L76.4,81.166a3.251,3.251,0,0,1-.945-2.28v-4.92a3.249,3.249,0,0,1,.945-2.28l3.017-3.016A18.35,18.35,0,0,1,84,92.458" transform="translate(0.992 0.653)" fill="#a05504"/>
      </g>
    </g>
    <g id="Grupo_53837" data-name="Grupo 53837" transform="translate(728.577 862.869)">
      <g id="Grupo_53836" data-name="Grupo 53836" transform="translate(0)" clip-path="url(#clip-path-2)">
        <path id="Trazado_134431" data-name="Trazado 134431" d="M133.245,66.623A66.622,66.622,0,1,1,66.623,0a66.622,66.622,0,0,1,66.622,66.622" transform="translate(0 0)" fill="#f28705"/>
        <path id="Trazado_134432" data-name="Trazado 134432" d="M122.264,66.377A55.889,55.889,0,1,1,66.376,10.488a55.888,55.888,0,0,1,55.889,55.889" transform="translate(0.246 0.246)" fill="#fff"/>
        <path id="Trazado_134433" data-name="Trazado 134433" d="M79.106,76.913l-6.126-4.594V67.275a12.761,12.761,0,0,0,5.475-10.468V49a12.776,12.776,0,0,0,5.475-10.443v-7.3A1.824,1.824,0,0,0,82.1,29.435h-21.9A12.79,12.79,0,0,0,47.431,42.209v3.65a5.475,5.475,0,0,0,5.475,5.475v5.474A12.764,12.764,0,0,0,58.38,67.275v5.044l-6.125,4.594A12.774,12.774,0,0,0,40.133,89.654v7.3a5.474,5.474,0,0,0,5.475,5.475H85.753a5.475,5.475,0,0,0,5.475-5.475v-7.3A12.775,12.775,0,0,0,79.106,76.913M51.081,45.859v-3.65a9.136,9.136,0,0,1,9.124-9.124H80.279v5.475a9.1,9.1,0,0,1-2.338,6.06,1.811,1.811,0,0,0-.87-.531l-14.6-3.65a1.826,1.826,0,0,0-1.258.137l-7.3,3.65a1.826,1.826,0,0,0-1.009,1.633v1.825a1.826,1.826,0,0,1-1.825-1.825m5.475,10.948V46.985l5.686-2.842L74.8,47.283v9.523a9.124,9.124,0,1,1-18.248,0M61.3,74.691a1.826,1.826,0,0,0,.73-1.46v-4.2a12.629,12.629,0,0,0,7.3,0v4.2a1.826,1.826,0,0,0,.73,1.46L75.138,78.5,65.68,83.9l-9.458-5.4ZM87.578,96.953a1.824,1.824,0,0,1-1.825,1.825H45.608a1.824,1.824,0,0,1-1.825-1.825v-7.3a9.133,9.133,0,0,1,8.661-9.111l12.325,7.046a1.824,1.824,0,0,0,1.809,0L78.91,80.543a9.132,9.132,0,0,1,8.668,9.111Z" transform="translate(0.942 0.691)" fill="#a05504"/>
        <rect id="Rectángulo_5231" data-name="Rectángulo 5231" width="3.65" height="3.65" transform="translate(61.147 50.199)" fill="#a05504"/>
        <rect id="Rectángulo_5232" data-name="Rectángulo 5232" width="3.65" height="3.65" transform="translate(68.447 50.199)" fill="#a05504"/>
      </g>
    </g>
    <g id="Grupo_53839" data-name="Grupo 53839" transform="translate(1091.579 530.863)">
      <g id="Grupo_53838" data-name="Grupo 53838" clip-path="url(#clip-path-4)">
        <path id="Trazado_134434" data-name="Trazado 134434" d="M135.072,67.536A67.536,67.536,0,1,1,67.536,0a67.537,67.537,0,0,1,67.537,67.537" transform="translate(0 0)" fill="#f7b769"/>
        <path id="Trazado_134435" data-name="Trazado 134435" d="M123.942,67.286A56.656,56.656,0,1,1,67.287,10.631a56.656,56.656,0,0,1,56.655,56.655" transform="translate(0.25 0.25)" fill="#fff"/>
        <path id="Trazado_134436" data-name="Trazado 134436" d="M44.5,91.347H32.248v2.228H44.5a3.346,3.346,0,0,1,3.342,3.342,1.114,1.114,0,0,1-2.228,0V95.8H43.387v1.115a3.342,3.342,0,1,0,6.683,0,5.576,5.576,0,0,0-5.57-5.57" transform="translate(0.757 2.144)" fill="#a05504"/>
        <path id="Trazado_134437" data-name="Trazado 134437" d="M95.557,85.808l-1.575-1.575-3.015,3.015H89a3.337,3.337,0,0,0-2.023-2.022V83.254l3.016-3.015-1.575-1.575L86.973,80.1V76.11H84.745V80.1L83.3,78.664l-1.575,1.575,3.016,3.015v1.972a3.337,3.337,0,0,0-2.023,2.022H80.751l-3.015-3.015-1.575,1.575,1.44,1.44H73.606v2.228H77.6l-1.44,1.44,1.575,1.575,3.015-3.015h1.971A3.337,3.337,0,0,0,84.745,91.5v1.972l-3.016,3.015L83.3,98.061l1.441-1.44v3.995h2.227V96.621l1.441,1.44,1.575-1.575-3.016-3.015V91.5A3.337,3.337,0,0,0,89,89.477h1.971l3.015,3.015,1.575-1.575-1.44-1.44h3.995V87.248H94.117Zm-9.7,3.668a1.114,1.114,0,1,1,1.114-1.114,1.114,1.114,0,0,1-1.114,1.114" transform="translate(1.728 1.786)" fill="#a05504"/>
        <path id="Trazado_134438" data-name="Trazado 134438" d="M95.741,63.78a5.508,5.508,0,0,0-1.295.173,27.849,27.849,0,0,0-29.9-24.592,27.286,27.286,0,0,0-5.316.965l.44-3.969-3.839.427-1.077-3.71-3.384,1.864L48.956,31.92l-2.413,3.017-3.384-1.863-1.076,3.709-3.84-.427.427,3.84-3.711,1.076,1.865,3.385L33.807,47.07l3.017,2.414-1.865,3.385,3.711,1.076-.427,3.839,2.407-.267a27.34,27.34,0,0,0-1.643,7.512,27.668,27.668,0,0,0,5.5,18.8H32.248V86.06H48.956a5.576,5.576,0,0,0,5.57-5.57,3.342,3.342,0,0,0-6.683,0V81.6h2.228V80.49a1.114,1.114,0,1,1,2.227,0,3.345,3.345,0,0,1-3.342,3.342H47.367A25.436,25.436,0,0,1,41.19,66.009h2.129a1.826,1.826,0,0,1,1.774,1.385,4.046,4.046,0,0,0,3.933,3.07h.583a2.673,2.673,0,0,1,1.9.788,4.883,4.883,0,0,0,3.477,1.44h1.3a4.882,4.882,0,0,0,3.477-1.44,2.674,2.674,0,0,1,1.9-.788h1.306a.461.461,0,0,1,.461.462.468.468,0,0,1-.134.326L62,72.557a2.7,2.7,0,0,0-.788,1.9v4.648a2.245,2.245,0,0,1-.652,1.575l-2.5,2.5a4.483,4.483,0,0,0-1.306,3.15v1.958H32.248v2.228H57.867a3.345,3.345,0,0,1,3.342,3.342,1.114,1.114,0,1,1-2.227,0V92.742H56.754v1.114a3.334,3.334,0,0,0,6.553.874,27.146,27.146,0,0,0,11.582-.96l-.649-2.132a25.281,25.281,0,0,1-3.584.8l-.253-.5a2.728,2.728,0,0,1-.282-1.2,2.7,2.7,0,0,1,.589-1.675l2.792-3.49a4.913,4.913,0,0,0,.558-5.264l-1.5-3a2,2,0,0,1-.21-.89V73.632a4.208,4.208,0,0,0-.709-2.343l-1.184-1.776A1.992,1.992,0,0,1,70.7,67l4.824-4.825A4.35,4.35,0,0,0,74.4,55.2l-.949-.475a1.982,1.982,0,0,1-1.1-1.783v-.48a1.981,1.981,0,0,1,.336-1.106l1.184-1.776a4.224,4.224,0,0,0,.708-2.342V44.669a4.21,4.21,0,0,0-.594-2.138A25.635,25.635,0,0,1,91.667,61.019a7.78,7.78,0,0,0-12.008,3.043,5.568,5.568,0,1,0-1.741,10.857H95.74a5.57,5.57,0,0,0,0-11.139Zm-33.7-18.764,1.229,1.23a.6.6,0,0,1,.172.418v2.118a2.808,2.808,0,0,0,.475,1.565l1.418,2.13a1.991,1.991,0,0,1-.249,2.516l-.815.815a2.839,2.839,0,0,0-.829,2v1.008a2.825,2.825,0,0,0,.466,1.554l1.647,2.5a.592.592,0,0,1-.494.919h-.91a.592.592,0,0,1-.419-.173l-.818-.819a4.331,4.331,0,0,0-5.326-.527l-1.95,1.3a1.339,1.339,0,0,1-1.891-.5l-1.089-2.176a2.81,2.81,0,0,0-2.525-1.558H47.2a.59.59,0,0,1-.3-.085l-3.647-2.188a25.8,25.8,0,0,1,17.96-14.917v.887A2.831,2.831,0,0,0,62.036,45.015ZM43.386,47.07A5.563,5.563,0,0,1,52.8,43.054a28.245,28.245,0,0,0-8.27,7.4,5.559,5.559,0,0,1-1.148-3.386m-2.622,8.191.326-2.936L38.255,51.5l1.425-2.587-2.307-1.846,2.307-1.845-1.425-2.586,2.837-.823-.328-2.935,2.935.325.824-2.837,2.586,1.425,1.846-2.306L50.8,37.794l2.587-1.426.823,2.837,2.935-.325L56.9,41.1c-.694.266-1.38.551-2.047.871A7.795,7.795,0,1,0,43.227,52.352a27.729,27.729,0,0,0-1.573,2.811Zm31.25-11.7a1.988,1.988,0,0,1,.335,1.105v2.574a1.991,1.991,0,0,1-.335,1.106L70.83,50.125a4.214,4.214,0,0,0-.709,2.342v.48a4.2,4.2,0,0,0,2.335,3.776l.949.475a2.111,2.111,0,0,1,1.173,1.9,2.143,2.143,0,0,1-.622,1.5L69.13,65.423a4.223,4.223,0,0,0-.527,5.328l1.184,1.776a1.984,1.984,0,0,1,.334,1.1v2.781a4.244,4.244,0,0,0,.446,1.887l1.5,3a2.688,2.688,0,0,1-.3,2.877l-2.792,3.49a4.878,4.878,0,0,0-.659,5.028,25.9,25.9,0,0,1-5.062-.2A5.575,5.575,0,0,0,58.982,88.4v-2.07a2.247,2.247,0,0,1,.652-1.575l2.5-2.5a4.491,4.491,0,0,0,1.3-3.151V74.456a.464.464,0,0,1,.135-.326l1.3-1.3a2.688,2.688,0,0,0-1.9-4.589H61.671a4.883,4.883,0,0,0-3.477,1.44,2.673,2.673,0,0,1-1.9.787h-1.3a2.672,2.672,0,0,1-1.9-.787,4.883,4.883,0,0,0-3.477-1.44h-.583a1.827,1.827,0,0,1-1.774-1.385,4.047,4.047,0,0,0-3.933-3.071H41.4a25.08,25.08,0,0,1,1.047-4.612l3.3,1.982a2.826,2.826,0,0,0,1.451.4h2.927a.6.6,0,0,1,.531.328l1.088,2.175a3.533,3.533,0,0,0,5.12,1.359l1.949-1.3a2.047,2.047,0,0,1,2.516.249l.819.82a2.81,2.81,0,0,0,1.994.825h.909a2.823,2.823,0,0,0,2.355-4.376l-1.646-2.493a.586.586,0,0,1-.1-.324V57.8a.6.6,0,0,1,.175-.42l.816-.817a4.22,4.22,0,0,0,.526-5.327l-1.418-2.129a.586.586,0,0,1-.1-.329V46.665a2.837,2.837,0,0,0-.827-1.995l-1.228-1.23a.6.6,0,0,1-.172-.419V41.742c.427-.056.849-.126,1.281-.161a26.154,26.154,0,0,1,6.139.248ZM95.741,72.691H77.918a3.342,3.342,0,1,1,1.8-6.147l1.331.858.357-1.542a5.563,5.563,0,0,1,10.839,0l.357,1.542,1.331-.858a3.339,3.339,0,1,1,1.805,6.147" transform="translate(0.757 0.749)" fill="#a05504"/>
        <path id="Trazado_134439" data-name="Trazado 134439" d="M98.938,32.575A3.346,3.346,0,0,0,95.6,35.917a1.116,1.116,0,0,1-1.115,1.115,3.345,3.345,0,0,0-3.342,3.342v1.114A1.114,1.114,0,0,1,90.027,42.6h-.191a3.319,3.319,0,0,0-2.363.979L85.9,45.154l1.575,1.575,1.575-1.575a1.129,1.129,0,0,1,.788-.326h.191a3.346,3.346,0,0,0,3.342-3.342V40.373a1.116,1.116,0,0,1,1.115-1.115,3.346,3.346,0,0,0,3.342-3.342A1.114,1.114,0,0,1,98.938,34.8h1.114V32.575Z" transform="translate(2.016 0.765)" fill="#a05504"/>
        <path id="Trazado_134440" data-name="Trazado 134440" d="M94.246,50.165a3.481,3.481,0,0,0,3.477-3.477v-.633a1.242,1.242,0,0,1,.691-1.118l.921-.461-1-1.993-.921.461a3.457,3.457,0,0,0-1.922,3.11v.633a1.25,1.25,0,0,1-1.249,1.249,3.5,3.5,0,0,0-2.458,1.018l-1.536,1.536,1.575,1.575,1.536-1.536a1.258,1.258,0,0,1,.883-.365" transform="translate(2.118 0.997)" fill="#a05504"/>
        <path id="Trazado_134441" data-name="Trazado 134441" d="M83.566,40.724a3.452,3.452,0,0,0,1.018-2.458,1.25,1.25,0,0,1,1.249-1.249h.631a3.46,3.46,0,0,0,3.11-1.922l.461-.921-1.993-1-.461.921a1.243,1.243,0,0,1-1.118.691h-.631a3.482,3.482,0,0,0-3.477,3.478,1.239,1.239,0,0,1-.365.883l-1.536,1.536L82.03,42.26Z" transform="translate(1.888 0.779)" fill="#a05504"/>
      </g>
    </g>
    <g id="Grupo_53841" data-name="Grupo 53841" transform="translate(1091.579 689.912)">
      <g id="Grupo_53840" data-name="Grupo 53840" clip-path="url(#clip-path-4)">
        <path id="Trazado_134442" data-name="Trazado 134442" d="M135.072,67.536A67.536,67.536,0,1,1,67.536,0a67.537,67.537,0,0,1,67.537,67.537" transform="translate(0 0)" fill="#f7b769"/>
        <path id="Trazado_134443" data-name="Trazado 134443" d="M123.942,67.286A56.656,56.656,0,1,1,67.287,10.631a56.656,56.656,0,0,1,56.655,56.655" transform="translate(0.25 0.25)" fill="#fff"/>
        <path id="Trazado_134444" data-name="Trazado 134444" d="M47.823,51.274H47.8a12.052,12.052,0,0,1-9.1-4.188L32.362,50.8a.855.855,0,1,1-.864-1.476L51.354,37.688a4.243,4.243,0,0,1,4.205-3.729h.26A4.241,4.241,0,0,1,60.056,38.2v.7a12.351,12.351,0,0,1-3.671,8.793A12.06,12.06,0,0,1,47.823,51.274ZM40.2,46.2a10.342,10.342,0,0,0,7.6,3.36h.019a10.359,10.359,0,0,0,7.355-3.084A10.649,10.649,0,0,0,58.345,38.9v-.7A2.528,2.528,0,0,0,55.82,35.67h-.261A2.528,2.528,0,0,0,53.035,38.2a.857.857,0,0,1-.423.738Z" transform="translate(0.729 0.797)" fill="#a05504"/>
        <path id="Trazado_134445" data-name="Trazado 134445" d="M56.839,42.33a6.45,6.45,0,0,1-5.911-3.869.855.855,0,0,1,1.567-.685,4.739,4.739,0,0,0,4.344,2.843,4.39,4.39,0,0,0,1.382-.2.855.855,0,1,1,.517,1.629,6.09,6.09,0,0,1-1.9.285" transform="translate(1.194 0.875)" fill="#a05504"/>
        <path id="Trazado_134446" data-name="Trazado 134446" d="M42.982,47.815a9.911,9.911,0,0,1-4.65-1.159.855.855,0,0,1,.8-1.509A8.186,8.186,0,0,0,51.162,38.1a.855.855,0,0,1,1.71.036,9.892,9.892,0,0,1-9.89,9.679" transform="translate(0.889 0.875)" fill="#a05504"/>
        <path id="Trazado_134447" data-name="Trazado 134447" d="M60.655,39.609H58.575a.855.855,0,0,1,0-1.71h2.081a.855.855,0,0,1,0,1.71" transform="translate(1.355 0.889)" fill="#a05504"/>
        <path id="Trazado_134448" data-name="Trazado 134448" d="M47.558,55.008a.854.854,0,0,1-.76-.464l-2.211-4.29a.855.855,0,1,1,1.52-.784l2.211,4.291a.855.855,0,0,1-.759,1.247" transform="translate(1.044 1.15)" fill="#a05504"/>
        <path id="Trazado_134449" data-name="Trazado 134449" d="M51.2,55.1a.854.854,0,0,1-.76-.464l-2.211-4.29a.855.855,0,1,1,1.52-.784l2.211,4.291A.855.855,0,0,1,51.2,55.1" transform="translate(1.13 1.152)" fill="#a05504"/>
        <path id="Trazado_134450" data-name="Trazado 134450" d="M44.968,84.259h0l-9.753-.041a1.66,1.66,0,0,1-1.665-1.213c-.448-1.624-1.559-5.64-2.19-7.848a1.657,1.657,0,0,1,1.963-2.068c7.66,1.748,12.2,9.559,12.391,9.891a.856.856,0,0,1-.743,1.279Zm-9.775-1.751h0l8.179.035c-1.575-2.2-5.251-6.564-10.348-7.766.631,2.213,1.706,6.1,2.156,7.731Z" transform="translate(0.734 1.714)" fill="#a05504"/>
        <path id="Trazado_134451" data-name="Trazado 134451" d="M40.284,94.584H39A5.491,5.491,0,0,1,33.518,89.1v-1.28A5.492,5.492,0,0,1,39,82.331h5.912a.856.856,0,0,1,.855.856V89.1a5.492,5.492,0,0,1-5.486,5.486M39,84.041a3.78,3.78,0,0,0-3.777,3.777V89.1A3.78,3.78,0,0,0,39,92.874h1.28A3.781,3.781,0,0,0,44.061,89.1V84.041Z" transform="translate(0.787 1.932)" fill="#a05504"/>
        <path id="Trazado_134452" data-name="Trazado 134452" d="M48.034,84.259a.856.856,0,0,1-.742-1.279c.189-.332,4.73-8.143,12.39-9.891a1.656,1.656,0,0,1,1.963,2.068c-.628,2.2-1.741,6.221-2.189,7.848a1.656,1.656,0,0,1-1.666,1.212l-9.752.042Zm11.942-9.482c-5.109,1.206-8.78,5.567-10.35,7.765l8.181-.034h.013C58.269,80.875,59.346,76.981,59.975,74.777Z" transform="translate(1.107 1.714)" fill="#a05504"/>
        <path id="Trazado_134453" data-name="Trazado 134453" d="M53.945,94.584h-1.28A5.492,5.492,0,0,1,47.178,89.1V83.187a.856.856,0,0,1,.856-.856h5.912a5.493,5.493,0,0,1,5.486,5.487V89.1a5.492,5.492,0,0,1-5.486,5.486M48.888,84.041V89.1a3.78,3.78,0,0,0,3.777,3.777h1.28A3.781,3.781,0,0,0,57.722,89.1V87.818a3.781,3.781,0,0,0-3.777-3.777Z" transform="translate(1.107 1.932)" fill="#a05504"/>
        <path id="Trazado_134454" data-name="Trazado 134454" d="M46.393,94.865a.855.855,0,0,1-.844-.722l-1.7-10.686a2.574,2.574,0,1,1,5.085,0l-1.7,10.686a.855.855,0,0,1-.844.722m0-12.676a.864.864,0,0,0-.854,1l.854,5.372.854-5.372a.864.864,0,0,0-.854-1" transform="translate(1.028 1.889)" fill="#a05504"/>
        <path id="Trazado_134455" data-name="Trazado 134455" d="M45.607,82.5a.855.855,0,0,1-.855-.855,4.607,4.607,0,0,0-2.323-4,.855.855,0,1,1,.845-1.486,6.321,6.321,0,0,1,3.187,5.482.855.855,0,0,1-.855.856" transform="translate(0.986 1.785)" fill="#a05504"/>
        <path id="Trazado_134456" data-name="Trazado 134456" d="M46.9,82.39a.855.855,0,0,1-.855-.855,6.321,6.321,0,0,1,3.187-5.483.855.855,0,0,1,.845,1.487,4.607,4.607,0,0,0-2.323,4,.855.855,0,0,1-.855.855" transform="translate(1.081 1.782)" fill="#a05504"/>
        <path id="Trazado_134457" data-name="Trazado 134457" d="M83.575,57.145A11.875,11.875,0,0,1,72.283,48.99a.861.861,0,0,1,0-.537A11.894,11.894,0,0,1,92.628,44.48a7.282,7.282,0,0,1,7.548-3.143.855.855,0,0,1,.187.061l.488.226a.853.853,0,0,1,.4,1.172l-2.906,5.563,3.127,5.78a.855.855,0,0,1-.485,1.219,7.27,7.27,0,0,1-8.155-2.639,11.831,11.831,0,0,1-9.256,4.427M74,48.722A10.183,10.183,0,0,0,92.176,50.7a.855.855,0,0,1,1.5.1,5.566,5.566,0,0,0,5.759,3.168l-2.808-5.192a.854.854,0,0,1-.005-.8l2.635-5.045c-.18-.017-.361-.027-.542-.027a5.532,5.532,0,0,0-5.158,3.492.855.855,0,0,1-1.5.157A10.183,10.183,0,0,0,74,48.722" transform="translate(1.695 0.946)" fill="#a05504"/>
        <path id="Trazado_134458" data-name="Trazado 134458" d="M80.551,53.68a.855.855,0,0,1-.6-1.459,4.942,4.942,0,0,0,0-6.982.855.855,0,0,1,1.209-1.21,6.644,6.644,0,0,1,0,9.4.852.852,0,0,1-.6.25" transform="translate(1.87 1.027)" fill="#a05504"/>
        <path id="Trazado_134459" data-name="Trazado 134459" d="M77.477,47.329a.98.98,0,0,0,0,1.959.98.98,0,0,0,0-1.959" transform="translate(1.796 1.111)" fill="#a05504"/>
        <path id="Trazado_134460" data-name="Trazado 134460" d="M85.127,98.511a10.805,10.805,0,1,1,10.8-10.8,10.817,10.817,0,0,1-10.8,10.8m0-19.9a9.1,9.1,0,1,0,9.1,9.1,9.106,9.106,0,0,0-9.1-9.1" transform="translate(1.744 1.805)" fill="#a05504"/>
        <path id="Trazado_134461" data-name="Trazado 134461" d="M84.9,98.51a.855.855,0,0,1-.855-.855v-19.9a.855.855,0,1,1,1.709,0v19.9a.855.855,0,0,1-.855.855" transform="translate(1.973 1.805)" fill="#a05504"/>
        <path id="Trazado_134462" data-name="Trazado 134462" d="M79.838,80.2a.855.855,0,0,1-.855-.855V76.442a5.574,5.574,0,0,1,11.148,0v2.409a.855.855,0,0,1-1.71,0V76.442a3.864,3.864,0,0,0-7.728,0v2.908a.855.855,0,0,1-.855.855" transform="translate(1.854 1.663)" fill="#a05504"/>
        <path id="Trazado_134463" data-name="Trazado 134463" d="M81.365,73.636a.855.855,0,0,1-.855-.855,2.1,2.1,0,0,0-2.094-2.094.855.855,0,1,1,0-1.709,3.807,3.807,0,0,1,3.8,3.8.855.855,0,0,1-.855.855" transform="translate(1.82 1.619)" fill="#a05504"/>
        <path id="Trazado_134464" data-name="Trazado 134464" d="M87.6,73.636a.855.855,0,0,1-.855-.855,3.808,3.808,0,0,1,3.8-3.8.855.855,0,0,1,0,1.709,2.1,2.1,0,0,0-2.094,2.094.855.855,0,0,1-.855.855" transform="translate(2.036 1.619)" fill="#a05504"/>
        <path id="Trazado_134465" data-name="Trazado 134465" d="M74.946,97.941a.855.855,0,0,1-.855-.855,3.807,3.807,0,0,1,3.8-3.8.855.855,0,0,1,0,1.709A2.1,2.1,0,0,0,75.8,97.086a.855.855,0,0,1-.855.855" transform="translate(1.739 2.189)" fill="#a05504"/>
        <path id="Trazado_134466" data-name="Trazado 134466" d="M94.926,97.941a.855.855,0,0,1-.855-.855,2.1,2.1,0,0,0-2.094-2.094.855.855,0,1,1,0-1.709,3.807,3.807,0,0,1,3.8,3.8.855.855,0,0,1-.855.855" transform="translate(2.139 2.189)" fill="#a05504"/>
        <path id="Trazado_134467" data-name="Trazado 134467" d="M80,80.093a.845.845,0,0,1-.547-.2l-3.08-2.566H73a.855.855,0,0,1,0-1.709h3.686a.853.853,0,0,1,.547.2l3.317,2.764A.855.855,0,0,1,80,80.093" transform="translate(1.693 1.775)" fill="#a05504"/>
        <path id="Trazado_134468" data-name="Trazado 134468" d="M89.06,79.606a.855.855,0,0,1-.548-1.512l3.316-2.764a.858.858,0,0,1,.548-.2h3.686a.855.855,0,1,1,0,1.709H92.685l-3.079,2.566a.843.843,0,0,1-.547.2" transform="translate(2.07 1.763)" fill="#a05504"/>
        <path id="Trazado_134469" data-name="Trazado 134469" d="M75.318,87.251H71.757a.855.855,0,0,1,0-1.71h3.562a.855.855,0,0,1,0,1.71" transform="translate(1.664 2.008)" fill="#a05504"/>
        <path id="Trazado_134470" data-name="Trazado 134470" d="M97.386,87.251H94.562a.855.855,0,0,1,0-1.71h2.825a.855.855,0,0,1,0,1.71" transform="translate(2.199 2.008)" fill="#a05504"/>
        <path id="Trazado_134471" data-name="Trazado 134471" d="M78.451,87a3.158,3.158,0,1,1,3.158-3.158A3.162,3.162,0,0,1,78.451,87m0-4.607A1.448,1.448,0,1,0,79.9,83.838a1.45,1.45,0,0,0-1.448-1.448" transform="translate(1.767 1.894)" fill="#a05504"/>
        <path id="Trazado_134472" data-name="Trazado 134472" d="M80.364,96.579a3.158,3.158,0,1,1,3.158-3.158,3.162,3.162,0,0,1-3.158,3.158m0-4.607a1.448,1.448,0,1,0,1.448,1.448,1.45,1.45,0,0,0-1.448-1.448" transform="translate(1.812 2.118)" fill="#a05504"/>
        <path id="Trazado_134473" data-name="Trazado 134473" d="M91.334,86.786a3.158,3.158,0,1,1,3.158-3.158,3.162,3.162,0,0,1-3.158,3.158m0-4.607a1.448,1.448,0,1,0,1.448,1.448,1.45,1.45,0,0,0-1.448-1.448" transform="translate(2.069 1.889)" fill="#a05504"/>
        <path id="Trazado_134474" data-name="Trazado 134474" d="M89.567,96.564a3.158,3.158,0,1,1,3.158-3.158,3.162,3.162,0,0,1-3.158,3.158m0-4.607a1.448,1.448,0,1,0,1.448,1.448,1.45,1.45,0,0,0-1.448-1.448" transform="translate(2.028 2.118)" fill="#a05504"/>
      </g>
    </g>
    <g id="Grupo_53843" data-name="Grupo 53843" transform="translate(1179.928 861.042)">
      <g id="Grupo_53842" data-name="Grupo 53842" clip-path="url(#clip-path-4)">
        <path id="Trazado_134475" data-name="Trazado 134475" d="M135.072,67.536A67.536,67.536,0,1,1,67.536,0a67.537,67.537,0,0,1,67.537,67.537" transform="translate(0 0)" fill="#f7b769"/>
        <path id="Trazado_134476" data-name="Trazado 134476" d="M123.942,67.286A56.656,56.656,0,1,1,67.287,10.631a56.656,56.656,0,0,1,56.655,56.655" transform="translate(0.25 0.25)" fill="#fff"/>
        <path id="Trazado_134477" data-name="Trazado 134477" d="M35.51,100.2H30.736a1.089,1.089,0,1,0,0,2.179H35.51a1.089,1.089,0,1,0,0-2.179" transform="translate(0.696 2.352)" fill="#a05504"/>
        <path id="Trazado_134478" data-name="Trazado 134478" d="M91.455,90.164a1.09,1.09,0,1,0-1.579-1.5,32.1,32.1,0,0,1-3.819,3.427c-3.89-.1-5.135-1.877-6.449-3.755-1.244-1.775-2.652-3.786-6.148-3.786A17.617,17.617,0,0,0,66.172,86.4c-2.328,1-4.011,1.727-5.959.721-1.372-.709-2.2-3.18-3.073-5.795-1.439-4.3-3.229-9.654-8.822-9.654-3.43,0-3.662,2.482-3.815,4.125-.213,2.287-.416,4.452-6.493,4.6a31.445,31.445,0,0,1-2.331-6.816A10.637,10.637,0,0,0,42.811,67.8h4.066a1.089,1.089,0,1,0,0-2.179H30.736a1.089,1.089,0,1,0,0,2.179h2.041A34.016,34.016,0,0,0,91.455,90.164ZM34.957,67.8h5.361a8.481,8.481,0,0,1-5.034,3.628,32.285,32.285,0,0,1-.326-3.628M66.79,98.575a31.634,31.634,0,0,1-22.521-9.333,31.989,31.989,0,0,1-5.146-6.718c2.778-.2,4.725-.9,5.928-2.123A6.643,6.643,0,0,0,46.671,76c.169-1.807.246-2.148,1.646-2.148,3.744,0,5.105,3.233,6.755,8.166,1.019,3.047,1.982,5.926,4.141,7.04,2.863,1.479,5.271.442,7.82-.655a15.615,15.615,0,0,1,6.427-1.68c2.362,0,3.2,1.2,4.362,2.858,1.14,1.627,2.5,3.564,5.548,4.341a31.763,31.763,0,0,1-16.581,4.65Z" transform="translate(0.696 1.54)" fill="#a05504"/>
        <path id="Trazado_134479" data-name="Trazado 134479" d="M99.174,78.386A6.58,6.58,0,0,0,86.591,76.72a4.7,4.7,0,1,0-1.541,9.139h5.514a1.089,1.089,0,1,0,0-2.179H85.05a2.519,2.519,0,0,1,0-5.038,2.493,2.493,0,0,1,1.537.524,1.089,1.089,0,0,0,1.739-.67,4.4,4.4,0,0,1,8.729.782c0,.1,0,.207-.011.309a1.09,1.09,0,0,0,1.491,1.088,1.557,1.557,0,1,1,.575,3H95.589a1.089,1.089,0,1,0,0,2.179H99.11a3.736,3.736,0,0,0,.063-7.472Z" transform="translate(1.886 1.706)" fill="#a05504"/>
        <path id="Trazado_134480" data-name="Trazado 134480" d="M50.254,100.19H40.392a1.089,1.089,0,0,0,0,2.179h9.862a1.089,1.089,0,1,0,0-2.179" transform="translate(0.922 2.351)" fill="#a05504"/>
        <path id="Trazado_134481" data-name="Trazado 134481" d="M42.711,97.823a1.089,1.089,0,1,0,0-2.179H33.575a1.089,1.089,0,0,0,0,2.179Z" transform="translate(0.762 2.245)" fill="#a05504"/>
        <path id="Trazado_134482" data-name="Trazado 134482" d="M88.8,100.19H79.662a1.089,1.089,0,0,0,0,2.179H88.8a1.089,1.089,0,1,0,0-2.179" transform="translate(1.844 2.351)" fill="#a05504"/>
        <path id="Trazado_134483" data-name="Trazado 134483" d="M101.6,95.643H88.1a1.089,1.089,0,1,0,0,2.179h13.5a1.089,1.089,0,1,0,0-2.179" transform="translate(2.042 2.245)" fill="#a05504"/>
        <path id="Trazado_134484" data-name="Trazado 134484" d="M50.359,66.709a1.089,1.089,0,0,0,1.089,1.09h7.76c-.25,2.788.393,6.471,1.854,7.932,1.248,1.249,4.114,1.9,6.669,1.9a12.179,12.179,0,0,0,2.223-.189c2.117-.4,2.932-1.335,3.243-2.048.967-2.215-.888-5.275-3.039-7.6H98.137c-.036,1.05-.122,2.1-.258,3.13a1.09,1.09,0,0,0,.938,1.223,1.133,1.133,0,0,0,.143.009,1.09,1.09,0,0,0,1.08-.947c.148-1.126.242-2.27.277-3.415h2.143a1.089,1.089,0,0,0,0-2.179H51.448A1.088,1.088,0,0,0,50.359,66.709ZM61.394,67.8h5.63a16.774,16.774,0,0,1,3.311,3.773c.929,1.509,1.056,2.515.865,2.953-.1.235-.6.579-1.651.779-2.528.478-6.056-.222-6.946-1.113C61.77,73.357,61.115,70.227,61.394,67.8Z" transform="translate(1.182 1.54)" fill="#a05504"/>
        <path id="Trazado_134485" data-name="Trazado 134485" d="M36.2,63.937a1.09,1.09,0,0,0,1.09-1.09V55.478a3.269,3.269,0,1,1,6.538,0v7.369a1.089,1.089,0,1,0,2.179,0V55.478a3.269,3.269,0,1,1,6.539,0v7.369a1.089,1.089,0,1,0,2.179,0V55.478a3.269,3.269,0,1,1,6.538,0v7.369a1.09,1.09,0,1,0,2.18,0V55.478a3.269,3.269,0,1,1,6.538,0v7.369a1.089,1.089,0,1,0,2.179,0V55.478a3.269,3.269,0,1,1,6.538,0v7.369a1.09,1.09,0,1,0,2.18,0V55.478a3.269,3.269,0,1,1,6.538,0v7.369a1.089,1.089,0,1,0,2.179,0V55.478a3.269,3.269,0,1,1,6.538,0v7.369a1.09,1.09,0,1,0,2.18,0V55.478a5.448,5.448,0,0,0-2.6-4.646,3.632,3.632,0,1,0-5.688,0,5.49,5.49,0,0,0-1.515,1.38,5.472,5.472,0,0,0-1.514-1.38,3.632,3.632,0,1,0-5.689,0,5.471,5.471,0,0,0-1.514,1.38,5.475,5.475,0,0,0-1.515-1.38,3.632,3.632,0,1,0-5.688,0,5.49,5.49,0,0,0-1.515,1.38,5.471,5.471,0,0,0-1.514-1.38,3.632,3.632,0,1,0-5.689,0,5.471,5.471,0,0,0-1.514,1.38,5.475,5.475,0,0,0-1.515-1.38,3.632,3.632,0,1,0-5.688,0,5.49,5.49,0,0,0-1.515,1.38,5.471,5.471,0,0,0-1.514-1.38,3.632,3.632,0,1,0-5.689,0,5.471,5.471,0,0,0-1.514,1.38,5.49,5.49,0,0,0-1.515-1.38,3.632,3.632,0,1,0-5.688,0,5.45,5.45,0,0,0-2.6,4.646v7.369a1.089,1.089,0,0,0,1.089,1.09M92.864,47.122a1.453,1.453,0,1,1-1.452,1.453,1.455,1.455,0,0,1,1.452-1.453m-8.717,0a1.453,1.453,0,1,1-1.453,1.453,1.455,1.455,0,0,1,1.453-1.453m-8.718,0a1.453,1.453,0,1,1-1.452,1.453,1.455,1.455,0,0,1,1.452-1.453m-8.717,0a1.453,1.453,0,1,1-1.453,1.453,1.455,1.455,0,0,1,1.453-1.453m-8.718,0a1.453,1.453,0,1,1-1.453,1.453,1.455,1.455,0,0,1,1.453-1.453m-8.717,0a1.453,1.453,0,1,1-1.453,1.453,1.455,1.455,0,0,1,1.453-1.453m-8.718,0a1.453,1.453,0,1,1-1.453,1.453,1.455,1.455,0,0,1,1.453-1.453" transform="translate(0.824 1.055)" fill="#a05504"/>
        <path id="Trazado_134486" data-name="Trazado 134486" d="M40.46,43.118a1.09,1.09,0,0,0,1.09-1.09V40.181a3.269,3.269,0,1,1,6.538,0v1.847a1.089,1.089,0,1,0,2.179,0V40.181a3.269,3.269,0,1,1,6.539,0v1.847a1.089,1.089,0,1,0,2.179,0V40.181a3.269,3.269,0,1,1,6.538,0v1.847a1.09,1.09,0,0,0,2.18,0V40.181a3.269,3.269,0,1,1,6.538,0v1.847a1.089,1.089,0,1,0,2.179,0V40.181a3.269,3.269,0,1,1,6.538,0v1.847a1.09,1.09,0,0,0,2.18,0V40.181a3.269,3.269,0,1,1,6.538,0v1.847a1.089,1.089,0,1,0,2.179,0V40.181a5.45,5.45,0,0,0-2.6-4.646,3.632,3.632,0,1,0-5.689,0,5.471,5.471,0,0,0-1.514,1.38,5.475,5.475,0,0,0-1.515-1.38,3.632,3.632,0,1,0-5.688,0,5.49,5.49,0,0,0-1.515,1.38,5.471,5.471,0,0,0-1.514-1.38,3.632,3.632,0,1,0-5.689,0,5.471,5.471,0,0,0-1.514,1.38,5.475,5.475,0,0,0-1.515-1.38,3.632,3.632,0,1,0-5.688,0,5.49,5.49,0,0,0-1.515,1.38,5.471,5.471,0,0,0-1.514-1.38,3.632,3.632,0,1,0-5.689,0,5.471,5.471,0,0,0-1.514,1.38,5.49,5.49,0,0,0-1.515-1.38,3.632,3.632,0,1,0-5.688,0,5.449,5.449,0,0,0-2.6,4.646v1.847a1.089,1.089,0,0,0,1.089,1.09M88.406,31.825a1.453,1.453,0,1,1-1.453,1.453,1.455,1.455,0,0,1,1.453-1.453m-8.718,0a1.453,1.453,0,1,1-1.452,1.453,1.455,1.455,0,0,1,1.452-1.453m-8.717,0a1.453,1.453,0,1,1-1.453,1.453,1.455,1.455,0,0,1,1.453-1.453m-8.718,0A1.453,1.453,0,1,1,60.8,33.278a1.455,1.455,0,0,1,1.453-1.453m-8.717,0a1.453,1.453,0,1,1-1.453,1.453,1.455,1.455,0,0,1,1.453-1.453m-8.718,0a1.453,1.453,0,1,1-1.453,1.453,1.455,1.455,0,0,1,1.453-1.453" transform="translate(0.924 0.696)" fill="#a05504"/>
      </g>
    </g>
  </g>
</svg>
