<svg id="Grupo_54445" data-name="Grupo 54445" xmlns="http://www.w3.org/2000/svg" xmlns:xlink="http://www.w3.org/1999/xlink" width="547.184" height="258.608" viewBox="0 0 547.184 258.608">
  <defs>
    <clipPath id="clip-path">
      <rect id="Rectángulo_5601" data-name="Rectángulo 5601" width="547.184" height="258.608" fill="none"/>
    </clipPath>
    <clipPath id="clip-path-3">
      <rect id="Rectángulo_5521" data-name="Rectángulo 5521" width="177.114" height="211.297" transform="translate(154.501 46.755)" fill="none"/>
    </clipPath>
    <clipPath id="clip-path-4">
      <rect id="Rectángulo_5580" data-name="Rectángulo 5580" width="9.744" height="2.724" transform="translate(49.799 193.423)" fill="none"/>
    </clipPath>
    <clipPath id="clip-path-5">
      <rect id="Rectángulo_5581" data-name="Rectángulo 5581" width="20.997" height="9.206" transform="translate(35.593 180.496)" fill="none"/>
    </clipPath>
  </defs>
  <g id="Grupo_54456" data-name="Grupo 54456" clip-path="url(#clip-path)">
    <g id="Grupo_54455" data-name="Grupo 54455">
      <g id="Grupo_54454" data-name="Grupo 54454" clip-path="url(#clip-path)">
        <path id="Trazado_147285" data-name="Trazado 147285" d="M539.52,241.6c-.075.23-.153.46-.23.692q-1,2.946-2.212,5.98-.168.423-.342.846-1.472,3.613-3.253,7.358l0,0c-.013.029-.027.06-.042.089l-504.815.686c.118-2.019-46.107-67.283,2.262-130.8S135.809,97.164,147.413,52.471a68.176,68.176,0,0,1,11.72-24.57q.411-.544.84-1.074,1.089-1.365,2.241-2.651c.214-.239.427-.475.643-.71a63.472,63.472,0,0,1,6.222-5.881c.439-.363.883-.722,1.333-1.072h0c26.872-21.025,69.108-20.127,99.28-7.624,40.07,16.6,113.409-12.257,176.075,8.832q1.559.523,3.106,1.091h0q3.256,1.188,6.465,2.569a67.727,67.727,0,0,1,12.288,6.8c.506.356,1,.719,1.486,1.084h.005c43.411,32.754,4.818,101.43,27.24,112.049,14.069,6.664,34.839,21.626,43.823,45.919q.171.463.335.929.185.519.359,1.04c.106.313.209.629.309.944,4.53,14.11,5.077,31.2-1.667,51.458" fill="#048c66" opacity="0.53"/>
        <g id="Grupo_54447" data-name="Grupo 54447" opacity="0.4">
          <g id="Grupo_54446" data-name="Grupo 54446">
            <g id="Grupo_54445-2" data-name="Grupo 54445" clip-path="url(#clip-path-3)">
              <rect id="Rectángulo_5492" data-name="Rectángulo 5492" width="39.041" height="32.192" transform="translate(248.701 46.755)" fill="#7fd2ba"/>
              <rect id="Rectángulo_5493" data-name="Rectángulo 5493" width="39.041" height="32.192" transform="translate(268.221 46.755)" fill="#86ccb5"/>
              <path id="Trazado_147286" data-name="Trazado 147286" d="M248.723,70.783h6.186l-.545-1.741.545-1.244h-6.186Z" fill="#6bcaa9"/>
              <path id="Trazado_147287" data-name="Trazado 147287" d="M268.221,56.717h6.186l-.545-1.741.545-1.244h-6.186Z" fill="#8fd2b9"/>
              <path id="Trazado_147288" data-name="Trazado 147288" d="M268.221,53.732h-6.186l.544,1.741-.544,1.244h6.186Z" fill="#6bcaa9"/>
              <path id="Trazado_147289" data-name="Trazado 147289" d="M307.263,71.128h-6.186l.544,1.741-.544,1.244h6.186Z" fill="#8fd2b9"/>
              <rect id="Rectángulo_5494" data-name="Rectángulo 5494" width="11.235" height="4.371" transform="translate(293.471 48.937)" fill="#fff"/>
              <rect id="Rectángulo_5495" data-name="Rectángulo 5495" width="39.041" height="32.192" transform="translate(179.754 46.755)" fill="#7fd2ba"/>
              <rect id="Rectángulo_5496" data-name="Rectángulo 5496" width="39.041" height="32.192" transform="translate(199.275 46.755)" fill="#86ccb5"/>
              <path id="Trazado_147290" data-name="Trazado 147290" d="M179.777,70.783h6.186l-.545-1.741.545-1.244h-6.186Z" fill="#6bcaa9"/>
              <path id="Trazado_147291" data-name="Trazado 147291" d="M199.275,56.717h6.186l-.545-1.741.545-1.244h-6.186Z" fill="#8fd2b9"/>
              <path id="Trazado_147292" data-name="Trazado 147292" d="M199.275,53.732h-6.186l.545,1.741-.545,1.244h6.186Z" fill="#6bcaa9"/>
              <path id="Trazado_147293" data-name="Trazado 147293" d="M238.317,71.128h-6.186l.545,1.741-.545,1.244h6.186Z" fill="#8fd2b9"/>
              <rect id="Rectángulo_5497" data-name="Rectángulo 5497" width="11.235" height="4.371" transform="translate(224.525 48.937)" fill="#fff"/>
              <rect id="Rectángulo_5498" data-name="Rectángulo 5498" width="15.016" height="179.106" transform="translate(154.501 78.946)" fill="#7fd2ba"/>
              <rect id="Rectángulo_5499" data-name="Rectángulo 5499" width="12.482" height="179.106" transform="translate(319.133 78.946)" fill="#7fd2ba"/>
              <rect id="Rectángulo_5500" data-name="Rectángulo 5500" width="162.099" height="4.661" transform="translate(169.516 78.947)" fill="#7fd2ba"/>
              <rect id="Rectángulo_5501" data-name="Rectángulo 5501" width="162.099" height="4.661" transform="translate(169.516 163.838)" fill="#7fd2ba"/>
              <rect id="Rectángulo_5502" data-name="Rectángulo 5502" width="162.099" height="4.661" transform="translate(169.516 235.038)" fill="#7fd2ba"/>
              <rect id="Rectángulo_5503" data-name="Rectángulo 5503" width="40.363" height="33.282" transform="translate(251.404 130.556)" fill="#6fc3a6"/>
              <rect id="Rectángulo_5504" data-name="Rectángulo 5504" width="40.363" height="33.282" transform="translate(271.586 130.556)" fill="#86ccb5"/>
              <path id="Trazado_147294" data-name="Trazado 147294" d="M251.428,155.4h6.4l-.563-1.8.563-1.286h-6.4Z" fill="#6bcaa9"/>
              <path id="Trazado_147295" data-name="Trazado 147295" d="M271.586,140.856h6.4l-.563-1.8.563-1.286h-6.4Z" fill="#8fd2b9"/>
              <path id="Trazado_147296" data-name="Trazado 147296" d="M271.586,137.77h-6.4l.563,1.8-.563,1.286h6.4Z" fill="#6bcaa9"/>
              <path id="Trazado_147297" data-name="Trazado 147297" d="M311.95,155.755h-6.4l.563,1.8-.563,1.286h6.4Z" fill="#8fd2b9"/>
              <rect id="Rectángulo_5505" data-name="Rectángulo 5505" width="11.615" height="4.519" transform="translate(297.692 132.812)" fill="#fff"/>
              <rect id="Rectángulo_5506" data-name="Rectángulo 5506" width="40.364" height="33.282" transform="translate(199.605 130.556)" fill="#7fd2ba"/>
              <rect id="Rectángulo_5507" data-name="Rectángulo 5507" width="40.363" height="33.282" transform="translate(219.787 130.556)" fill="#86ccb5"/>
              <path id="Trazado_147298" data-name="Trazado 147298" d="M199.628,155.4h6.4l-.563-1.8.563-1.286h-6.4Z" fill="#6bcaa9"/>
              <path id="Trazado_147299" data-name="Trazado 147299" d="M219.787,140.856h6.4l-.563-1.8.563-1.286h-6.4Z" fill="#8fd2b9"/>
              <path id="Trazado_147300" data-name="Trazado 147300" d="M219.787,137.77h-6.4l.563,1.8-.563,1.286h6.4Z" fill="#6bcaa9"/>
              <path id="Trazado_147301" data-name="Trazado 147301" d="M260.151,155.755h-6.4l.563,1.8-.563,1.286h6.4Z" fill="#8fd2b9"/>
              <path id="Trazado_147302" data-name="Trazado 147302" d="M260.151,137.331h-6.4l.563,1.8-.563,1.286h6.4Z" fill="#8fd2b9"/>
              <rect id="Rectángulo_5508" data-name="Rectángulo 5508" width="18.932" height="7.365" transform="translate(223.863 152.908)" fill="#fff"/>
              <rect id="Rectángulo_5509" data-name="Rectángulo 5509" width="34.887" height="28.766" transform="translate(251.404 206.164)" fill="#7fd2ba"/>
              <rect id="Rectángulo_5510" data-name="Rectángulo 5510" width="34.887" height="28.766" transform="translate(268.847 206.164)" fill="#86ccb5"/>
              <path id="Trazado_147303" data-name="Trazado 147303" d="M251.424,227.635h5.528l-.487-1.556.487-1.111h-5.528Z" fill="#6bcaa9"/>
              <path id="Trazado_147304" data-name="Trazado 147304" d="M268.848,215.066h5.528l-.487-1.556.487-1.111h-5.528Z" fill="#8fd2b9"/>
              <path id="Trazado_147305" data-name="Trazado 147305" d="M268.848,212.4h-5.528l.487,1.556-.487,1.111h5.528Z" fill="#6bcaa9"/>
              <path id="Trazado_147306" data-name="Trazado 147306" d="M303.735,227.944h-5.528l.487,1.556-.487,1.111h5.528Z" fill="#8fd2b9"/>
              <rect id="Rectángulo_5511" data-name="Rectángulo 5511" width="10.039" height="3.906" transform="translate(291.411 208.114)" fill="#fff"/>
              <rect id="Rectángulo_5512" data-name="Rectángulo 5512" width="40.364" height="33.282" transform="translate(185.147 201.648)" fill="#7fd2ba"/>
              <rect id="Rectángulo_5513" data-name="Rectángulo 5513" width="40.364" height="33.282" transform="translate(205.328 201.648)" fill="#86ccb5"/>
              <path id="Trazado_147307" data-name="Trazado 147307" d="M185.17,226.49h6.4l-.563-1.8.563-1.286h-6.4Z" fill="#1c6d59"/>
              <path id="Trazado_147308" data-name="Trazado 147308" d="M205.328,211.948h6.4l-.563-1.8.563-1.286h-6.4Z" fill="#439878"/>
              <path id="Trazado_147309" data-name="Trazado 147309" d="M205.328,208.862h-6.4l.563,1.8-.563,1.286h6.4Z" fill="#1c6d59"/>
              <path id="Trazado_147310" data-name="Trazado 147310" d="M245.693,226.847h-6.4l.563,1.8-.563,1.286h6.4Z" fill="#439878"/>
              <rect id="Rectángulo_5514" data-name="Rectángulo 5514" width="11.615" height="4.519" transform="translate(231.434 203.904)" fill="#fff"/>
              <rect id="Rectángulo_5515" data-name="Rectángulo 5515" width="30.858" height="25.444" transform="translate(196.508 104.959)" fill="#7fd2ba"/>
              <rect id="Rectángulo_5516" data-name="Rectángulo 5516" width="30.858" height="25.444" transform="translate(211.936 104.959)" fill="#86ccb5"/>
              <path id="Trazado_147311" data-name="Trazado 147311" d="M196.525,123.95h4.89l-.431-1.376.431-.983h-4.89Z" fill="#6bcaa9"/>
              <path id="Trazado_147312" data-name="Trazado 147312" d="M211.936,112.833h4.89l-.431-1.376.431-.983h-4.89Z" fill="#8fd2b9"/>
              <path id="Trazado_147313" data-name="Trazado 147313" d="M211.936,110.474h-4.89l.431,1.376-.431.983h4.89Z" fill="#6bcaa9"/>
              <path id="Trazado_147314" data-name="Trazado 147314" d="M242.795,124.224H237.9l.431,1.376-.431.983h4.89Z" fill="#8fd2b9"/>
              <rect id="Rectángulo_5517" data-name="Rectángulo 5517" width="8.88" height="3.455" transform="translate(231.894 106.684)" fill="#fff"/>
              <rect id="Rectángulo_5518" data-name="Rectángulo 5518" width="30.858" height="25.444" transform="translate(251.64 104.959)" fill="#7fd2ba"/>
              <rect id="Rectángulo_5519" data-name="Rectángulo 5519" width="30.858" height="25.444" transform="translate(267.069 104.959)" fill="#86ccb5"/>
              <path id="Trazado_147315" data-name="Trazado 147315" d="M251.658,123.95h4.89l-.431-1.376.431-.983h-4.89Z" fill="#6bcaa9"/>
              <path id="Trazado_147316" data-name="Trazado 147316" d="M267.069,112.833h4.89l-.431-1.376.431-.983h-4.89Z" fill="#8fd2b9"/>
              <path id="Trazado_147317" data-name="Trazado 147317" d="M267.069,110.474h-4.89l.431,1.376-.431.983h4.89Z" fill="#6bcaa9"/>
              <path id="Trazado_147318" data-name="Trazado 147318" d="M297.928,124.224h-4.89l.431,1.376-.431.983h4.89Z" fill="#8fd2b9"/>
              <rect id="Rectángulo_5520" data-name="Rectángulo 5520" width="8.88" height="3.455" transform="translate(287.026 106.684)" fill="#fff"/>
            </g>
          </g>
        </g>
        <path id="Trazado_147319" data-name="Trazado 147319" d="M498.774,208.311l-.768-.226c2.029-6.894-1.652-14.072-8.206-16l-16.508-4.858a6.6,6.6,0,0,1-4.255-8.295c3.4-11.553-2.769-23.58-13.751-26.812l.238-.807c11.4,3.356,17.811,15.847,14.281,27.845a5.78,5.78,0,0,0,3.724,7.261l16.508,4.858c6.977,2.053,10.9,9.694,8.737,17.034" fill="#4c8f74"/>
        <path id="Trazado_147320" data-name="Trazado 147320" d="M497.107,213.977l-.768-.226c2.029-6.894-1.652-14.072-8.206-16l-16.508-4.857a6.6,6.6,0,0,1-4.255-8.295c3.4-11.553-2.769-23.581-13.751-26.813l.238-.807c11.4,3.356,17.812,15.848,14.281,27.845a5.781,5.781,0,0,0,3.725,7.262l16.508,4.858c6.977,2.053,10.9,9.694,8.736,17.034" fill="#4c8f74"/>
        <rect id="Rectángulo_5522" data-name="Rectángulo 5522" width="34.758" height="28.66" transform="translate(376.589 130.277)" fill="#f2b705"/>
        <rect id="Rectángulo_5523" data-name="Rectángulo 5523" width="34.758" height="28.66" transform="translate(359.21 130.277)" fill="#f7d469"/>
        <path id="Trazado_147321" data-name="Trazado 147321" d="M411.326,151.668h-5.508l.485-1.55-.485-1.107h5.508Z" fill="#d39305"/>
        <path id="Trazado_147322" data-name="Trazado 147322" d="M393.968,139.146H388.46l.486-1.55-.486-1.107h5.508Z" fill="#f2b705"/>
        <path id="Trazado_147323" data-name="Trazado 147323" d="M393.968,136.489h5.508l-.485,1.55.485,1.107h-5.508Z" fill="#d39305"/>
        <path id="Trazado_147324" data-name="Trazado 147324" d="M359.209,151.976h5.508l-.486,1.55.486,1.107h-5.508Z" fill="#f2b705"/>
        <rect id="Rectángulo_5524" data-name="Rectángulo 5524" width="10.002" height="3.891" transform="translate(361.486 132.22)" fill="#fff"/>
        <path id="Trazado_147325" data-name="Trazado 147325" d="M412.594,52.342c-4.984,0-10.21-.791-13.11-2.464-4.614-2.663-10.466-1.534-10.525-1.522l-.142-.707c.25-.051,6.174-1.2,11.028,1.6,4.784,2.76,16.671,3.005,22.052,1.173,5.3-1.8,12.339-3.746,15.267-3.746V47.4c-2.846,0-9.788,1.922-15.035,3.708a31.839,31.839,0,0,1-9.535,1.233" fill="#4c8f74"/>
        <rect id="Rectángulo_5525" data-name="Rectángulo 5525" width="2.28" height="14.87" transform="translate(381.667 103.86)" fill="#4c8f74"/>
        <rect id="Rectángulo_5526" data-name="Rectángulo 5526" width="2.28" height="14.87" transform="translate(386.18 103.86)" fill="#4c8f74"/>
        <path id="Trazado_147326" data-name="Trazado 147326" d="M412.594,50.741c-4.984,0-10.21-.791-13.11-2.464-4.614-2.663-10.466-1.534-10.525-1.522l-.142-.707c.25-.051,6.174-1.2,11.028,1.6,4.784,2.76,16.671,3.005,22.052,1.173,5.3-1.8,12.339-3.746,15.267-3.746V45.8c-2.846,0-9.788,1.922-15.035,3.708a31.839,31.839,0,0,1-9.535,1.233" fill="#4c8f74"/>
        <path id="Trazado_147327" data-name="Trazado 147327" d="M460.6,137.658h-.947v-.721h.947a7.959,7.959,0,0,0,7.95-7.95V46.693a7.959,7.959,0,0,0-7.95-7.95H453.58v-.721H460.6a8.68,8.68,0,0,1,8.671,8.671v82.294a8.681,8.681,0,0,1-8.671,8.671" fill="#4c8f74"/>
        <path id="Trazado_147328" data-name="Trazado 147328" d="M459.652,130.69v-.722a5.535,5.535,0,0,0,5.529-5.529v-76.5a5.368,5.368,0,0,0-5.362-5.362h-5.562V41.86h5.562a6.09,6.09,0,0,1,6.084,6.083v76.5a6.258,6.258,0,0,1-6.251,6.251" fill="#4c8f74"/>
        <path id="Trazado_147329" data-name="Trazado 147329" d="M384.746,107.161h0a14.919,14.919,0,0,1-14.92-14.919v-24.3a14.92,14.92,0,1,1,29.839,0v24.3a14.919,14.919,0,0,1-14.919,14.92" fill="#c4efde"/>
        <path id="Trazado_147330" data-name="Trazado 147330" d="M375.409,60.723a2.6,2.6,0,1,1,2.6,2.6,2.6,2.6,0,0,1-2.6-2.6" fill="#ebfff7"/>
        <path id="Trazado_147331" data-name="Trazado 147331" d="M375.409,97.747a2.6,2.6,0,1,1,2.6,2.6,2.6,2.6,0,0,1-2.6-2.6" fill="#ebfff7"/>
        <path id="Trazado_147332" data-name="Trazado 147332" d="M388.888,60.723a2.6,2.6,0,1,1,2.6,2.6,2.6,2.6,0,0,1-2.6-2.6" fill="#ebfff7"/>
        <path id="Trazado_147333" data-name="Trazado 147333" d="M388.888,97.747a2.6,2.6,0,1,1,2.6,2.6,2.6,2.6,0,0,1-2.6-2.6" fill="#ebfff7"/>
        <path id="Trazado_147334" data-name="Trazado 147334" d="M395.828,121.283a3.754,3.754,0,0,1-.341,1.548H375.093a3.771,3.771,0,0,1-.341-1.548c0-3.379,4.72-6.119,10.538-6.119s10.538,2.74,10.538,6.119" fill="#f2b705"/>
        <path id="Trazado_147335" data-name="Trazado 147335" d="M413.491,128.259v27.715a6.762,6.762,0,0,1-2.922,5.566l-8.453,5.829a1.332,1.332,0,0,1-1.853-.34h0a1.333,1.333,0,0,1,.341-1.853l8.452-5.829a4.1,4.1,0,0,0,1.77-3.372V128.259a5.428,5.428,0,0,0-5.428-5.428H365.185a5.428,5.428,0,0,0-5.428,5.428v27.557a4.069,4.069,0,0,0,1.926,3.472l9.443,5.9a1.332,1.332,0,1,1-1.412,2.259l-9.444-5.9a6.722,6.722,0,0,1-3.179-5.734V128.259a8.094,8.094,0,0,1,8.094-8.094H405.4a8.094,8.094,0,0,1,8.094,8.094" fill="#4c8f74"/>
        <rect id="Rectángulo_5527" data-name="Rectángulo 5527" width="55.41" height="1.667" transform="translate(383.939 36.355)" fill="#4c8f74"/>
        <rect id="Rectángulo_5528" data-name="Rectángulo 5528" width="55.41" height="1.667" transform="translate(383.939 41.026)" fill="#4c8f74"/>
        <path id="Trazado_147336" data-name="Trazado 147336" d="M391.931,53.019H375.409V41.428a8.53,8.53,0,1,1,17.06,0V52.481a.538.538,0,0,1-.538.538" fill="#f2b705"/>
        <path id="Trazado_147337" data-name="Trazado 147337" d="M446.376,32.9h0a11.384,11.384,0,0,0-11.384,11.384V186.154a11.384,11.384,0,0,0,22.768,0V44.282A11.384,11.384,0,0,0,446.376,32.9" fill="#c3eedd"/>
        <path id="Trazado_147338" data-name="Trazado 147338" d="M445.052,40.9a1.324,1.324,0,1,1,1.324,1.324,1.324,1.324,0,0,1-1.324-1.324" fill="#4c8f74"/>
        <path id="Trazado_147339" data-name="Trazado 147339" d="M445.963,165.917h0a13.69,13.69,0,0,1-13.69-13.69V69.785a13.689,13.689,0,1,1,27.379,0v82.444a13.689,13.689,0,0,1-13.689,13.689" fill="#b4e7d0"/>
        <path id="Trazado_147340" data-name="Trazado 147340" d="M461.244,205.86h-19.73a9.241,9.241,0,0,1,0-18.482H452a9.24,9.24,0,0,1,9.241,9.24Z" fill="#b4e7d0"/>
        <path id="Trazado_147341" data-name="Trazado 147341" d="M378.9,41.026a5.043,5.043,0,1,1,5.043,5.043,5.043,5.043,0,0,1-5.043-5.043" fill="#d39305"/>
        <path id="Trazado_147342" data-name="Trazado 147342" d="M383.939,46.226a5.2,5.2,0,1,1,5.2-5.2,5.205,5.205,0,0,1-5.2,5.2m0-10.086a4.886,4.886,0,1,0,4.886,4.886,4.892,4.892,0,0,0-4.886-4.886" fill="#d39305"/>
        <path id="Trazado_147343" data-name="Trazado 147343" d="M380.861,41.026a3.078,3.078,0,1,1,3.078,3.078,3.078,3.078,0,0,1-3.078-3.078" fill="#f5c537"/>
        <rect id="Rectángulo_5529" data-name="Rectángulo 5529" width="21.67" height="17.868" transform="translate(496.238 188.739) rotate(-24.441)" fill="#dbffed"/>
        <rect id="Rectángulo_5530" data-name="Rectángulo 5530" width="21.67" height="17.868" transform="translate(506.103 184.256) rotate(-24.441)" fill="#e3f9ed"/>
        <path id="Trazado_147344" data-name="Trazado 147344" d="M508.391,189.29l3.126-1.421-.675-.754-.01-.754-3.126,1.421Z" fill="#89c5a2"/>
        <path id="Trazado_147345" data-name="Trazado 147345" d="M507.705,187.782l-3.126,1.421.675.754.01.754,3.126-1.421Z" fill="#4b9a76"/>
        <path id="Trazado_147346" data-name="Trazado 147346" d="M531.429,187.607l-3.126,1.421.675.754.01.754,3.126-1.421Z" fill="#89c5a2"/>
        <rect id="Rectángulo_5531" data-name="Rectángulo 5531" width="6.236" height="2.426" transform="translate(519.363 179.56) rotate(-24.44)" fill="#fff"/>
        <path id="Trazado_147347" data-name="Trazado 147347" d="M539.52,241.6c-.075.23-.153.46-.23.692q-1,2.946-2.212,5.98-.168.423-.342.846-1.472,3.613-3.253,7.358H506.955l-1.519-14.184-.075-.692-.058-.543-3.775-35.2-.029-.272,1.994-.889,9.892-4.42,9.893-4.42,9.892-4.418,7.349-3.282q.185.519.359,1.04c.106.313.209.629.309.944,4.53,14.11,5.077,31.2-1.667,51.458" fill="#4c8f74"/>
        <path id="Trazado_147348" data-name="Trazado 147348" d="M539.52,241.6c-.075.23-.153.46-.23.692h-31.2l-.068-.692-.054-.543-3.408-34.493,1.573-.705,35.059-15.717c4.53,14.11,5.077,31.2-1.667,51.458" fill="#e5fff3"/>
        <path id="Trazado_147349" data-name="Trazado 147349" d="M508.086,242.293H241.064a18.216,18.216,0,0,1,0-36.432H508.086a18.216,18.216,0,1,1,0,36.432" fill="#bff4e5"/>
        <path id="Trazado_147350" data-name="Trazado 147350" d="M526.3,224.075a18.215,18.215,0,0,1-18.216,18.218H462.81a1.757,1.757,0,0,1-1.757-1.757V207.617a1.757,1.757,0,0,1,1.757-1.758h45.276A18.217,18.217,0,0,1,526.3,224.075" fill="#c4f4e5"/>
        <path id="Trazado_147351" data-name="Trazado 147351" d="M539.52,241.6c-.075.23-.153.46-.23.692q-1,2.946-2.212,5.98-.168.423-.342.846-1.472,3.613-3.253,7.358l0,0-28.9.012-265.34.123V241.6Z" fill="#c4f4e5"/>
        <path id="Trazado_147352" data-name="Trazado 147352" d="M319.3,222.11l-2.054-.954a.5.5,0,0,1-.287-.437q-.009-.361-.049-.726a8.263,8.263,0,0,0-.245-1.314.5.5,0,0,1,.18-.529l1.883-1.434a.49.49,0,0,0,.116-.652l-1.159-1.828a.481.481,0,0,0-.616-.174l-1.955.96a.485.485,0,0,1-.572-.1,8.745,8.745,0,0,0-2.2-1.661.5.5,0,0,1-.246-.555l.317-1.288a.5.5,0,0,0-.313-.587l-2.02-.729a.372.372,0,0,0-.126-.029.478.478,0,0,0-.485.28l-.716,1.534-.172.375a8.386,8.386,0,0,0-1.223.046,8.741,8.741,0,0,0-1.6.325.484.484,0,0,1-.529-.17l-1.153-1.517a.5.5,0,0,0-.667-.119l-1.4.884-.4.255a.5.5,0,0,0-.184.651l.8,1.635a.482.482,0,0,1-.089.562,8.839,8.839,0,0,0-1.157,1.454c-.033.043-.058.087-.085.13a.174.174,0,0,1-.031.044.491.491,0,0,1-.517.18l-2.091-.512c-.023-.006-.048-.008-.071-.012a.5.5,0,0,0-.514.325l-.732,2.013a.5.5,0,0,0,.259.624l2.144.993a.483.483,0,0,1,.282.469,8.9,8.9,0,0,0,.043,1.341c.027.243.063.479.108.713a.51.51,0,0,1-.192.5l-1.811,1.381a.487.487,0,0,0-.116.645l1.149,1.808a.51.51,0,0,0,.655.184l1.547-.759a.5.5,0,0,1,.6.127,8.786,8.786,0,0,0,2.015,1.783.491.491,0,0,1,.218.539l-.462,1.884a.518.518,0,0,0,.321.6l2.007.73a.492.492,0,0,0,.614-.258l.041-.089.829-1.783a.5.5,0,0,1,.494-.288h0a8.912,8.912,0,0,0,1.538-.031c.278-.029.547-.075.819-.129a.494.494,0,0,1,.494.183l1.171,1.54a.509.509,0,0,0,.678.125l1.8-1.143a.537.537,0,0,0,.128-.118.5.5,0,0,0,.054-.522l-.645-1.306a.512.512,0,0,1,.033-.5.654.654,0,0,1,.094-.1A8.689,8.689,0,0,0,316,224.9a.492.492,0,0,1,.468-.266.361.361,0,0,1,.085.015l1.692.414a.5.5,0,0,0,.587-.311l.016-.047.715-1.962a.506.506,0,0,0-.265-.63m-6.657.649a4.726,4.726,0,0,1-1.265,1.754,3.057,3.057,0,0,1-.367.274,5.417,5.417,0,0,1-1.685.705,4.691,4.691,0,0,1-5.65-5.4,5.647,5.647,0,0,1,.278-1.047,4.573,4.573,0,0,1,1.563-1.943c.064-.041.131-.081.195-.12a4.736,4.736,0,0,1,6.931,5.78" fill="#a9edd6"/>
        <path id="Trazado_147353" data-name="Trazado 147353" d="M333.208,230.953l-1.478-.687a.359.359,0,0,1-.205-.315c-.005-.174-.017-.346-.036-.522a5.988,5.988,0,0,0-.176-.944.362.362,0,0,1,.129-.381l1.354-1.033a.349.349,0,0,0,.084-.468l-.833-1.315a.348.348,0,0,0-.444-.126l-1.4.692a.349.349,0,0,1-.411-.074,6.3,6.3,0,0,0-1.586-1.194.358.358,0,0,1-.176-.4l.228-.926a.364.364,0,0,0-.224-.423l-1.453-.525a.3.3,0,0,0-.091-.02.347.347,0,0,0-.351.2l-.512,1.1-.124.267a6.686,6.686,0,0,0-.881.033,6.346,6.346,0,0,0-1.151.235.348.348,0,0,1-.38-.123l-.829-1.09a.363.363,0,0,0-.481-.087l-1.005.636-.287.185a.366.366,0,0,0-.134.468l.576,1.176a.346.346,0,0,1-.062.4,6.335,6.335,0,0,0-.834,1.045c-.022.031-.041.062-.062.1a.14.14,0,0,1-.02.032.356.356,0,0,1-.372.128l-1.5-.367a.228.228,0,0,0-.052-.01.361.361,0,0,0-.369.234l-.526,1.447a.362.362,0,0,0,.186.45l1.543.713a.355.355,0,0,1,.2.338,6.415,6.415,0,0,0,.031.966c.019.172.044.344.077.512a.363.363,0,0,1-.139.359l-1.3.993a.347.347,0,0,0-.085.464l.827,1.3a.363.363,0,0,0,.469.132l1.115-.545a.356.356,0,0,1,.433.091,6.262,6.262,0,0,0,1.45,1.281.358.358,0,0,1,.155.39l-.331,1.354a.369.369,0,0,0,.232.433l1.443.525a.348.348,0,0,0,.439-.183l.031-.064.6-1.283a.361.361,0,0,1,.355-.208h0a6.209,6.209,0,0,0,1.105-.022c.2-.021.394-.054.589-.092a.351.351,0,0,1,.356.131l.842,1.109a.365.365,0,0,0,.487.087l1.3-.821a.389.389,0,0,0,.091-.085.365.365,0,0,0,.04-.375l-.465-.939a.366.366,0,0,1,.025-.357.315.315,0,0,1,.067-.074,6.239,6.239,0,0,0,1.546-1.933.353.353,0,0,1,.338-.188.32.32,0,0,1,.06.008l1.217.3a.356.356,0,0,0,.421-.223l.013-.034.514-1.411a.363.363,0,0,0-.191-.452m-4.787.466a3.407,3.407,0,0,1-.91,1.261,2.018,2.018,0,0,1-.266.2,3.922,3.922,0,0,1-1.21.508,3.376,3.376,0,0,1-4.064-3.888,4.069,4.069,0,0,1,.2-.752,3.287,3.287,0,0,1,1.124-1.4l.141-.087a3.408,3.408,0,0,1,4.986,4.159" fill="#cbf4e5"/>
        <path id="Trazado_147354" data-name="Trazado 147354" d="M398.1,222.11l-2.054-.954a.5.5,0,0,1-.287-.437c-.006-.241-.02-.483-.047-.726a8.5,8.5,0,0,0-.245-1.314.494.494,0,0,1,.178-.529l1.883-1.434a.485.485,0,0,0,.116-.652l-1.157-1.828a.481.481,0,0,0-.616-.174l-1.957.96a.482.482,0,0,1-.57-.1,8.737,8.737,0,0,0-2.2-1.661.5.5,0,0,1-.247-.555l.32-1.288a.507.507,0,0,0-.313-.587l-2.022-.729a.361.361,0,0,0-.124-.029.482.482,0,0,0-.487.28l-.714,1.534-.172.375a8.386,8.386,0,0,0-1.223.046,8.741,8.741,0,0,0-1.6.325.484.484,0,0,1-.529-.17l-1.155-1.517a.5.5,0,0,0-.666-.119l-1.4.884-.4.255a.506.506,0,0,0-.187.651l.8,1.635a.485.485,0,0,1-.089.562,8.584,8.584,0,0,0-1.157,1.454c-.033.043-.058.087-.085.13a.312.312,0,0,1-.031.044.492.492,0,0,1-.517.18l-2.091-.512c-.023-.006-.048-.008-.071-.012a.5.5,0,0,0-.514.325l-.732,2.013a.5.5,0,0,0,.259.624l2.144.993a.483.483,0,0,1,.282.469,8.651,8.651,0,0,0,.043,1.341c.025.243.063.479.106.713a.509.509,0,0,1-.191.5l-1.81,1.381a.486.486,0,0,0-.116.645l1.149,1.808a.507.507,0,0,0,.653.184l1.549-.759a.5.5,0,0,1,.6.127,8.744,8.744,0,0,0,2.015,1.783.494.494,0,0,1,.218.539l-.462,1.884a.515.515,0,0,0,.321.6l2.005.73a.49.49,0,0,0,.613-.258l.044-.089L386,229.87a.5.5,0,0,1,.492-.288h0a8.9,8.9,0,0,0,1.536-.031c.278-.029.549-.075.819-.129a.494.494,0,0,1,.495.183l1.172,1.54a.509.509,0,0,0,.678.125l1.8-1.143a.578.578,0,0,0,.128-.118.5.5,0,0,0,.052-.522l-.643-1.306a.495.495,0,0,1,.127-.6,8.7,8.7,0,0,0,2.149-2.684.492.492,0,0,1,.469-.266.345.345,0,0,1,.083.015l1.694.414a.5.5,0,0,0,.585-.311l.016-.047.715-1.962a.507.507,0,0,0-.265-.63m-6.655.649a4.76,4.76,0,0,1-1.265,1.754,3.057,3.057,0,0,1-.367.274,5.426,5.426,0,0,1-1.687.705,4.692,4.692,0,0,1-5.65-5.4,5.814,5.814,0,0,1,.28-1.047,4.561,4.561,0,0,1,1.561-1.943c.066-.041.131-.081.2-.12a4.737,4.737,0,0,1,6.931,5.78" fill="#a9edd6"/>
        <path id="Trazado_147355" data-name="Trazado 147355" d="M412.011,230.953l-1.478-.687a.357.357,0,0,1-.2-.315c-.006-.174-.017-.346-.036-.522a5.988,5.988,0,0,0-.176-.944.355.355,0,0,1,.129-.381l1.354-1.033a.349.349,0,0,0,.083-.468l-.832-1.315a.349.349,0,0,0-.444-.126l-1.407.692a.35.35,0,0,1-.411-.074A6.291,6.291,0,0,0,407,224.586a.359.359,0,0,1-.178-.4l.23-.926a.362.362,0,0,0-.226-.423l-1.453-.525a.274.274,0,0,0-.089-.02.348.348,0,0,0-.351.2l-.514,1.1-.124.267a6.663,6.663,0,0,0-.879.033,6.328,6.328,0,0,0-1.151.235.347.347,0,0,1-.38-.123l-.831-1.09a.36.36,0,0,0-.479-.087l-1.005.636-.288.185a.362.362,0,0,0-.133.468l.576,1.176a.344.344,0,0,1-.064.4,6.366,6.366,0,0,0-.831,1.045.972.972,0,0,0-.063.1c-.006.011-.014.021-.02.032a.358.358,0,0,1-.374.128l-1.5-.367a.228.228,0,0,0-.052-.01.361.361,0,0,0-.369.234l-.526,1.447a.36.36,0,0,0,.187.45l1.54.713a.347.347,0,0,1,.2.338,6.415,6.415,0,0,0,.031.966c.019.172.046.344.079.512a.367.367,0,0,1-.139.359l-1.3.993a.349.349,0,0,0-.083.464l.825,1.3a.366.366,0,0,0,.471.132l1.113-.545a.357.357,0,0,1,.434.091,6.247,6.247,0,0,0,1.451,1.281.36.36,0,0,1,.155.39l-.331,1.354a.368.368,0,0,0,.23.433l1.443.525a.35.35,0,0,0,.441-.183l.031-.064.6-1.283a.361.361,0,0,1,.354-.208h0a6.228,6.228,0,0,0,1.107-.022c.2-.021.394-.054.589-.092a.347.347,0,0,1,.354.131l.844,1.109a.366.366,0,0,0,.488.087l1.293-.821a.347.347,0,0,0,.093-.085.364.364,0,0,0,.038-.375l-.462-.939a.363.363,0,0,1,.022-.357.324.324,0,0,1,.069-.074,6.268,6.268,0,0,0,1.546-1.933.348.348,0,0,1,.336-.188.3.3,0,0,1,.06.008l1.219.3a.356.356,0,0,0,.421-.223l.013-.034.512-1.411a.362.362,0,0,0-.189-.452m-4.789.466a3.4,3.4,0,0,1-.908,1.261,2.317,2.317,0,0,1-.265.2,3.948,3.948,0,0,1-1.213.508,3.376,3.376,0,0,1-4.064-3.888,4.333,4.333,0,0,1,.2-.752,3.28,3.28,0,0,1,1.124-1.4l.141-.087a3.407,3.407,0,0,1,4.984,4.159" fill="#cbf4e5"/>
        <path id="Trazado_147356" data-name="Trazado 147356" d="M353.9,220.221l-2.23-.394a.5.5,0,0,1-.388-.351c-.068-.232-.147-.462-.234-.69a8.634,8.634,0,0,0-.573-1.207.494.494,0,0,1,.038-.557l1.453-1.868a.488.488,0,0,0-.056-.66l-1.588-1.472a.481.481,0,0,0-.639-.01l-1.646,1.43a.482.482,0,0,1-.576.046,8.751,8.751,0,0,0-2.556-1.039.5.5,0,0,1-.38-.475l-.023-1.324a.5.5,0,0,0-.452-.49l-2.141-.188a.465.465,0,0,0-.129,0,.487.487,0,0,0-.4.4l-.3,1.665-.071.406a8.694,8.694,0,0,0-1.171.357,8.948,8.948,0,0,0-1.464.725.483.483,0,0,1-.554-.029l-1.505-1.171a.5.5,0,0,0-.674.056l-1.125,1.213-.322.348a.508.508,0,0,0-.012.678L335.385,217a.479.479,0,0,1,.058.564,8.7,8.7,0,0,0-.746,1.7c-.021.049-.033.1-.05.147a.175.175,0,0,1-.017.05.5.5,0,0,1-.454.307l-2.154.041a.277.277,0,0,0-.07.006.505.505,0,0,0-.415.446l-.191,2.133a.5.5,0,0,0,.411.535l2.326.413a.48.48,0,0,1,.392.379,8.724,8.724,0,0,0,.386,1.288q.131.339.286.661a.511.511,0,0,1-.056.533l-1.4,1.8a.487.487,0,0,0,.054.653l1.574,1.453a.508.508,0,0,0,.678.012l1.3-1.132a.5.5,0,0,1,.616-.033,8.73,8.73,0,0,0,2.4,1.209.493.493,0,0,1,.349.466l.037,1.941a.511.511,0,0,0,.464.5l2.126.192a.492.492,0,0,0,.528-.4l.019-.1.344-1.935a.5.5,0,0,1,.4-.406l0,0a8.787,8.787,0,0,0,1.478-.423c.261-.1.512-.212.759-.334a.491.491,0,0,1,.524.05l1.528,1.19a.508.508,0,0,0,.686-.054l1.447-1.565a.579.579,0,0,0,.094-.147.511.511,0,0,0-.083-.521l-.956-1.1a.5.5,0,0,1-.1-.487.56.56,0,0,1,.064-.124,8.736,8.736,0,0,0,1.391-3.145.487.487,0,0,1,.383-.376.6.6,0,0,1,.086-.01l1.743-.031a.5.5,0,0,0,.485-.452l0-.05.189-2.079a.506.506,0,0,0-.417-.541m-6.267,2.334a4.778,4.778,0,0,1-.773,2.017,3.549,3.549,0,0,1-.286.359,5.369,5.369,0,0,1-1.45,1.113,4.692,4.692,0,0,1-6.845-3.775,5.773,5.773,0,0,1,0-1.084,4.555,4.555,0,0,1,1.013-2.277c.052-.058.1-.112.158-.168a4.738,4.738,0,0,1,8.181,3.815" fill="#a9edd6"/>
        <path id="Trazado_147357" data-name="Trazado 147357" d="M539.52,241.6c-.075.23-.153.46-.23.692q-1,2.946-2.212,5.98-.168.423-.342.846-1.472,3.613-3.253,7.358l0,0-28.9.012V241.6Z" fill="#e5fff3"/>
        <path id="Trazado_147358" data-name="Trazado 147358" d="M508.086,243.11H241.065a19.034,19.034,0,0,1,0-38.068H508.086a19.034,19.034,0,1,1,0,38.068M241.065,206.677a17.4,17.4,0,1,0,0,34.8H508.086a17.4,17.4,0,0,0,0-34.8Z" fill="#4c8f74"/>
        <path id="Trazado_147359" data-name="Trazado 147359" d="M87.126,130.5H82.114a7.836,7.836,0,0,1-7.813-7.813v-4.4a7.836,7.836,0,0,1,7.813-7.813h5.013a7.836,7.836,0,0,1,7.813,7.813v4.4a7.837,7.837,0,0,1-7.814,7.813" fill="#d9fdea"/>
        <path id="Trazado_147360" data-name="Trazado 147360" d="M86.908,129.63H82.331a7.158,7.158,0,0,1-7.137-7.136v-4.015a7.158,7.158,0,0,1,7.137-7.137h4.578a7.157,7.157,0,0,1,7.136,7.136v4.015a7.158,7.158,0,0,1-7.137,7.137" fill="#ecfff6"/>
        <path id="Trazado_147361" data-name="Trazado 147361" d="M84.192,113.169a.427.427,0,1,1,.428.428.428.428,0,0,1-.428-.428" fill="#d0f5df"/>
        <path id="Trazado_147362" data-name="Trazado 147362" d="M87.642,113.773a.427.427,0,1,1,.166.581.427.427,0,0,1-.166-.581" fill="#d0f5df"/>
        <path id="Trazado_147363" data-name="Trazado 147363" d="M90.6,116.121a.427.427,0,1,1-.127.591.428.428,0,0,1,.127-.591" fill="#d0f5df"/>
        <path id="Trazado_147364" data-name="Trazado 147364" d="M92.061,119.756a.428.428,0,1,1-.428.428.428.428,0,0,1,.428-.428" fill="#d0f5df"/>
        <path id="Trazado_147365" data-name="Trazado 147365" d="M91.314,123.973a.428.428,0,1,1-.605,0,.428.428,0,0,1,.605,0" fill="#d0f5df"/>
        <path id="Trazado_147366" data-name="Trazado 147366" d="M88.629,126.665a.428.428,0,1,1-.6,0,.428.428,0,0,1,.6,0" fill="#d0f5df"/>
        <path id="Trazado_147367" data-name="Trazado 147367" d="M84.192,128.052a.427.427,0,1,1,.428.428.428.428,0,0,1-.428-.428" fill="#d0f5df"/>
        <path id="Trazado_147368" data-name="Trazado 147368" d="M81.584,113.773a.427.427,0,1,0-.166.581.427.427,0,0,0,.166-.581" fill="#d0f5df"/>
        <path id="Trazado_147369" data-name="Trazado 147369" d="M78.628,116.121a.427.427,0,1,0,.127.591.428.428,0,0,0-.127-.591" fill="#d0f5df"/>
        <path id="Trazado_147370" data-name="Trazado 147370" d="M77.164,119.756a.428.428,0,1,0,.428.428.428.428,0,0,0-.428-.428" fill="#d0f5df"/>
        <path id="Trazado_147371" data-name="Trazado 147371" d="M77.912,123.973a.428.428,0,1,0,.6,0,.428.428,0,0,0-.6,0" fill="#d0f5df"/>
        <path id="Trazado_147372" data-name="Trazado 147372" d="M80.6,126.665a.428.428,0,1,0,.605,0,.428.428,0,0,0-.605,0" fill="#d0f5df"/>
        <path id="Trazado_147373" data-name="Trazado 147373" d="M84.5,120.183a.427.427,0,1,1,.427.428.427.427,0,0,1-.427-.428" fill="#d0f5df"/>
        <rect id="Rectángulo_5532" data-name="Rectángulo 5532" width="0.117" height="5.341" transform="translate(84.873 114.842)" fill="#d0f5df"/>
        <rect id="Rectángulo_5533" data-name="Rectángulo 5533" width="3.599" height="0.35" transform="matrix(0.786, -0.618, 0.618, 0.786, 84.77, 120.038)" fill="#d0f5df"/>
        <rect id="Rectángulo_5534" data-name="Rectángulo 5534" width="26.404" height="21.772" transform="translate(265.723 154.628)" fill="#f2b705"/>
        <rect id="Rectángulo_5535" data-name="Rectángulo 5535" width="26.404" height="21.772" transform="translate(278.925 154.628)" fill="#f7d469"/>
        <path id="Trazado_147374" data-name="Trazado 147374" d="M265.739,170.879h4.184l-.369-1.177.369-.842h-4.184Z" fill="#d39305"/>
        <path id="Trazado_147375" data-name="Trazado 147375" d="M278.925,161.366h4.184l-.369-1.177.369-.842h-4.184Z" fill="#f2b705"/>
        <path id="Trazado_147376" data-name="Trazado 147376" d="M278.925,159.348h-4.184l.369,1.177-.369.842h4.184Z" fill="#d39305"/>
        <path id="Trazado_147377" data-name="Trazado 147377" d="M305.33,171.113h-4.184l.369,1.177-.369.842h4.184Z" fill="#f2b705"/>
        <rect id="Rectángulo_5536" data-name="Rectángulo 5536" width="7.598" height="2.956" transform="translate(296.002 156.105)" fill="#fff"/>
        <path id="Trazado_147378" data-name="Trazado 147378" d="M292.874,175.474c.64-.416,2.092-1.331,2.159-1.112a.963.963,0,0,1-.22.686,6.131,6.131,0,0,1,3.785.012,1.541,1.541,0,0,1,.985.7.68.68,0,0,1-.278,1.051c-1.074.612-.755.233-2.249,1.126s-3.288,1.067-4.328.359l-1.421-.294-.087-2.36s.819-.066,1.654-.172" fill="#ffbf91"/>
        <path id="Trazado_147379" data-name="Trazado 147379" d="M263.835,152.048c-3.916,2.438-7.972-.875-7.972-.875a18.394,18.394,0,0,0,.583-9.222c-.039-.213,6.831,2.619,7.039,2.664h0l.006.048.012.1c.108.924.183,1.843.233,2.7.151,2.562.1,4.586.1,4.586" fill="#ffae73"/>
        <path id="Trazado_147380" data-name="Trazado 147380" d="M263.74,147.462a9.94,9.94,0,0,1-6.315-3.017c-.243-.3,5.878.156,6.06.17h0l.006.048c.005.025.009.058.013.1.108.924.182,1.843.232,2.7" fill="#f9924f"/>
        <path id="Trazado_147381" data-name="Trazado 147381" d="M264.766,144.179s-6.737,2.978-8.526-1.246-3.866-6.683.359-8.763,5.749-.825,6.69.439,3.182,8.687,1.477,9.57" fill="#ffae73"/>
        <path id="Trazado_147382" data-name="Trazado 147382" d="M256.7,144.089c-.085.08-1.514.83-5.458-4.352a5.07,5.07,0,0,1-.561-4.612c.729-1.914,4.2-3.962,7.187-5.13a6.033,6.033,0,0,1,3.758-.174,2.339,2.339,0,0,1,1.642,2.9c-.564,1.977-1.965,3.19-3.737,3.137-1.188-.036-1.113,2.389-1.091,2.967s-.019,1.07-1.513.83c-1.281-.206-.559,1.486-.128,2.247a2.251,2.251,0,0,1,.305,1.232,1.387,1.387,0,0,1-.4.955" fill="#214d9a"/>
        <path id="Trazado_147383" data-name="Trazado 147383" d="M246.4,256.588h-4.341c-.91,0-1.922-.911-2.175-2.579s-2.124-2.58-2.529-3.946,1.67-3.288,1.67-3.288l.346-.446.361-.464,3.439.809s.085.819.138,1.862a23.737,23.737,0,0,1,.014,2.387c-.1,1.821.51,3.782,2.128,4.136s.949,1.529.949,1.529" fill="#2a3967"/>
        <path id="Trazado_147384" data-name="Trazado 147384" d="M276.619,256.588H265.111a1.021,1.021,0,0,1-.244-.071c-.769-.385-.528-3.326-.436-4.235.018-.168.031-.267.031-.267s4.046-3.236,4.6-.758q.027.115.06.228h0c.7,2.319,3.842,3.372,5.656,3.665a1.976,1.976,0,0,1,1.838,1.437" fill="#2a3967"/>
        <path id="Trazado_147385" data-name="Trazado 147385" d="M274.3,190.226s-.615,7.667-1.337,16.884c-.982,12.521-2.162,27.9-2.279,30.813-.2,5.059-1.012,13.152-1.012,13.152s-1.921,1.922-5.766,1.112a132.313,132.313,0,0,1-4.4-23.775c-.016-.2-.031-.4-.046-.6-.91-12.443-2.326-38.644-2.326-38.644Z" fill="#f5c537"/>
        <path id="Trazado_147386" data-name="Trazado 147386" d="M272.593,189.164c-1.622.1-18.739-.549-18.743-1.505a147.943,147.943,0,0,0-1.578-15.243q-.238-1.828-.377-3.622a55.1,55.1,0,0,1-.018-8.814c.431-5.028,1.738-8.256,3.917-10.147,0,0,2.05.169,3.939.453a8.5,8.5,0,0,0,4.4-.223l2.613,2.249a10.126,10.126,0,0,1,3.319,5.082s2.675,31.76,2.53,31.77" fill="#214d9a"/>
        <path id="Trazado_147387" data-name="Trazado 147387" d="M254.714,166.169a15.3,15.3,0,0,0,7.814,8.471c6.012,2.765,2.419-5.252,2.419-5.252Z" fill="#0e407e"/>
        <path id="Trazado_147388" data-name="Trazado 147388" d="M270.063,157.394l-4.675,1.087L258.954,175.9a5.939,5.939,0,0,1-5.721,4.047l-.009.416.318,8.3,20.731,1.884s.1-10.392-.273-13.721c-.55-4.928-3.937-19.44-3.937-19.44" fill="#f5c537"/>
        <path id="Trazado_147389" data-name="Trazado 147389" d="M292.482,176.795c.148-1.361-.55-1.616-.55-1.616s-13.78-3.052-14.946-3.468-10.846-11.3-10.846-11.3-3.7-4.51-6.9-3.669a5.953,5.953,0,0,0-4.387,4.864c-.53,2.42-2.2,3.189-.138,4.564,4.623,3.088,16.578,10.9,18.785,11.645,4.914,1.649,18.318.826,18.318.826a4.318,4.318,0,0,0,.665-1.845" fill="#214d9a"/>
        <path id="Trazado_147390" data-name="Trazado 147390" d="M260.543,153.434c-1.089-1.011-4.749-3.6-4.749-3.6a2.711,2.711,0,0,1,.363-.461,2.857,2.857,0,0,1,.465-.365c.466-.1,4.073,2.615,5.274,3.685,1.446,1.288,5.461,5.331,5.461,5.331l-1.969.458s-3.564-3.857-4.845-5.047" fill="#f5c537"/>
        <path id="Trazado_147391" data-name="Trazado 147391" d="M265.052,134.208a26.779,26.779,0,0,1-3.676,1.764c-.3.076-4.684,1.179-4.684,1.179l-6.285,2.311s-2.132-4.591.5-8.189h0c.065-.09.135-.181.207-.269a8.6,8.6,0,0,1,3.226-2.375c7.411-3.344,10.629,5.3,10.712,5.58" fill="#f2f2f2"/>
        <path id="Trazado_147392" data-name="Trazado 147392" d="M261.438,135.82l-1.2.384c-1.187-1.1-5.525-4.856-9.383-4.836a1.036,1.036,0,0,1,.048-.1h0c.05-.09.1-.139.167-.272.014,0,.027,0,.04,0,4.992.286,9.312,3.835,10.324,4.817" fill="#e6e6e6"/>
        <path id="Trazado_147393" data-name="Trazado 147393" d="M256.693,137.151a5.4,5.4,0,0,0-.721,2.043c-.055.947-4.172,2.249-4.547,1.829a12.816,12.816,0,0,1-1.017-1.562Z" fill="#f2f2f2"/>
        <path id="Trazado_147394" data-name="Trazado 147394" d="M256.693,137.151s7.791-1.25,11.005-3.756a.337.337,0,0,0-.183-.6,15.39,15.39,0,0,0-3,.2s-2.365,2.807-7.823,4.162" fill="#e6e6e6"/>
        <path id="Trazado_147395" data-name="Trazado 147395" d="M272.01,189.715s.4,4.784-1.815,13.76c-1.623,6.586-10.7,24.936-10.7,24.936-.015-.2-.03-.4-.045-.6-.911-12.443-2.326-38.645-2.326-38.645Z" fill="#e0a30a"/>
        <path id="Trazado_147396" data-name="Trazado 147396" d="M272.01,189.715s-11.594,29.19-18.878,42.24-9.559,16.691-9.559,16.691-4.173-1.669-4.553-2.807c0,0,2.786-25.193,7.663-31.334,2.757-3.471,5.994-13.885,6.146-17.527s.558-12.366.558-12.366Z" fill="#f5c537"/>
        <path id="Trazado_147397" data-name="Trazado 147397" d="M445.769,17.722q1.559.522,3.106,1.091l-6.655-.03h0l-1.752-.006h0l-20.443-.091-1.756-.006h0l-20.444-.091-1.756-.007h0l-20.445-.091-1.756-.006h0l-20.444-.091-1.756-.006h0L331.211,18.3l-1.756-.006h0L309.011,18.2l-1.756-.006h0L286.808,18.1l-1.758-.008h0L264.606,18,262.848,18h0l-20.443-.09-1.758-.008h0l-20.44-.089-1.758-.008h0L198,17.712l-1.758-.009h0L175.8,17.614l-1.758-.008h0l-4.96-.021q.66-.544,1.334-1.072h0l3.692.015h0l22.2.1h.007l22.2.1h.006l22.194.1h.007l22.2.1h.006l22.2.1h.007l22.2.1h.006l22.194.1h.007l22.2.1h.006l22.2.1h.007l22.2.1h.006l22.2.1h.007l22.2.1Z" fill="#b4e7d0"/>
        <path id="Trazado_147398" data-name="Trazado 147398" d="M467.63,28.177q.759.536,1.487,1.084L159.134,27.9q.409-.544.839-1.074l6.411.027,1.758.009,20.444.089,1.756.008,20.445.089h0l1.756.008,20.444.09h0l1.756.008,20.445.089h0l1.756.008h0l20.442.089h0l1.756.009h0l20.441.089h0l1.756.008h0l20.442.089h0l1.756.009h0L344,27.634h0l1.756.008h0l20.442.089h0l1.756.009h0l20.441.089h0l1.756.008h0l20.444.091h0l1.754.006h0l20.445.092h0l1.754.006h0l20.444.091h0l1.754.006h0Z" fill="#b4e7d0"/>
        <path id="Trazado_147399" data-name="Trazado 147399" d="M168.146,26.865l-.51.794-1.252-.8-4.17-2.679q.321-.357.643-.709l5.285,3.4Z" fill="#b4e7d0"/>
        <rect id="Rectángulo_5537" data-name="Rectángulo 5537" width="0.943" height="19.304" transform="matrix(0.541, -0.841, 0.841, 0.541, 173.596, 17.322)" fill="#b4e7d0"/>
        <rect id="Rectángulo_5538" data-name="Rectángulo 5538" width="0.944" height="19.304" transform="matrix(0.541, -0.841, 0.841, 0.541, 195.798, 17.419)" fill="#b4e7d0"/>
        <rect id="Rectángulo_5539" data-name="Rectángulo 5539" width="0.944" height="19.304" transform="matrix(0.541, -0.841, 0.841, 0.541, 218, 17.516)" fill="#b4e7d0"/>
        <rect id="Rectángulo_5540" data-name="Rectángulo 5540" width="0.944" height="19.304" transform="matrix(0.541, -0.841, 0.841, 0.541, 240.202, 17.614)" fill="#b4e7d0"/>
        <rect id="Rectángulo_5541" data-name="Rectángulo 5541" width="0.944" height="19.304" transform="matrix(0.541, -0.841, 0.841, 0.541, 262.404, 17.711)" fill="#b4e7d0"/>
        <rect id="Rectángulo_5542" data-name="Rectángulo 5542" width="0.944" height="19.304" transform="matrix(0.541, -0.841, 0.841, 0.541, 284.606, 17.809)" fill="#b4e7d0"/>
        <rect id="Rectángulo_5543" data-name="Rectángulo 5543" width="0.944" height="19.304" transform="matrix(0.541, -0.841, 0.841, 0.541, 306.808, 17.906)" fill="#b4e7d0"/>
        <rect id="Rectángulo_5544" data-name="Rectángulo 5544" width="0.944" height="19.304" transform="matrix(0.541, -0.841, 0.841, 0.541, 329.01, 18.004)" fill="#b4e7d0"/>
        <rect id="Rectángulo_5545" data-name="Rectángulo 5545" width="0.944" height="19.304" transform="matrix(0.541, -0.841, 0.841, 0.541, 351.212, 18.102)" fill="#b4e7d0"/>
        <rect id="Rectángulo_5546" data-name="Rectángulo 5546" width="0.944" height="19.304" transform="matrix(0.541, -0.841, 0.841, 0.541, 373.414, 18.199)" fill="#b4e7d0"/>
        <rect id="Rectángulo_5547" data-name="Rectángulo 5547" width="0.944" height="19.304" transform="matrix(0.541, -0.841, 0.841, 0.541, 395.616, 18.297)" fill="#b4e7d0"/>
        <rect id="Rectángulo_5548" data-name="Rectángulo 5548" width="0.944" height="19.304" transform="matrix(0.541, -0.841, 0.841, 0.541, 417.818, 18.394)" fill="#b4e7d0"/>
        <rect id="Rectángulo_5549" data-name="Rectángulo 5549" width="0.944" height="19.304" transform="matrix(0.541, -0.841, 0.841, 0.541, 440.02, 18.492)" fill="#b4e7d0"/>
        <rect id="Rectángulo_5550" data-name="Rectángulo 5550" width="35.635" height="29.383" transform="translate(312.146 175.652)" fill="#b1efd5"/>
        <rect id="Rectángulo_5551" data-name="Rectángulo 5551" width="35.635" height="29.383" transform="translate(329.963 175.652)" fill="#c4efde"/>
        <path id="Trazado_147400" data-name="Trazado 147400" d="M312.167,197.583h5.647l-.5-1.589.5-1.135h-5.647Z" fill="#438a6a"/>
        <path id="Trazado_147401" data-name="Trazado 147401" d="M329.963,184.745h5.647l-.5-1.589.5-1.135h-5.647Z" fill="#7eb595"/>
        <path id="Trazado_147402" data-name="Trazado 147402" d="M329.963,182.02h-5.647l.5,1.589-.5,1.135h5.647Z" fill="#438a6a"/>
        <path id="Trazado_147403" data-name="Trazado 147403" d="M365.6,197.9h-5.647l.5,1.589-.5,1.135H365.6Z" fill="#7eb595"/>
        <rect id="Rectángulo_5552" data-name="Rectángulo 5552" width="10.255" height="3.989" transform="translate(353.01 177.644)" fill="#fff"/>
        <path id="Trazado_147404" data-name="Trazado 147404" d="M428.363,156.8s-1.689,9.609-3.537,19.646c-2.007,10.911-4.2,22.329-4.615,22.472-.8.275-.732-1.463-1.278-2.788a64.238,64.238,0,0,1-1.335-15.877c.106-1.389.463-18.508,2.837-20.53s7.928-2.923,7.928-2.923" fill="#ffae73"/>
        <path id="Trazado_147405" data-name="Trazado 147405" d="M418.413,193.584a5.636,5.636,0,0,1-.186,3.113c-.6,1.539-.724,1.979.381,2.843s2.3,2.079,3.129,1.719.315-7.407.315-7.407Z" fill="#ffae73"/>
        <path id="Trazado_147406" data-name="Trazado 147406" d="M420.71,256.588c1.025-.626.442-5.294.442-5.294s-4.777-3.821-5.434-.9-4.538,4.239-6.747,4.6a2.372,2.372,0,0,0-2.144,1.592Z" fill="#214d9a"/>
        <path id="Trazado_147407" data-name="Trazado 147407" d="M441.921,256.588c1.025-.626.442-5.294.442-5.294s-4.777-3.821-5.434-.9-4.538,4.239-6.747,4.6a2.372,2.372,0,0,0-2.144,1.592Z" fill="#214d9a"/>
        <path id="Trazado_147408" data-name="Trazado 147408" d="M436.04,201.651c-1.7,7.184-3.842,15.387-4.678,20.012-.1.536-.177,1.024-.237,1.455s-.1.811-.115,1.125c-.444,8.663-7.29,28.468-8.515,28.93-1.895.714-4.879-.805-6.442-1.3a1.341,1.341,0,0,1-.939-1.522c3.391-15.588,5.481-37.9,5.935-51.188.228-6.694.533-11.456.533-11.456s16.7-4.456,16.8,1.181c.038,2.185-1.019,7.165-2.343,12.765" fill="#f5c537"/>
        <path id="Trazado_147409" data-name="Trazado 147409" d="M435.283,202.408c-1.7,7.184-3.842,15.387-4.678,20.012-.1.536-.61,5.081-.669,5.512l-2.924-33.218,4.146.383Z" fill="#e0a30a"/>
        <path id="Trazado_147410" data-name="Trazado 147410" d="M429.466,190.82l5.892,61.56a16.508,16.508,0,0,0,8.3.325s2.29-33.657,2.075-41.884,1.855-22.015-.473-23.535-15.8,3.534-15.8,3.534" fill="#f5c537"/>
        <path id="Trazado_147411" data-name="Trazado 147411" d="M444.391,175.117c.063.7.331,13.824.349,14.318.021.543-1.463,1.625-6.7,2.4a49.215,49.215,0,0,1-6.644.5c-6.535.072-9.034-2.675-9.034-2.675-.445.008.5-3.187.65-23.93a.964.964,0,0,1-.343-.02,17.844,17.844,0,0,1-4.472-2.781s2.625-7.293,5.107-11.006c.6-.906,2.235-1.618,4.4-2.082.57-.122,1.18-.228,1.817-.315a36.8,36.8,0,0,1,9.848.062c.576.081,1.144.178,1.7.292a16.309,16.309,0,0,1,6.228,2.436c2.307,1.678,4.025,10.263,4.025,10.263s-2.174,2.467-7.067,3.67a45.01,45.01,0,0,0,.136,8.865" fill="#214d9a"/>
        <path id="Trazado_147412" data-name="Trazado 147412" d="M421.583,187.705l1.995-24.852a2.665,2.665,0,0,1,2.776-2.449l13.59.532a2.166,2.166,0,0,1,2.08,2.052c.167,3.264.791,9.6,3.124,11.372l1.231,17.99L431.191,206.1s-1.725-10.078-4.1-12.877c-1.327-1.567-5.511-5.519-5.511-5.519" fill="#f5c537"/>
        <path id="Trazado_147413" data-name="Trazado 147413" d="M441.826,149.127l-1.64,12.7-1.7-.27,1.644-12.721c.576.081,1.144.178,1.7.292" fill="#f5c537"/>
        <path id="Trazado_147414" data-name="Trazado 147414" d="M430.277,148.773l-2.1,11.393-.177.955-.188-.043-1.5-.336,2.152-11.654c.57-.122,1.18-.228,1.816-.315" fill="#f5c537"/>
        <path id="Trazado_147415" data-name="Trazado 147415" d="M451.323,176.126s-1.019,3.1-14.136,7.389c0,0-.149-3.5.648-3.972,2.465-1.447,8.339-5.766,8.541-6.527.134-.505-1.2-4.319-2.9-8.155,3.11-.345,5.113-.625,7.4-1.854.853,6.032,2.029,10.254.439,13.119" fill="#ffae73"/>
        <path id="Trazado_147416" data-name="Trazado 147416" d="M435.693,179.711a5.507,5.507,0,0,0-1.935-.961c-.84-.124-2.256-.66-2.026-.162s1.779,1.282,1.779,1.282Z" fill="#ffae73"/>
        <path id="Trazado_147417" data-name="Trazado 147417" d="M433.6,185.238l-4.275.522a.976.976,0,0,1-1.054-.689l-2.926-9.7a.979.979,0,0,1,.819-1.254l4.275-.521a.977.977,0,0,1,1.054.688l2.925,9.7a.978.978,0,0,1-.818,1.253" fill="#1e3865"/>
        <path id="Trazado_147418" data-name="Trazado 147418" d="M432.081,185.423l-4.274.522a.98.98,0,0,1-1.056-.689l-2.924-9.7a.979.979,0,0,1,.819-1.254l4.274-.522a.979.979,0,0,1,1.055.689l2.924,9.7a.978.978,0,0,1-.818,1.254" fill="#132e52"/>
        <path id="Trazado_147419" data-name="Trazado 147419" d="M429.059,175.65h0a.3.3,0,0,1-.3-.193l-2.864-8.508a.18.18,0,0,1,.152-.248.294.294,0,0,1,.3.193l2.863,8.508a.18.18,0,0,1-.152.248" fill="#132e52"/>
        <path id="Trazado_147420" data-name="Trazado 147420" d="M437.835,179.542a2.117,2.117,0,0,1-1.3.329,3.626,3.626,0,0,1-1.356-.512c-.545-.371-1.75.12-2.106.357-1,.664-4.362.637-4.362,1.3s1.464,2.532,3.236,3.086,5.243-.591,5.243-.591Z" fill="#ffae73"/>
        <path id="Trazado_147421" data-name="Trazado 147421" d="M437.876,149.287c.073,1.974-1.677,2.936-4.3,2.56s-2.674-2.409-2.674-2.409l.064-1.969.075-2.331.068-2.081,6.348.86a7.931,7.931,0,0,0,.009,1.006v0c.06,1.248.238,3.261.41,4.362" fill="#ffae73"/>
        <path id="Trazado_147422" data-name="Trazado 147422" d="M437.468,144.922l0,0c-.06.085-1.509,2.063-6.5,2.544l.075-2.33,6.425-.216Z" fill="#f9924f"/>
        <path id="Trazado_147423" data-name="Trazado 147423" d="M429.819,146.237s7.812,1.578,8.719-3.3,2.528-7.962-2.421-9.176-6.268.467-6.967,2.022-1.34,9.92.669,10.456" fill="#ffae73"/>
        <path id="Trazado_147424" data-name="Trazado 147424" d="M438.179,144.02s2.716.612,2.973-4.332c.1-1.9.573-8.587-4.866-8.358a11.087,11.087,0,0,0-8.411,3.967c-3.712,4.189,5.32,1.071,6.522,2.044s.057,2.576,1.431,3.149,2.462.572,2.233,1.832.118,1.7.118,1.7" fill="#1e3865"/>
        <path id="Trazado_147425" data-name="Trazado 147425" d="M427.147,135.393a26.729,26.729,0,0,0,3.93,1.087c.3.022,4.818.332,4.818.332l6.6,1.163s1.287-4.9-1.938-7.971h0c-.081-.078-.165-.154-.252-.229a8.605,8.605,0,0,0-3.6-1.767c-7.886-1.98-9.524,7.1-9.557,7.386" fill="#f2f2f2"/>
        <path id="Trazado_147426" data-name="Trazado 147426" d="M430.99,136.341l1.246.166c.975-1.288,4.579-5.756,8.38-6.418a.781.781,0,0,0-.064-.085v0c-.065-.079-.118-.119-.213-.238l-.039.01c-4.862,1.164-8.486,5.422-9.309,6.567" fill="#e6e6e6"/>
        <path id="Trazado_147427" data-name="Trazado 147427" d="M435.895,136.812a5.408,5.408,0,0,1,1.071,1.883c.221.923,4.5,1.477,4.8,1a12.949,12.949,0,0,0,.725-1.717Z" fill="#f2f2f2"/>
        <path id="Trazado_147428" data-name="Trazado 147428" d="M435.895,136.812s-7.89.147-11.5-1.752a.337.337,0,0,1,.074-.626,15.354,15.354,0,0,1,2.986-.336s2.824,2.345,8.436,2.714" fill="#e6e6e6"/>
        <rect id="Rectángulo_5553" data-name="Rectángulo 5553" width="84.318" height="61.329" transform="translate(29.317 196.822)" fill="#86ccb5"/>
        <path id="Trazado_147429" data-name="Trazado 147429" d="M124.314,127.344h-11.5V256.589h19.5V192.842l-8-32.749Z" fill="#9de3c9"/>
        <rect id="Rectángulo_5554" data-name="Rectángulo 5554" width="63.737" height="32.75" transform="translate(124.314 127.343)" fill="#afe3cb"/>
        <rect id="Rectángulo_5555" data-name="Rectángulo 5555" width="63.737" height="63.745" transform="translate(132.313 192.843)" fill="#afe3cb"/>
        <path id="Trazado_147430" data-name="Trazado 147430" d="M196.05,192.843H132.313l-8-32.75h63.738Z" fill="#a4ddc4"/>
        <path id="Trazado_147431" data-name="Trazado 147431" d="M133.364,166.6H131.7l-.638-2.373h1.667Z" fill="#9de3c9"/>
        <path id="Trazado_147432" data-name="Trazado 147432" d="M137.156,166.6H135.49l-.638-2.373h1.667Z" fill="#9de3c9"/>
        <path id="Trazado_147433" data-name="Trazado 147433" d="M140.947,166.6h-1.666l-.638-2.373h1.667Z" fill="#9de3c9"/>
        <path id="Trazado_147434" data-name="Trazado 147434" d="M144.738,166.6h-1.666l-.638-2.373H144.1Z" fill="#9de3c9"/>
        <path id="Trazado_147435" data-name="Trazado 147435" d="M148.529,166.6h-1.666l-.638-2.373h1.667Z" fill="#9de3c9"/>
        <path id="Trazado_147436" data-name="Trazado 147436" d="M152.32,166.6h-1.666l-.638-2.373h1.667Z" fill="#9de3c9"/>
        <path id="Trazado_147437" data-name="Trazado 147437" d="M134.554,171.029h-1.666l-.638-2.373h1.667Z" fill="#9de3c9"/>
        <path id="Trazado_147438" data-name="Trazado 147438" d="M138.345,171.029h-1.666l-.638-2.373h1.667Z" fill="#9de3c9"/>
        <path id="Trazado_147439" data-name="Trazado 147439" d="M142.136,171.029H140.47l-.638-2.373H141.5Z" fill="#9de3c9"/>
        <path id="Trazado_147440" data-name="Trazado 147440" d="M145.928,171.029h-1.666l-.638-2.373h1.667Z" fill="#9de3c9"/>
        <path id="Trazado_147441" data-name="Trazado 147441" d="M149.719,171.029h-1.666l-.638-2.373h1.667Z" fill="#9de3c9"/>
        <path id="Trazado_147442" data-name="Trazado 147442" d="M153.51,171.029h-1.666l-.638-2.373h1.667Z" fill="#9de3c9"/>
        <path id="Trazado_147443" data-name="Trazado 147443" d="M135.786,175.617H134.12l-.638-2.373h1.667Z" fill="#9de3c9"/>
        <path id="Trazado_147444" data-name="Trazado 147444" d="M139.578,175.617h-1.666l-.638-2.373h1.667Z" fill="#9de3c9"/>
        <path id="Trazado_147445" data-name="Trazado 147445" d="M143.369,175.617H141.7l-.638-2.373h1.667Z" fill="#9de3c9"/>
        <path id="Trazado_147446" data-name="Trazado 147446" d="M147.16,175.617h-1.666l-.638-2.373h1.667Z" fill="#9de3c9"/>
        <path id="Trazado_147447" data-name="Trazado 147447" d="M150.951,175.617h-1.666l-.638-2.373h1.667Z" fill="#9de3c9"/>
        <path id="Trazado_147448" data-name="Trazado 147448" d="M154.742,175.617h-1.666l-.638-2.373H154.1Z" fill="#9de3c9"/>
        <path id="Trazado_147449" data-name="Trazado 147449" d="M136.976,180.047H135.31l-.638-2.373h1.667Z" fill="#9de3c9"/>
        <path id="Trazado_147450" data-name="Trazado 147450" d="M140.768,180.047H139.1l-.638-2.373h1.667Z" fill="#9de3c9"/>
        <path id="Trazado_147451" data-name="Trazado 147451" d="M144.559,180.047h-1.666l-.638-2.373h1.667Z" fill="#9de3c9"/>
        <path id="Trazado_147452" data-name="Trazado 147452" d="M148.35,180.047h-1.666l-.638-2.373h1.667Z" fill="#9de3c9"/>
        <path id="Trazado_147453" data-name="Trazado 147453" d="M152.141,180.047h-1.666l-.638-2.373H151.5Z" fill="#9de3c9"/>
        <path id="Trazado_147454" data-name="Trazado 147454" d="M155.932,180.047h-1.666l-.638-2.373h1.667Z" fill="#9de3c9"/>
        <path id="Trazado_147455" data-name="Trazado 147455" d="M159.748,166.6h-1.667l-.637-2.373h1.667Z" fill="#9de3c9"/>
        <path id="Trazado_147456" data-name="Trazado 147456" d="M163.539,166.6h-1.666l-.638-2.373H162.9Z" fill="#9de3c9"/>
        <path id="Trazado_147457" data-name="Trazado 147457" d="M167.33,166.6h-1.666l-.638-2.373h1.667Z" fill="#9de3c9"/>
        <path id="Trazado_147458" data-name="Trazado 147458" d="M171.121,166.6h-1.666l-.638-2.373h1.667Z" fill="#9de3c9"/>
        <path id="Trazado_147459" data-name="Trazado 147459" d="M174.913,166.6h-1.666l-.638-2.373h1.667Z" fill="#9de3c9"/>
        <path id="Trazado_147460" data-name="Trazado 147460" d="M178.7,166.6h-1.666l-.638-2.373h1.667Z" fill="#9de3c9"/>
        <path id="Trazado_147461" data-name="Trazado 147461" d="M160.938,171.029h-1.666l-.638-2.373H160.3Z" fill="#9de3c9"/>
        <path id="Trazado_147462" data-name="Trazado 147462" d="M164.729,171.029h-1.666l-.638-2.373h1.667Z" fill="#9de3c9"/>
        <path id="Trazado_147463" data-name="Trazado 147463" d="M168.52,171.029h-1.666l-.638-2.373h1.667Z" fill="#9de3c9"/>
        <path id="Trazado_147464" data-name="Trazado 147464" d="M172.311,171.029h-1.666l-.638-2.373h1.667Z" fill="#9de3c9"/>
        <path id="Trazado_147465" data-name="Trazado 147465" d="M176.1,171.029h-1.666l-.638-2.373h1.667Z" fill="#9de3c9"/>
        <path id="Trazado_147466" data-name="Trazado 147466" d="M179.893,171.029h-1.666l-.638-2.373h1.667Z" fill="#9de3c9"/>
        <path id="Trazado_147467" data-name="Trazado 147467" d="M162.17,175.617H160.5l-.638-2.373h1.667Z" fill="#9de3c9"/>
        <path id="Trazado_147468" data-name="Trazado 147468" d="M165.961,175.617H164.3l-.638-2.373h1.667Z" fill="#9de3c9"/>
        <path id="Trazado_147469" data-name="Trazado 147469" d="M169.753,175.617h-1.666l-.638-2.373h1.667Z" fill="#9de3c9"/>
        <path id="Trazado_147470" data-name="Trazado 147470" d="M173.544,175.617h-1.666l-.638-2.373h1.667Z" fill="#9de3c9"/>
        <path id="Trazado_147471" data-name="Trazado 147471" d="M177.335,175.617h-1.666l-.638-2.373H176.7Z" fill="#9de3c9"/>
        <path id="Trazado_147472" data-name="Trazado 147472" d="M181.126,175.617H179.46l-.638-2.373h1.667Z" fill="#9de3c9"/>
        <path id="Trazado_147473" data-name="Trazado 147473" d="M163.36,180.047h-1.666l-.638-2.373h1.667Z" fill="#9de3c9"/>
        <path id="Trazado_147474" data-name="Trazado 147474" d="M167.151,180.047h-1.666l-.638-2.373h1.667Z" fill="#9de3c9"/>
        <path id="Trazado_147475" data-name="Trazado 147475" d="M170.942,180.047h-1.666l-.638-2.373h1.667Z" fill="#9de3c9"/>
        <path id="Trazado_147476" data-name="Trazado 147476" d="M174.733,180.047h-1.666l-.638-2.373H174.1Z" fill="#9de3c9"/>
        <path id="Trazado_147477" data-name="Trazado 147477" d="M178.525,180.047h-1.667l-.637-2.373h1.667Z" fill="#9de3c9"/>
        <path id="Trazado_147478" data-name="Trazado 147478" d="M182.316,180.047H180.65l-.638-2.373h1.667Z" fill="#9de3c9"/>
        <rect id="Rectángulo_5556" data-name="Rectángulo 5556" width="23.663" height="19.065" transform="translate(129.207 137.803)" fill="#2e7358"/>
        <rect id="Rectángulo_5557" data-name="Rectángulo 5557" width="1.691" height="19.065" transform="translate(151.205 137.803)" fill="#71d8a5"/>
        <path id="Trazado_147479" data-name="Trazado 147479" d="M193.794,250.079h-57V226.638h57Zm-56.631-.372h56.259v-22.7H137.163Z" fill="#9de3c9"/>
        <path id="Trazado_147480" data-name="Trazado 147480" d="M167.4,132.819c0,.711-.4,1.287-.9,1.287s-.9-.576-.9-1.287.4-1.287.9-1.287.9.576.9,1.287" fill="#fff"/>
        <path id="Trazado_147481" data-name="Trazado 147481" d="M171.629,132.819c0,.711-.4,1.287-.9,1.287s-.9-.576-.9-1.287.4-1.287.9-1.287.9.576.9,1.287" fill="#e3605a"/>
        <path id="Trazado_147482" data-name="Trazado 147482" d="M175.854,132.819c0,.711-.4,1.287-.9,1.287s-.9-.576-.9-1.287.4-1.287.9-1.287.9.576.9,1.287" fill="#71d8a5"/>
        <path id="Trazado_147483" data-name="Trazado 147483" d="M180.079,132.819c0,.711-.4,1.287-.9,1.287s-.9-.576-.9-1.287.4-1.287.9-1.287.9.576.9,1.287" fill="#fff"/>
        <path id="Trazado_147484" data-name="Trazado 147484" d="M184.3,132.819c0,.711-.4,1.287-.9,1.287s-.9-.576-.9-1.287.4-1.287.9-1.287.9.576.9,1.287" fill="#e3605a"/>
        <path id="Trazado_147485" data-name="Trazado 147485" d="M184.49,153.376H165.775V137.617H184.49ZM166.148,153h17.97V137.988h-17.97Z" fill="#9de3c9"/>
        <rect id="Rectángulo_5558" data-name="Rectángulo 5558" width="2.889" height="0.534" transform="translate(135.691 139.84)" fill="#bae3ca"/>
        <rect id="Rectángulo_5559" data-name="Rectángulo 5559" width="4.553" height="0.534" transform="translate(130.082 139.84)" fill="#bae3ca"/>
        <rect id="Rectángulo_5560" data-name="Rectángulo 5560" width="6.888" height="0.534" transform="translate(130.081 141.264)" fill="#bae3ca"/>
        <rect id="Rectángulo_5561" data-name="Rectángulo 5561" width="4.569" height="0.534" transform="translate(137.9 141.264)" fill="#bae3ca"/>
        <rect id="Rectángulo_5562" data-name="Rectángulo 5562" width="4.988" height="0.534" transform="translate(139.205 139.84)" fill="#bae3ca"/>
        <rect id="Rectángulo_5563" data-name="Rectángulo 5563" width="4.553" height="0.534" transform="translate(130.082 143.718)" fill="#bae3ca"/>
        <rect id="Rectángulo_5564" data-name="Rectángulo 5564" width="6.888" height="0.534" transform="translate(130.081 145.142)" fill="#bae3ca"/>
        <rect id="Rectángulo_5565" data-name="Rectángulo 5565" width="4.569" height="0.534" transform="translate(137.9 145.142)" fill="#bae3ca"/>
        <rect id="Rectángulo_5566" data-name="Rectángulo 5566" width="2.889" height="0.534" transform="translate(135.691 143.718)" fill="#bae3ca"/>
        <rect id="Rectángulo_5567" data-name="Rectángulo 5567" width="4.988" height="0.534" transform="translate(139.205 143.718)" fill="#bae3ca"/>
        <rect id="Rectángulo_5568" data-name="Rectángulo 5568" width="4.553" height="0.534" transform="translate(130.082 147.99)" fill="#bae3ca"/>
        <rect id="Rectángulo_5569" data-name="Rectángulo 5569" width="6.888" height="0.534" transform="translate(130.081 149.414)" fill="#bae3ca"/>
        <rect id="Rectángulo_5570" data-name="Rectángulo 5570" width="4.569" height="0.534" transform="translate(137.9 149.414)" fill="#bae3ca"/>
        <rect id="Rectángulo_5571" data-name="Rectángulo 5571" width="2.889" height="0.534" transform="translate(135.691 147.99)" fill="#bae3ca"/>
        <rect id="Rectángulo_5572" data-name="Rectángulo 5572" width="4.988" height="0.534" transform="translate(139.205 147.99)" fill="#bae3ca"/>
        <rect id="Rectángulo_5573" data-name="Rectángulo 5573" width="4.553" height="0.534" transform="translate(130.082 152.104)" fill="#bae3ca"/>
        <rect id="Rectángulo_5574" data-name="Rectángulo 5574" width="6.888" height="0.534" transform="translate(130.081 153.528)" fill="#bae3ca"/>
        <rect id="Rectángulo_5575" data-name="Rectángulo 5575" width="4.569" height="0.534" transform="translate(137.9 153.528)" fill="#bae3ca"/>
        <rect id="Rectángulo_5576" data-name="Rectángulo 5576" width="2.889" height="0.534" transform="translate(135.691 152.104)" fill="#bae3ca"/>
        <rect id="Rectángulo_5577" data-name="Rectángulo 5577" width="4.988" height="0.534" transform="translate(139.205 152.104)" fill="#bae3ca"/>
        <rect id="Rectángulo_5578" data-name="Rectángulo 5578" width="105.227" height="3.745" transform="translate(27.085 196.822)" fill="#7eb595"/>
        <path id="Trazado_147486" data-name="Trazado 147486" d="M51.254,171.094l-2.02,24.021s-.212,1.456.871,1.458c1.781.005,8.864,0,8.864,0s-1.34-.3-1.324-.985c.019-.8,2.361-24.721,2.361-24.721Z" fill="#f28705"/>
        <path id="Trazado_147487" data-name="Trazado 147487" d="M59.543,196.138c-.35,0-7.115.022-8.849,0-.756-.009-.889-.672-.9-1.1a2.145,2.145,0,0,1,.023-.357l.052-.625.134-1.591.119-1.406.152-1.806.128-1.525,1.435-17.069,8.752-.227s-.986,10.01-1.684,17.3c-.078.812-.152,1.59-.221,2.316-.022.233-.043.459-.064.68-.065.69-.124,1.323-.175,1.881l-.075.82c-.089.982-.141,1.61-.142,1.729a1.077,1.077,0,0,0,.017.194c.144.766,1.162.791,1.293.791" fill="#f7b769"/>
        <path id="Trazado_147488" data-name="Trazado 147488" d="M30,158.023l4.921,19.766.674,2.707,2.292,9.207H80.465l-8.447-31.68Z" fill="#f7b769"/>
        <path id="Trazado_147489" data-name="Trazado 147489" d="M30,158.023l-.682.227,7.662,32.14.907-.687Z" fill="#f7b769"/>
        <path id="Trazado_147490" data-name="Trazado 147490" d="M36.979,190.39H79.3l1.168-.688H37.886Z" fill="#f7b769"/>
        <rect id="Rectángulo_5579" data-name="Rectángulo 5579" width="9.163" height="0.435" transform="translate(51.839 196.148)" fill="#dd780a"/>
        <path id="Trazado_147491" data-name="Trazado 147491" d="M78.4,183.865l-6.909-25.423H29.93v-.419H72.017L78.9,183.809Z" fill="#fc8a7d"/>
        <path id="Trazado_147492" data-name="Trazado 147492" d="M58.673,190.39l-.047.333-8.617,1.741.118-1.406.056-.668Z" fill="#f28705"/>
        <g id="Grupo_54450" data-name="Grupo 54450" opacity="0.4">
          <g id="Grupo_54449" data-name="Grupo 54449">
            <g id="Grupo_54448" data-name="Grupo 54448" clip-path="url(#clip-path-4)">
              <path id="Trazado_147493" data-name="Trazado 147493" d="M59.543,196.138c-.35,0-7.115.022-8.849,0-.756-.009-.889-.672-.9-1.1l8.576-1.613c-.089.982-.141,1.61-.142,1.729a1.077,1.077,0,0,0,.017.194c.144.766,1.162.791,1.293.791" fill="#f59f37"/>
            </g>
          </g>
        </g>
        <g id="Grupo_54453" data-name="Grupo 54453" opacity="0.4">
          <g id="Grupo_54452" data-name="Grupo 54452">
            <g id="Grupo_54451" data-name="Grupo 54451" clip-path="url(#clip-path-5)">
              <path id="Trazado_147494" data-name="Trazado 147494" d="M56.59,183.289,37.885,189.7,35.593,180.5Z" fill="#f28705"/>
            </g>
          </g>
        </g>
        <path id="Trazado_147495" data-name="Trazado 147495" d="M30,158.023H72.018l6.817,25.46H36.121Z" fill="#d1ffed"/>
        <path id="Trazado_147496" data-name="Trazado 147496" d="M76.853,182.38H37.511l-4.456-17.749-.341-1.361-.292-1.161-.683-2.722H70.514l.751,2.722.32,1.161.375,1.361Z" fill="#b6f2d9"/>
        <path id="Trazado_147497" data-name="Trazado 147497" d="M66.73,160.628l-1.769.025-.039-.154,1.769-.025Z" fill="#fddbd9"/>
        <path id="Trazado_147498" data-name="Trazado 147498" d="M66.34,161.052l-1.272.018-.039-.154L66.3,160.9Z" fill="#fddbd9"/>
        <path id="Trazado_147499" data-name="Trazado 147499" d="M67.8,161.031l-1.272.018-.039-.154,1.272-.018Z" fill="#fddbd9"/>
        <path id="Trazado_147500" data-name="Trazado 147500" d="M68.858,161.016l-.788.011-.04-.154.789-.011Z" fill="#fddbd9"/>
        <path id="Trazado_147501" data-name="Trazado 147501" d="M68.149,160.608l-1.091.015-.04-.153,1.092-.016Z" fill="#fddbd9"/>
        <path id="Trazado_147502" data-name="Trazado 147502" d="M69.64,160.587l-1.091.015-.04-.153,1.092-.016Z" fill="#fddbd9"/>
        <path id="Trazado_147503" data-name="Trazado 147503" d="M71.449,180.8l-1.769.025-.039-.154,1.769-.025Z" fill="#fddbd9"/>
        <path id="Trazado_147504" data-name="Trazado 147504" d="M71.058,181.225l-1.272.018-.039-.154,1.272-.018Z" fill="#fddbd9"/>
        <path id="Trazado_147505" data-name="Trazado 147505" d="M72.52,181.2l-1.272.018-.039-.154,1.272-.018Z" fill="#fddbd9"/>
        <path id="Trazado_147506" data-name="Trazado 147506" d="M73.577,181.189l-.788.011-.04-.154.789-.011Z" fill="#fddbd9"/>
        <path id="Trazado_147507" data-name="Trazado 147507" d="M72.868,180.781l-1.091.015-.04-.153,1.092-.016Z" fill="#fddbd9"/>
        <path id="Trazado_147508" data-name="Trazado 147508" d="M74.359,180.76l-1.091.015-.04-.153,1.092-.016Z" fill="#fddbd9"/>
        <path id="Trazado_147509" data-name="Trazado 147509" d="M39.091,161.8l-4.147-.01-.082-.348,4.147.01Z" fill="#ce6c0b"/>
        <path id="Trazado_147510" data-name="Trazado 147510" d="M38.148,162.742l-2.982-.007-.082-.349,2.982.008Z" fill="#ce6c0b"/>
        <path id="Trazado_147511" data-name="Trazado 147511" d="M41.573,162.75l-2.981-.007-.082-.349,2.981.008Z" fill="#ce6c0b"/>
        <path id="Trazado_147512" data-name="Trazado 147512" d="M44.051,162.756l-1.848,0-.082-.349,1.848,0Z" fill="#ce6c0b"/>
        <path id="Trazado_147513" data-name="Trazado 147513" d="M42.418,161.808,39.86,161.8l-.082-.348,2.558.006Z" fill="#ce6c0b"/>
        <path id="Trazado_147514" data-name="Trazado 147514" d="M45.913,161.817l-2.558-.006-.082-.348,2.558.006Z" fill="#ce6c0b"/>
        <path id="Trazado_147515" data-name="Trazado 147515" d="M39.169,164.866l-3.5-.008-.082-.349,3.5.009Z" fill="#ce6c0b"/>
        <path id="Trazado_147516" data-name="Trazado 147516" d="M41.761,164.873l-1.956-.005-.082-.348,1.956,0Z" fill="#ce6c0b"/>
        <path id="Trazado_147517" data-name="Trazado 147517" d="M45.649,164.882l-3-.007-.082-.349,3,.008Z" fill="#ce6c0b"/>
        <path id="Trazado_147518" data-name="Trazado 147518" d="M40.028,165.783l-4.147-.01-.082-.348,4.147.01Z" fill="#ce6c0b"/>
        <path id="Trazado_147519" data-name="Trazado 147519" d="M39.085,166.724l-2.982-.007-.081-.348,2.981.007Z" fill="#ce6c0b"/>
        <path id="Trazado_147520" data-name="Trazado 147520" d="M42.511,166.733l-2.982-.007-.082-.349,2.982.008Z" fill="#ce6c0b"/>
        <path id="Trazado_147521" data-name="Trazado 147521" d="M44.989,166.739l-1.848,0-.082-.348,1.848.005Z" fill="#ce6c0b"/>
        <path id="Trazado_147522" data-name="Trazado 147522" d="M43.356,165.791l-2.558-.006-.082-.348,2.558.006Z" fill="#ce6c0b"/>
        <path id="Trazado_147523" data-name="Trazado 147523" d="M46.851,165.8l-2.558-.006-.082-.348,2.558.006Z" fill="#ce6c0b"/>
        <path id="Trazado_147524" data-name="Trazado 147524" d="M40.2,169.227l-3.5-.009-.082-.348,3.5.009Z" fill="#ce6c0b"/>
        <path id="Trazado_147525" data-name="Trazado 147525" d="M42.788,169.233l-1.956-.005-.082-.348,1.956,0Z" fill="#ce6c0b"/>
        <path id="Trazado_147526" data-name="Trazado 147526" d="M46.675,169.242l-3-.007-.082-.349,3,.008Z" fill="#ce6c0b"/>
        <path id="Trazado_147527" data-name="Trazado 147527" d="M41.055,170.144l-4.147-.01-.082-.348,4.147.01Z" fill="#ce6c0b"/>
        <path id="Trazado_147528" data-name="Trazado 147528" d="M40.111,171.085l-2.982-.007-.081-.348,2.981.007Z" fill="#ce6c0b"/>
        <path id="Trazado_147529" data-name="Trazado 147529" d="M43.537,171.093l-2.982-.007-.082-.349,2.982.008Z" fill="#ce6c0b"/>
        <path id="Trazado_147530" data-name="Trazado 147530" d="M46.015,171.1l-1.848,0-.082-.349,1.848.005Z" fill="#ce6c0b"/>
        <path id="Trazado_147531" data-name="Trazado 147531" d="M44.382,170.152l-2.558-.006-.082-.348,2.558.006Z" fill="#ce6c0b"/>
        <path id="Trazado_147532" data-name="Trazado 147532" d="M47.877,170.16l-2.558-.006-.082-.348,2.558.006Z" fill="#ce6c0b"/>
        <path id="Trazado_147533" data-name="Trazado 147533" d="M41.177,173.4l-3.5-.008-.082-.349,3.5.009Z" fill="#ce6c0b"/>
        <path id="Trazado_147534" data-name="Trazado 147534" d="M43.77,173.4l-1.956,0-.082-.348,1.956.005Z" fill="#ce6c0b"/>
        <path id="Trazado_147535" data-name="Trazado 147535" d="M47.657,173.414l-3-.007-.082-.349,3,.008Z" fill="#ce6c0b"/>
        <path id="Trazado_147536" data-name="Trazado 147536" d="M42.036,174.315l-4.147-.01-.082-.348,4.147.01Z" fill="#ce6c0b"/>
        <path id="Trazado_147537" data-name="Trazado 147537" d="M41.093,175.256l-2.982-.007-.082-.349,2.982.008Z" fill="#ce6c0b"/>
        <path id="Trazado_147538" data-name="Trazado 147538" d="M44.519,175.264l-2.982-.007-.081-.349,2.981.008Z" fill="#ce6c0b"/>
        <path id="Trazado_147539" data-name="Trazado 147539" d="M47,175.27l-1.848,0-.082-.348,1.848,0Z" fill="#ce6c0b"/>
        <path id="Trazado_147540" data-name="Trazado 147540" d="M45.364,174.323l-2.558-.006-.082-.348,2.558.006Z" fill="#ce6c0b"/>
        <path id="Trazado_147541" data-name="Trazado 147541" d="M48.859,174.332l-2.558-.006-.082-.348,2.558.006Z" fill="#ce6c0b"/>
        <path id="Trazado_147542" data-name="Trazado 147542" d="M42.185,177.682l-3.5-.009-.082-.348,3.5.009Z" fill="#ce6c0b"/>
        <path id="Trazado_147543" data-name="Trazado 147543" d="M44.778,177.688l-1.956-.005-.082-.348,1.956,0Z" fill="#ce6c0b"/>
        <path id="Trazado_147544" data-name="Trazado 147544" d="M48.665,177.7l-3-.007-.082-.349,3,.008Z" fill="#ce6c0b"/>
        <path id="Trazado_147545" data-name="Trazado 147545" d="M43.045,178.6l-4.147-.01-.082-.348,4.147.01Z" fill="#ce6c0b"/>
        <path id="Trazado_147546" data-name="Trazado 147546" d="M42.1,179.54l-2.982-.007-.082-.349,2.982.008Z" fill="#ce6c0b"/>
        <path id="Trazado_147547" data-name="Trazado 147547" d="M45.527,179.548l-2.982-.007-.082-.348,2.982.007Z" fill="#ce6c0b"/>
        <path id="Trazado_147548" data-name="Trazado 147548" d="M48.005,179.554l-1.848-.005-.082-.348,1.848,0Z" fill="#ce6c0b"/>
        <path id="Trazado_147549" data-name="Trazado 147549" d="M46.373,178.607l-2.558-.006-.082-.348,2.558.006Z" fill="#ce6c0b"/>
        <path id="Trazado_147550" data-name="Trazado 147550" d="M49.867,178.615l-2.558-.006-.082-.348,2.558.006Z" fill="#ce6c0b"/>
        <path id="Trazado_147551" data-name="Trazado 147551" d="M57.282,162.091l-4.147-.01-.082-.348,4.147.01Z" fill="#ce6c0b"/>
        <path id="Trazado_147552" data-name="Trazado 147552" d="M56.339,163.032l-2.982-.007-.082-.348,2.982.007Z" fill="#ce6c0b"/>
        <path id="Trazado_147553" data-name="Trazado 147553" d="M59.764,163.041l-2.982-.007-.081-.348,2.981.007Z" fill="#ce6c0b"/>
        <path id="Trazado_147554" data-name="Trazado 147554" d="M62.243,163.047l-1.848,0-.082-.348,1.848,0Z" fill="#ce6c0b"/>
        <path id="Trazado_147555" data-name="Trazado 147555" d="M60.61,162.1l-2.558-.006-.082-.348,2.558.006Z" fill="#ce6c0b"/>
        <path id="Trazado_147556" data-name="Trazado 147556" d="M64.1,162.108l-2.558-.006-.082-.348,2.558.006Z" fill="#ce6c0b"/>
        <path id="Trazado_147557" data-name="Trazado 147557" d="M57.36,165.157l-3.5-.008-.082-.349,3.5.009Z" fill="#ce6c0b"/>
        <path id="Trazado_147558" data-name="Trazado 147558" d="M59.953,165.164l-1.956,0-.082-.348,1.956.005Z" fill="#ce6c0b"/>
        <path id="Trazado_147559" data-name="Trazado 147559" d="M63.84,165.173l-3-.007-.082-.349,3,.008Z" fill="#ce6c0b"/>
        <path id="Trazado_147560" data-name="Trazado 147560" d="M58.22,166.074l-4.147-.01-.082-.348,4.147.01Z" fill="#ce6c0b"/>
        <path id="Trazado_147561" data-name="Trazado 147561" d="M57.277,167.015l-2.982-.007-.082-.348,2.982.007Z" fill="#ce6c0b"/>
        <path id="Trazado_147562" data-name="Trazado 147562" d="M60.7,167.024l-2.982-.007-.081-.349,2.981.008Z" fill="#ce6c0b"/>
        <path id="Trazado_147563" data-name="Trazado 147563" d="M63.18,167.03l-1.848-.005-.082-.348,1.848,0Z" fill="#ce6c0b"/>
        <path id="Trazado_147564" data-name="Trazado 147564" d="M61.547,166.082l-2.558-.006-.082-.348,2.558.006Z" fill="#ce6c0b"/>
        <path id="Trazado_147565" data-name="Trazado 147565" d="M65.042,166.091l-2.558-.006-.082-.349,2.558.007Z" fill="#ce6c0b"/>
        <path id="Trazado_147566" data-name="Trazado 147566" d="M58.387,169.518l-3.5-.009-.082-.348,3.5.009Z" fill="#ce6c0b"/>
        <path id="Trazado_147567" data-name="Trazado 147567" d="M60.979,169.524l-1.956,0-.082-.348,1.956.005Z" fill="#ce6c0b"/>
        <path id="Trazado_147568" data-name="Trazado 147568" d="M64.866,169.534l-3-.007-.082-.349,3,.008Z" fill="#ce6c0b"/>
        <path id="Trazado_147569" data-name="Trazado 147569" d="M59.246,170.435l-4.147-.01-.082-.348,4.147.01Z" fill="#ce6c0b"/>
        <path id="Trazado_147570" data-name="Trazado 147570" d="M58.3,171.376l-2.981-.007-.083-.349,2.982.008Z" fill="#ce6c0b"/>
        <path id="Trazado_147571" data-name="Trazado 147571" d="M61.728,171.384l-2.982-.007-.081-.348,2.981.007Z" fill="#ce6c0b"/>
        <path id="Trazado_147572" data-name="Trazado 147572" d="M64.207,171.39l-1.848,0-.082-.349,1.848,0Z" fill="#ce6c0b"/>
        <path id="Trazado_147573" data-name="Trazado 147573" d="M62.574,170.443l-2.558-.006-.082-.348,2.558.006Z" fill="#ce6c0b"/>
        <path id="Trazado_147574" data-name="Trazado 147574" d="M66.068,170.451l-2.558-.006-.082-.348,2.558.006Z" fill="#ce6c0b"/>
        <path id="Trazado_147575" data-name="Trazado 147575" d="M59.368,173.689l-3.5-.008-.082-.349,3.5.009Z" fill="#ce6c0b"/>
        <path id="Trazado_147576" data-name="Trazado 147576" d="M61.961,173.7,60,173.69l-.082-.348,1.956,0Z" fill="#ce6c0b"/>
        <path id="Trazado_147577" data-name="Trazado 147577" d="M65.848,173.7l-3-.007-.082-.349,3,.008Z" fill="#ce6c0b"/>
        <path id="Trazado_147578" data-name="Trazado 147578" d="M60.228,174.606l-4.147-.01L56,174.248l4.147.01Z" fill="#ce6c0b"/>
        <path id="Trazado_147579" data-name="Trazado 147579" d="M59.285,175.547,56.3,175.54l-.082-.348,2.982.007Z" fill="#ce6c0b"/>
        <path id="Trazado_147580" data-name="Trazado 147580" d="M62.71,175.555l-2.982-.007-.081-.349,2.981.008Z" fill="#ce6c0b"/>
        <path id="Trazado_147581" data-name="Trazado 147581" d="M65.188,175.561l-1.848-.005-.082-.348,1.848.005Z" fill="#ce6c0b"/>
        <path id="Trazado_147582" data-name="Trazado 147582" d="M63.556,174.614,61,174.608l-.082-.348,2.558.006Z" fill="#ce6c0b"/>
        <path id="Trazado_147583" data-name="Trazado 147583" d="M67.05,174.623l-2.558-.006-.082-.348,2.558.006Z" fill="#ce6c0b"/>
        <path id="Trazado_147584" data-name="Trazado 147584" d="M60.377,177.973l-3.5-.009-.082-.348,3.5.009Z" fill="#ce6c0b"/>
        <path id="Trazado_147585" data-name="Trazado 147585" d="M62.969,177.979l-1.956-.005-.082-.348,1.956.005Z" fill="#ce6c0b"/>
        <path id="Trazado_147586" data-name="Trazado 147586" d="M66.857,177.989l-3-.007-.082-.349,3,.008Z" fill="#ce6c0b"/>
        <path id="Trazado_147587" data-name="Trazado 147587" d="M61.236,178.89l-4.147-.01-.082-.348,4.147.01Z" fill="#ce6c0b"/>
        <path id="Trazado_147588" data-name="Trazado 147588" d="M60.293,179.831l-2.982-.007-.082-.349,2.982.008Z" fill="#ce6c0b"/>
        <path id="Trazado_147589" data-name="Trazado 147589" d="M63.718,179.839l-2.981-.007-.083-.349,2.982.008Z" fill="#ce6c0b"/>
        <path id="Trazado_147590" data-name="Trazado 147590" d="M66.2,179.845l-1.848,0-.082-.349,1.848,0Z" fill="#ce6c0b"/>
        <path id="Trazado_147591" data-name="Trazado 147591" d="M64.564,178.9l-2.558-.006-.082-.348,2.558.006Z" fill="#ce6c0b"/>
        <path id="Trazado_147592" data-name="Trazado 147592" d="M68.059,178.906,65.5,178.9l-.082-.348,2.558.006Z" fill="#ce6c0b"/>
        <path id="Trazado_147593" data-name="Trazado 147593" d="M79.529,250.9s-.379,5.908-1.522,5.99c-.153.011-5.8,0-5.8,0L65,256.831a2.339,2.339,0,0,1,2.158-2.1c2.108-.362,5.637-1.835,6.92-4.617,1.349-2.926,5.45.785,5.45.785" fill="#19522f"/>
        <path id="Trazado_147594" data-name="Trazado 147594" d="M100.16,202.3c.275.232,7.616,8.186,7.017,14.295a3.524,3.524,0,0,1-3.525,3.143H94.71s-9.124,1.631-9.342,3.6-2.084,12.6-5.784,27.7c0,0-2.727.939-4.38.269-2.187-.887-2.505-1.827-2.505-1.827s2.206-33.821,3.947-36.2,19.678-9.457,25.486-10.161-1.972-.824-1.972-.824" fill="#266340"/>
        <path id="Trazado_147595" data-name="Trazado 147595" d="M48.3,193.866s-5.188-1.206-6.515,0a6.537,6.537,0,0,0-1.75,2.956H48.3Z" fill="#ffbcbc"/>
        <path id="Trazado_147596" data-name="Trazado 147596" d="M66.9,250.9s-.379,5.908-1.523,5.99c-.152.011-5.8,0-5.8,0l-7.207-.057a2.339,2.339,0,0,1,2.158-2.1c2.108-.362,5.638-1.835,6.92-4.617,1.349-2.926,5.45.785,5.45.785" fill="#266340"/>
        <path id="Trazado_147597" data-name="Trazado 147597" d="M106.942,202.3a49.148,49.148,0,0,1,2.858,9.306,6.7,6.7,0,0,1-6.541,8.132h-20.8s-9.124,1.631-9.341,3.6-2.085,12.6-5.785,27.7a8.709,8.709,0,0,1-4.872-.2,6.027,6.027,0,0,1-2.032-1.65s2.225-33.534,3.966-35.914,19.678-9.457,25.486-10.161,17.063-.824,17.063-.824" fill="#4c8f74"/>
        <path id="Trazado_147598" data-name="Trazado 147598" d="M95.411,172.066l-3.217,3.088-5.481,0c-.006-.441.012-2.279.031-3.945,0-.1,0-.195,0-.292,0-.369.009-.726.013-1.051.011-.918.02-1.583.02-1.583l1.409-.964,3.131-2.143,1.692-1.157c0,.028.141,1.542.162,1.762a12.83,12.83,0,0,0,2.235,6.283" fill="#ffbcbc"/>
        <path id="Trazado_147599" data-name="Trazado 147599" d="M87.443,171.508c.1-.043,6.035-2.7,6.729-2.474s1.558,2.347,1.558,2.347l-10.443,2.361a5.194,5.194,0,0,1,2.156-2.234" fill="#266340"/>
        <path id="Trazado_147600" data-name="Trazado 147600" d="M113.093,189.281c-1.13-6.967-5.9-12.182-7.942-14.137-1.371-2.062-9.422-3.763-9.422-3.763l-10.443,2.361a13.3,13.3,0,0,0-9.205,6.128c-2.053,3.4-7.932,11.161-11.793,11.4S48.3,193.866,48.3,193.866v2.983l18.486.507a3.159,3.159,0,0,0,.673-.054c1.591-.3,8.409-1.655,11.8-3.42.542,8.733,1.182,22.067,4.232,24.185,3.225,2.24,25.911,2.539,28.313-.875,1.229-1.747-.278-12.091-2.161-22.066,2.341-1.113,3.922-2.924,3.448-5.845" fill="#4b9a76"/>
        <path id="Trazado_147601" data-name="Trazado 147601" d="M92.138,167l-.279.174a22.45,22.45,0,0,1-5.1,2.69c.011-.918.021-1.583.021-1.583l1.409-.963Z" fill="#f5a7ad"/>
        <path id="Trazado_147602" data-name="Trazado 147602" d="M84.862,168.332s8.433,1,8.974-4.264,1.993-8.676-3.369-9.536-6.615,1.041-7.223,2.753-.562,10.652,1.618,11.047" fill="#ffbcbc"/>
        <path id="Trazado_147603" data-name="Trazado 147603" d="M83.467,156.747s1.592,5.708,2.745,5.232,2.206-.866,2.357.916-1.136,4.113,2.621,3.731,7.291-10.912,5.938-12.528c-3.9-4.663-19.085-2.916-13.661,2.649" fill="#266340"/>
        <path id="Trazado_147604" data-name="Trazado 147604" d="M77.494,220.871h39.851a4.734,4.734,0,0,0,4.734-4.734H77.494Z" fill="#a6eac6"/>
        <path id="Trazado_147605" data-name="Trazado 147605" d="M72.741,220.871h31.068a2.367,2.367,0,1,0,0-4.734H72.741a2.367,2.367,0,0,0,0,4.734" fill="#f59f37"/>
        <path id="Trazado_147606" data-name="Trazado 147606" d="M98.77,255.112h2.691l.755-34.241H98.1Z" fill="#4c8f74"/>
        <path id="Trazado_147607" data-name="Trazado 147607" d="M87.075,255.112h26.17v-2.364l-13.338-1.2-12.832,1.2Z" fill="#4c8f74"/>
        <path id="Trazado_147608" data-name="Trazado 147608" d="M115.787,254.741a2.153,2.153,0,1,0-2.153,2.153,2.153,2.153,0,0,0,2.153-2.153" fill="#4c8f74"/>
        <path id="Trazado_147609" data-name="Trazado 147609" d="M89.618,254.741a2.152,2.152,0,1,0-2.154,2.153,2.154,2.154,0,0,0,2.154-2.153" fill="#4c8f74"/>
        <path id="Trazado_147610" data-name="Trazado 147610" d="M88.013,223.117h24.294a2.247,2.247,0,0,0,2.246-2.246H85.767a2.246,2.246,0,0,0,2.246,2.246" fill="#4c8f74"/>
        <path id="Trazado_147611" data-name="Trazado 147611" d="M117.958,220.871a2.048,2.048,0,0,0,2.048-2.048v-31.53c0-5.909-3.863-10.7-8.628-10.7H91.867c-4.765,0-8.628,4.79-8.628,10.7v33.578Z" fill="#f59f37"/>
        <path id="Trazado_147612" data-name="Trazado 147612" d="M118.344,220.871a3.736,3.736,0,0,0,3.736-3.736V187.293c0-5.909-3.863-10.7-8.628-10.7H93.941c-4.766,0-8.628,4.79-8.628,10.7v33.578Z" fill="#ce6c0b"/>
        <rect id="Rectángulo_5582" data-name="Rectángulo 5582" width="1.15" height="1.15" transform="translate(154.742 143.787)" fill="#a9c2ff"/>
        <rect id="Rectángulo_5583" data-name="Rectángulo 5583" width="1.15" height="1.15" transform="translate(157.727 143.787)" fill="#a9c2ff"/>
        <rect id="Rectángulo_5584" data-name="Rectángulo 5584" width="1.15" height="1.15" transform="translate(160.712 143.787)" fill="#a9c2ff"/>
        <rect id="Rectángulo_5585" data-name="Rectángulo 5585" width="1.15" height="1.15" transform="translate(154.742 146.348)" fill="#a9c2ff"/>
        <rect id="Rectángulo_5586" data-name="Rectángulo 5586" width="1.15" height="1.15" transform="translate(157.727 146.348)" fill="#a9c2ff"/>
        <rect id="Rectángulo_5587" data-name="Rectángulo 5587" width="1.15" height="1.15" transform="translate(160.712 146.348)" fill="#a9c2ff"/>
        <rect id="Rectángulo_5588" data-name="Rectángulo 5588" width="1.15" height="1.15" transform="translate(154.742 149.186)" fill="#a9c2ff"/>
        <rect id="Rectángulo_5589" data-name="Rectángulo 5589" width="1.15" height="1.15" transform="translate(157.727 149.186)" fill="#a9c2ff"/>
        <rect id="Rectángulo_5590" data-name="Rectángulo 5590" width="1.15" height="1.15" transform="translate(160.712 149.186)" fill="#a9c2ff"/>
        <path id="Trazado_147613" data-name="Trazado 147613" d="M166.72,175.286l1.862-.275c.206-.031.294-.242.209-.5l-1.813-5.518a.774.774,0,0,0-.711-.558l-1.862.275c-.205.03-.294.242-.208.5l1.812,5.518a.775.775,0,0,0,.711.559" fill="#1e3865"/>
        <path id="Trazado_147614" data-name="Trazado 147614" d="M167.379,175.189l1.862-.275c.206-.031.294-.243.209-.5l-1.813-5.518a.775.775,0,0,0-.711-.559l-1.862.276c-.206.03-.294.242-.208.5l1.812,5.518a.775.775,0,0,0,.711.559" fill="#132e52"/>
        <path id="Trazado_147615" data-name="Trazado 147615" d="M165.582,169.618h0c.054-.008.081-.072.06-.141l-1.471-4.88a.144.144,0,0,0-.137-.112c-.054.008-.082.072-.061.141l1.472,4.88a.143.143,0,0,0,.137.112" fill="#132e52"/>
        <path id="Trazado_147616" data-name="Trazado 147616" d="M165.09,151.092a14.927,14.927,0,0,0-2.411-3.135,6.525,6.525,0,0,0-3.994-.867c-.339.671,1.117,1.64,1.419,2.256s.173,1.5,1.607,2.228c1.481.75,2.34,1.242,2.34,1.242Z" fill="#ffae73"/>
        <path id="Trazado_147617" data-name="Trazado 147617" d="M163.954,150.781c.691-1.076.9-1.131.9-1.131s11.432,4.559,12.523,4.94,17.4,1.34,17.4,1.34l4.923,10.819s-21.736-4.957-24.481-5.976c-4.537-1.684-11.815-8.279-11.815-8.279a3.563,3.563,0,0,1,.551-1.713" fill="#1e3865"/>
        <path id="Trazado_147618" data-name="Trazado 147618" d="M192.354,251.941s-.249,4.013-.994,4.957H179.893a2.04,2.04,0,0,1,1.831-1.639c1.812-.315,4.845-1.588,5.941-3.983,1.155-2.519,4.689.665,4.689.665" fill="#0b3563"/>
        <path id="Trazado_147619" data-name="Trazado 147619" d="M212.7,251.381s.715,5.213-.268,5.3c-.129.012-4.36.009-6.017,0-2.062-.012-5.355.013-5.355.013a.539.539,0,0,1-.488-.811,2.174,2.174,0,0,1,1.559-1c1.8-.347,4.814-1.674,5.87-4.087,1.11-2.539,4.7.582,4.7.582" fill="#0b3563"/>
        <path id="Trazado_147620" data-name="Trazado 147620" d="M186.963,198.534s2.883,10.089,11.147,27.61,8.9,25.5,8.9,25.5l5.693-.268s-.535-20.853-4.439-29.7-4.7-33.036-4.7-33.036Z" fill="#e0a30a"/>
        <path id="Trazado_147621" data-name="Trazado 147621" d="M182.333,189.854a251.579,251.579,0,0,0,2.473,34.8c2.7,19.182,1.787,27.324,1.787,27.324l6.474.215s3.869-19.189,2.76-28.79,5.3-32.945,5.3-32.945Z" fill="#f5c537"/>
        <path id="Trazado_147622" data-name="Trazado 147622" d="M195.108,153.294l-3.053,2.262-4.413-.929c.061-.4.352-2.071.617-3.581.016-.09.032-.179.047-.266l.424-2.389,4.121-2.055,1.537-.766c0,.028-.119,1.427-.135,1.631a13.2,13.2,0,0,0,.855,6.093" fill="#ffae73"/>
        <path id="Trazado_147623" data-name="Trazado 147623" d="M187.95,152.153c.1-.041,6-1.784,6.645-1.572s1.021,1.454,1.021,1.454l-9.118,2.6s.218-1.959,1.452-2.479" fill="#0b3563"/>
        <path id="Trazado_147624" data-name="Trazado 147624" d="M203.854,191.782c-1,4.567-21.872-9.763-21.594-12.55.031-.306.061-.614.092-.92.385-3.881.755-7.678.78-10.156a34.923,34.923,0,0,1,.711-6.344c.363-1.843.809-3.516,1.2-4.819a5.327,5.327,0,0,1,3.124-3.422,4.651,4.651,0,0,1,.517-.181c2.514-.729,5.992-1.632,6.936-1.356,2.555.752,4.452,5.247,5.795,10.979,2.514,10.729,3.1,25.793,2.443,28.769" fill="#214d9a"/>
        <path id="Trazado_147625" data-name="Trazado 147625" d="M193.943,147.266c-.9,1.732-4.278,3.23-5.684,3.78.016-.089.032-.178.047-.265.227-1.285.423-2.39.423-2.39l4.122-2.054c.911-.014,1.465.216,1.092.929" fill="#ffa05e"/>
        <path id="Trazado_147626" data-name="Trazado 147626" d="M186.727,148.149s7.436,2.321,8.809-2.332,3.258-7.488-1.432-9.165-6.14-.176-6.976,1.266-2.3,9.508-.4,10.231" fill="#ffae73"/>
        <path id="Trazado_147627" data-name="Trazado 147627" d="M187.42,137.469s.474,5.414,1.594,5.179,2.135-.409,1.971,1.223-1.716,3.517,1.734,3.806,8.412-8.611,7.464-10.3c-2.735-4.862-16.716-5.843-12.763.088" fill="#0b3563"/>
        <path id="Trazado_147628" data-name="Trazado 147628" d="M182.89,189.854c2.067.747-.036-2.054,0-2.638.161-2.568-.847-5.814-.538-8.9l12.625-7.546s2.995,18.968-12.087,19.088" fill="#1e3865"/>
        <path id="Trazado_147629" data-name="Trazado 147629" d="M203.854,191.782c-5.389,9.988-6.248,13.8-6.248,13.8-4.69-.534-12.728-9.756-15.277-12.217,0,0-.347-11.348-.069-14.135l3.9-.112s7.043,1.785,8.868-.637,1.035-14.312,1.035-14.312l5.352-1.158c2.514,10.729,3.889,26.088,2.443,28.769" fill="#f5c537"/>
        <path id="Trazado_147630" data-name="Trazado 147630" d="M173.106,172.674a7.131,7.131,0,0,1-1.94-.629c-.592-.487-1.058-1.3-1.348-1.392-.486-.152-1.682-1.653-1.782-1.759-.038-.042-.361.115-.282.362s.257.786.322.98c.282.853.269,1.116-.752.785-.132-.042-2.491-.791-2.733-.256s.735,3.11,1.966,3.666,4.268.053,4.487.117c1.857.54,2.062-1.874,2.062-1.874" fill="#ffae73"/>
        <path id="Trazado_147631" data-name="Trazado 147631" d="M171.852,172.173s12.521,2.129,13.631,1.588c1.77-.862-.688-13.566-.688-13.566a3.655,3.655,0,0,1,3.258-3.558c2.922-.59,5.742,1.6,5.742,1.6s2.564,2.3,2.237,4.84c-.727,5.641-1.856,17.115-5.63,18.874-4.866,2.268-18.949-6.291-18.949-6.291a2.459,2.459,0,0,1-.4-1.64,3.817,3.817,0,0,1,.8-1.846" fill="#214d9a"/>
        <path id="Trazado_147632" data-name="Trazado 147632" d="M197.1,163.946l-1.038.224s-2.193-9.492-9.561-9.538a5.238,5.238,0,0,1,1.665-1.061c2.7.724,7.389,3.032,8.934,10.375" fill="#f5c537"/>
        <path id="Trazado_147633" data-name="Trazado 147633" d="M160.977,149.857s-2.03-1.244-2.125-.711c-.047.266.855,1,1.218,1.305s1.288.923,1.288.923Z" fill="#ffae73"/>
        <path id="Trazado_147634" data-name="Trazado 147634" d="M546.174,258.608H1.01a1.01,1.01,0,1,1,0-2.02H546.174a1.01,1.01,0,1,1,0,2.02" fill="#2d3554"/>
        <rect id="Rectángulo_5591" data-name="Rectángulo 5591" width="26.075" height="21.501" transform="translate(479.056 212.511)" fill="#f2b705"/>
        <rect id="Rectángulo_5592" data-name="Rectángulo 5592" width="26.075" height="21.501" transform="translate(466.018 212.511)" fill="#f7d469"/>
        <path id="Trazado_147635" data-name="Trazado 147635" d="M505.116,228.559h-4.132l.364-1.163-.364-.83h4.132Z" fill="#d39305"/>
        <path id="Trazado_147636" data-name="Trazado 147636" d="M492.093,219.165h-4.132l.364-1.163-.364-.83h4.132Z" fill="#f2b705"/>
        <path id="Trazado_147637" data-name="Trazado 147637" d="M492.093,217.171h4.132l-.364,1.163.364.83h-4.132Z" fill="#d39305"/>
        <path id="Trazado_147638" data-name="Trazado 147638" d="M466.018,228.79h4.132l-.364,1.163.364.83h-4.132Z" fill="#f2b705"/>
        <rect id="Rectángulo_5593" data-name="Rectángulo 5593" width="7.504" height="2.919" transform="translate(467.725 213.969)" fill="#fff"/>
        <rect id="Rectángulo_5594" data-name="Rectángulo 5594" width="27.785" height="22.911" transform="translate(465.615 233.823)" fill="#f2b705"/>
        <rect id="Rectángulo_5595" data-name="Rectángulo 5595" width="27.785" height="22.911" transform="translate(451.722 233.823)" fill="#f7d469"/>
        <path id="Trazado_147639" data-name="Trazado 147639" d="M493.384,250.923h-4.4l.388-1.239-.388-.885h4.4Z" fill="#d39305"/>
        <path id="Trazado_147640" data-name="Trazado 147640" d="M479.507,240.913h-4.4l.388-1.239-.388-.885h4.4Z" fill="#f2b705"/>
        <path id="Trazado_147641" data-name="Trazado 147641" d="M479.507,238.789h4.4l-.388,1.239.388.885h-4.4Z" fill="#d39305"/>
        <path id="Trazado_147642" data-name="Trazado 147642" d="M451.722,251.169h4.4l-.388,1.239.388.885h-4.4Z" fill="#f2b705"/>
        <rect id="Rectángulo_5596" data-name="Rectángulo 5596" width="7.996" height="3.111" transform="translate(453.541 235.376)" fill="#fff"/>
        <rect id="Rectángulo_5597" data-name="Rectángulo 5597" width="27.785" height="22.911" transform="translate(507.277 233.823)" fill="#f2b705"/>
        <rect id="Rectángulo_5598" data-name="Rectángulo 5598" width="27.785" height="22.911" transform="translate(493.384 233.823)" fill="#f7d469"/>
        <path id="Trazado_147643" data-name="Trazado 147643" d="M535.045,250.923h-4.4l.388-1.239-.388-.885h4.4Z" fill="#d39305"/>
        <path id="Trazado_147644" data-name="Trazado 147644" d="M521.169,240.913h-4.4l.388-1.239-.388-.885h4.4Z" fill="#f2b705"/>
        <path id="Trazado_147645" data-name="Trazado 147645" d="M521.169,238.789h4.4l-.388,1.239.388.885h-4.4Z" fill="#d39305"/>
        <path id="Trazado_147646" data-name="Trazado 147646" d="M493.384,251.169h4.4l-.388,1.239.388.885h-4.4Z" fill="#f2b705"/>
        <rect id="Rectángulo_5599" data-name="Rectángulo 5599" width="7.996" height="3.111" transform="translate(495.203 235.376)" fill="#fff"/>
      </g>
    </g>
  </g>
</svg>
