<svg id="Grupo_54590" data-name="Grupo 54590" xmlns="http://www.w3.org/2000/svg" xmlns:xlink="http://www.w3.org/1999/xlink" width="452.886" height="320.657" viewBox="0 0 452.886 320.657">
  <defs>
    <clipPath id="clip-path">
      <rect id="Rectángulo_5644" data-name="Rectángulo 5644" width="452.886" height="320.657" fill="none"/>
    </clipPath>
    <clipPath id="clip-path-3">
      <rect id="Rectángulo_5607" data-name="Rectángulo 5607" width="162.921" height="162.921" fill="none"/>
    </clipPath>
    <clipPath id="clip-path-4">
      <rect id="Rectángulo_5608" data-name="Rectángulo 5608" width="57.193" height="122.337" fill="none"/>
    </clipPath>
    <clipPath id="clip-path-5">
      <rect id="Rectángulo_5609" data-name="Rectángulo 5609" width="41.907" height="74.301" fill="none"/>
    </clipPath>
    <clipPath id="clip-path-7">
      <path id="Trazado_147764" data-name="Trazado 147764" d="M67.976,168.724c-.154.235-.419.592-.691,1.038-.29.45-.638,1-1,1.641-.39.643-.784,1.369-1.2,2.178a61.788,61.788,0,0,0-2.646,5.712,64.032,64.032,0,0,0,5.006,58.059,64.589,64.589,0,0,0,10.8,13.042,62.869,62.869,0,0,0,5.8,4.786,61.625,61.625,0,0,0,5.232,3.474c.779.469,1.494.876,2.16,1.224.638.35,1.223.638,1.7.873.463.236.875.4,1.13.519l.4.175.246-.358c.153-.231.418-.59.686-1.036.284-.449.633-1,.99-1.638.386-.644.777-1.369,1.194-2.175a66.4,66.4,0,0,0,5.041-12.827,64.675,64.675,0,0,0,2.332-16.773,63.8,63.8,0,0,0-2.426-17.779,62.85,62.85,0,0,0-7.23-16.413A63.728,63.728,0,0,0,84.7,179.4a66.185,66.185,0,0,0-11.065-8.253c-.783-.465-1.5-.875-2.169-1.22-.64-.352-1.229-.639-1.712-.872-.464-.235-.876-.4-1.136-.519l-.4-.174-.249.359" transform="translate(-57.68 -168.365)" fill="none"/>
    </clipPath>
    <clipPath id="clip-path-8">
      <rect id="Rectángulo_5612" data-name="Rectángulo 5612" width="73.928" height="126.856" fill="none"/>
    </clipPath>
    <clipPath id="clip-path-10">
      <rect id="Rectángulo_5613" data-name="Rectángulo 5613" width="36.933" height="93.082" fill="none"/>
    </clipPath>
    <clipPath id="clip-path-11">
      <rect id="Rectángulo_5614" data-name="Rectángulo 5614" width="7.363" height="33.27" fill="none"/>
    </clipPath>
    <clipPath id="clip-path-12">
      <rect id="Rectángulo_5615" data-name="Rectángulo 5615" width="39.504" height="23.924" fill="none"/>
    </clipPath>
    <clipPath id="clip-path-13">
      <rect id="Rectángulo_5616" data-name="Rectángulo 5616" width="46.163" height="12.542" fill="none"/>
    </clipPath>
    <clipPath id="clip-path-14">
      <path id="Trazado_147783" data-name="Trazado 147783" d="M327.466,168.539c-.257.12-.669.284-1.133.519-.485.233-1.072.519-1.712.872-.669.344-1.387.754-2.17,1.22a66.245,66.245,0,0,0-11.064,8.253,63.776,63.776,0,0,0-10.8,13.045,62.884,62.884,0,0,0-7.228,16.413,63.759,63.759,0,0,0-2.426,17.779,64.627,64.627,0,0,0,2.331,16.773,63.213,63.213,0,0,0,2.416,7.121,61.726,61.726,0,0,0,2.626,5.706c.415.806.808,1.532,1.193,2.175.358.636.7,1.188.992,1.638.267.447.531.805.686,1.036s.246.358.246.358l.4-.175c.255-.119.666-.283,1.13-.519s1.065-.523,1.7-.873c.667-.348,1.382-.755,2.16-1.224a61.627,61.627,0,0,0,5.232-3.474,62.567,62.567,0,0,0,5.8-4.786,64.589,64.589,0,0,0,10.8-13.042,63.7,63.7,0,0,0,7.282-16.4,62.976,62.976,0,0,0,2.482-17.764,63.8,63.8,0,0,0-2.329-16.77,63.034,63.034,0,0,0-2.429-7.125,62.11,62.11,0,0,0-2.645-5.712c-.422-.808-.815-1.535-1.2-2.178-.359-.637-.708-1.191-1-1.641-.273-.446-.537-.8-.692-1.038s-.249-.359-.249-.359l-.4.174" transform="translate(-290.933 -168.365)" fill="none"/>
    </clipPath>
    <clipPath id="clip-path-15">
      <rect id="Rectángulo_5618" data-name="Rectángulo 5618" width="73.929" height="126.856" fill="none"/>
    </clipPath>
    <clipPath id="clip-path-17">
      <rect id="Rectángulo_5619" data-name="Rectángulo 5619" width="36.932" height="93.082" fill="none"/>
    </clipPath>
    <clipPath id="clip-path-18">
      <rect id="Rectángulo_5620" data-name="Rectángulo 5620" width="7.364" height="33.27" fill="none"/>
    </clipPath>
    <clipPath id="clip-path-21">
      <rect id="Rectángulo_5623" data-name="Rectángulo 5623" width="83.194" height="133.328" fill="none"/>
    </clipPath>
    <clipPath id="clip-path-22">
      <rect id="Rectángulo_5624" data-name="Rectángulo 5624" width="36.539" height="131.15" fill="none"/>
    </clipPath>
    <clipPath id="clip-path-23">
      <rect id="Rectángulo_5625" data-name="Rectángulo 5625" width="315.34" height="133.328" fill="none"/>
    </clipPath>
    <clipPath id="clip-path-24">
      <rect id="Rectángulo_5626" data-name="Rectángulo 5626" width="48.536" height="32.448" fill="none"/>
    </clipPath>
    <clipPath id="clip-path-26">
      <rect id="Rectángulo_5628" data-name="Rectángulo 5628" width="46.947" height="47.736" fill="none"/>
    </clipPath>
    <clipPath id="clip-path-27">
      <rect id="Rectángulo_5629" data-name="Rectángulo 5629" width="28.803" height="98.387" fill="none"/>
    </clipPath>
    <clipPath id="clip-path-28">
      <rect id="Rectángulo_5630" data-name="Rectángulo 5630" width="33.143" height="55.834" fill="none"/>
    </clipPath>
    <clipPath id="clip-path-29">
      <rect id="Rectángulo_5631" data-name="Rectángulo 5631" width="19.116" height="97.604" fill="none"/>
    </clipPath>
    <clipPath id="clip-path-30">
      <rect id="Rectángulo_5632" data-name="Rectángulo 5632" width="25.313" height="42.643" fill="none"/>
    </clipPath>
    <clipPath id="clip-path-31">
      <rect id="Rectángulo_5633" data-name="Rectángulo 5633" width="14.598" height="74.545" fill="none"/>
    </clipPath>
    <clipPath id="clip-path-32">
      <rect id="Rectángulo_5634" data-name="Rectángulo 5634" width="30.863" height="31.382" fill="none"/>
    </clipPath>
    <clipPath id="clip-path-33">
      <rect id="Rectángulo_5635" data-name="Rectángulo 5635" width="18.935" height="64.68" fill="none"/>
    </clipPath>
    <clipPath id="clip-path-34">
      <rect id="Rectángulo_5636" data-name="Rectángulo 5636" width="96.965" height="94.149" fill="none"/>
    </clipPath>
    <clipPath id="clip-path-35">
      <rect id="Rectángulo_5637" data-name="Rectángulo 5637" width="65.58" height="99.925" fill="none"/>
    </clipPath>
    <clipPath id="clip-path-36">
      <rect id="Rectángulo_5638" data-name="Rectángulo 5638" width="62.385" height="39.288" fill="none"/>
    </clipPath>
    <clipPath id="clip-path-37">
      <rect id="Rectángulo_5639" data-name="Rectángulo 5639" width="96.728" height="37.757" fill="none"/>
    </clipPath>
    <clipPath id="clip-path-38">
      <rect id="Rectángulo_5640" data-name="Rectángulo 5640" width="56.77" height="31.034" fill="none"/>
    </clipPath>
    <clipPath id="clip-path-39">
      <rect id="Rectángulo_5641" data-name="Rectángulo 5641" width="61.783" height="24.115" fill="none"/>
    </clipPath>
    <clipPath id="clip-path-40">
      <rect id="Rectángulo_5642" data-name="Rectángulo 5642" width="393.686" height="162.617" fill="none"/>
    </clipPath>
  </defs>
  <g id="Grupo_54589" data-name="Grupo 54589" clip-path="url(#clip-path)">
    <g id="Grupo_54490" data-name="Grupo 54490">
      <g id="Grupo_54489" data-name="Grupo 54489" clip-path="url(#clip-path)">
        <g id="Grupo_54479" data-name="Grupo 54479" transform="translate(221.133 80.326)" opacity="0.3">
          <g id="Grupo_54478" data-name="Grupo 54478">
            <g id="Grupo_54477" data-name="Grupo 54477" clip-path="url(#clip-path-3)">
              <path id="Trazado_147744" data-name="Trazado 147744" d="M354.938,151.211A81.461,81.461,0,1,1,273.478,69.75a81.46,81.46,0,0,1,81.461,81.461" transform="translate(-192.017 -69.75)" fill="#ffc50f"/>
            </g>
          </g>
        </g>
        <path id="Trazado_147745" data-name="Trazado 147745" d="M332.452,148.594A61.592,61.592,0,1,1,270.861,87a61.591,61.591,0,0,1,61.592,61.59" transform="translate(31.732 13.193)" fill="#ffc50f"/>
        <path id="Trazado_147746" data-name="Trazado 147746" d="M203.746,74.081h-.028c-23.478,0-53.935,122.337-53.935,122.337h107.9S227.223,74.081,203.746,74.081" transform="translate(22.712 11.233)" fill="#048c66"/>
        <path id="Trazado_147747" data-name="Trazado 147747" d="M206.457,98.7s6.5,9.431,14.388-1.752c-6.762-13.519-13.782-22.867-20.268-22.867h-.029c-9.645,0-20.464,20.648-29.87,44.975,2.878.463,11.081.433,15.13-13.633,0,0,13.691,14.779,20.648-6.723" transform="translate(25.88 11.233)" fill="#62cc90"/>
        <g id="Grupo_54482" data-name="Grupo 54482" transform="translate(223.199 85.313)" opacity="0.2">
          <g id="Grupo_54481" data-name="Grupo 54481">
            <g id="Grupo_54480" data-name="Grupo 54480" clip-path="url(#clip-path-4)">
              <path id="Trazado_147748" data-name="Trazado 147748" d="M197.07,74.081h-.028a7.989,7.989,0,0,0-3.23.738c8.531,21.244,25.514,69.434,27.963,121.6H251S220.547,74.081,197.07,74.081" transform="translate(-193.811 -74.08)" fill="#007500"/>
            </g>
          </g>
        </g>
        <path id="Trazado_147749" data-name="Trazado 147749" d="M87.9,229.31s15.928-105.075,33.079-105.075,37.618,59.694,37.618,59.694L86.3,231.367" transform="translate(13.086 18.838)" fill="#048c66"/>
        <path id="Trazado_147750" data-name="Trazado 147750" d="M98.207,168.491c.007,0,9.621,1.646,11.555-13.558,0,0,13,10.518,16.043-8.569,0,0,6.89,7.482,12.02-4.558V141.8c-5.912-9.867-12.5-17.565-18.658-17.565-7.671,0-15.094,21.021-20.961,44.256" transform="translate(14.891 18.838)" fill="#3bbf74"/>
        <g id="Grupo_54485" data-name="Grupo 54485" transform="translate(129.77 143.073)" opacity="0.2">
          <g id="Grupo_54484" data-name="Grupo 54484">
            <g id="Grupo_54483" data-name="Grupo 54483" clip-path="url(#clip-path-5)">
              <path id="Trazado_147751" data-name="Trazado 147751" d="M116.973,124.235a6.383,6.383,0,0,0-4.29,2.116c6.532,14.6,17.945,43.718,19.647,72.187l22.261-14.608s-20.469-59.694-37.618-59.694" transform="translate(-112.684 -124.235)" fill="#007500"/>
            </g>
          </g>
        </g>
        <path id="Trazado_147752" data-name="Trazado 147752" d="M314.88,229.31S298.951,124.235,281.8,124.235s-37.618,59.694-37.618,59.694l72.292,47.438" transform="translate(37.026 18.838)" fill="#048c66"/>
        <path id="Trazado_147753" data-name="Trazado 147753" d="M300.266,168.491c-.007,0-9.622,1.646-11.555-13.558,0,0-13,10.518-16.043-8.569,0,0-6.89,7.482-12.02-4.558V141.8c5.912-9.867,12.5-17.565,18.659-17.565,7.67,0,15.093,21.021,20.96,44.256" transform="translate(39.522 18.838)" fill="#3bbf74"/>
        <g id="Grupo_54488" data-name="Grupo 54488" transform="translate(281.21 143.073)" opacity="0.2">
          <g id="Grupo_54487" data-name="Grupo 54487">
            <g id="Grupo_54486" data-name="Grupo 54486" clip-path="url(#clip-path-5)">
              <path id="Trazado_147754" data-name="Trazado 147754" d="M281.8,124.235a6.386,6.386,0,0,1,4.289,2.116c-6.532,14.6-17.945,43.718-19.646,72.187l-22.261-14.608s20.468-59.694,37.618-59.694" transform="translate(-244.184 -124.235)" fill="#007500"/>
            </g>
          </g>
        </g>
        <path id="Trazado_147755" data-name="Trazado 147755" d="M36.246,200.489a40.789,40.789,0,0,1,23.63,2.608,115.615,115.615,0,0,0-15.258-12.685c-5.893-4.077-12.82-8.3-19.926-9.9a1.271,1.271,0,0,1,.555-2.478c7.354,1.657,14.4,5.959,20.537,10.122,2.036,1.38,4.011,2.841,5.941,4.351-3.054-5.232-5.14-11.079-4.73-16.925.114-1.616,2.655-1.729,2.539-.092-.625,8.922,4.935,17.87,10.559,24.263C71.422,210.5,80.771,223.4,88.606,236.793c.826,1.412-1.317,2.778-2.147,1.36a177.637,177.637,0,0,0-20.6-28.77,37.669,37.669,0,0,0-28.867-6.464c-1.59.314-2.353-2.116-.743-2.43" transform="translate(3.599 26.431)" fill="#048c66"/>
        <path id="Trazado_147756" data-name="Trazado 147756" d="M40.046,176.891a6.52,6.52,0,1,0,2.015-9,6.519,6.519,0,0,0-2.015,9" transform="translate(5.918 25.304)" fill="#ff8d67"/>
        <path id="Trazado_147757" data-name="Trazado 147757" d="M41.608,170.128c.062,1,1.571,1.73,3.377,1.623s3.221-1.01,3.159-2.015-1.572-1.729-3.378-1.62-3.218,1.01-3.158,2.013" transform="translate(6.309 25.49)" fill="#f35c2b"/>
        <path id="Trazado_147758" data-name="Trazado 147758" d="M26.766,185.328a6.52,6.52,0,1,0-6.843-6.182,6.52,6.52,0,0,0,6.843,6.182" transform="translate(3.02 26.125)" fill="#ff8d67"/>
        <path id="Trazado_147759" data-name="Trazado 147759" d="M21.824,180.115c.9.441,2.278-.517,3.073-2.142s.7-3.3-.2-3.741-2.279.517-3.076,2.143-.7,3.3.2,3.739" transform="translate(3.197 26.403)" fill="#f35c2b"/>
        <path id="Trazado_147760" data-name="Trazado 147760" d="M40.725,203.208a6.521,6.521,0,1,0-9.193.7,6.523,6.523,0,0,0,9.193-.7" transform="translate(4.437 29.18)" fill="#ff8d67"/>
        <path id="Trazado_147761" data-name="Trazado 147761" d="M33.677,202.65c.942-.352,1.2-2.008.568-3.7s-1.9-2.786-2.848-2.436-1.2,2.01-.567,3.7,1.906,2.783,2.847,2.433" transform="translate(4.622 29.787)" fill="#f35c2b"/>
        <path id="Trazado_147762" data-name="Trazado 147762" d="M94.665,261.447l.246-.358c.154-.233.418-.59.686-1.036.286-.449.632-1,.99-1.638.386-.643.779-1.368,1.194-2.175a62.207,62.207,0,0,0,2.625-5.706,62.828,62.828,0,0,0,2.416-7.121,64.626,64.626,0,0,0,2.331-16.773,63.758,63.758,0,0,0-2.425-17.779A62.9,62.9,0,0,0,95.5,192.447a64.213,64.213,0,0,0-16.609-17.827c-1.893-1.379-3.667-2.545-5.253-3.47-.782-.465-1.5-.875-2.17-1.22-.639-.352-1.228-.639-1.711-.871-.464-.236-.878-.4-1.134-.519l-.4-.175-.249.36c-.155.234-.419.591-.691,1.038-.289.449-.638,1-1,1.64-.389.644-.782,1.369-1.2,2.178a61.819,61.819,0,0,0-2.644,5.712,62.8,62.8,0,0,0-2.43,7.125,63.8,63.8,0,0,0-2.327,16.77,62.988,62.988,0,0,0,2.481,17.765,63.71,63.71,0,0,0,7.282,16.4,64.558,64.558,0,0,0,10.8,13.042,62.869,62.869,0,0,0,5.8,4.786,61.625,61.625,0,0,0,5.232,3.474c.779.468,1.494.878,2.16,1.224.638.35,1.224.638,1.7.872.463.236.875.4,1.13.522l.4.174" transform="translate(8.746 25.529)" fill="#037562"/>
      </g>
    </g>
    <g id="Grupo_54495" data-name="Grupo 54495" transform="translate(66.426 193.894)">
      <g id="Grupo_54494" data-name="Grupo 54494" clip-path="url(#clip-path-7)">
        <g id="Grupo_54493" data-name="Grupo 54493" transform="translate(-19.279 -20.109)" opacity="0.5">
          <g id="Grupo_54492" data-name="Grupo 54492">
            <g id="Grupo_54491" data-name="Grupo 54491" clip-path="url(#clip-path-8)">
              <path id="Trazado_147763" data-name="Trazado 147763" d="M44.316,177.417c-.791-.412-.117-1.619.674-1.209l31.117,16.154q-1.249-4.407-2.5-8.816-16.157-8.387-32.311-16.772c-.792-.412-.119-1.618.674-1.209l31.118,16.155q-2.453-8.63-4.9-17.258a.692.692,0,0,1,1.33-.378q2.45,8.629,4.9,17.257,8.991-15.051,17.978-30.1c.457-.765,1.666-.094,1.209.673q-9.337,15.628-18.669,31.255,1.251,4.408,2.5,8.816l17.978-30.1c.458-.765,1.666-.093,1.21.673q-9.34,15.63-18.669,31.255,1.249,4.407,2.5,8.816,8.99-15.051,17.977-30.1c.458-.766,1.668-.094,1.21.673q-9.339,15.628-18.669,31.254,1.252,4.408,2.5,8.816,8.995-15.048,17.98-30.1c.456-.766,1.665-.093,1.209.674Q93.337,199.47,84,215.1q1.251,4.407,2.5,8.813,8.991-15.048,17.98-30.1c.456-.767,1.665-.094,1.208.673q-9.339,15.626-18.669,31.255,1.251,4.407,2.5,8.812,8.991-15.048,17.979-30.1c.456-.768,1.665-.1,1.209.673q-9.337,15.625-18.669,31.254,1.251,4.408,2.5,8.816,8.99-15.051,17.979-30.1c.456-.767,1.666-.092,1.208.674Q102.4,231.4,93.073,247.026q1.252,4.407,2.5,8.816,8.991-15.053,17.978-30.1c.457-.764,1.666-.091,1.209.675Q105.429,242.04,96.1,257.67q2.733,9.615,5.462,19.228a.692.692,0,0,1-1.33.379q-2.731-9.615-5.461-19.228-16.159-8.39-32.312-16.774c-.792-.412-.119-1.619.675-1.21q15.561,8.079,31.117,16.154-1.251-4.407-2.5-8.813-16.159-8.39-32.312-16.774c-.792-.411-.116-1.618.674-1.209l31.118,16.155q-1.252-4.408-2.5-8.817-16.157-8.387-32.312-16.771c-.792-.413-.117-1.619.675-1.21q15.559,8.079,31.119,16.154-1.252-4.407-2.5-8.815-16.159-8.385-32.311-16.774c-.793-.412-.119-1.619.674-1.207q15.559,8.078,31.117,16.15-1.251-4.4-2.5-8.813L50.362,198.7c-.792-.413-.117-1.618.675-1.208l31.117,16.153q-1.249-4.408-2.5-8.813L47.34,188.059c-.793-.411-.119-1.619.673-1.209q15.561,8.079,31.118,16.155-1.252-4.408-2.5-8.816Q60.471,185.8,44.316,177.417" transform="translate(-40.939 -150.904)" fill="#048c66"/>
            </g>
          </g>
        </g>
      </g>
    </g>
    <g id="Grupo_54509" data-name="Grupo 54509">
      <g id="Grupo_54508" data-name="Grupo 54508" clip-path="url(#clip-path)">
        <g id="Grupo_54498" data-name="Grupo 54498" transform="translate(76.97 193.894)" opacity="0.2">
          <g id="Grupo_54497" data-name="Grupo 54497">
            <g id="Grupo_54496" data-name="Grupo 54496" clip-path="url(#clip-path-10)">
              <path id="Trazado_147765" data-name="Trazado 147765" d="M67.234,168.54c.258.119.67.283,1.134.519.484.231,1.072.519,1.712.872.669.343,1.387.754,2.169,1.22A66.018,66.018,0,0,1,83.315,179.4a63.755,63.755,0,0,1,10.8,13.043,62.919,62.919,0,0,1,7.229,16.413,63.811,63.811,0,0,1,2.426,17.78,64.611,64.611,0,0,1-2.332,16.772,63.086,63.086,0,0,1-2.415,7.122,62.491,62.491,0,0,1-2.626,5.706c-.416.806-.808,1.532-1.194,2.175-.357.635-.7,1.189-.99,1.636-.268.447-.532.8-.686,1.038s-.246.357-.246.357l-26.44-93.081s.137.059.4.174" transform="translate(-66.836 -168.365)" fill="#004c34"/>
            </g>
          </g>
        </g>
        <path id="Trazado_147766" data-name="Trazado 147766" d="M50.483,236.133s-.549-28.911-39.545-24.006c0,0,11.945,22.187,39.545,24.006" transform="translate(1.659 32.08)" fill="#3bbf74"/>
        <path id="Trazado_147767" data-name="Trazado 147767" d="M54.256,247.288s-17.011-23.383-46.163,2.979c0,0,22.5,11.342,46.163-2.979" transform="translate(1.227 36.047)" fill="#3bbf74"/>
        <path id="Trazado_147768" data-name="Trazado 147768" d="M57.332,243.831s15.787-15.493,0-33.569c0,0-14.428,17.041,0,33.569" transform="translate(7.721 31.882)" fill="#3bbf74"/>
        <path id="Trazado_147769" data-name="Trazado 147769" d="M28.823,218.3A87.524,87.524,0,0,1,61.24,248.732a94.56,94.56,0,0,1-1.3-24.694c.1-1.236,2.034-1.246,1.936,0a91.772,91.772,0,0,0,2.582,30.169,82.259,82.259,0,0,1,8.2,22.064c.256,1.217-1.611,1.736-1.867.515A77.021,77.021,0,0,0,67.3,265.034a.979.979,0,0,1-.43-.371C59.193,252.849,43.876,247,30.142,246.7a.968.968,0,0,1,0-1.936c12.34.268,25.731,4.832,34.4,13.9-.29-.6-.585-1.2-.89-1.793a.884.884,0,0,1-.661-.655c-.117-.411-.225-.826-.335-1.238-8.008-14.757-20.4-27.425-34.81-35.005-1.106-.582-.126-2.254.978-1.672" transform="translate(4.149 33.082)" fill="#037562"/>
        <g id="Grupo_54501" data-name="Grupo 54501" transform="translate(64.708 242.143)" opacity="0.2">
          <g id="Grupo_54500" data-name="Grupo 54500">
            <g id="Grupo_54499" data-name="Grupo 54499" clip-path="url(#clip-path-11)">
              <path id="Trazado_147770" data-name="Trazado 147770" d="M56.821,243.532c-.136-2.8-1.155-24.738-.288-33.271,14.507,16.61,2.353,31.041.288,33.271" transform="translate(-56.188 -210.261)" fill="#007500"/>
            </g>
          </g>
        </g>
        <g id="Grupo_54504" data-name="Grupo 54504" transform="translate(12.597 243.647)" opacity="0.2">
          <g id="Grupo_54503" data-name="Grupo 54503">
            <g id="Grupo_54502" data-name="Grupo 54502" clip-path="url(#clip-path-12)">
              <path id="Trazado_147771" data-name="Trazado 147771" d="M10.938,212.127c35.537-4.471,39.144,19.14,39.5,23.363-.736-.964-12.221-15.541-39.5-23.363" transform="translate(-10.938 -211.567)" fill="#007500"/>
            </g>
          </g>
        </g>
        <path id="Trazado_147772" data-name="Trazado 147772" d="M342.436,247.288s17.011-23.383,46.163,2.979c0,0-22.5,11.342-46.163-2.979" transform="translate(51.924 36.047)" fill="#3bbf74"/>
        <g id="Grupo_54507" data-name="Grupo 54507" transform="translate(394.36 273.772)" opacity="0.2">
          <g id="Grupo_54506" data-name="Grupo 54506">
            <g id="Grupo_54505" data-name="Grupo 54505" clip-path="url(#clip-path-13)">
              <path id="Trazado_147773" data-name="Trazado 147773" d="M342.436,247.288s28.192-10.351,46.163,2.979c-29.152-26.362-46.163-2.979-46.163-2.979" transform="translate(-342.436 -237.725)" fill="#007500"/>
            </g>
          </g>
        </g>
        <path id="Trazado_147774" data-name="Trazado 147774" d="M362.158,200.489a40.788,40.788,0,0,0-23.63,2.608,115.614,115.614,0,0,1,15.258-12.685c5.893-4.077,12.82-8.3,19.926-9.9a1.271,1.271,0,0,0-.555-2.478c-7.354,1.657-14.4,5.959-20.537,10.122-2.036,1.38-4.011,2.841-5.941,4.351,3.054-5.232,5.14-11.079,4.73-16.925-.114-1.616-2.655-1.729-2.539-.092.625,8.922-4.935,17.87-10.559,24.263C326.983,210.5,317.634,223.4,309.8,236.793c-.826,1.412,1.317,2.778,2.147,1.36a177.641,177.641,0,0,1,20.6-28.77,37.669,37.669,0,0,1,28.867-6.464c1.59.314,2.353-2.116.743-2.43" transform="translate(46.947 26.431)" fill="#048c66"/>
        <path id="Trazado_147775" data-name="Trazado 147775" d="M351.51,176.891a6.52,6.52,0,1,1-2.015-9,6.519,6.519,0,0,1,2.015,9" transform="translate(51.476 25.304)" fill="#ff8d67"/>
        <path id="Trazado_147776" data-name="Trazado 147776" d="M349.091,170.128c-.062,1-1.571,1.73-3.377,1.623s-3.22-1.01-3.159-2.015,1.572-1.729,3.378-1.62,3.218,1.01,3.158,2.013" transform="translate(51.942 25.49)" fill="#f35c2b"/>
        <path id="Trazado_147777" data-name="Trazado 147777" d="M364.789,185.328a6.52,6.52,0,1,1,6.843-6.182,6.52,6.52,0,0,1-6.843,6.182" transform="translate(54.375 26.125)" fill="#ff8d67"/>
        <path id="Trazado_147778" data-name="Trazado 147778" d="M368.588,180.115c-.9.441-2.278-.517-3.073-2.142s-.7-3.3.2-3.741,2.279.517,3.076,2.143.7,3.3-.2,3.739" transform="translate(55.341 26.403)" fill="#f35c2b"/>
        <path id="Trazado_147779" data-name="Trazado 147779" d="M350.832,203.208a6.521,6.521,0,1,1,9.192.7,6.522,6.522,0,0,1-9.192-.7" transform="translate(52.958 29.18)" fill="#ff8d67"/>
        <path id="Trazado_147780" data-name="Trazado 147780" d="M356.7,202.65c-.943-.352-1.2-2.008-.568-3.7s1.9-2.786,2.847-2.436,1.2,2.01.567,3.7S357.642,203,356.7,202.65" transform="translate(53.949 29.787)" fill="#f35c2b"/>
        <path id="Trazado_147781" data-name="Trazado 147781" d="M301.424,261.447l-.246-.358c-.154-.233-.418-.59-.686-1.036-.286-.449-.632-1-.99-1.638-.386-.643-.779-1.368-1.194-2.175a62.2,62.2,0,0,1-2.625-5.706,62.835,62.835,0,0,1-2.416-7.121,64.627,64.627,0,0,1-2.331-16.773,63.759,63.759,0,0,1,2.425-17.779,62.9,62.9,0,0,1,7.229-16.413A64.213,64.213,0,0,1,317.2,174.619c1.893-1.379,3.667-2.545,5.253-3.47.782-.465,1.5-.875,2.17-1.22.639-.352,1.228-.639,1.711-.871.464-.236.878-.4,1.134-.519l.4-.175.249.36c.155.234.419.591.691,1.038.289.449.638,1,1,1.64.388.644.782,1.369,1.2,2.178a61.8,61.8,0,0,1,2.645,5.712,62.8,62.8,0,0,1,2.43,7.125,63.8,63.8,0,0,1,2.327,16.77,62.988,62.988,0,0,1-2.481,17.765,63.71,63.71,0,0,1-7.282,16.4,64.558,64.558,0,0,1-10.8,13.042,62.866,62.866,0,0,1-5.8,4.786,61.627,61.627,0,0,1-5.232,3.474c-.779.468-1.494.878-2.16,1.224-.638.35-1.224.638-1.7.872-.463.236-.875.4-1.13.522l-.4.174" transform="translate(44.114 25.529)" fill="#037562"/>
      </g>
    </g>
    <g id="Grupo_54514" data-name="Grupo 54514" transform="translate(335.047 193.894)">
      <g id="Grupo_54513" data-name="Grupo 54513" clip-path="url(#clip-path-14)">
        <g id="Grupo_54512" data-name="Grupo 54512" transform="translate(-7.172 -20.109)" opacity="0.5">
          <g id="Grupo_54511" data-name="Grupo 54511">
            <g id="Grupo_54510" data-name="Grupo 54510" clip-path="url(#clip-path-15)">
              <path id="Trazado_147782" data-name="Trazado 147782" d="M355.256,177.417c.791-.412.117-1.619-.674-1.209l-31.117,16.154q1.249-4.407,2.5-8.816,16.157-8.387,32.311-16.772c.792-.412.119-1.618-.674-1.209l-31.118,16.155q2.453-8.63,4.9-17.258a.692.692,0,0,0-1.33-.378q-2.45,8.629-4.9,17.257-8.991-15.051-17.978-30.1c-.458-.765-1.666-.094-1.209.673q9.337,15.628,18.669,31.255-1.251,4.408-2.5,8.816l-17.978-30.1c-.458-.765-1.666-.093-1.21.673q9.34,15.63,18.669,31.255-1.249,4.407-2.5,8.816-8.99-15.051-17.977-30.1c-.458-.766-1.668-.094-1.21.673q9.339,15.628,18.669,31.254-1.252,4.408-2.5,8.816-8.995-15.048-17.98-30.1c-.457-.766-1.665-.093-1.209.674l18.67,31.254q-1.251,4.407-2.5,8.813-8.991-15.048-17.98-30.1c-.456-.767-1.665-.094-1.208.673q9.339,15.626,18.669,31.255-1.252,4.407-2.5,8.812-8.991-15.048-17.979-30.1c-.457-.768-1.665-.1-1.209.673q9.335,15.625,18.669,31.254-1.252,4.408-2.5,8.816-8.99-15.051-17.979-30.1c-.456-.767-1.666-.092-1.208.674q9.339,15.626,18.669,31.254-1.252,4.407-2.5,8.816-8.991-15.053-17.978-30.1c-.457-.764-1.666-.091-1.209.675q9.335,15.625,18.669,31.254-2.733,9.615-5.462,19.228a.692.692,0,0,0,1.33.379q2.731-9.615,5.461-19.228,16.159-8.39,32.313-16.774c.792-.412.119-1.619-.675-1.21q-15.561,8.079-31.117,16.154,1.251-4.407,2.5-8.813,16.159-8.39,32.313-16.774c.792-.411.116-1.618-.674-1.209l-31.118,16.155q1.252-4.408,2.5-8.817,16.157-8.387,32.313-16.771c.791-.413.117-1.619-.675-1.21q-15.559,8.079-31.119,16.154,1.252-4.407,2.5-8.815,16.159-8.385,32.311-16.774c.793-.412.119-1.619-.674-1.207q-15.559,8.078-31.117,16.15,1.251-4.4,2.5-8.813L349.21,198.7c.792-.413.117-1.618-.675-1.208l-31.117,16.153q1.249-4.408,2.5-8.813l32.311-16.775c.793-.411.119-1.619-.673-1.209Q336,194.929,320.441,203.005q1.252-4.408,2.5-8.816,16.157-8.388,32.312-16.772" transform="translate(-284.705 -150.904)" fill="#048c66"/>
            </g>
          </g>
        </g>
      </g>
    </g>
    <g id="Grupo_54588" data-name="Grupo 54588">
      <g id="Grupo_54587" data-name="Grupo 54587" clip-path="url(#clip-path)">
        <g id="Grupo_54517" data-name="Grupo 54517" transform="translate(335.048 193.894)" opacity="0.2">
          <g id="Grupo_54516" data-name="Grupo 54516">
            <g id="Grupo_54515" data-name="Grupo 54515" clip-path="url(#clip-path-17)">
              <path id="Trazado_147784" data-name="Trazado 147784" d="M327.467,168.54c-.258.119-.67.283-1.134.519-.484.231-1.072.519-1.712.872-.669.343-1.387.754-2.169,1.22a66.018,66.018,0,0,0-11.065,8.253,63.757,63.757,0,0,0-10.8,13.043,62.919,62.919,0,0,0-7.229,16.413,63.768,63.768,0,0,0-2.426,17.78,64.614,64.614,0,0,0,2.332,16.772,63.092,63.092,0,0,0,2.415,7.122,62.177,62.177,0,0,0,2.626,5.706c.416.806.808,1.532,1.194,2.175.357.635.7,1.189.99,1.636.268.447.532.8.686,1.038s.246.357.246.357l26.44-93.081s-.137.059-.4.174" transform="translate(-290.933 -168.365)" fill="#004c34"/>
            </g>
          </g>
        </g>
        <path id="Trazado_147785" data-name="Trazado 147785" d="M344.562,236.133s.549-28.911,39.545-24.006c0,0-11.945,22.187-39.545,24.006" transform="translate(52.246 32.08)" fill="#3bbf74"/>
        <path id="Trazado_147786" data-name="Trazado 147786" d="M334.274,243.831s-15.787-15.493,0-33.569c0,0,14.428,17.041,0,33.569" transform="translate(49.622 31.882)" fill="#3bbf74"/>
        <path id="Trazado_147787" data-name="Trazado 147787" d="M366.982,218.3a87.524,87.524,0,0,0-32.417,30.436,94.558,94.558,0,0,0,1.3-24.694c-.1-1.236-2.034-1.246-1.936,0a91.772,91.772,0,0,1-2.582,30.169,82.259,82.259,0,0,0-8.2,22.064c-.256,1.217,1.611,1.736,1.867.515a77.02,77.02,0,0,1,3.491-11.752.979.979,0,0,0,.43-.371c7.672-11.813,22.99-17.666,36.723-17.964a.968.968,0,0,0,0-1.936c-12.34.268-25.731,4.832-34.4,13.9.29-.6.585-1.2.89-1.793a.884.884,0,0,0,.661-.655c.117-.411.225-.826.335-1.238,8.008-14.757,20.4-27.425,34.81-35.005,1.106-.582.125-2.254-.978-1.672" transform="translate(48.996 33.082)" fill="#037562"/>
        <g id="Grupo_54520" data-name="Grupo 54520" transform="translate(376.879 242.143)" opacity="0.2">
          <g id="Grupo_54519" data-name="Grupo 54519">
            <g id="Grupo_54518" data-name="Grupo 54518" clip-path="url(#clip-path-18)">
              <path id="Trazado_147788" data-name="Trazado 147788" d="M333.986,243.532c.136-2.8,1.155-24.738.288-33.271-14.507,16.61-2.353,31.041-.288,33.271" transform="translate(-327.257 -210.261)" fill="#007500"/>
            </g>
          </g>
        </g>
        <g id="Grupo_54523" data-name="Grupo 54523" transform="translate(396.849 243.647)" opacity="0.2">
          <g id="Grupo_54522" data-name="Grupo 54522">
            <g id="Grupo_54521" data-name="Grupo 54521" clip-path="url(#clip-path-12)">
              <path id="Trazado_147789" data-name="Trazado 147789" d="M384.1,212.127c-35.537-4.471-39.144,19.14-39.5,23.363.736-.964,12.221-15.541,39.5-23.363" transform="translate(-344.597 -211.567)" fill="#007500"/>
            </g>
          </g>
        </g>
        <g id="Grupo_54526" data-name="Grupo 54526" transform="translate(9.32 273.772)" opacity="0.2">
          <g id="Grupo_54525" data-name="Grupo 54525">
            <g id="Grupo_54524" data-name="Grupo 54524" clip-path="url(#clip-path-13)">
              <path id="Trazado_147790" data-name="Trazado 147790" d="M54.256,247.288s-28.192-10.351-46.163,2.979c29.152-26.362,46.163-2.979,46.163-2.979" transform="translate(-8.093 -237.725)" fill="#007500"/>
            </g>
          </g>
        </g>
        <path id="Trazado_147791" data-name="Trazado 147791" d="M375.079,295.992a159.892,159.892,0,0,0-315.34,0Z" transform="translate(9.058 24.665)" fill="#36a385"/>
        <path id="Trazado_147792" data-name="Trazado 147792" d="M256.911,295.992a134.341,134.341,0,0,0,6.837-68.279c-3.814-23.69-13.731-44.175-25.274-60.99A160.9,160.9,0,0,0,157.864,169c11.961,9.317,40.426,34.663,45.852,68.378,3.029,18.813-1.8,38.469-14.306,58.616Z" transform="translate(23.937 24.665)" fill="#56c7f9"/>
        <g id="Grupo_54529" data-name="Grupo 54529" transform="translate(196.13 187.329)" opacity="0.2">
          <g id="Grupo_54528" data-name="Grupo 54528">
            <g id="Grupo_54527" data-name="Grupo 54527" clip-path="url(#clip-path-21)">
              <path id="Trazado_147793" data-name="Trazado 147793" d="M222.2,164.117a160.167,160.167,0,0,0-51.891,1.451c7.9,7.654,28.884,29.264,36.868,50.2,8.148,21.37,3.577,58.134-8.894,80.22h47.545c4.451-18.085,9.873-45.737,6.751-63.374-4.111-23.227-20.817-55.969-30.379-68.5" transform="translate(-170.306 -162.664)" fill="#82d7f9"/>
            </g>
          </g>
        </g>
        <g id="Grupo_54532" data-name="Grupo 54532" transform="translate(252.85 189.507)" opacity="0.3">
          <g id="Grupo_54531" data-name="Grupo 54531">
            <g id="Grupo_54530" data-name="Grupo 54530" clip-path="url(#clip-path-22)">
              <path id="Trazado_147794" data-name="Trazado 147794" d="M254.394,227.426c-3.814-23.69-13.731-44.175-25.273-60.99q-4.73-1.085-9.563-1.881c11.4,17.658,20.945,38.684,24.812,62.7a147.349,147.349,0,0,1-5.2,68.45h8.383a134.34,134.34,0,0,0,6.837-68.279" transform="translate(-219.558 -164.555)" fill="#008add"/>
            </g>
          </g>
        </g>
        <g id="Grupo_54535" data-name="Grupo 54535" transform="translate(68.796 187.329)" opacity="0.1">
          <g id="Grupo_54534" data-name="Grupo 54534">
            <g id="Grupo_54533" data-name="Grupo 54533" clip-path="url(#clip-path-23)">
              <path id="Trazado_147795" data-name="Trazado 147795" d="M214.141,180.105A159.932,159.932,0,0,1,367.874,295.992h7.2a159.893,159.893,0,0,0-315.341,0h.668A159.931,159.931,0,0,1,214.141,180.105" transform="translate(-59.738 -162.664)" fill="#007500"/>
            </g>
          </g>
        </g>
        <path id="Trazado_147796" data-name="Trazado 147796" d="M79.546,283.049s-13.238-15.98-8.149-19.4,14.217,10.839,14.217,10.839-6.63-24.606,2.676-26.376,7.784,24.474,7.784,24.474,5.9-19.969,11.41-18.067,0,18.638,0,18.638,5.705-8.367,10.08-6.655S113,283.049,113,283.049Z" transform="translate(10.649 37.608)" fill="#037562"/>
        <g id="Grupo_54538" data-name="Grupo 54538" transform="translate(80.882 285.631)" opacity="0.3">
          <g id="Grupo_54537" data-name="Grupo 54537">
            <g id="Grupo_54536" data-name="Grupo 54536" clip-path="url(#clip-path-24)">
              <path id="Trazado_147797" data-name="Trazado 147797" d="M102.323,276.737s5.705-8.37,10.08-6.658a1.694,1.694,0,0,1,.629.432c1.045-3.036,1.388-5.742-.333-6.415-2.9-1.133-6.363,2.141-8.384,4.489a62.7,62.7,0,0,1-1.992,8.151" transform="translate(-65.367 -245.62)" fill="#003c00"/>
              <path id="Trazado_147798" data-name="Trazado 147798" d="M71.1,267.643c5.088-3.424,14.217,10.841,14.217,10.841a80.7,80.7,0,0,1-1.754-8.893c-2.99-3.974-8.581-10.346-12.167-7.932-1.6,1.071-1.39,3.375-.358,6.036.023-.015.038-.037.062-.052" transform="translate(-70.233 -246.036)" fill="#003c00"/>
              <path id="Trazado_147799" data-name="Trazado 147799" d="M86.27,254.091c9.305-1.769,7.784,24.478,7.784,24.478s5.9-19.969,11.41-18.068c1.461.5,2.142,2.053,2.363,4.051.69-4.423.691-9.085-2.067-10.038-5.515-1.9-11.41,18.068-11.41,18.068s1.521-26.245-7.784-24.474c-4.248.808-5.171,6.372-4.926,12.183.563-3.222,1.916-5.683,4.63-6.2" transform="translate(-68.508 -248.023)" fill="#003c00"/>
            </g>
          </g>
        </g>
        <path id="Trazado_147800" data-name="Trazado 147800" d="M320.1,283.049s13.237-15.98,8.148-19.4-14.217,10.839-14.217,10.839,6.63-24.606-2.675-26.376-7.784,24.474-7.784,24.474-5.9-19.969-11.412-18.067,0,18.638,0,18.638-5.705-8.367-10.079-6.655,4.564,16.55,4.564,16.55Z" transform="translate(42.59 37.608)" fill="#037562"/>
        <g id="Grupo_54541" data-name="Grupo 54541" transform="translate(323.468 285.631)" opacity="0.3">
          <g id="Grupo_54540" data-name="Grupo 54540">
            <g id="Grupo_54539" data-name="Grupo 54539" clip-path="url(#clip-path-24)">
              <path id="Trazado_147801" data-name="Trazado 147801" d="M292.458,276.737s-5.705-8.37-10.079-6.658a1.684,1.684,0,0,0-.629.432c-1.046-3.036-1.389-5.742.333-6.415,2.894-1.133,6.362,2.141,8.384,4.489a62.585,62.585,0,0,0,1.991,8.151" transform="translate(-280.878 -245.62)" fill="#003c00"/>
              <path id="Trazado_147802" data-name="Trazado 147802" d="M324.142,267.643c-5.089-3.424-14.219,10.841-14.219,10.841a80.685,80.685,0,0,0,1.756-8.893c2.987-3.974,8.578-10.346,12.165-7.932,1.6,1.071,1.39,3.375.358,6.036-.023-.015-.038-.037-.06-.052" transform="translate(-276.474 -246.036)" fill="#003c00"/>
              <path id="Trazado_147803" data-name="Trazado 147803" d="M310.491,254.091c-9.307-1.769-7.786,24.478-7.786,24.478s-5.9-19.969-11.412-18.068c-1.46.5-2.142,2.053-2.363,4.051-.69-4.423-.69-9.085,2.067-10.038,5.515-1.9,11.412,18.068,11.412,18.068s-1.522-26.245,7.784-24.474c4.247.808,5.171,6.372,4.926,12.183-.564-3.222-1.917-5.683-4.627-6.2" transform="translate(-279.715 -248.023)" fill="#003c00"/>
            </g>
          </g>
        </g>
        <path id="Trazado_147804" data-name="Trazado 147804" d="M165.558,221.642a28.806,28.806,0,1,1-28.8-29.235,29.022,29.022,0,0,1,28.8,29.235" transform="translate(16.369 29.175)" fill="#048c66"/>
        <path id="Trazado_147805" data-name="Trazado 147805" d="M146.267,222.739q-4.861,4.932-9.721,9.859c0-1.429.006-2.857,0-4.285-.01-3.661.472-7.8-.242-11.418-.41-2.08-3.577-1.2-3.168.873.532,2.7.117,8.127.128,11.561.008,2.811-.008,5.623-.009,8.431q-4.035-5.808-8.071-11.619c-1.2-1.73-4.047-.089-2.836,1.657l10.9,15.7c-.006,3.054,0,6.109-.01,9.164q-.052,16.507-.16,33.021a1.643,1.643,0,0,0,3.284,0q.114-17.169.168-34.342c.016-4.685.009-9.372.01-14.057q6.022-6.11,12.047-12.218c1.488-1.509-.834-3.834-2.323-2.324" transform="translate(18.508 32.708)" fill="#03694d"/>
        <g id="Grupo_54544" data-name="Grupo 54544" transform="translate(129.453 227.299)" opacity="0.5">
          <g id="Grupo_54543" data-name="Grupo 54543">
            <g id="Grupo_54542" data-name="Grupo 54542" clip-path="url(#clip-path-26)">
              <path id="Trazado_147806" data-name="Trazado 147806" d="M120.326,202.891a3.089,3.089,0,0,1,.456.128,5.829,5.829,0,0,1,1,.461,5.763,5.763,0,0,1,1.995,2.012,5.683,5.683,0,0,1,.79,2.718,5.77,5.77,0,0,1-.086,1.1,3.531,3.531,0,0,1-.111.463,3.818,3.818,0,0,1-.458-.128,5.957,5.957,0,0,1-1-.46,5.716,5.716,0,0,1-1.991-2.012,5.778,5.778,0,0,1-.787-2.722,5.874,5.874,0,0,1,.084-1.1,3.342,3.342,0,0,1,.109-.459" transform="translate(-111.237 -196.534)" fill="#89d9ac"/>
              <path id="Trazado_147807" data-name="Trazado 147807" d="M132.7,197.552a3.175,3.175,0,0,1-.124.458,5.524,5.524,0,0,1-2.443,3.018,5.471,5.471,0,0,1-3.811.739,3.6,3.6,0,0,1-.464-.106,3.409,3.409,0,0,1,.123-.458,5.762,5.762,0,0,1,.45-1.008,5.735,5.735,0,0,1,4.708-2.823,5.771,5.771,0,0,1,1.1.074,3.2,3.2,0,0,1,.462.1" transform="translate(-110.368 -197.371)" fill="#89d9ac"/>
              <path id="Trazado_147808" data-name="Trazado 147808" d="M136.226,207.953a3.047,3.047,0,0,1-.4.253,5.914,5.914,0,0,1-1.01.434,5.787,5.787,0,0,1-2.83.135,5.687,5.687,0,0,1-2.547-1.237,5.6,5.6,0,0,1-.76-.8,3.569,3.569,0,0,1-.268-.394,3.424,3.424,0,0,1,.4-.255,5.7,5.7,0,0,1,6.389.675,5.82,5.82,0,0,1,.758.8,3.147,3.147,0,0,1,.27.39" transform="translate(-109.982 -196.153)" fill="#89d9ac"/>
              <path id="Trazado_147809" data-name="Trazado 147809" d="M120.225,211.414a3.159,3.159,0,0,1-.4.252,5.86,5.86,0,0,1-1.012.435,5.781,5.781,0,0,1-2.828.134,5.519,5.519,0,0,1-3.307-2.036,3.5,3.5,0,0,1-.267-.393,3.4,3.4,0,0,1,.4-.256,5.779,5.779,0,0,1,1.015-.436,5.736,5.736,0,0,1,5.375,1.111,5.783,5.783,0,0,1,.76.8,3.262,3.262,0,0,1,.268.392" transform="translate(-112.408 -195.628)" fill="#89d9ac"/>
              <path id="Trazado_147810" data-name="Trazado 147810" d="M124.13,213.666a3.1,3.1,0,0,1,.455.128,5.533,5.533,0,0,1,3,2.473,5.711,5.711,0,0,1,.791,2.718,5.859,5.859,0,0,1-.088,1.1,3.532,3.532,0,0,1-.111.463,3.514,3.514,0,0,1-.458-.128,5.958,5.958,0,0,1-1-.46,5.716,5.716,0,0,1-1.991-2.012,5.549,5.549,0,0,1-.7-3.821,3.221,3.221,0,0,1,.111-.461" transform="translate(-110.66 -194.901)" fill="#89d9ac"/>
              <path id="Trazado_147811" data-name="Trazado 147811" d="M121.033,218.686a3.1,3.1,0,0,1-.124.457,5.677,5.677,0,0,1-.45,1.005,5.747,5.747,0,0,1-1.992,2.014,5.688,5.688,0,0,1-2.71.818,5.764,5.764,0,0,1-1.1-.076,3.6,3.6,0,0,1-.464-.106,3.482,3.482,0,0,1,.123-.461,5.634,5.634,0,0,1,6.257-3.755,3.314,3.314,0,0,1,.462.1" transform="translate(-112.138 -194.166)" fill="#89d9ac"/>
              <path id="Trazado_147812" data-name="Trazado 147812" d="M143.268,198.706a3.2,3.2,0,0,1-.123.458,5.933,5.933,0,0,1-.451,1.005,5.743,5.743,0,0,1-4.7,2.831,5.969,5.969,0,0,1-1.1-.076,3.294,3.294,0,0,1-.463-.108,3.242,3.242,0,0,1,.122-.457,5.81,5.81,0,0,1,.45-1.01,5.642,5.642,0,0,1,5.807-2.748,3.4,3.4,0,0,1,.462.1" transform="translate(-108.766 -197.196)" fill="#89d9ac"/>
              <path id="Trazado_147813" data-name="Trazado 147813" d="M119.391,229.86a3.2,3.2,0,0,1,.456.129,5.7,5.7,0,0,1,1,.461,5.737,5.737,0,0,1,2.787,4.727,5.9,5.9,0,0,1-.088,1.1,3.409,3.409,0,0,1-.111.463,3.109,3.109,0,0,1-.458-.128,5.693,5.693,0,0,1-3.781-5.193,5.848,5.848,0,0,1,.083-1.1,3.357,3.357,0,0,1,.111-.462" transform="translate(-111.379 -192.445)" fill="#89d9ac"/>
              <path id="Trazado_147814" data-name="Trazado 147814" d="M138.1,211.818a3.2,3.2,0,0,1,.456.129,5.7,5.7,0,0,1,1,.461,5.777,5.777,0,0,1,2,2.01,5.707,5.707,0,0,1,.79,2.718,5.817,5.817,0,0,1-.086,1.1,3.459,3.459,0,0,1-.111.464,3.258,3.258,0,0,1-.46-.129,5.455,5.455,0,0,1-2.993-2.471,5.752,5.752,0,0,1-.787-2.72,5.862,5.862,0,0,1,.083-1.1,3.362,3.362,0,0,1,.111-.462" transform="translate(-108.542 -195.181)" fill="#89d9ac"/>
              <path id="Trazado_147815" data-name="Trazado 147815" d="M148.3,205.156a3.377,3.377,0,0,1-.124.458,5.832,5.832,0,0,1-.451,1.005,5.739,5.739,0,0,1-4.7,2.831,5.98,5.98,0,0,1-1.1-.076,3.291,3.291,0,0,1-.463-.108,3.244,3.244,0,0,1,.122-.457,5.692,5.692,0,0,1,5.158-3.831,5.878,5.878,0,0,1,1.1.073,3.324,3.324,0,0,1,.463.106" transform="translate(-108.004 -196.218)" fill="#89d9ac"/>
              <path id="Trazado_147816" data-name="Trazado 147816" d="M147.589,210.678a3.089,3.089,0,0,1,.456.128,5.543,5.543,0,0,1,3,2.473,5.7,5.7,0,0,1,.791,2.718,5.856,5.856,0,0,1-.088,1.1,3.531,3.531,0,0,1-.111.463,3.8,3.8,0,0,1-.46-.128,5.959,5.959,0,0,1-1-.46,5.642,5.642,0,0,1-2.694-5.833,3.222,3.222,0,0,1,.111-.461" transform="translate(-107.103 -195.354)" fill="#89d9ac"/>
              <path id="Trazado_147817" data-name="Trazado 147817" d="M149.516,219.406a3.157,3.157,0,0,1,.456.127,5.558,5.558,0,0,1,3,2.474,5.679,5.679,0,0,1,.79,2.718,5.771,5.771,0,0,1-.086,1.1,3.531,3.531,0,0,1-.111.463,3.8,3.8,0,0,1-.46-.128,5.884,5.884,0,0,1-1-.461,5.738,5.738,0,0,1-2.777-4.736,5.76,5.76,0,0,1,.083-1.1,3.226,3.226,0,0,1,.111-.459" transform="translate(-106.811 -194.03)" fill="#89d9ac"/>
              <path id="Trazado_147818" data-name="Trazado 147818" d="M150.35,232.37a3.157,3.157,0,0,1-.4.252,5.95,5.95,0,0,1-1.012.435,5.8,5.8,0,0,1-2.83.134,5.52,5.52,0,0,1-3.306-2.036,3.638,3.638,0,0,1-.268-.393,3.328,3.328,0,0,1,.4-.256,5.633,5.633,0,0,1,7.147,1.472,3.2,3.2,0,0,1,.269.392" transform="translate(-107.84 -192.451)" fill="#89d9ac"/>
              <path id="Trazado_147819" data-name="Trazado 147819" d="M138.1,232.847a3.205,3.205,0,0,1,.456.129,5.7,5.7,0,0,1,1,.461,5.768,5.768,0,0,1,2,2.01,5.707,5.707,0,0,1,.79,2.718,5.817,5.817,0,0,1-.086,1.1,3.461,3.461,0,0,1-.111.464,3.26,3.26,0,0,1-.46-.129,5.75,5.75,0,0,1-1-.457,5.692,5.692,0,0,1-1.99-2.014,5.753,5.753,0,0,1-.787-2.721,5.84,5.84,0,0,1,.083-1.1,3.362,3.362,0,0,1,.111-.462" transform="translate(-108.542 -191.992)" fill="#89d9ac"/>
            </g>
          </g>
        </g>
        <g id="Grupo_54547" data-name="Grupo 54547" transform="translate(153.175 221.582)" opacity="0.2">
          <g id="Grupo_54546" data-name="Grupo 54546">
            <g id="Grupo_54545" data-name="Grupo 54545" clip-path="url(#clip-path-27)">
              <path id="Trazado_147820" data-name="Trazado 147820" d="M133.007,192.407h0a29.247,29.247,0,0,1,1.369,58.435q0,2.676.006,5.349.055,16.507.162,33.022a1.528,1.528,0,0,1-1.537,1.581Z" transform="translate(-133.007 -192.407)" fill="#004700"/>
            </g>
          </g>
        </g>
        <path id="Trazado_147821" data-name="Trazado 147821" d="M290.338,225.249c0,17.765-8.559,32.164-19.116,32.164s-19.112-14.4-19.112-32.164,8.557-32.163,19.112-32.163,19.116,14.4,19.116,32.163" transform="translate(38.228 29.278)" fill="#048c66"/>
        <path id="Trazado_147822" data-name="Trazado 147822" d="M281.855,228.5l-9.722,9.859c0-1.429.006-2.857,0-4.285-.009-3.661.473-7.8-.242-11.42-.41-2.079-3.577-1.2-3.168.874.532,2.7.117,8.126.129,11.561.007,2.81-.009,5.622-.01,8.431q-4.035-5.808-8.069-11.62c-1.2-1.729-4.048-.088-2.838,1.658l10.9,15.7c-.007,3.054,0,6.109-.01,9.164-.037,11-.091,15.374-.161,26.383a1.643,1.643,0,0,0,3.284,0c.076-11.447.131-16.256.168-27.7.016-4.685.009-9.373.01-14.057q6.022-6.11,12.048-12.218c1.489-1.51-.835-3.834-2.323-2.324" transform="translate(39.067 33.582)" fill="#03694d"/>
        <g id="Grupo_54550" data-name="Grupo 54550" transform="translate(292.8 225.045)" opacity="0.5">
          <g id="Grupo_54549" data-name="Grupo 54549">
            <g id="Grupo_54548" data-name="Grupo 54548" clip-path="url(#clip-path-28)">
              <path id="Trazado_147823" data-name="Trazado 147823" d="M260.027,200.934a3.146,3.146,0,0,1,.457.127,5.97,5.97,0,0,1,1,.462,5.763,5.763,0,0,1,1.995,2.012,5.672,5.672,0,0,1,.791,2.718,5.964,5.964,0,0,1-.086,1.1,3.632,3.632,0,0,1-.112.463,3.8,3.8,0,0,1-.46-.128,5.879,5.879,0,0,1-1-.461,5.727,5.727,0,0,1-2.777-4.734,5.782,5.782,0,0,1,.083-1.1,3.338,3.338,0,0,1,.109-.459" transform="translate(-253.401 -194.577)" fill="#89d9ac"/>
              <path id="Trazado_147824" data-name="Trazado 147824" d="M272.4,195.595a3.061,3.061,0,0,1-.123.458,5.882,5.882,0,0,1-.451,1,5.744,5.744,0,0,1-4.7,2.832,5.854,5.854,0,0,1-1.1-.077,3.459,3.459,0,0,1-.465-.107,3.636,3.636,0,0,1,.123-.458,5.863,5.863,0,0,1,.451-1.008,5.735,5.735,0,0,1,4.707-2.823,5.79,5.79,0,0,1,1.1.073,3.225,3.225,0,0,1,.462.106" transform="translate(-252.532 -195.414)" fill="#89d9ac"/>
              <path id="Trazado_147825" data-name="Trazado 147825" d="M277.746,204.97a3.074,3.074,0,0,1-.4.253,5.87,5.87,0,0,1-1.012.434,5.768,5.768,0,0,1-2.828.134,5.519,5.519,0,0,1-3.307-2.036,3.5,3.5,0,0,1-.268-.393,3.552,3.552,0,0,1,.4-.254,5.76,5.76,0,0,1,1.013-.436,5.74,5.74,0,0,1,5.375,1.11,5.853,5.853,0,0,1,.76.8,3.262,3.262,0,0,1,.268.392" transform="translate(-251.87 -194.351)" fill="#89d9ac"/>
              <path id="Trazado_147826" data-name="Trazado 147826" d="M262.066,210.9a2.976,2.976,0,0,1-.4.253,5.631,5.631,0,0,1-1.011.434,5.6,5.6,0,0,1-6.136-1.9,3.259,3.259,0,0,1-.269-.392,3.259,3.259,0,0,1,.4-.253,5.685,5.685,0,0,1,6.388.671,5.9,5.9,0,0,1,.759.8,3.3,3.3,0,0,1,.268.389" transform="translate(-254.248 -193.453)" fill="#89d9ac"/>
              <path id="Trazado_147827" data-name="Trazado 147827" d="M266.624,210.884a3.351,3.351,0,0,1,.456.129,5.7,5.7,0,0,1,3.788,5.189,5.92,5.92,0,0,1-.087,1.1,3.471,3.471,0,0,1-.111.463,3.255,3.255,0,0,1-.459-.129,5.464,5.464,0,0,1-2.993-2.471,5.564,5.564,0,0,1-.7-3.819,3.275,3.275,0,0,1,.109-.462" transform="translate(-252.401 -193.068)" fill="#89d9ac"/>
              <path id="Trazado_147828" data-name="Trazado 147828" d="M261.515,217.627a3.159,3.159,0,0,1-.123.458,5.545,5.545,0,0,1-2.444,3.02,5.7,5.7,0,0,1-2.71.816,5.767,5.767,0,0,1-1.1-.076,3.542,3.542,0,0,1-.463-.106,3.118,3.118,0,0,1,.122-.459,5.646,5.646,0,0,1,.451-1.008,5.639,5.639,0,0,1,5.805-2.749,3.529,3.529,0,0,1,.462.1" transform="translate(-254.183 -192.073)" fill="#89d9ac"/>
              <path id="Trazado_147829" data-name="Trazado 147829" d="M261.019,224.878a3.16,3.16,0,0,1,.456.127,5.719,5.719,0,0,1,1,.462,5.777,5.777,0,0,1,2,2.012,5.719,5.719,0,0,1,.79,2.718,5.856,5.856,0,0,1-.088,1.1,3.313,3.313,0,0,1-.111.463,3.755,3.755,0,0,1-.458-.128,5.884,5.884,0,0,1-1-.461,5.693,5.693,0,0,1-1.991-2.011,5.778,5.778,0,0,1-.787-2.724,5.864,5.864,0,0,1,.083-1.1,3.424,3.424,0,0,1,.111-.459" transform="translate(-253.251 -190.946)" fill="#89d9ac"/>
              <path id="Trazado_147830" data-name="Trazado 147830" d="M276.216,220.9a3.286,3.286,0,0,1,.222.416,5.7,5.7,0,0,1-1.117,6.327,5.883,5.883,0,0,1-.853.7,3.192,3.192,0,0,1-.411.24,3.339,3.339,0,0,1-.223-.418,5.623,5.623,0,0,1-.365-1.043,5.686,5.686,0,0,1,.071-2.831,5.775,5.775,0,0,1,1.418-2.453,5.889,5.889,0,0,1,.85-.7,3.281,3.281,0,0,1,.409-.24" transform="translate(-251.356 -191.55)" fill="#89d9ac"/>
              <path id="Trazado_147831" data-name="Trazado 147831" d="M282.97,206.959a3.43,3.43,0,0,1-.124.458,6.077,6.077,0,0,1-.45,1.005,5.789,5.789,0,0,1-1.993,2.014,5.72,5.72,0,0,1-2.709.817,5.983,5.983,0,0,1-1.1-.076,3.515,3.515,0,0,1-.462-.108,3.235,3.235,0,0,1,.122-.458,5.494,5.494,0,0,1,2.443-3.018,5.76,5.76,0,0,1,2.716-.813,5.976,5.976,0,0,1,1.1.074,3.093,3.093,0,0,1,.462.106" transform="translate(-250.93 -193.691)" fill="#89d9ac"/>
              <path id="Trazado_147832" data-name="Trazado 147832" d="M279.366,214.7a3.078,3.078,0,0,1,.457.128,5.543,5.543,0,0,1,3,2.473,5.71,5.71,0,0,1,.791,2.718,6.058,6.058,0,0,1-.088,1.1,3.4,3.4,0,0,1-.112.463,3.827,3.827,0,0,1-.458-.128,5.923,5.923,0,0,1-1-.461,5.734,5.734,0,0,1-2.777-4.733,5.882,5.882,0,0,1,.083-1.1,3.345,3.345,0,0,1,.109-.46" transform="translate(-250.468 -192.49)" fill="#89d9ac"/>
              <path id="Trazado_147833" data-name="Trazado 147833" d="M271.341,244.411a3.243,3.243,0,0,1,.1-.464,5.663,5.663,0,0,1,.39-1.03,5.776,5.776,0,0,1,1.869-2.129,5.69,5.69,0,0,1,2.658-.975,5.619,5.619,0,0,1,1.1.012,3,3,0,0,1,.47.079,3.538,3.538,0,0,1-.1.464,5.692,5.692,0,0,1-4.922,4.127,5.639,5.639,0,0,1-1.1-.007,3.506,3.506,0,0,1-.468-.077" transform="translate(-251.656 -188.685)" fill="#89d9ac"/>
            </g>
          </g>
        </g>
        <g id="Grupo_54553" data-name="Grupo 54553" transform="translate(309.45 222.365)" opacity="0.2">
          <g id="Grupo_54552" data-name="Grupo 54552">
            <g id="Grupo_54551" data-name="Grupo 54551" clip-path="url(#clip-path-29)">
              <path id="Trazado_147834" data-name="Trazado 147834" d="M268.706,193.087v97.6a1.55,1.55,0,0,0,1.567-1.581c.076-11.447.131-16.256.168-27.7,0-1.376,0-2.752,0-4.132,9.741-1.478,17.377-15.248,17.377-32.025,0-17.764-8.559-32.163-19.116-32.163" transform="translate(-268.706 -193.087)" fill="#004700"/>
            </g>
          </g>
        </g>
        <path id="Trazado_147835" data-name="Trazado 147835" d="M165.593,135.925c0,13.567-6.537,24.565-14.6,24.565s-14.6-11-14.6-24.565,6.536-24.564,14.6-24.564,14.6,11,14.6,24.564" transform="translate(20.682 16.886)" fill="#048c66"/>
        <path id="Trazado_147836" data-name="Trazado 147836" d="M159.115,138.411l-7.426,7.531c0-1.092.006-2.183,0-3.274-.008-2.795.359-5.956-.185-8.721-.313-1.588-2.733-.913-2.421.667.408,2.065.09,6.207.1,8.831.006,2.147-.007,4.294-.008,6.44q-3.08-4.436-6.162-8.876c-.916-1.319-3.092-.067-2.167,1.267l8.325,11.99c0,2.331,0,4.664-.007,7-.028,8.406-.069,11.744-.124,20.15a1.256,1.256,0,0,0,2.511,0c.055-8.742.1-12.416.127-21.158.013-3.579.007-7.157.008-10.735q4.6-4.668,9.2-9.332c1.135-1.153-.638-2.927-1.775-1.775" transform="translate(21.323 20.173)" fill="#03694d"/>
        <g id="Grupo_54556" data-name="Grupo 54556" transform="translate(158.96 130.294)" opacity="0.5">
          <g id="Grupo_54555" data-name="Grupo 54555">
            <g id="Grupo_54554" data-name="Grupo 54554" clip-path="url(#clip-path-30)">
              <path id="Trazado_147837" data-name="Trazado 147837" d="M142.444,117.355a2.283,2.283,0,0,1,.349.1,4.342,4.342,0,0,1,.764.352,4.4,4.4,0,0,1,1.524,1.535,4.35,4.35,0,0,1,.6,2.076,4.465,4.465,0,0,1-.067.84,2.469,2.469,0,0,1-.084.352,2.412,2.412,0,0,1-.351-.1,4.447,4.447,0,0,1-.766-.35,4.309,4.309,0,0,1-2.057-4.455,2.471,2.471,0,0,1,.084-.352" transform="translate(-137.383 -112.5)" fill="#89d9ac"/>
              <path id="Trazado_147838" data-name="Trazado 147838" d="M151.9,113.276a2.365,2.365,0,0,1-.093.35,4.242,4.242,0,0,1-1.866,2.306,4.382,4.382,0,0,1-2.071.625,4.59,4.59,0,0,1-.842-.059,2.549,2.549,0,0,1-.354-.082,2.508,2.508,0,0,1,.094-.351,4.347,4.347,0,0,1,3.939-2.925,4.451,4.451,0,0,1,.838.056,2.341,2.341,0,0,1,.354.079" transform="translate(-136.72 -113.139)" fill="#89d9ac"/>
              <path id="Trazado_147839" data-name="Trazado 147839" d="M155.976,120.437a2.291,2.291,0,0,1-.307.193,4.217,4.217,0,0,1-2.932.433,4.354,4.354,0,0,1-1.946-.943,4.48,4.48,0,0,1-.58-.61,2.7,2.7,0,0,1-.2-.3,2.494,2.494,0,0,1,.306-.195,4.538,4.538,0,0,1,.774-.334,4.3,4.3,0,0,1,4.685,1.458,2.453,2.453,0,0,1,.206.3" transform="translate(-136.214 -112.327)" fill="#89d9ac"/>
              <path id="Trazado_147840" data-name="Trazado 147840" d="M144,124.964a2.477,2.477,0,0,1-.307.192,4.288,4.288,0,0,1-5.46-1.121,2.586,2.586,0,0,1-.2-.3,2.678,2.678,0,0,1,.307-.193,4.492,4.492,0,0,1,.774-.335,4.3,4.3,0,0,1,4.685,1.459,2.455,2.455,0,0,1,.206.3" transform="translate(-138.03 -111.641)" fill="#89d9ac"/>
              <path id="Trazado_147841" data-name="Trazado 147841" d="M147.481,124.954a2.451,2.451,0,0,1,.35.1,4.343,4.343,0,0,1,.764.352,4.4,4.4,0,0,1,1.524,1.536,4.319,4.319,0,0,1,.6,2.075,4.61,4.61,0,0,1-.064.841,2.61,2.61,0,0,1-.085.352,2.614,2.614,0,0,1-.351-.1,4.467,4.467,0,0,1-.766-.351,4.353,4.353,0,0,1-1.521-1.537,4.4,4.4,0,0,1-.6-2.079,4.306,4.306,0,0,1,.063-.838,2.823,2.823,0,0,1,.083-.352" transform="translate(-136.619 -111.347)" fill="#89d9ac"/>
              <path id="Trazado_147842" data-name="Trazado 147842" d="M143.58,130.106a2.522,2.522,0,0,1-.094.35,4.277,4.277,0,0,1-4.777,2.871,2.736,2.736,0,0,1-.354-.081,2.325,2.325,0,0,1,.094-.351,4.231,4.231,0,0,1,.344-.769,4.35,4.35,0,0,1,1.521-1.537,4.4,4.4,0,0,1,2.074-.618,4.353,4.353,0,0,1,.837.056,2.53,2.53,0,0,1,.354.079" transform="translate(-137.981 -110.587)" fill="#89d9ac"/>
              <path id="Trazado_147843" data-name="Trazado 147843" d="M143.2,135.642a2.315,2.315,0,0,1,.348.1,4.275,4.275,0,0,1,.765.352,4.411,4.411,0,0,1,1.525,1.535,4.352,4.352,0,0,1,.6,2.076,4.576,4.576,0,0,1-.066.84,2.408,2.408,0,0,1-.085.354,2.525,2.525,0,0,1-.35-.1,4.2,4.2,0,0,1-2.287-1.889,4.421,4.421,0,0,1-.6-2.078,4.574,4.574,0,0,1,.064-.838,2.617,2.617,0,0,1,.084-.352" transform="translate(-137.268 -109.727)" fill="#89d9ac"/>
              <path id="Trazado_147844" data-name="Trazado 147844" d="M154.808,132.6a2.442,2.442,0,0,1,.17.32,4.488,4.488,0,0,1,.276.793,4.414,4.414,0,0,1-.052,2.165,4.345,4.345,0,0,1-1.078,1.873,4.543,4.543,0,0,1-.652.534,2.477,2.477,0,0,1-.313.183,2.547,2.547,0,0,1-.172-.319,4.184,4.184,0,0,1-.223-2.959,4.387,4.387,0,0,1,1.083-1.873,4.475,4.475,0,0,1,.648-.534,2.462,2.462,0,0,1,.312-.184" transform="translate(-135.821 -110.188)" fill="#89d9ac"/>
              <path id="Trazado_147845" data-name="Trazado 147845" d="M159.966,121.957a2.451,2.451,0,0,1-.1.35,4.5,4.5,0,0,1-.344.767,4.413,4.413,0,0,1-1.52,1.537,4.362,4.362,0,0,1-2.071.624,4.3,4.3,0,0,1-.842-.059,2.471,2.471,0,0,1-.352-.081,2.365,2.365,0,0,1,.094-.351,4.234,4.234,0,0,1,.342-.769,4.3,4.3,0,0,1,4.435-2.1,2.463,2.463,0,0,1,.354.081" transform="translate(-135.496 -111.823)" fill="#89d9ac"/>
              <path id="Trazado_147846" data-name="Trazado 147846" d="M157.214,127.865a2.591,2.591,0,0,1,.349.1,4.356,4.356,0,0,1,2.892,3.963,4.6,4.6,0,0,1-.066.841,2.484,2.484,0,0,1-.086.354,2.862,2.862,0,0,1-.35-.1,4.435,4.435,0,0,1-.765-.352,4.379,4.379,0,0,1-2.121-3.616,4.4,4.4,0,0,1,.063-.837,2.467,2.467,0,0,1,.084-.354" transform="translate(-135.143 -110.906)" fill="#89d9ac"/>
              <path id="Trazado_147847" data-name="Trazado 147847" d="M151.084,150.561a2.775,2.775,0,0,1,.074-.355,4.352,4.352,0,0,1,.3-.787,4.407,4.407,0,0,1,1.427-1.627,4.35,4.35,0,0,1,2.03-.744,4.452,4.452,0,0,1,.843.008,2.381,2.381,0,0,1,.358.061,2.857,2.857,0,0,1-.074.356,4.3,4.3,0,0,1-4.6,3.146,2.753,2.753,0,0,1-.358-.059" transform="translate(-136.051 -108)" fill="#89d9ac"/>
            </g>
          </g>
        </g>
        <g id="Grupo_54559" data-name="Grupo 54559" transform="translate(171.677 128.247)" opacity="0.2">
          <g id="Grupo_54558" data-name="Grupo 54558">
            <g id="Grupo_54557" data-name="Grupo 54557" clip-path="url(#clip-path-31)">
              <path id="Trazado_147848" data-name="Trazado 147848" d="M149.073,111.361v74.545a1.186,1.186,0,0,0,1.2-1.207c.056-8.742.1-12.417.127-21.159,0-1.053,0-2.1,0-3.155,7.441-1.129,13.273-11.644,13.273-24.459,0-13.566-6.537-24.564-14.6-24.564" transform="translate(-149.073 -111.361)" fill="#004700"/>
            </g>
          </g>
        </g>
        <path id="Trazado_147849" data-name="Trazado 147849" d="M260.793,133.34a18.937,18.937,0,1,1-18.934-19.22,19.077,19.077,0,0,1,18.934,19.22" transform="translate(33.802 17.304)" fill="#048c66"/>
        <path id="Trazado_147850" data-name="Trazado 147850" d="M248.113,134.061l-6.39,6.481c0-.94,0-1.879,0-2.818-.007-2.406.312-5.126-.159-7.506-.269-1.367-2.352-.787-2.081.574.349,1.777.076,5.342.083,7.6,0,1.848-.006,3.7-.006,5.543q-2.653-3.818-5.3-7.639c-.789-1.136-2.664-.058-1.866,1.091q3.583,5.158,7.165,10.32c0,2.007,0,4.015-.008,6.022q-.033,10.854-.1,21.707a1.081,1.081,0,0,0,2.16,0q.074-11.285.109-22.574c.01-3.081.006-6.161.006-9.242l7.921-8.03c.979-.994-.548-2.521-1.527-1.528" transform="translate(35.208 19.627)" fill="#037562"/>
        <g id="Grupo_54562" data-name="Grupo 54562" transform="translate(260.1 135.182)" opacity="0.5">
          <g id="Grupo_54561" data-name="Grupo 54561">
            <g id="Grupo_54560" data-name="Grupo 54560" clip-path="url(#clip-path-32)">
              <path id="Trazado_147851" data-name="Trazado 147851" d="M231.06,121.012a2.2,2.2,0,0,1,.3.084,3.92,3.92,0,0,1,.658.3,3.8,3.8,0,0,1,1.312,1.322,3.75,3.75,0,0,1,.519,1.787,3.649,3.649,0,0,1-.058.723,2.1,2.1,0,0,1-.071.3,2.055,2.055,0,0,1-.3-.083,3.619,3.619,0,0,1-1.968-1.625,3.623,3.623,0,0,1-.462-2.511,1.989,1.989,0,0,1,.073-.3" transform="translate(-225.084 -116.833)" fill="#89d9ac"/>
              <path id="Trazado_147852" data-name="Trazado 147852" d="M239.2,117.5a2.253,2.253,0,0,1-.083.3,3.95,3.95,0,0,1-.295.66,3.8,3.8,0,0,1-1.311,1.323,3.744,3.744,0,0,1-1.782.538,3.827,3.827,0,0,1-.724-.05,2.443,2.443,0,0,1-.3-.07,2.009,2.009,0,0,1,.081-.3,3.8,3.8,0,0,1,.295-.663,3.768,3.768,0,0,1,3.093-1.855,3.805,3.805,0,0,1,.723.048,2.223,2.223,0,0,1,.305.069" transform="translate(-224.513 -117.383)" fill="#89d9ac"/>
              <path id="Trazado_147853" data-name="Trazado 147853" d="M241.513,124.34a2.359,2.359,0,0,1-.266.167,3.851,3.851,0,0,1-.664.284,3.683,3.683,0,0,1-4.034-1.25,2.126,2.126,0,0,1-.175-.259,2.177,2.177,0,0,1,.264-.167,3.625,3.625,0,0,1,2.524-.373,3.789,3.789,0,0,1,1.674.816,3.676,3.676,0,0,1,.5.525,2.356,2.356,0,0,1,.178.256" transform="translate(-224.259 -116.582)" fill="#89d9ac"/>
              <path id="Trazado_147854" data-name="Trazado 147854" d="M230.994,126.616a2.221,2.221,0,0,1-.264.166,3.867,3.867,0,0,1-.667.286,3.774,3.774,0,0,1-3.536-.724,3.877,3.877,0,0,1-.5-.525,2.373,2.373,0,0,1-.175-.26,2.137,2.137,0,0,1,.263-.166,3.7,3.7,0,0,1,.668-.288,3.735,3.735,0,0,1,1.858-.085,3.821,3.821,0,0,1,1.676.814,4.014,4.014,0,0,1,.5.525,2.432,2.432,0,0,1,.177.258" transform="translate(-225.854 -116.237)" fill="#89d9ac"/>
              <path id="Trazado_147855" data-name="Trazado 147855" d="M233.56,128.1a2.109,2.109,0,0,1,.3.084,3.88,3.88,0,0,1,.658.3,3.676,3.676,0,0,1,1.775,3.833,2.235,2.235,0,0,1-.073.3,2.054,2.054,0,0,1-.3-.083,3.846,3.846,0,0,1-.659-.3,3.725,3.725,0,0,1-1.309-1.323,3.806,3.806,0,0,1-.517-1.789,3.732,3.732,0,0,1,.056-.722,1.965,1.965,0,0,1,.071-.3" transform="translate(-224.705 -115.759)" fill="#89d9ac"/>
              <path id="Trazado_147856" data-name="Trazado 147856" d="M231.523,131.4a2.215,2.215,0,0,1-.081.3,3.889,3.889,0,0,1-.3.661,3.79,3.79,0,0,1-1.309,1.323,3.739,3.739,0,0,1-1.783.538,3.818,3.818,0,0,1-.723-.05,2.438,2.438,0,0,1-.3-.07,2.012,2.012,0,0,1,.081-.3,3.845,3.845,0,0,1,.295-.663,3.772,3.772,0,0,1,3.1-1.855,3.8,3.8,0,0,1,.721.048,1.941,1.941,0,0,1,.3.069" transform="translate(-225.676 -115.276)" fill="#89d9ac"/>
              <path id="Trazado_147857" data-name="Trazado 147857" d="M246.142,118.262a2.253,2.253,0,0,1-.083.3,3.872,3.872,0,0,1-.3.66,3.8,3.8,0,0,1-1.309,1.324,3.742,3.742,0,0,1-1.782.537,3.828,3.828,0,0,1-.724-.05,2.141,2.141,0,0,1-.3-.071,2.169,2.169,0,0,1,.081-.3,3.846,3.846,0,0,1,.295-.663,3.776,3.776,0,0,1,3.1-1.855,3.9,3.9,0,0,1,.722.048,2.223,2.223,0,0,1,.305.069" transform="translate(-223.46 -117.268)" fill="#89d9ac"/>
              <path id="Trazado_147858" data-name="Trazado 147858" d="M230.444,138.742a1.988,1.988,0,0,1,.3.084,3.962,3.962,0,0,1,.658.3,3.8,3.8,0,0,1,1.312,1.322,3.749,3.749,0,0,1,.519,1.787,3.831,3.831,0,0,1-.058.723,2.23,2.23,0,0,1-.073.3,2.025,2.025,0,0,1-.3-.083,3.625,3.625,0,0,1-1.969-1.625,3.665,3.665,0,0,1-.462-2.511,2.3,2.3,0,0,1,.071-.3" transform="translate(-225.177 -114.144)" fill="#89d9ac"/>
              <path id="Trazado_147859" data-name="Trazado 147859" d="M242.744,126.881a2.27,2.27,0,0,1,.3.085,3.7,3.7,0,0,1,.658.3,3.787,3.787,0,0,1,1.311,1.321,3.739,3.739,0,0,1,.521,1.787,3.838,3.838,0,0,1-.058.723,2.228,2.228,0,0,1-.073.3,2.142,2.142,0,0,1-.3-.084,3.607,3.607,0,0,1-1.969-1.625,3.814,3.814,0,0,1-.517-1.79,3.714,3.714,0,0,1,.056-.721,2.088,2.088,0,0,1,.071-.3" transform="translate(-223.312 -115.943)" fill="#89d9ac"/>
              <path id="Trazado_147860" data-name="Trazado 147860" d="M249.446,122.5a2.343,2.343,0,0,1-.082.3,3.888,3.888,0,0,1-.3.66,3.8,3.8,0,0,1-1.308,1.324,3.747,3.747,0,0,1-1.784.537,3.7,3.7,0,0,1-.722-.051,2.056,2.056,0,0,1-.305-.07,2.167,2.167,0,0,1,.081-.3,3.9,3.9,0,0,1,.3-.663,3.767,3.767,0,0,1,3.1-1.855,3.9,3.9,0,0,1,.721.048,2.223,2.223,0,0,1,.305.069" transform="translate(-222.959 -116.625)" fill="#89d9ac"/>
              <path id="Trazado_147861" data-name="Trazado 147861" d="M248.982,126.132a2.326,2.326,0,0,1,.3.085,3.835,3.835,0,0,1,.656.3,3.793,3.793,0,0,1,1.313,1.321,3.74,3.74,0,0,1,.519,1.787,3.825,3.825,0,0,1-.058.723,2.035,2.035,0,0,1-.073.3,2.3,2.3,0,0,1-.3-.084,3.739,3.739,0,0,1-2.485-3.415,3.847,3.847,0,0,1,.053-.721,2.316,2.316,0,0,1,.074-.3" transform="translate(-222.366 -116.056)" fill="#89d9ac"/>
              <path id="Trazado_147862" data-name="Trazado 147862" d="M250.249,131.869a2.152,2.152,0,0,1,.3.084,3.918,3.918,0,0,1,.658.3,3.8,3.8,0,0,1,1.312,1.321,3.75,3.75,0,0,1,.518,1.787,3.663,3.663,0,0,1-.056.724,2.428,2.428,0,0,1-.071.3,2.01,2.01,0,0,1-.3-.085,3.822,3.822,0,0,1-.66-.3,3.747,3.747,0,0,1-1.309-1.324,3.644,3.644,0,0,1-.462-2.511,2.119,2.119,0,0,1,.074-.3" transform="translate(-222.175 -115.186)" fill="#89d9ac"/>
              <path id="Trazado_147863" data-name="Trazado 147863" d="M250.8,140.391a2.018,2.018,0,0,1-.264.167,3.9,3.9,0,0,1-.666.286,3.685,3.685,0,0,1-4.034-1.251,2.512,2.512,0,0,1-.176-.258,2.172,2.172,0,0,1,.265-.168,3.843,3.843,0,0,1,.666-.287,3.768,3.768,0,0,1,3.533.73,3.691,3.691,0,0,1,.5.525,2.291,2.291,0,0,1,.176.256" transform="translate(-222.851 -114.148)" fill="#89d9ac"/>
              <path id="Trazado_147864" data-name="Trazado 147864" d="M242.744,140.706a1.959,1.959,0,0,1,.3.084,3.867,3.867,0,0,1,.658.3,3.782,3.782,0,0,1,1.311,1.322,3.739,3.739,0,0,1,.521,1.787,3.817,3.817,0,0,1-.058.722,2.17,2.17,0,0,1-.073.3,2.215,2.215,0,0,1-.3-.083,3.625,3.625,0,0,1-1.969-1.625,3.817,3.817,0,0,1-.517-1.79,3.714,3.714,0,0,1,.056-.721,2.088,2.088,0,0,1,.071-.3" transform="translate(-223.312 -113.847)" fill="#89d9ac"/>
            </g>
          </g>
        </g>
        <g id="Grupo_54565" data-name="Grupo 54565" transform="translate(275.695 131.424)" opacity="0.2">
          <g id="Grupo_54564" data-name="Grupo 54564">
            <g id="Grupo_54563" data-name="Grupo 54563" clip-path="url(#clip-path-33)">
              <path id="Trazado_147865" data-name="Trazado 147865" d="M239.395,114.12h0a19.227,19.227,0,0,1,.9,38.415q0,1.759,0,3.516.035,10.854.106,21.707a1.007,1.007,0,0,1-1.01,1.042Z" transform="translate(-239.395 -114.12)" fill="#004700"/>
            </g>
          </g>
        </g>
        <g id="Grupo_54568" data-name="Grupo 54568" transform="translate(107.282 213.159)" opacity="0.5">
          <g id="Grupo_54567" data-name="Grupo 54567">
            <g id="Grupo_54566" data-name="Grupo 54566" clip-path="url(#clip-path-34)">
              <path id="Trazado_147866" data-name="Trazado 147866" d="M141.974,186.821l-2.074,1.694-1.365-2.934c-.442-.951-1.979-.378-1.532.583l1.832,3.942a.828.828,0,0,0,1.244.374l2.85-2.329c.815-.664-.135-2-.956-1.33" transform="translate(-86.52 -185.093)" fill="#6a8000"/>
              <path id="Trazado_147867" data-name="Trazado 147867" d="M169.87,198.978l-2.074,1.7q-.681-1.468-1.364-2.936c-.443-.95-1.98-.378-1.532.584q.916,1.969,1.831,3.942a.83.83,0,0,0,1.245.373l2.85-2.327c.814-.666-.135-2-.957-1.331" transform="translate(-82.29 -183.25)" fill="#6a8000"/>
              <path id="Trazado_147868" data-name="Trazado 147868" d="M99.789,218.969l-2.075,1.694q-.681-1.465-1.364-2.934c-.442-.951-1.98-.379-1.532.583l1.831,3.942a.831.831,0,0,0,1.246.374l2.849-2.329c.814-.666-.135-2-.956-1.33" transform="translate(-92.917 -180.219)" fill="#6a8000"/>
              <path id="Trazado_147869" data-name="Trazado 147869" d="M175.357,227.022l-2.074,1.694q-.682-1.465-1.365-2.934c-.442-.951-1.978-.379-1.532.583q.916,1.971,1.831,3.942a.83.83,0,0,0,1.245.374l2.85-2.329c.814-.666-.135-2-.956-1.33" transform="translate(-81.458 -178.998)" fill="#6a8000"/>
              <path id="Trazado_147870" data-name="Trazado 147870" d="M161.224,248.337l-2.074,1.7q-.681-1.467-1.364-2.936c-.443-.95-1.98-.378-1.533.584q.917,1.971,1.832,3.941a.828.828,0,0,0,1.245.374q1.427-1.163,2.85-2.327c.814-.666-.136-2-.957-1.331" transform="translate(-83.601 -175.766)" fill="#6a8000"/>
              <path id="Trazado_147871" data-name="Trazado 147871" d="M176.92,263.756l-2.074,1.7-1.365-2.936c-.442-.95-1.979-.378-1.532.584q.916,1.969,1.831,3.942a.83.83,0,0,0,1.245.373q1.427-1.164,2.85-2.327c.815-.666-.135-2-.956-1.331" transform="translate(-81.221 -173.428)" fill="#6a8000"/>
              <path id="Trazado_147872" data-name="Trazado 147872" d="M118.11,257.344l-2.074,1.694-1.365-2.934c-.442-.951-1.979-.379-1.532.583l1.831,3.942a.83.83,0,0,0,1.245.374l2.85-2.329c.814-.666-.135-2-.956-1.33" transform="translate(-90.139 -174.4)" fill="#6a8000"/>
              <path id="Trazado_147873" data-name="Trazado 147873" d="M98.208,245.393q-1.038.845-2.074,1.694l-1.365-2.934c-.442-.951-1.979-.378-1.532.583l1.831,3.942a.83.83,0,0,0,1.245.374l2.85-2.329c.814-.666-.135-2-.956-1.33" transform="translate(-93.157 -176.212)" fill="#6a8000"/>
            </g>
          </g>
        </g>
        <g id="Grupo_54571" data-name="Grupo 54571" transform="translate(288.473 213.159)" opacity="0.5">
          <g id="Grupo_54570" data-name="Grupo 54570">
            <g id="Grupo_54569" data-name="Grupo 54569" clip-path="url(#clip-path-35)">
              <path id="Trazado_147874" data-name="Trazado 147874" d="M251.758,186.821l2.074,1.694,1.365-2.934c.442-.951,1.979-.378,1.532.583q-.916,1.971-1.831,3.942a.83.83,0,0,1-1.245.374l-2.85-2.329c-.814-.664.135-2,.956-1.33" transform="translate(-250.491 -185.093)" fill="#6a8000"/>
              <path id="Trazado_147875" data-name="Trazado 147875" d="M293.943,218.969q1.038.848,2.074,1.694.681-1.465,1.364-2.934c.443-.951,1.98-.379,1.533.583q-.917,1.971-1.832,3.942a.829.829,0,0,1-1.245.374l-2.85-2.329c-.815-.666.136-2,.957-1.33" transform="translate(-244.095 -180.219)" fill="#6a8000"/>
              <path id="Trazado_147876" data-name="Trazado 147876" d="M254.33,268.771q1.038.85,2.075,1.7.681-1.467,1.364-2.935c.442-.95,1.979-.378,1.532.584q-.914,1.969-1.832,3.941a.828.828,0,0,1-1.244.374q-1.425-1.164-2.849-2.327c-.815-.666.134-2,.955-1.331" transform="translate(-250.101 -172.667)" fill="#6a8000"/>
              <path id="Trazado_147877" data-name="Trazado 147877" d="M279.624,254.933q1.038.85,2.074,1.7.682-1.467,1.364-2.935c.443-.95,1.98-.378,1.533.584q-.917,1.971-1.832,3.942a.827.827,0,0,1-1.244.373q-1.429-1.163-2.851-2.327c-.814-.666.136-2,.957-1.331" transform="translate(-246.266 -174.765)" fill="#6a8000"/>
              <path id="Trazado_147878" data-name="Trazado 147878" d="M303.217,239.285q1.038.846,2.075,1.7.681-1.47,1.364-2.936c.442-.95,1.978-.378,1.532.584q-.914,1.969-1.831,3.942a.83.83,0,0,1-1.245.373q-1.425-1.163-2.849-2.327c-.815-.666.134-2,.955-1.331" transform="translate(-242.688 -177.138)" fill="#6a8000"/>
            </g>
          </g>
        </g>
        <path id="Trazado_147879" data-name="Trazado 147879" d="M92.082,105.229a6.822,6.822,0,0,0-1.854.261A22.292,22.292,0,1,0,47.5,96.6c0,.121.016.238.018.362H47.5a10.966,10.966,0,0,0,0,21.933H92.082a6.831,6.831,0,1,0,0-13.663" transform="translate(5.539 11.267)" fill="#fff"/>
        <g id="Grupo_54574" data-name="Grupo 54574" transform="translate(42.068 85.572)" opacity="0.6">
          <g id="Grupo_54573" data-name="Grupo 54573">
            <g id="Grupo_54572" data-name="Grupo 54572" clip-path="url(#clip-path-36)">
              <path id="Trazado_147880" data-name="Trazado 147880" d="M47.5,100.024h.018c0-.122-.018-.24-.018-.36A22.281,22.281,0,0,1,92,98.1c.033-.5.078-1,.078-1.5a22.293,22.293,0,1,0-44.587,0c0,.121.016.238.018.36H47.5a10.9,10.9,0,0,0-10.847,12.5A10.96,10.96,0,0,1,47.5,100.024" transform="translate(-36.529 -74.305)" fill="#56c7f9"/>
              <path id="Trazado_147881" data-name="Trazado 147881" d="M84.261,101.211a22.187,22.187,0,0,1-1.1,3.274,6.809,6.809,0,0,1,8.508,5.037,6.816,6.816,0,0,0-6.654-8.365,6.47,6.47,0,0,0-.75.054" transform="translate(-29.459 -70.233)" fill="#56c7f9"/>
            </g>
          </g>
        </g>
        <path id="Trazado_147882" data-name="Trazado 147882" d="M200.654,50.937a10.185,10.185,0,0,0-5.568,1.654,14.375,14.375,0,0,0-19.175-8.827,23.006,23.006,0,0,0-44.955-.491,14.2,14.2,0,1,0-2.577,28.161h72.275a10.248,10.248,0,1,0,0-20.5" transform="translate(17.313 3.853)" fill="#fff"/>
        <g id="Grupo_54577" data-name="Grupo 54577" transform="translate(131.49 29.261)" opacity="0.6">
          <g id="Grupo_54576" data-name="Grupo 54576">
            <g id="Grupo_54575" data-name="Grupo 54575" clip-path="url(#clip-path-37)">
              <path id="Trazado_147883" data-name="Trazado 147883" d="M128.38,46.984a14.271,14.271,0,0,1,2.576.245,23.006,23.006,0,0,1,44.955.492,14.377,14.377,0,0,1,19.176,8.826,10.236,10.236,0,0,1,15.622,6.618A10.239,10.239,0,0,0,195.087,52.59a14.377,14.377,0,0,0-19.176-8.826,23.006,23.006,0,0,0-44.955-.492A14.115,14.115,0,0,0,114.33,59.21a14.194,14.194,0,0,1,14.05-12.226" transform="translate(-114.177 -25.408)" fill="#56c7f9"/>
            </g>
          </g>
        </g>
        <path id="Trazado_147884" data-name="Trazado 147884" d="M318.149,110.989a6.782,6.782,0,0,1,3.269.836,18.167,18.167,0,1,1,35.5-6.175,9.552,9.552,0,1,1,1.627,18.964h-40.4a6.812,6.812,0,1,1,0-13.625" transform="translate(47.208 13.386)" fill="#fff"/>
        <g id="Grupo_54580" data-name="Grupo 54580" transform="translate(358.544 101.667)" opacity="0.6">
          <g id="Grupo_54579" data-name="Grupo 54579">
            <g id="Grupo_54578" data-name="Grupo 54578" clip-path="url(#clip-path-38)">
              <path id="Trazado_147885" data-name="Trazado 147885" d="M357.328,108.53a9.585,9.585,0,0,0-1.627.147,18.163,18.163,0,0,0-36.246-.709c-.041-.5-.067-1.008-.067-1.52a18.165,18.165,0,0,1,36.313-.8,9.5,9.5,0,0,1,11.053,10.922,9.551,9.551,0,0,0-9.426-8.042" transform="translate(-310.115 -88.281)" fill="#56c7f9"/>
              <path id="Trazado_147886" data-name="Trazado 147886" d="M321.419,111.863a6.81,6.81,0,0,0-9.907,4.463,6.8,6.8,0,0,1,9.222-7.813,18.174,18.174,0,0,0,.685,3.35" transform="translate(-311.336 -85.291)" fill="#56c7f9"/>
            </g>
          </g>
        </g>
        <path id="Trazado_147887" data-name="Trazado 147887" d="M254.619,36.17a6.5,6.5,0,0,1,3.556,1.056,9.179,9.179,0,0,1,12.248-5.637,14.693,14.693,0,0,1,28.712-.314,9.069,9.069,0,1,1,1.646,17.986H254.619a6.545,6.545,0,1,1,0-13.091" transform="translate(37.615 3.012)" fill="#fff"/>
        <g id="Grupo_54583" data-name="Grupo 54583" transform="translate(285.687 22.877)" opacity="0.6">
          <g id="Grupo_54582" data-name="Grupo 54582">
            <g id="Grupo_54581" data-name="Grupo 54581" clip-path="url(#clip-path-39)">
              <path id="Trazado_147888" data-name="Trazado 147888" d="M300.781,33.645a9.132,9.132,0,0,0-1.646.157,14.694,14.694,0,0,0-28.712.314,9.179,9.179,0,0,0-12.248,5.637A6.537,6.537,0,0,0,248.2,43.98a6.535,6.535,0,0,1,6.421-7.809,6.513,6.513,0,0,1,3.556,1.055,9.18,9.18,0,0,1,12.248-5.636,14.693,14.693,0,0,1,28.712-.314,9.009,9.009,0,0,1,10.62,10.179,9.066,9.066,0,0,0-8.975-7.809" transform="translate(-248.072 -19.865)" fill="#56c7f9"/>
            </g>
          </g>
        </g>
        <g id="Grupo_54586" data-name="Grupo 54586" transform="translate(25.533 61.495)" opacity="0.4">
          <g id="Grupo_54585" data-name="Grupo 54585">
            <g id="Grupo_54584" data-name="Grupo 54584" clip-path="url(#clip-path-40)">
              <path id="Trazado_147889" data-name="Trazado 147889" d="M53.214,118.7l-6.378,9.479c-.5.743.7,1.434,1.194.7q3.189-4.738,6.377-9.479c.5-.742-.7-1.434-1.193-.7" transform="translate(-18.449 -43.543)" fill="#56c7f9"/>
              <path id="Trazado_147890" data-name="Trazado 147890" d="M66.72,134.3q-3.189,4.738-6.377,9.479c-.5.743.7,1.434,1.193.7q3.191-4.74,6.378-9.479c.5-.742-.7-1.434-1.194-.7" transform="translate(-16.401 -41.178)" fill="#56c7f9"/>
              <path id="Trazado_147891" data-name="Trazado 147891" d="M90.034,120.113q-3.189,4.742-6.377,9.479c-.5.742.7,1.434,1.194.7q3.189-4.738,6.377-9.479c.5-.743-.7-1.434-1.194-.7" transform="translate(-12.866 -43.33)" fill="#56c7f9"/>
              <path id="Trazado_147892" data-name="Trazado 147892" d="M28.669,154.137q-3.192,4.74-6.379,9.479c-.5.742.7,1.434,1.194.7l6.377-9.479c.5-.743-.7-1.434-1.192-.7" transform="translate(-22.171 -38.17)" fill="#56c7f9"/>
              <path id="Trazado_147893" data-name="Trazado 147893" d="M42.108,185.535q-3.191,4.74-6.378,9.479c-.5.743.7,1.435,1.194.7q3.189-4.738,6.377-9.479c.5-.742-.7-1.434-1.193-.7" transform="translate(-20.133 -33.409)" fill="#56c7f9"/>
              <path id="Trazado_147894" data-name="Trazado 147894" d="M90.034,155.034l-6.377,9.479c-.5.743.7,1.434,1.194.7l6.377-9.479c.5-.743-.7-1.434-1.194-.7" transform="translate(-12.866 -38.034)" fill="#56c7f9"/>
              <path id="Trazado_147895" data-name="Trazado 147895" d="M117.3,104.042q-3.189,4.742-6.378,9.479c-.5.743.7,1.434,1.194.7q3.189-4.738,6.377-9.479c.5-.742-.7-1.434-1.193-.7" transform="translate(-8.732 -45.766)" fill="#56c7f9"/>
              <path id="Trazado_147896" data-name="Trazado 147896" d="M105.834,82.626q-3.191,4.738-6.379,9.479c-.5.742.7,1.434,1.194.7l6.377-9.479c.5-.743-.7-1.434-1.192-.7" transform="translate(-10.47 -49.014)" fill="#56c7f9"/>
              <path id="Trazado_147897" data-name="Trazado 147897" d="M133.984,74.619q-3.189,4.74-6.377,9.479c-.5.743.7,1.434,1.193.7q3.189-4.74,6.377-9.479c.5-.742-.7-1.434-1.193-.7" transform="translate(-6.201 -50.228)" fill="#56c7f9"/>
              <path id="Trazado_147898" data-name="Trazado 147898" d="M148.344,99.351q-3.189,4.74-6.377,9.479c-.5.743.7,1.434,1.194.7q3.189-4.738,6.377-9.479c.5-.743-.7-1.434-1.194-.7" transform="translate(-4.024 -46.478)" fill="#56c7f9"/>
              <path id="Trazado_147899" data-name="Trazado 147899" d="M170.875,74.619,164.5,84.1c-.5.743.7,1.434,1.194.7l6.377-9.479c.5-.742-.7-1.434-1.194-.7" transform="translate(-0.608 -50.228)" fill="#56c7f9"/>
              <path id="Trazado_147900" data-name="Trazado 147900" d="M339.088,126.4q-3.189,4.74-6.378,9.479c-.5.742.7,1.434,1.2.7q3.189-4.738,6.377-9.479c.5-.743-.7-1.434-1.194-.7" transform="translate(24.899 -42.376)" fill="#56c7f9"/>
              <path id="Trazado_147901" data-name="Trazado 147901" d="M360.2,150.519q-3.189,4.74-6.377,9.479c-.5.743.7,1.434,1.194.7l6.378-9.479c.5-.743-.7-1.434-1.2-.7" transform="translate(28.099 -38.719)" fill="#56c7f9"/>
              <path id="Trazado_147902" data-name="Trazado 147902" d="M319.265,135.142q-3.189,4.74-6.377,9.479c-.5.743.7,1.434,1.194.7q3.189-4.74,6.378-9.479c.5-.743-.7-1.434-1.2-.7" transform="translate(21.893 -41.051)" fill="#56c7f9"/>
              <path id="Trazado_147903" data-name="Trazado 147903" d="M363.736,180.716l-6.377,9.478c-.5.743.7,1.435,1.194.7q3.189-4.738,6.378-9.48c.5-.742-.7-1.434-1.2-.7" transform="translate(28.636 -34.14)" fill="#56c7f9"/>
              <path id="Trazado_147904" data-name="Trazado 147904" d="M235.551,59.552l-6.377,9.479c-.5.743.7,1.434,1.194.7l6.377-9.479c.5-.742-.7-1.434-1.194-.7" transform="translate(9.199 -52.512)" fill="#56c7f9"/>
              <path id="Trazado_147905" data-name="Trazado 147905" d="M271.373,65.968Q268.185,70.71,265,75.447c-.5.743.7,1.434,1.2.7q3.189-4.738,6.377-9.479c.5-.742-.7-1.434-1.194-.7" transform="translate(14.631 -51.54)" fill="#56c7f9"/>
              <path id="Trazado_147906" data-name="Trazado 147906" d="M293.684,53.711q-3.189,4.742-6.377,9.479c-.5.742.7,1.434,1.194.7q3.189-4.738,6.377-9.479c.5-.742-.7-1.434-1.194-.7" transform="translate(18.014 -53.398)" fill="#56c7f9"/>
              <path id="Trazado_147907" data-name="Trazado 147907" d="M313.029,74.619q-3.189,4.74-6.377,9.479c-.5.743.7,1.434,1.2.7q3.187-4.74,6.377-9.479c.5-.742-.7-1.434-1.2-.7" transform="translate(20.947 -50.228)" fill="#56c7f9"/>
            </g>
          </g>
        </g>
        <path id="Trazado_147908" data-name="Trazado 147908" d="M6.279,132.015l-1.464-3.668L3.35,132.015,0,133.636l3.35,1.62,1.465,3.668,1.464-3.668,3.35-1.62Z" transform="translate(0 19.461)" fill="#fff"/>
        <path id="Trazado_147909" data-name="Trazado 147909" d="M11.106,77.786l-1.914-4.8-1.916,4.8-4.382,2.12,4.382,2.121,1.916,4.8,1.914-4.8,4.383-2.121Z" transform="translate(0.439 11.068)" fill="#fff"/>
        <path id="Trazado_147910" data-name="Trazado 147910" d="M24.269,9.674,22.805,6.006,21.34,9.674,17.99,11.3l3.35,1.62,1.465,3.668,1.464-3.668,3.35-1.62Z" transform="translate(2.728 0.911)" fill="#fff"/>
        <path id="Trazado_147911" data-name="Trazado 147911" d="M74.462,23.543l-2.952-7.4-2.953,7.4L61.8,26.813l6.755,3.268,2.953,7.4,2.952-7.4,6.758-3.268Z" transform="translate(9.371 2.448)" fill="#fff"/>
        <path id="Trazado_147912" data-name="Trazado 147912" d="M175.793,4.8,173.878,0l-1.914,4.8-4.383,2.12,4.383,2.12,1.914,4.8,1.915-4.8,4.382-2.12Z" transform="translate(25.41 0)" fill="#fff"/>
        <path id="Trazado_147913" data-name="Trazado 147913" d="M388.245,163.63l1.465-3.668,1.464,3.668,3.35,1.622-3.35,1.62-1.464,3.667-1.465-3.667-3.35-1.62Z" transform="translate(58.362 24.255)" fill="#fff"/>
        <path id="Trazado_147914" data-name="Trazado 147914" d="M383.81,99.947l1.914-4.8,1.915,4.8,4.382,2.12-4.382,2.121-1.915,4.8-1.914-4.8-4.383-2.121Z" transform="translate(57.533 14.428)" fill="#fff"/>
        <path id="Trazado_147915" data-name="Trazado 147915" d="M349.55,9.674l1.464-3.668,1.464,3.668,3.35,1.622-3.35,1.62-1.464,3.668-1.464-3.668L346.2,11.3Z" transform="translate(52.494 0.911)" fill="#fff"/>
        <path id="Trazado_147916" data-name="Trazado 147916" d="M338.337,57.373l2.952-7.4,2.952,7.4L351,60.643l-6.757,3.268-2.952,7.4-2.952-7.4-6.758-3.268Z" transform="translate(50.278 7.578)" fill="#fff"/>
        <path id="Trazado_147917" data-name="Trazado 147917" d="M229.846,21.4l1.914-4.8,1.915,4.8,4.382,2.12-4.382,2.121-1.915,4.8-1.914-4.8-4.383-2.121Z" transform="translate(34.187 2.518)" fill="#fff"/>
      </g>
    </g>
  </g>
</svg>
