<svg id="Grupo_56165" data-name="Grupo 56165" xmlns="http://www.w3.org/2000/svg" xmlns:xlink="http://www.w3.org/1999/xlink" width="1204.935" height="780.09" viewBox="0 0 1204.935 780.09">
  <defs>
    <clipPath id="clip-path">
      <rect id="Rectángulo_6331" data-name="Rectángulo 6331" width="1204.935" height="780.09" fill="none"/>
    </clipPath>
  </defs>
  <path id="Trazado_149674" data-name="Trazado 149674" d="M294.815,356.446,507.633,423.4l292.69-66.95L999.279,423.4" fill="none" stroke="#048c66" stroke-miterlimit="10" stroke-width="9"/>
  <g id="Grupo_56150" data-name="Grupo 56150">
    <g id="Grupo_56149" data-name="Grupo 56149" clip-path="url(#clip-path)">
      <path id="Trazado_149675" data-name="Trazado 149675" d="M316.776,352.391A22.265,22.265,0,1,1,291.221,334a22.265,22.265,0,0,1,25.555,18.395" fill="#c3e3da"/>
      <path id="Trazado_149676" data-name="Trazado 149676" d="M303.464,355.971a8.663,8.663,0,1,1-8.663-8.663,8.663,8.663,0,0,1,8.663,8.663" fill="#03694d"/>
      <path id="Trazado_149677" data-name="Trazado 149677" d="M527.459,419.786a22.265,22.265,0,1,1-25.555-18.4,22.265,22.265,0,0,1,25.555,18.4" fill="#c3e3da"/>
      <path id="Trazado_149678" data-name="Trazado 149678" d="M514.146,423.366a8.663,8.663,0,1,1-8.663-8.663,8.663,8.663,0,0,1,8.663,8.663" fill="#03694d"/>
      <rect id="Rectángulo_6330" data-name="Rectángulo 6330" width="285.505" height="124.04" transform="translate(152.049 138.783)" fill="#03694d"/>
    </g>
  </g>
  <text id="Componentes_ambientales" data-name="Componentes ambientales" transform="translate(187.753 201.594)" fill="#fff" font-size="17.515" font-family="Roboto-Black, Roboto" font-weight="800"><tspan x="0" y="0">Componentes ambientales</tspan></text>
  <text id="Tema_1" data-name="Tema 1" transform="translate(265.449 312.987)" fill="#03694d" font-size="17.515" font-family="Roboto-Black, Roboto" font-weight="800"><tspan x="0" y="0" letter-spacing="-0.043em">T</tspan><tspan y="0">ema 1</tspan></text>
  <g id="Grupo_56152" data-name="Grupo 56152">
    <g id="Grupo_56151" data-name="Grupo 56151" clip-path="url(#clip-path)">
      <path id="Trazado_149679" data-name="Trazado 149679" d="M286.247,260.792h17.109L294.8,278.614Z" fill="#03694d"/>
      <path id="Trazado_149680" data-name="Trazado 149680" d="M281.613,153.98H22.484A22.485,22.485,0,0,1,0,131.5V22.484A22.484,22.484,0,0,1,22.484,0H281.613A22.483,22.483,0,0,1,304.1,22.484V131.5a22.484,22.484,0,0,1-22.484,22.484" fill="#c7f2d8"/>
    </g>
  </g>
  <text id="Factores_o_recursos_naturales_" data-name="Factores o recursos naturales " transform="translate(31.308 48.361)" fill="#03694d" font-size="17.515" font-family="Roboto-Regular, Roboto"><tspan x="0" y="0" letter-spacing="-0.016em">F</tspan><tspan y="0">ac</tspan><tspan y="0" letter-spacing="-0.009em">t</tspan><tspan y="0">o</tspan><tspan y="0" letter-spacing="-0.009em">r</tspan><tspan y="0">es o </tspan><tspan y="0" letter-spacing="-0.009em">r</tspan><tspan y="0">ecursos natu</tspan><tspan y="0" letter-spacing="-0.019em">r</tspan><tspan y="0">ales </tspan></text>
  <text id="que_presentan_interacciones_" data-name="que presentan interacciones " transform="translate(31.308 69.378)" fill="#03694d" font-size="17.515" font-family="Roboto-Regular, Roboto"><tspan x="0" y="0">que p</tspan><tspan y="0" letter-spacing="-0.009em">r</tspan><tspan y="0">esentan inte</tspan><tspan y="0" letter-spacing="-0.019em">r</tspan><tspan y="0">acciones </tspan></text>
  <text id="entre_sí_y_dan_vida_a_nuestro_" data-name="entre sí y dan vida a nuestro " transform="translate(31.308 90.396)" fill="#03694d" font-size="17.515" font-family="Roboto-Regular, Roboto"><tspan x="0" y="0">ent</tspan><tspan y="0" letter-spacing="-0.009em">r</tspan><tspan y="0">e sí y dan vida a nuest</tspan><tspan y="0" letter-spacing="-0.009em">r</tspan><tspan y="0">o </tspan></text>
  <text id="planeta." transform="translate(31.308 111.413)" fill="#03694d" font-size="17.515" font-family="Roboto-Regular, Roboto"><tspan x="0" y="0">planeta.</tspan></text>
  <g id="Grupo_56154" data-name="Grupo 56154">
    <g id="Grupo_56153" data-name="Grupo 56153" clip-path="url(#clip-path)">
      <path id="Trazado_149681" data-name="Trazado 149681" d="M817.212,352.391A22.265,22.265,0,1,1,791.657,334a22.265,22.265,0,0,1,25.555,18.395" fill="#c3e3da"/>
      <path id="Trazado_149682" data-name="Trazado 149682" d="M803.9,355.971a8.663,8.663,0,1,1-8.663-8.663,8.663,8.663,0,0,1,8.663,8.663" fill="#048c66"/>
      <rect id="Rectángulo_6333" data-name="Rectángulo 6333" width="285.505" height="124.04" transform="translate(652.484 138.783)" fill="#048c66"/>
    </g>
  </g>
  <text id="Normatividad" transform="translate(740.459 201.594)" fill="#fff" font-size="17.515" font-family="Roboto-Black, Roboto" font-weight="800"><tspan x="0" y="0">Normatividad</tspan></text>
  <text id="Tema_3" data-name="Tema 3" transform="translate(765.891 312.987)" fill="#048c66" font-size="17.515" font-family="Roboto-Black, Roboto" font-weight="800"><tspan x="0" y="0" letter-spacing="-0.043em">T</tspan><tspan y="0">ema 3</tspan></text>
  <g id="Grupo_56156" data-name="Grupo 56156">
    <g id="Grupo_56155" data-name="Grupo 56155" clip-path="url(#clip-path)">
      <path id="Trazado_149683" data-name="Trazado 149683" d="M786.682,260.792h17.109l-8.555,17.822Z" fill="#048c66"/>
      <path id="Trazado_149684" data-name="Trazado 149684" d="M1112.465,153.98H853.336A22.484,22.484,0,0,1,830.852,131.5V22.484A22.483,22.483,0,0,1,853.336,0h259.129a22.483,22.483,0,0,1,22.483,22.484V131.5a22.483,22.483,0,0,1-22.483,22.484" fill="#c7f2d8"/>
    </g>
  </g>
  <text id="Conservación_y_preservación_de_" data-name="Conservación y preservación de " transform="translate(862.16 48.361)" fill="#03694d" font-size="17.515" font-family="Roboto-Regular, Roboto"><tspan x="0" y="0">Conse</tspan><tspan y="0" letter-spacing="0.008em">r</tspan><tspan y="0" letter-spacing="-0.007em">v</tspan><tspan y="0">ación y p</tspan><tspan y="0" letter-spacing="-0.009em">r</tspan><tspan y="0">ese</tspan><tspan y="0" letter-spacing="0.008em">r</tspan><tspan y="0" letter-spacing="-0.007em">v</tspan><tspan y="0">ación de </tspan></text>
  <text id="recursos_por_medio_de_" data-name="recursos por medio de " transform="translate(862.16 69.378)" fill="#03694d" font-size="17.515" font-family="Roboto-Regular, Roboto"><tspan x="0" y="0" letter-spacing="-0.009em">r</tspan><tspan y="0">ecursos por medio de </tspan></text>
  <text id="normativas_ambientales." data-name="normativas ambientales." transform="translate(862.16 90.396)" fill="#03694d" font-size="17.515" font-family="Roboto-Regular, Roboto"><tspan x="0" y="0">normati</tspan><tspan y="0" letter-spacing="-0.007em">v</tspan><tspan y="0">as ambientales.</tspan></text>
  <g id="Grupo_56158" data-name="Grupo 56158">
    <g id="Grupo_56157" data-name="Grupo 56157" clip-path="url(#clip-path)">
      <rect id="Rectángulo_6336" data-name="Rectángulo 6336" width="285.505" height="124.04" transform="translate(362.731 517.267)" fill="#03694d"/>
    </g>
  </g>
  <text id="Sistemas_socioecológicos" data-name="Sistemas socioecológicos" transform="translate(400.886 580.077)" fill="#fff" font-size="17.515" font-family="Roboto-Black, Roboto" font-weight="800"><tspan x="0" y="0">Sistemas socioecológicos</tspan></text>
  <text id="Tema_2" data-name="Tema 2" transform="translate(476.129 469.893)" fill="#03694d" font-size="17.515" font-family="Roboto-Black, Roboto" font-weight="800"><tspan x="0" y="0" letter-spacing="-0.043em">T</tspan><tspan y="0">ema 2</tspan></text>
  <g id="Grupo_56160" data-name="Grupo 56160">
    <g id="Grupo_56159" data-name="Grupo 56159" clip-path="url(#clip-path)">
      <path id="Trazado_149685" data-name="Trazado 149685" d="M496.929,519.3h17.109l-8.555-17.822Z" fill="#03694d"/>
      <path id="Trazado_149686" data-name="Trazado 149686" d="M492.3,626.11H233.166a22.485,22.485,0,0,0-22.484,22.484V757.606a22.484,22.484,0,0,0,22.484,22.484H492.3a22.483,22.483,0,0,0,22.484-22.484V648.594A22.484,22.484,0,0,0,492.3,626.11" fill="#c7f2d8"/>
    </g>
  </g>
  <text id="Interacción_entre_los_sistemas_" data-name="Interacción entre los sistemas " transform="translate(241.991 675.957)" fill="#03694d" font-size="17.515" font-family="Roboto-Regular, Roboto"><tspan x="0" y="0">Inte</tspan><tspan y="0" letter-spacing="-0.019em">r</tspan><tspan y="0">acción ent</tspan><tspan y="0" letter-spacing="-0.009em">r</tspan><tspan y="0">e los sistemas </tspan></text>
  <text id="sociales_y_los_sistemas_" data-name="sociales y los sistemas " transform="translate(241.991 696.975)" fill="#03694d" font-size="17.515" font-family="Roboto-Regular, Roboto"><tspan x="0" y="0">sociales y los sistemas </tspan></text>
  <text id="ecológicos." transform="translate(241.991 717.992)" fill="#03694d" font-size="17.515" font-family="Roboto-Regular, Roboto"><tspan x="0" y="0">ecológicos.</tspan></text>
  <g id="Grupo_56162" data-name="Grupo 56162">
    <g id="Grupo_56161" data-name="Grupo 56161" clip-path="url(#clip-path)">
      <path id="Trazado_149687" data-name="Trazado 149687" d="M1014.171,419.786a22.265,22.265,0,1,1-25.555-18.4,22.265,22.265,0,0,1,25.555,18.4" fill="#c3e3da"/>
      <path id="Trazado_149688" data-name="Trazado 149688" d="M1000.859,423.366A8.663,8.663,0,1,1,992.2,414.7a8.663,8.663,0,0,1,8.663,8.663" fill="#048c66"/>
      <rect id="Rectángulo_6339" data-name="Rectángulo 6339" width="285.505" height="124.04" transform="translate(849.444 517.267)" fill="#048c66"/>
    </g>
  </g>
  <text id="Metodologías" transform="translate(936.765 580.077)" fill="#fff" font-size="17.515" font-family="Roboto-Black, Roboto" font-weight="800"><tspan x="0" y="0">Me</tspan><tspan y="0" letter-spacing="-0.014em">t</tspan><tspan y="0">odologías</tspan></text>
  <text id="Tema_4" data-name="Tema 4" transform="translate(962.845 469.893)" fill="#048c66" font-size="17.515" font-family="Roboto-Black, Roboto" font-weight="800"><tspan x="0" y="0" letter-spacing="-0.043em">T</tspan><tspan y="0">ema 4</tspan></text>
  <g id="Grupo_56164" data-name="Grupo 56164">
    <g id="Grupo_56163" data-name="Grupo 56163" clip-path="url(#clip-path)">
      <path id="Trazado_149689" data-name="Trazado 149689" d="M983.642,519.3h17.109L992.2,501.476Z" fill="#048c66"/>
      <path id="Trazado_149690" data-name="Trazado 149690" d="M1182.45,626.11H923.321a22.484,22.484,0,0,0-22.484,22.484V757.606a22.484,22.484,0,0,0,22.484,22.484H1182.45a22.483,22.483,0,0,0,22.484-22.484V648.594a22.484,22.484,0,0,0-22.484-22.484" fill="#c7f2d8"/>
    </g>
  </g>
  <text id="Tipos_de_fuentes_de_información_" data-name="Tipos de fuentes de información " transform="translate(932.146 675.957)" fill="#03694d" font-size="17.515" font-family="Roboto-Regular, Roboto"><tspan x="0" y="0">Tipos de fuentes de información </tspan></text>
  <text id="o_fuentes_de_documentación." data-name="o fuentes de documentación." transform="translate(932.146 696.975)" fill="#03694d" font-size="17.515" font-family="Roboto-Regular, Roboto"><tspan x="0" y="0">o fuentes de documentación.</tspan></text>
</svg>
