<svg xmlns="http://www.w3.org/2000/svg" xmlns:xlink="http://www.w3.org/1999/xlink" width="43.77" height="48.931" viewBox="0 0 43.77 48.931">
  <defs>
    <clipPath id="clip-path">
      <rect id="Rectángulo_5756" data-name="Rectángulo 5756" width="43.77" height="48.931" fill="none"/>
    </clipPath>
  </defs>
  <g id="Grupo_54688" data-name="Grupo 54688" transform="translate(0 0)">
    <g id="Grupo_54687" data-name="Grupo 54687" transform="translate(0 0)" clip-path="url(#clip-path)">
      <path id="Trazado_148379" data-name="Trazado 148379" d="M43.77,33.067A2.871,2.871,0,0,0,40.9,30.2H28.124V28.945a2.858,2.858,0,0,0-2.855-2.855h-.517V7.709H34.3L29.357,18.536a.944.944,0,0,0-.086.4,6.489,6.489,0,0,0,12.978,0,.958.958,0,0,0-.086-.4L37.216,7.709h3.017a2.307,2.307,0,0,0,2.3-2.3.956.956,0,0,0-1.912,0,.393.393,0,0,1-.393.392H24.751V2.867a2.867,2.867,0,0,0-5.734,0V5.8H3.536a.392.392,0,0,1-.392-.392.956.956,0,1,0-1.912,0,2.307,2.307,0,0,0,2.3,2.3H6.553L1.608,18.536a.945.945,0,0,0-.087.4,6.489,6.489,0,1,0,12.978,0,.958.958,0,0,0-.086-.4L9.467,7.709h9.551V26.09H18.5a2.859,2.859,0,0,0-2.855,2.855V30.2H2.866A2.871,2.871,0,0,0,0,33.067v4.588a2.858,2.858,0,0,0,.731,1.912A2.857,2.857,0,0,0,0,41.478v4.587a2.871,2.871,0,0,0,2.866,2.867H40.9a2.871,2.871,0,0,0,2.867-2.867V41.478a2.853,2.853,0,0,0-.732-1.912,2.855,2.855,0,0,0,.732-1.912ZM35.76,23.51a4.585,4.585,0,0,1-4.477-3.622h8.952A4.584,4.584,0,0,1,35.76,23.51Zm4.046-5.533H31.713L35.76,9.121ZM8.01,23.51a4.584,4.584,0,0,1-4.476-3.622h8.951A4.584,4.584,0,0,1,8.01,23.51m4.046-5.533H3.965L8.01,9.121ZM20.929,2.867a.956.956,0,0,1,1.912,0V4.051a2.85,2.85,0,0,0-1.912,0Zm.956,2.93a.956.956,0,1,1-.956.956.957.957,0,0,1,.956-.956m-.956,3.659a2.866,2.866,0,0,0,1.912,0V26.09H20.929ZM17.557,28.945A.945.945,0,0,1,18.5,28h6.768a.945.945,0,0,1,.944.944V30.2H17.557ZM1.912,33.067a.957.957,0,0,1,.955-.956H6.116v6.5H2.866a.957.957,0,0,1-.955-.956ZM7.071,47.02h-4.2a.956.956,0,0,1-.955-.956V41.478a.956.956,0,0,1,.955-.956h4.2Zm24.3,0H12.425v-6.5H31.37Zm4.372-8.41H8.028v-6.5H35.742Zm6.116,7.454a.956.956,0,0,1-.956.956H36.722v-6.5H40.9a.956.956,0,0,1,.956.956Zm0-8.41a.957.957,0,0,1-.956.956H37.654v-6.5H40.9a.957.957,0,0,1,.956.956Z" transform="translate(0 0)" fill="#f28705"/>
      <path id="Trazado_148380" data-name="Trazado 148380" d="M18.069,48.1H28.2a.956.956,0,1,0,0-1.912H18.069a.956.956,0,0,0,0,1.912" transform="translate(-1.249 -3.371)" fill="#f28705"/>
      <path id="Trazado_148381" data-name="Trazado 148381" d="M13.167,39.025H32.386a.956.956,0,0,0,0-1.912H13.167a.956.956,0,0,0,0,1.912Z" transform="translate(-0.891 -2.709)" fill="#f28705"/>
    </g>
  </g>
</svg>
