<svg id="Grupo_54373" data-name="Grupo 54373" xmlns="http://www.w3.org/2000/svg" xmlns:xlink="http://www.w3.org/1999/xlink" width="179.28" height="179.28" viewBox="0 0 179.28 179.28">
  <defs>
    <clipPath id="clip-path">
      <rect id="Rectángulo_5466" data-name="Rectángulo 5466" width="179.28" height="179.28" fill="none"/>
    </clipPath>
  </defs>
  <g id="Grupo_54372" data-name="Grupo 54372" clip-path="url(#clip-path)">
    <path id="Trazado_146275" data-name="Trazado 146275" d="M168.8,123.527,146.516,55.171a7.281,7.281,0,0,0-3.956-4.353L84.429,25.5a7.179,7.179,0,0,0-6.986.708L23.977,63.774a7.173,7.173,0,0,0-3.049,5.869v58.52a7.172,7.172,0,0,0,4.653,6.716l52.26,19.6a7.513,7.513,0,0,0,.91.267,7.065,7.065,0,0,0,3.475-.058l81.62-22.012a7.173,7.173,0,0,0,4.953-9.147" fill="#222224"/>
    <path id="Trazado_146276" data-name="Trazado 146276" d="M142.56,50.818,84.429,25.5a7.163,7.163,0,0,0-4.067-.493L93.591,93.877,145.3,52.939a7.151,7.151,0,0,0-2.745-2.121" fill="#403f44"/>
    <path id="Trazado_146277" data-name="Trazado 146277" d="M168.8,123.527,146.516,55.171a7.16,7.16,0,0,0-1.211-2.232L93.591,93.877l-14.84,60.866a7.033,7.033,0,0,0,3.475-.058l81.621-22.011a7.173,7.173,0,0,0,4.952-9.147" fill="#313133"/>
  </g>
</svg>
