<svg id="Grupo_54378" data-name="Grupo 54378" xmlns="http://www.w3.org/2000/svg" xmlns:xlink="http://www.w3.org/1999/xlink" width="179.28" height="179.28" viewBox="0 0 179.28 179.28">
  <defs>
    <clipPath id="clip-path">
      <rect id="Rectángulo_5473" data-name="Rectángulo 5473" width="179.28" height="179.28" fill="none"/>
    </clipPath>
  </defs>
  <path id="Trazado_146284" data-name="Trazado 146284" d="M158.657,89.4V71.089H96.169L74.2,111.364Z" fill="#7ea765"/>
  <path id="Trazado_146285" data-name="Trazado 146285" d="M96.17,71.089H33.682V89.4L96.17,111.364Z" fill="#96c254"/>
  <path id="Trazado_146286" data-name="Trazado 146286" d="M96.17,85.734,74.2,120.761,96.17,152.128h62.488V85.734Z" fill="#895050"/>
  <rect id="Rectángulo_5468" data-name="Rectángulo 5468" width="62.488" height="66.393" transform="translate(33.682 85.735)" fill="#9d6b5d"/>
  <rect id="Rectángulo_5469" data-name="Rectángulo 5469" width="7.323" height="7.323" transform="translate(48.327 130.159)" fill="#895050"/>
  <rect id="Rectángulo_5470" data-name="Rectángulo 5470" width="7.323" height="7.323" transform="translate(136.689 107.703)" fill="#624a4f"/>
  <rect id="Rectángulo_5471" data-name="Rectángulo 5471" width="7.323" height="7.323" transform="translate(122.043 100.38)" fill="#624a4f"/>
  <g id="Grupo_54377" data-name="Grupo 54377">
    <g id="Grupo_54376" data-name="Grupo 54376" clip-path="url(#clip-path)">
      <path id="Trazado_146287" data-name="Trazado 146287" d="M129.122,137.482H121.8v-4.15a11,11,0,0,0-10.984-10.984v-7.322a18.327,18.327,0,0,1,18.307,18.306Z" fill="#c4a178"/>
      <path id="Trazado_146288" data-name="Trazado 146288" d="M70.54,137.482H63.217v-4.15a18.328,18.328,0,0,1,18.307-18.306v7.322A11,11,0,0,0,70.54,133.332Z" fill="#d8bb85"/>
      <path id="Trazado_146289" data-name="Trazado 146289" d="M85.185,137.482H77.862V118.687A18.328,18.328,0,0,1,96.169,100.38V107.7a11,11,0,0,0-10.984,10.984Z" fill="#d8bb85"/>
      <path id="Trazado_146290" data-name="Trazado 146290" d="M114.476,137.482h-7.323V118.687A11,11,0,0,0,96.169,107.7V100.38a18.327,18.327,0,0,1,18.307,18.307Z" fill="#c4a178"/>
      <path id="Trazado_146291" data-name="Trazado 146291" d="M96.17,63.766,93.729,96.718l6.1-10.984V60.105Z" fill="#678d76"/>
      <path id="Trazado_146292" data-name="Trazado 146292" d="M92.508,60.1v25.63l3.661,10.984V63.766Z" fill="#7ea765"/>
      <path id="Trazado_146293" data-name="Trazado 146293" d="M96.17,85.734l-3.661,27.7,3.661,24.043H99.83V85.734Z" fill="#c4a178"/>
      <rect id="Rectángulo_5472" data-name="Rectángulo 5472" width="3.661" height="51.747" transform="translate(92.508 85.735)" fill="#d8bb85"/>
      <path id="Trazado_146294" data-name="Trazado 146294" d="M59.556,27.152A36.613,36.613,0,0,0,96.17,63.766,36.615,36.615,0,0,0,59.556,27.152" fill="#96c254"/>
      <path id="Trazado_146295" data-name="Trazado 146295" d="M132.783,27.152A36.615,36.615,0,0,0,96.169,63.765a36.612,36.612,0,0,0,36.614-36.613" fill="#7ea765"/>
      <path id="Trazado_146296" data-name="Trazado 146296" d="M26.57,43.022H66.424a5.948,5.948,0,0,1,5.947,5.947V88.823a5.947,5.947,0,0,1-5.947,5.946H26.57a5.947,5.947,0,0,1-5.947-5.946V48.969a5.948,5.948,0,0,1,5.947-5.947" fill="#f29c1f"/>
      <path id="Trazado_146297" data-name="Trazado 146297" d="M44.537,94.769H26.57a5.948,5.948,0,0,1-5.947-5.948V48.968a5.942,5.942,0,0,1,.2-1.536q-.094,1.587-.095,3.2A52.758,52.758,0,0,0,44.537,94.769" fill="#f0c419"/>
      <path id="Trazado_146298" data-name="Trazado 146298" d="M68.514,51.083V86.709a4.2,4.2,0,0,1-4.2,4.2H28.684a4.2,4.2,0,0,1-4.2-4.2V51.083a4.2,4.2,0,0,1,4.2-4.2H64.31a4.2,4.2,0,0,1,4.2,4.2" fill="#f0c419"/>
      <path id="Trazado_146299" data-name="Trazado 146299" d="M39.389,90.913h-10.7a4.2,4.2,0,0,1-4.2-4.2V70.216A52.908,52.908,0,0,0,39.389,90.913Z" fill="#f3d55b"/>
      <path id="Trazado_146300" data-name="Trazado 146300" d="M39.811,58.9a2,2,0,0,1,2-2h2.546a14.953,14.953,0,0,1,5.317.681,5.4,5.4,0,0,1,2.57,2.2,6.8,6.8,0,0,1,.941,3.649,6.127,6.127,0,0,1-1.231,3.917,6.389,6.389,0,0,1-3.343,2.173,15.7,15.7,0,0,1-3.551.343.981.981,0,0,0-.963.979v6.42a2.142,2.142,0,1,1-4.284,0ZM44.1,64.493A1.209,1.209,0,0,0,45.3,65.7h.153a7.38,7.38,0,0,0,2.234-.23,1.992,1.992,0,0,0,.986-.76,2.224,2.224,0,0,0,.36-1.282,2.05,2.05,0,0,0-1.01-1.9,5.763,5.763,0,0,0-2.723-.445A1.209,1.209,0,0,0,44.1,62.29Z" fill="#4a5058"/>
    </g>
  </g>
</svg>
