<svg xmlns="http://www.w3.org/2000/svg" xmlns:xlink="http://www.w3.org/1999/xlink" width="139.026" height="139.025" viewBox="0 0 139.026 139.025">
  <defs>
    <clipPath id="clip-path">
      <path id="Trazado_146428" data-name="Trazado 146428" d="M182.084,68.8A58.314,58.314,0,1,0,240.4,10.488,58.315,58.315,0,0,0,182.084,68.8" transform="translate(-182.084 -10.488)" fill="none"/>
    </clipPath>
    <clipPath id="clip-path-2">
      <path id="Trazado_146433" data-name="Trazado 146433" d="M189.518,92.627a58.332,58.332,0,0,0,100.714.064l-100.714-.2Z" transform="translate(-189.518 -92.491)" fill="none"/>
    </clipPath>
  </defs>
  <g id="Grupo_54386" data-name="Grupo 54386" transform="translate(5911.403 5010.999)">
    <path id="Trazado_146415" data-name="Trazado 146415" d="M310.623,69.513A69.513,69.513,0,1,1,241.11,0a69.512,69.512,0,0,1,69.512,69.512" transform="translate(-6083 -5011)" fill="#30e579"/>
    <path id="Trazado_146416" data-name="Trazado 146416" d="M298.711,68.8A58.314,58.314,0,1,1,240.4,10.488,58.313,58.313,0,0,1,298.711,68.8" transform="translate(-6082.289 -5010.289)" fill="#fff"/>
    <g id="Grupo_54389" data-name="Grupo 54389" transform="translate(-5900.205 -4999.8)">
      <g id="Grupo_54388" data-name="Grupo 54388" transform="translate(0 0)" clip-path="url(#clip-path)">
        <path id="Trazado_146417" data-name="Trazado 146417" d="M202.363,126.2c48.061,0,124.054,1.611,183.021,1.614a14.375,14.375,0,0,0,7.794-2.364,10.7,10.7,0,0,0,2.441-2.413c2.339-3.153,1.6-5.874,1.73-9.817.2-6.213-.191-13.864-.144-22.092.148-25.909.372-57.34.394-80.481,0,0-31.243-.052-31.243-.079s0-.053,0-.079h0S.471,10.5.471,10.528c0,.011-.186,92.262-.186,92.262,40.771,33.192,148.15,23.41,202.078,23.41" transform="translate(-194.424 -10.488)" fill="#86ad3b"/>
        <path id="Trazado_146418" data-name="Trazado 146418" d="M195.441,21.165a7.017,7.017,0,0,1-.727,6.006c-2.943,4.857-9.269,6.86-14.323,9.973-4.05,2.5-7.476,6.267-6.428,10.635,1.043,4.346,6.271,7.861,11.613,9.565s10.967,2.06,16.474,3.023a75.253,75.253,0,0,1,25.3,9.323,10.472,10.472,0,0,1,3.07,2.677c3.623,4.9-1.664,8.518-6.458,10.657a201.062,201.062,0,0,1-18.9,7.3c-4.719,1.557-9.725,3.067-12.8,6.208-6.313,6.456-1.773,17.183,6.036,24.3,9.083,8.276,22.084-1.006,34.838,3.051,7.329.767,12.866-3.3,20.315-3.3,15.3,0,29.964-.031,43.438-3.152,14.453-12.48,27.694-10.219,37.081-27q-6.955-.551-13.921-1.212c-9.769-.933-21.29-2.94-26.494-9.981-2.243-3.035-2.825-6.477-4.261-9.726-3.226-7.3-10.781-13.469-19.265-17.7s-17.9-6.753-27.243-9c-6.54-1.571-14.09-3.669-17.068-8.622-1.68-2.792-1.428-5.846-2.349-8.773a12.456,12.456,0,0,0-3.187-4.576c-5.471-5.492-13.565-8.992-21.864-9.781-1.816-.173-4.061-.369-6.467-.573H171.116l12.146,3.024c4.992,1.243,10.509,2.76,12.179,7.653" transform="translate(-182.828 -10.488)" fill="#8ce4f9"/>
        <path id="Trazado_146419" data-name="Trazado 146419" d="M305.967,36.162a7.986,7.986,0,0,0-15.105-1.24,11.563,11.563,0,0,0-22.794,1.24Z" transform="translate(-176.248 -9.447)" fill="#9fc64a"/>
        <path id="Trazado_146420" data-name="Trazado 146420" d="M234.023,27.072a7.056,7.056,0,0,1,13.345-1.1,10.216,10.216,0,0,1,20.139,1.1Z" transform="translate(-178.559 -9.982)" fill="#9fc64a"/>
        <path id="Trazado_146421" data-name="Trazado 146421" d="M321.663,42.88a7.78,7.78,0,0,0-7.154,4.724,11.258,11.258,0,0,0-11-8.851l-.04,0-.042,0A11.258,11.258,0,0,0,292.438,47.6a7.773,7.773,0,0,0-14.7,1.208h51.477a7.776,7.776,0,0,0-7.549-5.932" transform="translate(-175.591 -8.569)" fill="#9fc64a"/>
        <path id="Trazado_146422" data-name="Trazado 146422" d="M202.382,121.553c24.717,0,47.631.7,68.647.694,28.616,0,53.1-3.01,69.855-29.488L.489,92.492c0,6.2-2.205,23.148,2.749,26.193a8.811,8.811,0,0,0,3.378,2.227,17.388,17.388,0,0,0,5.142.642Z" transform="translate(-194.443 -4.922)" fill="#5ccee0"/>
        <path id="Trazado_146423" data-name="Trazado 146423" d="M384.443,92.876l-194.679-.384-.246,29.1c43.137,0,112.81.73,159.376.97,5.161.027,16.91.441,25.382-.045a11.75,11.75,0,0,0,6.057-2.246c5.46-3.991,4.067-9.159,4.17-12.23.25-7.379.016-8.465-.061-15.161" transform="translate(-181.579 -4.922)" fill="#5ccee0"/>
        <path id="Trazado_146424" data-name="Trazado 146424" d="M230.825,118.168q.434-.1.858-.239l.019-.006c.083-.028.166-.057.248-.088l.073-.027c.078-.029.155-.059.233-.091l.062-.027q.208-.087.41-.183l.1-.05c.058-.028.114-.058.172-.088l.145-.077.155-.086.173-.1.126-.076c.1-.06.189-.122.283-.185l.09-.063c.069-.048.138-.1.206-.148l.1-.078c.066-.05.131-.1.2-.156.03-.023.06-.047.089-.072.093-.078.184-.157.273-.239-.09-.081-.18-.16-.273-.238l-.089-.073c-.065-.052-.13-.1-.2-.155l-.1-.078c-.068-.051-.137-.1-.206-.148l-.09-.063c-.094-.064-.188-.125-.283-.185l-.127-.076-.172-.1c-.051-.03-.1-.058-.155-.087l-.145-.077-.172-.089-.1-.048c-.136-.065-.273-.127-.412-.185l-.061-.026c-.078-.032-.155-.062-.234-.091l-.072-.027c-.082-.031-.164-.06-.248-.088l-.018-.006a9.358,9.358,0,0,0-1.154-.3,9.59,9.59,0,0,0-1.417-.168c-.317-.633-1.538-.949-2.145-1a.539.539,0,0,0-.277.03.472.472,0,0,0-.213.461,1.517,1.517,0,0,0,.241.709,8.98,8.98,0,0,0-3.446,1.541,10.115,10.115,0,0,0-1.243-.65,4.035,4.035,0,0,0-1.259-.364,1.843,1.843,0,0,0-1.244.313,1.765,1.765,0,0,0,.8.656,6.646,6.646,0,0,0,1.649.552,3.315,3.315,0,0,0-1.618.537,2.107,2.107,0,0,0-.469.339.776.776,0,0,0-.227.506,3.861,3.861,0,0,0,2.206-.262c.245-.107.9-.36,1.384-.541v.031a9.072,9.072,0,0,0,4.475,1.714c-.032.028-.063.056-.1.08-.133.1-.329.19-.335.381a.131.131,0,0,0,.038.107.163.163,0,0,0,.125.026,1.789,1.789,0,0,0,.514-.153l.957-.393a9.543,9.543,0,0,0,1.6-.172c.1-.019.2-.041.295-.063h0" transform="translate(-179.542 -3.545)" fill="#34b2bf"/>
        <path id="Trazado_146425" data-name="Trazado 146425" d="M294.36,103.1q.434-.1.858-.239l.019-.006c.083-.028.166-.058.248-.088l.073-.027c.078-.029.155-.059.233-.091l.062-.027q.208-.086.41-.183l.1-.05c.058-.028.114-.058.172-.088l.145-.078c.052-.028.1-.057.155-.085l.173-.1.126-.076c.1-.06.189-.122.283-.185l.09-.063.206-.148.1-.078c.066-.05.131-.1.2-.156.03-.023.06-.047.089-.072.093-.078.184-.157.273-.239-.09-.081-.18-.159-.273-.238l-.089-.073c-.065-.052-.13-.1-.2-.156l-.1-.077c-.068-.051-.137-.1-.206-.148l-.09-.063c-.094-.064-.188-.125-.283-.185l-.127-.076c-.057-.035-.114-.068-.172-.1s-.1-.058-.155-.087l-.145-.077-.172-.089-.1-.048c-.136-.065-.273-.127-.412-.185l-.061-.026c-.078-.032-.156-.062-.234-.091l-.072-.027c-.082-.031-.164-.06-.248-.088l-.018-.006a9.36,9.36,0,0,0-1.154-.3,9.589,9.589,0,0,0-1.417-.168c-.317-.633-1.538-.949-2.145-1a.539.539,0,0,0-.277.03.472.472,0,0,0-.212.461,1.517,1.517,0,0,0,.241.709,8.98,8.98,0,0,0-3.446,1.541,10.11,10.11,0,0,0-1.243-.65,4.035,4.035,0,0,0-1.259-.364,1.843,1.843,0,0,0-1.244.313,1.764,1.764,0,0,0,.8.656,6.646,6.646,0,0,0,1.649.552,3.315,3.315,0,0,0-1.618.537,2.106,2.106,0,0,0-.469.339.776.776,0,0,0-.228.506,3.861,3.861,0,0,0,2.206-.262c.245-.107.9-.36,1.384-.541v.031a9.061,9.061,0,0,0,4.475,1.713.96.96,0,0,1-.1.08c-.133.1-.329.191-.335.382a.131.131,0,0,0,.038.107.163.163,0,0,0,.125.026,1.789,1.789,0,0,0,.514-.153l.957-.393a9.657,9.657,0,0,0,1.6-.172c.1-.019.2-.041.295-.063Z" transform="translate(-175.23 -4.568)" fill="#34b2bf"/>
        <path id="Trazado_146426" data-name="Trazado 146426" d="M240.571,107.29c.277-.063.55-.14.82-.229l.018-.006c.079-.027.158-.054.236-.083l.069-.026c.075-.028.148-.057.222-.086l.06-.026c.132-.054.263-.113.392-.175l.1-.047.164-.084c.047-.023.093-.048.14-.074l.147-.082.164-.1.121-.073c.091-.057.182-.115.27-.176l.085-.06c.067-.047.132-.094.2-.142l.1-.075c.063-.048.126-.1.188-.148l.084-.069c.089-.074.176-.15.262-.227-.085-.078-.173-.154-.262-.227l-.084-.069c-.062-.051-.125-.1-.188-.148l-.1-.075c-.065-.048-.13-.1-.2-.141-.029-.02-.058-.042-.087-.061-.089-.061-.178-.12-.27-.176l-.121-.073c-.054-.033-.109-.066-.164-.1s-.1-.056-.148-.082-.092-.049-.139-.074-.109-.058-.164-.084l-.1-.047q-.2-.093-.394-.176l-.059-.025c-.074-.03-.148-.059-.223-.087l-.068-.026c-.078-.029-.157-.057-.236-.083l-.018-.005a8.728,8.728,0,0,0-1.1-.289,9.152,9.152,0,0,0-1.354-.16c-.3-.605-1.468-.907-2.049-.953a.523.523,0,0,0-.264.029.451.451,0,0,0-.2.441,1.47,1.47,0,0,0,.231.678,8.563,8.563,0,0,0-3.292,1.472,9.6,9.6,0,0,0-1.189-.622,3.853,3.853,0,0,0-1.2-.347,1.754,1.754,0,0,0-1.189.3,1.684,1.684,0,0,0,.769.626,6.3,6.3,0,0,0,1.575.528,3.173,3.173,0,0,0-1.546.514,2.008,2.008,0,0,0-.449.324.74.74,0,0,0-.217.483,3.687,3.687,0,0,0,2.108-.249c.234-.1.863-.345,1.322-.518v.03a8.676,8.676,0,0,0,4.277,1.637,1.028,1.028,0,0,1-.093.076c-.128.093-.315.183-.32.365a.121.121,0,0,0,.036.1.155.155,0,0,0,.12.025,1.709,1.709,0,0,0,.491-.145l.914-.376a9.037,9.037,0,0,0,1.525-.164c.1-.018.189-.038.282-.06Z" transform="translate(-178.847 -4.267)" fill="#34b2bf"/>
        <path id="Trazado_146427" data-name="Trazado 146427" d="M252.5,116.375c.295-.066.587-.15.877-.243l.019-.006q.127-.043.253-.09l.074-.028c.08-.03.159-.06.238-.093l.064-.027c.141-.059.281-.123.42-.187.035-.017.072-.033.107-.051.059-.029.116-.06.175-.091s.1-.051.15-.078l.158-.089c.06-.033.117-.068.176-.1s.086-.05.129-.077c.1-.061.194-.123.29-.189.03-.02.06-.044.091-.064.07-.049.141-.1.211-.152l.1-.08c.067-.051.135-.106.2-.158l.091-.075c.1-.08.188-.16.28-.243-.092-.083-.185-.164-.28-.243-.03-.026-.061-.051-.091-.075-.066-.053-.134-.108-.2-.159l-.1-.079c-.069-.052-.139-.1-.211-.153-.031-.02-.061-.044-.091-.064-.1-.064-.193-.128-.29-.189l-.129-.077c-.059-.035-.117-.072-.176-.1s-.1-.06-.158-.089-.1-.053-.148-.079-.117-.061-.177-.09l-.1-.051c-.139-.065-.28-.128-.422-.188l-.063-.026c-.079-.033-.158-.063-.238-.093-.025-.01-.049-.02-.074-.028q-.127-.046-.253-.09l-.019-.006a9.779,9.779,0,0,0-1.18-.31h0a9.43,9.43,0,0,0-1.449-.17c-.325-.649-1.572-.973-2.194-1.021a.571.571,0,0,0-.282.03.488.488,0,0,0-.218.474,1.55,1.55,0,0,0,.248.725,9.187,9.187,0,0,0-3.525,1.574,10.422,10.422,0,0,0-1.272-.665,4.172,4.172,0,0,0-1.288-.372,1.888,1.888,0,0,0-1.272.321,1.813,1.813,0,0,0,.822.671,6.835,6.835,0,0,0,1.687.564,3.4,3.4,0,0,0-1.656.549,2.176,2.176,0,0,0-.479.348.79.79,0,0,0-.233.516,3.943,3.943,0,0,0,2.257-.267c.25-.108.923-.368,1.416-.554v.032a9.248,9.248,0,0,0,4.577,1.751,1.207,1.207,0,0,1-.1.083c-.137.1-.336.2-.344.39a.139.139,0,0,0,.04.11.177.177,0,0,0,.128.026,1.809,1.809,0,0,0,.526-.156l.978-.4a9.741,9.741,0,0,0,1.632-.176h0c.1-.021.2-.041.3-.065Z" transform="translate(-178.088 -3.675)" fill="#34b2bf"/>
      </g>
    </g>
    <g id="Grupo_54391" data-name="Grupo 54391" transform="translate(-5892.266 -4912.231)">
      <g id="Grupo_54390" data-name="Grupo 54390" transform="translate(0 0)" clip-path="url(#clip-path-2)">
        <path id="Trazado_146429" data-name="Trazado 146429" d="M259.107,145.371a2.151,2.151,0,0,0-.178-3.416,3.657,3.657,0,0,1-.7-.414c-.686-.646-.122-1.778.458-2.52l1.019-1.306c.282-.361.578-.825.389-1.242-.364-.8-1.679-.14-2.44-.582-.676-.393-.556-1.4-.259-2.126a9.783,9.783,0,0,1,1.144-2.049,4.9,4.9,0,0,0,.821-1.342,1.257,1.257,0,0,0-.376-1.423c-.481-.316-1.155-.112-1.67-.371a1.6,1.6,0,0,1-.428-2.076c.321-.712.9-1.292,1.181-2.02s.11-1.755-.635-1.989a1.541,1.541,0,0,0-.99.091,4.592,4.592,0,0,0-2.708,3.859,3.075,3.075,0,0,1-.2,1.041.784.784,0,0,1-.858.473c-.481-.142-.664-.883-1.166-.881-1.206,1.181-1.051,3.225-.239,4.7a2.513,2.513,0,0,1,.456,1.22c-.013.44-.467.886-.865.7a3.166,3.166,0,0,0-.367-.222c-.311-.1-.589.221-.727.516-1,2.15.355,4.786,2.334,6.091.391.257.852.555.878,1.022.037.706-.874.985-1.427,1.425a2.6,2.6,0,0,0-.429,3.081,14.7,14.7,0,0,0,2,2.682c.257.329.505.764.326,1.14-.278.586-1.2.382-1.726.757a1.205,1.205,0,0,0-.254,1.492,3.511,3.511,0,0,0,1.136,1.171l3.729,2.8,4.969-1.173a16.5,16.5,0,0,0,1.513-3.654,3.851,3.851,0,0,0-.27-3.066,1.072,1.072,0,0,0-.765-.506c-.636-.035-1.032.751-1.655.882a1.159,1.159,0,0,1-1.226-.8,4.393,4.393,0,0,1,.206-1.968" transform="translate(-185.451 -90.458)" fill="#34b2bf"/>
        <path id="Trazado_146430" data-name="Trazado 146430" d="M275.839,149.778l-1.082.019c-.04-2.214,1.183-3.371,2.262-4.392,1.05-.993,1.955-1.851,1.924-3.587s-.967-2.562-2.051-3.517c-1.115-.981-2.378-2.094-2.419-4.308s1.183-3.369,2.263-4.39c1.05-.992,1.955-1.848,1.924-3.585s-.967-2.56-2.051-3.514c-1.115-.981-2.379-2.093-2.419-4.307s1.184-3.369,2.263-4.39c1.05-.992,1.955-1.848,1.924-3.584l1.082-.019c.04,2.213-1.183,3.369-2.263,4.389-1.049.992-1.955,1.848-1.924,3.585s.968,2.56,2.051,3.514c1.116.981,2.379,2.093,2.419,4.307s-1.183,3.369-2.263,4.39c-1.049.992-1.954,1.849-1.923,3.585s.966,2.561,2.051,3.515c1.115.981,2.378,2.094,2.419,4.308s-1.183,3.372-2.263,4.393c-1.049.993-1.955,1.851-1.924,3.587" transform="translate(-183.771 -91.289)" fill="#34b2bf"/>
        <path id="Trazado_146431" data-name="Trazado 146431" d="M282.164,154.108l-1.082.019c-.04-2.214,1.183-3.371,2.263-4.392,1.049-.993,1.954-1.851,1.923-3.587s-.968-2.562-2.051-3.517c-1.115-.981-2.378-2.094-2.419-4.308s1.183-3.369,2.263-4.39c1.05-.992,1.955-1.849,1.924-3.585s-.967-2.56-2.051-3.514c-1.115-.98-2.379-2.093-2.419-4.307s1.184-3.369,2.263-4.39c1.05-.992,1.955-1.848,1.924-3.584l1.082-.019c.039,2.213-1.183,3.369-2.263,4.389-1.049.992-1.955,1.85-1.924,3.585s.967,2.56,2.051,3.514c1.116.981,2.379,2.094,2.419,4.307s-1.183,3.369-2.263,4.39c-1.049.992-1.954,1.848-1.923,3.585s.966,2.561,2.051,3.515c1.115.981,2.378,2.094,2.419,4.308s-1.183,3.372-2.263,4.393c-1.049.993-1.955,1.851-1.924,3.587" transform="translate(-183.341 -90.995)" fill="#34b2bf"/>
        <path id="Trazado_146432" data-name="Trazado 146432" d="M270.294,160.645l-1.082.019c-.04-2.214,1.183-3.371,2.262-4.392,1.05-.993,1.955-1.851,1.924-3.587s-.967-2.562-2.051-3.517c-1.115-.981-2.378-2.094-2.419-4.308s1.183-3.369,2.263-4.39c1.05-.992,1.955-1.849,1.924-3.585s-.967-2.56-2.051-3.514c-1.115-.98-2.379-2.093-2.419-4.307s1.184-3.369,2.263-4.39c1.05-.992,1.955-1.848,1.924-3.584l1.082-.018c.04,2.212-1.183,3.368-2.263,4.388-1.049.992-1.955,1.848-1.924,3.585s.968,2.56,2.051,3.514c1.116.981,2.379,2.093,2.419,4.307s-1.183,3.369-2.263,4.39c-1.049.992-1.955,1.848-1.923,3.585s.966,2.561,2.051,3.515c1.115.981,2.378,2.094,2.419,4.308s-1.183,3.372-2.263,4.393c-1.049.993-1.955,1.851-1.924,3.587" transform="translate(-184.147 -90.551)" fill="#34b2bf"/>
      </g>
    </g>
    <g id="Grupo_54393" data-name="Grupo 54393" transform="translate(-5900.205 -4999.8)">
      <g id="Grupo_54392" data-name="Grupo 54392" transform="translate(0 0)" clip-path="url(#clip-path)">
        <path id="Trazado_146434" data-name="Trazado 146434" d="M199.647,17.179a7.282,7.282,0,0,1,6.324,3.734,7.641,7.641,0,0,1-.232,7.624,8.3,8.3,0,0,1-2.814,2.725,31.418,31.418,0,0,1-3.2,1.633,13.479,13.479,0,0,0-2.832,1.671,5.444,5.444,0,0,0-1.856,2.513l-.783-.142a5.659,5.659,0,0,1,1.66-3.419,12.489,12.489,0,0,1,2.978-2.22c2.08-1.151,4.12-2.118,5.148-3.812a6.237,6.237,0,0,0,.419-5.793,6.732,6.732,0,0,0-4.866-3.718Z" transform="translate(-181.258 -10.034)" fill="#fff"/>
        <path id="Trazado_146435" data-name="Trazado 146435" d="M227.682,41.561a14.824,14.824,0,0,0,7.226,3.945c2.718.72,5.589,1.039,8.491,1.7a37.457,37.457,0,0,1,8.375,2.992,33.288,33.288,0,0,1,7.34,4.938l-.474.64a60.922,60.922,0,0,0-7.622-3.943,50.419,50.419,0,0,0-8.073-2.679c-2.753-.662-5.675-1.063-8.528-2.023a17.58,17.58,0,0,1-4.1-1.935,11.405,11.405,0,0,1-3.267-3.149Z" transform="translate(-179.032 -8.379)" fill="#fff"/>
        <path id="Trazado_146436" data-name="Trazado 146436" d="M192.065,46.384a13.7,13.7,0,0,0,7.374,4.956,44.48,44.48,0,0,0,9.128,1.493,34.477,34.477,0,0,1,9.487,1.934,27.1,27.1,0,0,1,8.178,5.14l-.483.633a37.562,37.562,0,0,0-8.307-4.079,42.458,42.458,0,0,0-9.081-1.638,36.847,36.847,0,0,1-9.484-1.876,16.431,16.431,0,0,1-4.33-2.377,11.312,11.312,0,0,1-3.168-3.782Z" transform="translate(-181.453 -8.051)" fill="#fff"/>
        <path id="Trazado_146437" data-name="Trazado 146437" d="M265.989,65.475c1.011.548,1.968,1.133,2.929,1.7l2.871,1.7,2.879,1.681c.958.575,1.921,1.147,2.866,1.818l-.293.741a14.7,14.7,0,0,1-3.369-.943,20.744,20.744,0,0,1-3.11-1.579,22.7,22.7,0,0,1-2.835-2.033,17.218,17.218,0,0,1-2.453-2.482Z" transform="translate(-176.424 -6.756)" fill="#fff"/>
        <path id="Trazado_146438" data-name="Trazado 146438" d="M197.186,11.133c8.077.9,15.9,4.355,21.235,9.708a12.45,12.45,0,0,1,3.187,4.577c.923,2.926.671,5.979,2.35,8.773,2.978,4.952,10.527,7.05,17.068,8.621,9.338,2.243,18.758,4.765,27.242,9s16.04,10.4,19.265,17.7c1.437,3.25,2.018,6.691,4.261,9.726,5.2,7.042,16.725,9.049,26.5,9.981,4.643.443,61.064,2.5,65.7,2.867.832-1.486-.786-4.887,0-6.4-5.554-1.6-60.836-1.866-66.593-2.743-8-1.221-16.426-3.547-21.667-9.712-3.672-4.321-5.309-10-8.477-14.706-5-7.417-13.419-11.837-21.95-14.518s-17.466-3.917-25.989-6.628c-4.436-1.412-8.986-3.405-11.659-7.217-2.19-3.122-2.843-7.085-4.8-10.359-3.2-5.366-9.156-7.84-14.975-9.31h-9.816a5.4,5.4,0,0,0-.879.645" transform="translate(-181.059 -10.488)" fill="#6d8c2a"/>
        <path id="Trazado_146439" data-name="Trazado 146439" d="M269.509,78.1c0,1.054-6.6,1.908-14.751,1.908s-14.75-.854-14.75-1.908,6.6-1.908,14.75-1.908,14.751.854,14.751,1.908" transform="translate(-178.152 -6.028)" fill="#5ccee0"/>
        <path id="Trazado_146440" data-name="Trazado 146440" d="M242.653,78.183H253.36a5.45,5.45,0,0,0-10.707-.746Z" transform="translate(-177.973 -6.224)" fill="#d17f62"/>
        <path id="Trazado_146441" data-name="Trazado 146441" d="M253.092,78.165a5.453,5.453,0,0,0-3.693-4.587c-.556,1.278-.629,2.577-1.87,3.7a9.834,9.834,0,0,0-.937.891Z" transform="translate(-177.705 -6.206)" fill="#b75a3d"/>
        <path id="Trazado_146442" data-name="Trazado 146442" d="M249.424,78.324h15.6a7.942,7.942,0,0,0-15.6-1.088Z" transform="translate(-177.513 -6.365)" fill="#d17f62"/>
        <path id="Trazado_146443" data-name="Trazado 146443" d="M264.635,78.3a7.945,7.945,0,0,0-5.38-6.684c-.812,1.863-.917,3.756-2.725,5.385a14.777,14.777,0,0,0-1.366,1.3Z" transform="translate(-177.124 -6.339)" fill="#b75a3d"/>
        <path id="Trazado_146444" data-name="Trazado 146444" d="M227.466,43.718c0,1.054-6.6,1.908-14.751,1.908s-14.75-.854-14.75-1.908,6.6-1.908,14.75-1.908,14.751.854,14.751,1.908" transform="translate(-181.006 -8.362)" fill="#5ccee0"/>
        <path id="Trazado_146445" data-name="Trazado 146445" d="M203.983,44.619h15.6a7.942,7.942,0,0,0-15.6-1.088Z" transform="translate(-180.598 -8.653)" fill="#d17f62"/>
        <path id="Trazado_146446" data-name="Trazado 146446" d="M219.194,44.593a7.945,7.945,0,0,0-5.38-6.684c-.812,1.863-.917,3.756-2.725,5.385a14.783,14.783,0,0,0-1.366,1.3Z" transform="translate(-180.208 -8.627)" fill="#b75a3d"/>
      </g>
    </g>
  </g>
</svg>
