<svg xmlns="http://www.w3.org/2000/svg" xmlns:xlink="http://www.w3.org/1999/xlink" width="138.609" height="138.607" viewBox="0 0 138.609 138.607">
  <defs>
    <clipPath id="clip-path">
      <path id="Trazado_146414" data-name="Trazado 146414" d="M24.675,68.627a58.139,58.139,0,1,0,58.14-58.139,58.139,58.139,0,0,0-58.14,58.139" transform="translate(-24.675 -10.488)" fill="none"/>
    </clipPath>
  </defs>
  <g id="Grupo_54385" data-name="Grupo 54385" transform="translate(8425.457 6035.188)">
    <path id="Trazado_146323" data-name="Trazado 146323" d="M152.8,69.3A69.3,69.3,0,1,1,83.493,0a69.3,69.3,0,0,1,69.3,69.3" transform="translate(-8439.645 -6035.188)" fill="#30e579"/>
    <path id="Trazado_146324" data-name="Trazado 146324" d="M140.952,68.627A58.139,58.139,0,1,1,82.813,10.488a58.138,58.138,0,0,1,58.139,58.139" transform="translate(-8438.966 -6034.51)" fill="#fff"/>
    <g id="Grupo_54384" data-name="Grupo 54384" transform="translate(-8414.291 -6024.022)">
      <g id="Grupo_54383" data-name="Grupo 54383" transform="translate(0 0)" clip-path="url(#clip-path)">
        <path id="Trazado_146325" data-name="Trazado 146325" d="M201.744,99.48H148.783a62.643,62.643,0,0,0-29.985,7.485l-.012.006q-1.472.794-2.824,1.615l-.038.023c-.2.12-.393.241-.587.362l-.141.087c-.185.116-.369.232-.55.348l-.133.086a55.382,55.382,0,0,0-13.2,11.517H121.2a16.771,16.771,0,0,1,1.791,0h78.681c0-7.381.069-13.871.069-21.53" transform="translate(-19.719 -4.733)" fill="#038e44"/>
        <path id="Trazado_146326" data-name="Trazado 146326" d="M76.781,78.033H0c.077,11.024,0,20.5.077,33.213H120.5a63.057,63.057,0,0,1,12.192-6.257,48.338,48.338,0,0,0-6.134-7.16c-20.86-20.86-49.781-19.8-49.781-19.8" transform="translate(-26.271 -6.12)" fill="#6aad3e"/>
        <path id="Trazado_146327" data-name="Trazado 146327" d="M.077,120.379H107.865A54.945,54.945,0,0,1,120.5,109.228H.077c-.172,3.859,0,7.383,0,11.151" transform="translate(-26.271 -4.102)" fill="#6bd9fe"/>
        <path id="Trazado_146328" data-name="Trazado 146328" d="M151,100.519l-12.6.525s-5.071-1.3-5.071-4.2,3.415-2.96,3.415-2.96-.887-6.356,7.294-6.356a3.771,3.771,0,0,1,4.144-4.064h6.153s3.824-.778,3.824,3.751c4.045,0,4.442,4.464,4.442,4.464s3.406-.843,3.406,3.34c2.48,0,2.348,5.322,0,5.322s-14.7.177-15.007.177" transform="translate(-17.648 -5.772)" fill="#6aad3e"/>
        <path id="Trazado_146329" data-name="Trazado 146329" d="M96.592,107.614a1.456,1.456,0,0,1-1.618,1.228H82.109v1.882s-.155,4.446,3.735,4.446H97.2s3.3.476,3.3-4.01a5.863,5.863,0,0,0-.168-1.529,4.093,4.093,0,0,1-3.734-2.018" transform="translate(-20.961 -4.207)" fill="#fee09e"/>
        <path id="Trazado_146330" data-name="Trazado 146330" d="M100.065,108.088a2.969,2.969,0,1,0-2.469-4.619,4.245,4.245,0,0,0-.327.463,14.6,14.6,0,0,0-1.558,4.035,4.093,4.093,0,0,0,3.734,2.018c-.3-1.1-.876-1.212-.836-2.279a2.955,2.955,0,0,0,1.455.382" transform="translate(-20.081 -4.56)" fill="#a3897b"/>
        <path id="Trazado_146331" data-name="Trazado 146331" d="M101.826,105.039h2.357a.646.646,0,1,1,0,1.291h-2.357a.646.646,0,1,1,0-1.291" transform="translate(-19.727 -4.373)" fill="#f29101"/>
        <path id="Trazado_146332" data-name="Trazado 146332" d="M101.022,104.328a.487.487,0,1,1-.487-.487.487.487,0,0,1,.487.487" transform="translate(-19.8 -4.451)" fill="#683c11"/>
        <path id="Trazado_146333" data-name="Trazado 146333" d="M95.508,108.826a.86.86,0,0,0-.973-.973H84.542a5.381,5.381,0,0,0,.083,2.254h10.9c-.006-.671-.015-1.281-.015-1.281" transform="translate(-20.809 -4.191)" fill="#f7c445"/>
        <path id="Trazado_146334" data-name="Trazado 146334" d="M84.615,109.97c.315,1.127,1.178,2.254,3.366,2.254h6.632s.909-.093.909-.908c0-.343,0-.86-.01-1.346Z" transform="translate(-20.799 -4.054)" fill="#f8c067"/>
        <path id="Trazado_146335" data-name="Trazado 146335" d="M72.942,115.043a.588.588,0,0,1-.654.5h-5.2v.761s-.063,1.8,1.51,1.8h4.59s1.333.193,1.333-1.62a2.37,2.37,0,0,0-.068-.619,1.655,1.655,0,0,1-1.51-.816" transform="translate(-21.932 -3.726)" fill="#fee09e"/>
        <path id="Trazado_146336" data-name="Trazado 146336" d="M74.346,115.235a1.2,1.2,0,1,0-1-1.867,1.98,1.98,0,0,0-.132.187,5.9,5.9,0,0,0-.629,1.631A1.655,1.655,0,0,0,74.1,116c-.12-.443-.355-.49-.338-.921a1.191,1.191,0,0,0,.588.154" transform="translate(-21.577 -3.869)" fill="#a3897b"/>
        <path id="Trazado_146337" data-name="Trazado 146337" d="M75.058,114h.953a.261.261,0,0,1,0,.523h-.953a.261.261,0,0,1,0-.523" transform="translate(-21.434 -3.794)" fill="#f29101"/>
        <path id="Trazado_146338" data-name="Trazado 146338" d="M74.732,113.714a.2.2,0,1,1-.2-.2.2.2,0,0,1,.2.2" transform="translate(-21.463 -3.825)" fill="#683c11"/>
        <path id="Trazado_146339" data-name="Trazado 146339" d="M72.5,115.533a.348.348,0,0,0-.394-.394H68.07a2.175,2.175,0,0,0,.034.911H72.51c0-.27-.006-.517-.006-.517" transform="translate(-21.871 -3.72)" fill="#f7c445"/>
        <path id="Trazado_146340" data-name="Trazado 146340" d="M68.1,115.995a1.243,1.243,0,0,0,1.361.911h2.681s.368-.037.368-.367c0-.138,0-.348,0-.544Z" transform="translate(-21.867 -3.665)" fill="#f8c067"/>
        <path id="Trazado_146341" data-name="Trazado 146341" d="M83.09,116.593c0-1.1-.161-.983-.138-1.575a1.21,1.21,0,0,0,.6.159,1.228,1.228,0,1,0-1.021-1.909,1.675,1.675,0,0,0-.135.192c-.82,1.345-.394,2.175-1.312,2.175h-4.9v.777s-.064,1.838,1.544,1.838h4s1.363.2,1.363-1.657" transform="translate(-21.344 -3.876)" fill="#f7c445"/>
        <path id="Trazado_146342" data-name="Trazado 146342" d="M83.942,113.916h.974a.267.267,0,1,1,0,.533h-.974a.267.267,0,1,1,0-.533" transform="translate(-20.859 -3.799)" fill="#e84e1b"/>
        <path id="Trazado_146343" data-name="Trazado 146343" d="M83.609,113.622a.2.2,0,1,1-.2-.2.2.2,0,0,1,.2.2" transform="translate(-20.89 -3.831)" fill="#683c11"/>
        <path id="Trazado_146344" data-name="Trazado 146344" d="M81.33,115.482a.356.356,0,0,0-.4-.4H76.8a2.229,2.229,0,0,0,.034.932h4.5c0-.277-.006-.529-.006-.529" transform="translate(-21.306 -3.724)" fill="#f3582f"/>
        <path id="Trazado_146345" data-name="Trazado 146345" d="M76.828,115.955a1.27,1.27,0,0,0,1.392.932h2.74s.376-.038.376-.376c0-.142,0-.355,0-.556Z" transform="translate(-21.302 -3.667)" fill="#e84e1b"/>
        <path id="Trazado_146346" data-name="Trazado 146346" d="M65.085,116.593c0-1.1-.161-.983-.138-1.575a1.21,1.21,0,0,0,.6.159,1.228,1.228,0,1,0-1.021-1.909,1.676,1.676,0,0,0-.135.192c-.82,1.345-.394,2.175-1.312,2.175h-4.9v.777s-.064,1.838,1.544,1.838h4s1.363.2,1.363-1.657" transform="translate(-22.508 -3.876)" fill="#f7c445"/>
        <path id="Trazado_146347" data-name="Trazado 146347" d="M65.937,113.916h.974a.267.267,0,1,1,0,.533h-.974a.267.267,0,1,1,0-.533" transform="translate(-22.024 -3.799)" fill="#e84e1b"/>
        <path id="Trazado_146348" data-name="Trazado 146348" d="M65.6,113.622a.2.2,0,1,1-.2-.2.2.2,0,0,1,.2.2" transform="translate(-22.054 -3.831)" fill="#683c11"/>
        <path id="Trazado_146349" data-name="Trazado 146349" d="M63.325,115.482a.356.356,0,0,0-.4-.4h-4.13a2.229,2.229,0,0,0,.034.932h4.5c0-.277-.006-.529-.006-.529" transform="translate(-22.471 -3.724)" fill="#f3582f"/>
        <path id="Trazado_146350" data-name="Trazado 146350" d="M58.823,115.955a1.27,1.27,0,0,0,1.392.932h2.74s.376-.038.376-.376c0-.142,0-.355,0-.556Z" transform="translate(-22.467 -3.667)" fill="#e84e1b"/>
        <path id="Trazado_146351" data-name="Trazado 146351" d="M166.171,100.713h-17.5s-6.32-.448-6.32-6.32,5.558-5.559,5.558-5.559-.672-6.051,6.052-6.051c0,0-.411-2.35,2.35-2.35h12.287s4.883-.653,4.883,4.883c0,0,7.127-1.411,7.127,7.127h.719a4.37,4.37,0,0,1,4.37,4.369,3.9,3.9,0,0,1-3.9,3.9Z" transform="translate(-17.065 -5.966)" fill="#a9ca2a"/>
        <path id="Trazado_146352" data-name="Trazado 146352" d="M26.678,85.423l-10.7.446s-4.3-1.107-4.3-3.566,2.9-2.513,2.9-2.513-.753-5.4,6.192-5.4a3.2,3.2,0,0,1,3.519-3.451h5.223s3.247-.661,3.247,3.184c3.434,0,3.771,3.79,3.771,3.79s2.892-.717,2.892,2.835c2.1,0,1.993,4.518,0,4.518s-12.484.15-12.741.15" transform="translate(-25.516 -6.581)" fill="#038e44"/>
        <path id="Trazado_146353" data-name="Trazado 146353" d="M83.761,85.3h-17.5s-6.32-.448-6.32-6.32S65.5,73.424,65.5,73.424s-.672-6.051,6.052-6.051c0,0-.411-2.35,2.35-2.35H86.184s4.883-.653,4.883,4.883c0,0,7.127-1.411,7.127,7.127h.719a4.37,4.37,0,0,1,4.37,4.369,3.9,3.9,0,0,1-3.9,3.9Z" transform="translate(-22.394 -6.963)" fill="#a9ca2a"/>
        <path id="Trazado_146354" data-name="Trazado 146354" d="M96.084,93.872h12.95s4.676-.331,4.676-4.676a3.847,3.847,0,0,0-4.113-4.112s.5-4.477-4.477-4.477c0,0,.3-1.739-1.738-1.739H94.291s-3.612-.482-3.612,3.612c0,0-5.272-1.043-5.272,5.273h-.532a3.232,3.232,0,0,0-3.232,3.232,2.885,2.885,0,0,0,2.885,2.885Z" transform="translate(-20.991 -6.067)" fill="#398e65"/>
        <path id="Trazado_146355" data-name="Trazado 146355" d="M162.547,52.359h-14.84s-5.358-.38-5.358-5.358a4.408,4.408,0,0,1,4.712-4.713s-.57-5.131,5.131-5.131c0,0-.349-1.992,1.992-1.992H164.6s4.139-.553,4.139,4.141c0,0,6.043-1.2,6.043,6.043h.61a3.7,3.7,0,0,1,3.7,3.7,3.306,3.306,0,0,1-3.306,3.307Z" transform="translate(-17.065 -8.893)" fill="#6aad3e"/>
        <path id="Trazado_146356" data-name="Trazado 146356" d="M137.1,56.713H120.181s-4.551-.965-4.551-4.551,4.15-3.667,4.15-3.667-1.079-7.873,8.86-7.873a4.608,4.608,0,0,1,5.035-5.035h7.475s4.647-.965,4.647,4.646c4.913,0,5.4,5.53,5.4,5.53s4.137-1.044,4.137,4.138c3.013,0,2.852,6.592,0,6.592s-17.864.219-18.231.219" transform="translate(-18.793 -8.869)" fill="#038e44"/>
        <path id="Trazado_146357" data-name="Trazado 146357" d="M146.621,111.437V71.826s-15.95-1.066-15.95-15.95h2.892s3.307,11.6,13.058,11.6V48.452h8.259v8.827s5.782.871,5.782-5.781h2.549s.87,9.884-8.455,9.884v50.054Z" transform="translate(-17.82 -8.033)" fill="#756343"/>
        <path id="Trazado_146358" data-name="Trazado 146358" d="M149.787,50.375H130.254S125,49.262,125,45.121s4.791-4.234,4.791-4.234-1.245-9.09,10.23-9.09c0-6.307,5.813-5.813,5.813-5.813h8.629s5.365-1.113,5.365,5.365c5.674,0,6.23,6.385,6.23,6.385s4.776-1.206,4.776,4.777c3.479,0,3.293,7.611,0,7.611s-20.625.253-21.049.253" transform="translate(-18.187 -9.491)" fill="#a9ca2a"/>
        <path id="Trazado_146359" data-name="Trazado 146359" d="M97.643,30.237A12.517,12.517,0,1,1,85.125,17.72,12.518,12.518,0,0,1,97.643,30.237" transform="translate(-21.575 -10.02)" fill="#feda62"/>
        <path id="Trazado_146360" data-name="Trazado 146360" d="M137.2,102.2h-2.272s-1.6-.122-1.6-1.6,1.781-3.009,3.071-2.518,2.894.983,2.894,2.58-2.1,1.535-2.1,1.535" transform="translate(-17.648 -4.829)" fill="#7b6a58"/>
        <path id="Trazado_146361" data-name="Trazado 146361" d="M14.119,92.681H11.334s-1.958-.15-1.958-1.957,2.184-3.689,3.765-3.088,3.547,1.205,3.547,3.162-2.569,1.882-2.569,1.882" transform="translate(-25.664 -5.506)" fill="#af7f4a"/>
        <path id="Trazado_146362" data-name="Trazado 146362" d="M79.1,94.4H76.319s-1.958-.15-1.958-1.957,2.184-3.689,3.765-3.088,3.547,1.205,3.547,3.162S79.1,94.4,79.1,94.4" transform="translate(-21.462 -5.395)" fill="#af7f4a"/>
        <path id="Trazado_146363" data-name="Trazado 146363" d="M86.147,95.987H81.1s-3.654.232-1.169-5.2,11.271,5.2,6.22,5.2" transform="translate(-21.158 -5.395)" fill="#7b6a58"/>
        <path id="Trazado_146364" data-name="Trazado 146364" d="M55.347,112.788c0-1.259-4.094-2.281-9.142-2.281s-9.142,1.021-9.142,2.281,4.093,2.281,9.142,2.281a30.263,30.263,0,0,0,5.626-.483l-1.839-1.8,4.219,1.1c.723-.327,1.136-.7,1.136-1.1" transform="translate(-23.874 -4.02)" fill="#038e44"/>
        <path id="Trazado_146365" data-name="Trazado 146365" d="M79.382,46.009H66.928s-4.5-.319-4.5-4.5a3.7,3.7,0,0,1,3.955-3.954s-.479-4.306,4.306-4.306c0,0-.293-1.672,1.672-1.672h8.743s3.474-.464,3.474,3.474c0,0,5.07-1,5.07,5.071h.512a3.109,3.109,0,0,1,3.109,3.109A2.775,2.775,0,0,1,90.5,46.009Z" transform="translate(-22.233 -9.125)" fill="#036633"/>
        <path id="Trazado_146366" data-name="Trazado 146366" d="M58.026,42.729H43.83s-3.819-.809-3.819-3.819,3.481-3.077,3.481-3.077-.9-6.607,7.436-6.607A3.867,3.867,0,0,1,55.154,25h6.272s3.9-.809,3.9,3.9c4.125,0,4.529,4.641,4.529,4.641s3.472-.877,3.472,3.472c2.528,0,2.393,5.532,0,5.532s-14.991.184-15.3.184" transform="translate(-23.683 -9.553)" fill="#038e44"/>
        <path id="Trazado_146367" data-name="Trazado 146367" d="M66.572,92.056V58.817s13.444-.811,13.444-13.3H77.348s-2.594,9.65-10.777,9.65V39.2H59.641V46.61s-4.851.73-4.851-4.852H52.651s-.73,8.295,7.094,8.295v42Z" transform="translate(-22.867 -8.631)" fill="#756343"/>
        <path id="Trazado_146368" data-name="Trazado 146368" d="M68.673,40.816H52.283s-4.409-.934-4.409-4.409,4.02-3.553,4.02-3.553-1.044-7.628,8.584-7.628a4.465,4.465,0,0,1,4.878-4.878H72.6s4.5-.934,4.5,4.5c4.761,0,5.228,5.358,5.228,5.358s4.008-1.013,4.008,4.008c2.919,0,2.764,6.388,0,6.388s-17.307.212-17.663.212" transform="translate(-23.175 -9.854)" fill="#6aad3e"/>
        <path id="Trazado_146369" data-name="Trazado 146369" d="M39.07,114.51c0-2.182-7.089-3.95-15.834-3.95S7.4,112.328,7.4,114.51s7.09,3.95,15.834,3.95a52.4,52.4,0,0,0,9.744-.838L29.8,114.51l7.306,1.908c1.253-.566,1.969-1.216,1.969-1.908" transform="translate(-25.792 -4.016)" fill="#6aad3e"/>
        <path id="Trazado_146370" data-name="Trazado 146370" d="M21.7,114.425H15.29V112.74a3.172,3.172,0,0,1,3.173-3.173H18.5a3.2,3.2,0,0,1,3.2,3.2Z" transform="translate(-25.282 -4.08)" fill="#359d31"/>
        <path id="Trazado_146371" data-name="Trazado 146371" d="M22.615,112.311c-.311,1.312-1.109,2.245-1.785,2.085s-.971-1.352-.66-2.664,1.109-2.245,1.785-2.085.971,1.352.66,2.664" transform="translate(-24.974 -4.076)" fill="#058c36"/>
        <path id="Trazado_146372" data-name="Trazado 146372" d="M14.149,112.311c.311,1.312,1.109,2.245,1.785,2.085s.971-1.352.66-2.664-1.109-2.245-1.785-2.085-.971,1.352-.66,2.664" transform="translate(-25.364 -4.076)" fill="#058c36"/>
        <path id="Trazado_146373" data-name="Trazado 146373" d="M16.281,114.176H14.456a.382.382,0,0,1-.381-.38v0a.381.381,0,0,1,.381-.38h1.825a.38.38,0,0,1,.38.38v0a.382.382,0,0,1-.38.38" transform="translate(-25.361 -3.832)" fill="#058c36"/>
        <path id="Trazado_146374" data-name="Trazado 146374" d="M22.3,114.176H20.477a.382.382,0,0,1-.381-.38v0a.381.381,0,0,1,.381-.38H22.3a.38.38,0,0,1,.38.38v0a.381.381,0,0,1-.38.38" transform="translate(-24.971 -3.832)" fill="#058c36"/>
        <path id="Trazado_146375" data-name="Trazado 146375" d="M17.589,113.412H17.58a.761.761,0,0,0-.76.761v0h1.53v0a.761.761,0,0,0-.761-.761" transform="translate(-25.183 -3.832)" fill="#058c36"/>
        <path id="Trazado_146376" data-name="Trazado 146376" d="M18.48,108.766c-2.228,0-2.26,1.578-2.26,1.578a1.737,1.737,0,0,0,.774.182h2.973a1.737,1.737,0,0,0,.774-.182s-.032-1.578-2.26-1.578" transform="translate(-25.222 -4.132)" fill="#33a23e"/>
        <path id="Trazado_146377" data-name="Trazado 146377" d="M20.027,106.758H17.054a1.772,1.772,0,0,0-1.766,1.766v.366a1.771,1.771,0,0,0,.992,1.584s.032-1.579,2.26-1.579,2.26,1.579,2.26,1.579a1.771,1.771,0,0,0,.992-1.584v-.366a1.772,1.772,0,0,0-1.766-1.766" transform="translate(-25.282 -4.262)" fill="#058c36"/>
        <path id="Trazado_146378" data-name="Trazado 146378" d="M19.113,113.412H19.1a.761.761,0,0,0-.76.761v0h1.53v0a.761.761,0,0,0-.761-.761" transform="translate(-25.084 -3.832)" fill="#058c36"/>
        <path id="Trazado_146379" data-name="Trazado 146379" d="M17.868,106.918a1.044,1.044,0,1,1-1.044-1.044,1.044,1.044,0,0,1,1.044,1.044" transform="translate(-25.25 -4.319)" fill="#058c36"/>
        <path id="Trazado_146380" data-name="Trazado 146380" d="M21.035,106.918a1.044,1.044,0,1,1-1.044-1.044,1.044,1.044,0,0,1,1.044,1.044" transform="translate(-25.045 -4.319)" fill="#058c36"/>
        <path id="Trazado_146381" data-name="Trazado 146381" d="M17.424,106.8a.625.625,0,1,1-.626-.626.626.626,0,0,1,.626.626" transform="translate(-25.225 -4.3)" fill="#f7c445"/>
        <path id="Trazado_146382" data-name="Trazado 146382" d="M20.591,106.8a.625.625,0,1,1-.626-.626.626.626,0,0,1,.626.626" transform="translate(-25.02 -4.3)" fill="#f7c445"/>
        <path id="Trazado_146383" data-name="Trazado 146383" d="M17.258,106.787a.47.47,0,1,1-.47-.47.469.469,0,0,1,.47.47" transform="translate(-25.215 -4.291)" fill="#432918"/>
        <path id="Trazado_146384" data-name="Trazado 146384" d="M20.425,106.787a.47.47,0,1,1-.47-.47.469.469,0,0,1,.47.47" transform="translate(-25.011 -4.291)" fill="#432918"/>
        <path id="Trazado_146385" data-name="Trazado 146385" d="M18.2,108.161a.09.09,0,0,1-.046-.013l-.379-.233a.086.086,0,0,1-.029-.119.087.087,0,0,1,.12-.029l.379.232a.089.089,0,0,1,.029.12.088.088,0,0,1-.075.042" transform="translate(-25.124 -4.198)" fill="#33a23e"/>
        <path id="Trazado_146386" data-name="Trazado 146386" d="M18.525,108.161a.088.088,0,0,1-.075-.042.089.089,0,0,1,.029-.12l.38-.232a.087.087,0,1,1,.09.148l-.379.233a.09.09,0,0,1-.046.013" transform="translate(-25.078 -4.198)" fill="#33a23e"/>
        <path id="Trazado_146387" data-name="Trazado 146387" d="M18.406,108.986a2.68,2.68,0,0,1-.977-.108.116.116,0,0,1,.095-.212,2.792,2.792,0,0,0,.883.087,2.78,2.78,0,0,0,.883-.087.117.117,0,0,1,.152.061.115.115,0,0,1-.057.151,2.68,2.68,0,0,1-.977.108" transform="translate(-25.148 -4.139)" fill="#432918"/>
        <path id="Trazado_146388" data-name="Trazado 146388" d="M21.206,96.234H19.155a2.372,2.372,0,0,1-1.356-.4,1.411,1.411,0,0,1-.67-1.172A2.919,2.919,0,0,1,19.8,91.985a3.29,3.29,0,0,1,3.252,3.252s.21.992-.992.992h-1.2" transform="translate(-25.163 -5.217)" fill="#634e42"/>
        <path id="Trazado_146389" data-name="Trazado 146389" d="M108.325,102.227h-2.051a2.372,2.372,0,0,1-1.356-.4,1.411,1.411,0,0,1-.67-1.172,2.919,2.919,0,0,1,2.674-2.674,3.29,3.29,0,0,1,3.252,3.252s.21.992-.992.992h-1.2" transform="translate(-19.529 -4.83)" fill="#634e42"/>
        <path id="Trazado_146390" data-name="Trazado 146390" d="M54.853,88.934s-.221,6.463,1.11,10.942h1.752a51.868,51.868,0,0,1,.464-11.292c.938-4.837-3.327.35-3.327.35" transform="translate(-22.724 -5.571)" fill="#e84e1b"/>
        <path id="Trazado_146391" data-name="Trazado 146391" d="M41.331,93.176a11.23,11.23,0,0,0-.631,6.678h1.5s-.7-4.446,2.479-6.678a6.327,6.327,0,0,0,2.963-5.246l-2.667-1.052Z" transform="translate(-23.654 -5.548)" fill="#e84e1b"/>
        <path id="Trazado_146392" data-name="Trazado 146392" d="M52.976,99.435h1.612a41.849,41.849,0,0,1,.525-6.087c-1.018.105-1.959.159-2.862.184a58.57,58.57,0,0,0,.725,5.9" transform="translate(-22.892 -5.129)" fill="#432918"/>
        <path id="Trazado_146393" data-name="Trazado 146393" d="M38.356,92.995c-2.209,2.944-.735,6.526-.735,6.526h1.752a3.675,3.675,0,0,1,1.472-4.985A8.8,8.8,0,0,0,42.424,93.5a8.817,8.817,0,0,1-3.652-1.489,2.242,2.242,0,0,1-.416.982" transform="translate(-23.869 -5.216)" fill="#432918"/>
        <path id="Trazado_146394" data-name="Trazado 146394" d="M39.269,77.144c-1.484-4.149-4.81-7.563-6.514-5.826-1.475,1.5-1.608,5.837-.1,9.342a7.492,7.492,0,0,0,6.618-3.517" transform="translate(-24.228 -6.584)" fill="#fee09e"/>
        <path id="Trazado_146395" data-name="Trazado 146395" d="M57,78.687a36.867,36.867,0,0,0-.6,6.428,21.584,21.584,0,0,1-.9,5.7c9.357-2.3,9.8-9.566,9.6-12.391-5.376-1.013-8.106.263-8.106.263" transform="translate(-22.682 -6.12)" fill="#fee09e"/>
        <path id="Trazado_146396" data-name="Trazado 146396" d="M64.577,77.6s.421-3.785-.63-4.325-2.454,1.806-2.454,1.806h-.021A3.9,3.9,0,0,1,64.577,77.6" transform="translate(-22.295 -6.433)" fill="#432918"/>
        <path id="Trazado_146397" data-name="Trazado 146397" d="M66.445,77.484a3.9,3.9,0,0,0-3.106-2.519H61.467a3.386,3.386,0,0,0-2.8,2.519c.07,1.612-.491,2.734-3.315,3.084s-10.493-1.052-15.611,2.1a10.3,10.3,0,0,0-.534-5.793,7.491,7.491,0,0,1-6.618,3.517c1.037,2.417,2.851,4.441,5.541,4.87-.356,2.907,1.3,5.864.94,7.851A8.817,8.817,0,0,0,42.719,94.6a11.865,11.865,0,0,0,3.608-5.554s1.893,1.542,7.15,1.542a31.886,31.886,0,0,0,.046,4.128c.9-.024,1.844-.079,2.863-.184.151-1.05.345-2.225.6-3.523a21.584,21.584,0,0,0,.9-5.7,36.867,36.867,0,0,1,.6-6.428s2.731-1.275,8.107-.263a9.246,9.246,0,0,0-.141-1.138" transform="translate(-24.163 -6.318)" fill="#f29101"/>
        <path id="Trazado_146398" data-name="Trazado 146398" d="M59.915,75.069s-2.233-2.339-2.8-1.562c-1.121,1.387,0,4.081,0,4.081a3.388,3.388,0,0,1,2.8-2.519" transform="translate(-22.61 -6.423)" fill="#432918"/>
        <path id="Trazado_146399" data-name="Trazado 146399" d="M57.5,76.549a3.066,3.066,0,0,1-.161-2.138.357.357,0,0,1,.492-.205,4.461,4.461,0,0,1,1.263,1A2.986,2.986,0,0,1,57.5,76.549" transform="translate(-22.571 -6.37)" fill="#fee09e"/>
        <path id="Trazado_146400" data-name="Trazado 146400" d="M62.112,75.189a4.722,4.722,0,0,1,1.051-1.147.361.361,0,0,1,.551.157,4.076,4.076,0,0,1,.254,2.363,2.585,2.585,0,0,1-1.857-1.372" transform="translate(-22.254 -6.382)" fill="#fee09e"/>
        <path id="Trazado_146401" data-name="Trazado 146401" d="M59.633,77.657a.325.325,0,1,1-.325-.325.325.325,0,0,1,.325.325" transform="translate(-22.456 -6.165)" fill="#432918"/>
        <path id="Trazado_146402" data-name="Trazado 146402" d="M61.057,78.053c0,.18-.2.325-.456.325s-.456-.145-.456-.325.2-.325.456-.325.456.145.456.325" transform="translate(-22.381 -6.14)" fill="#432918"/>
        <path id="Trazado_146403" data-name="Trazado 146403" d="M62.458,77.657a.325.325,0,1,1-.325-.325.325.325,0,0,1,.325.325" transform="translate(-22.274 -6.165)" fill="#432918"/>
        <path id="Trazado_146404" data-name="Trazado 146404" d="M60.165,79.417l-.044,0a.722.722,0,0,1-.482-.273A.1.1,0,0,1,59.66,79a.1.1,0,0,1,.139.021.521.521,0,0,0,.339.193.537.537,0,0,0,.4-.176v-.82a.1.1,0,1,1,.2,0v.9l-.03.03a.773.773,0,0,1-.541.263" transform="translate(-22.415 -6.114)" fill="#432918"/>
        <path id="Trazado_146405" data-name="Trazado 146405" d="M61.049,79.417a.773.773,0,0,1-.541-.263l-.03-.03v-.9a.1.1,0,1,1,.2,0v.82a.548.548,0,0,0,.4.176.527.527,0,0,0,.339-.193.1.1,0,0,1,.16.118.716.716,0,0,1-.482.273l-.043,0" transform="translate(-22.36 -6.114)" fill="#432918"/>
        <path id="Trazado_146406" data-name="Trazado 146406" d="M52.644,89.822l.383-2.944-7.554.71.02.692s2.1,1.821,7.15,1.542" transform="translate(-23.33 -5.548)" fill="#fee09e"/>
        <path id="Trazado_146407" data-name="Trazado 146407" d="M141.951,114.127H126.716s-5.5-.39-5.5-5.5a4.526,4.526,0,0,1,4.838-4.838s-.586-5.267,5.267-5.267c0,0-.359-2.045,2.044-2.045h10.7s4.25-.567,4.25,4.25c0,0,6.2-1.229,6.2,6.2h.625a3.8,3.8,0,0,1,3.8,3.8,3.394,3.394,0,0,1-3.394,3.394Z" transform="translate(-18.432 -4.928)" fill="#036633"/>
        <path id="Trazado_146408" data-name="Trazado 146408" d="M81.8,56.828h23.887a1.025,1.025,0,0,0,.832-1.625c-.923-1.279-3.538-2.85-10.8-2.88a1.023,1.023,0,0,1-.4-.081c-1.544-.652-12.254-4.846-14.505,3.278a1.027,1.027,0,0,0,.985,1.307" transform="translate(-21.047 -7.895)" fill="#fff"/>
        <path id="Trazado_146409" data-name="Trazado 146409" d="M126.53,34.573H100.21a1.481,1.481,0,0,1-.991-2.587c1.481-1.275,4.707-2.551,11.674-2.587a1.492,1.492,0,0,0,.565-.113c1.9-.8,13.663-5.319,16.484,3.347a1.484,1.484,0,0,1-1.413,1.94" transform="translate(-19.887 -9.394)" fill="#fff"/>
        <path id="Trazado_146410" data-name="Trazado 146410" d="M99.7,50.459h12.16a.669.669,0,0,0,.359-1.234c-2.934-1.871-8.969-4.722-13.036.139a.669.669,0,0,0,.517,1.094" transform="translate(-19.867 -8.148)" fill="#fff"/>
        <path id="Trazado_146411" data-name="Trazado 146411" d="M31.735,54.576H53.009a.81.81,0,0,0,.455-1.481C49,50.074,38.1,44.215,31.1,53.264a.812.812,0,0,0,.638,1.312" transform="translate(-24.271 -8.035)" fill="#fff"/>
        <path id="Trazado_146412" data-name="Trazado 146412" d="M83.394,76.879H71.066a2.778,2.778,0,1,1,0-5.555H83.394a2.778,2.778,0,0,1,0,5.555" transform="translate(-21.854 -6.554)" fill="#94c120"/>
        <path id="Trazado_146413" data-name="Trazado 146413" d="M87.091,80.979H81.33a2.778,2.778,0,1,1,0-5.555h5.761a2.778,2.778,0,1,1,0,5.555" transform="translate(-21.191 -6.289)" fill="#94c120"/>
      </g>
    </g>
  </g>
</svg>
