<svg id="Grupo_54684" data-name="Grupo 54684" xmlns="http://www.w3.org/2000/svg" xmlns:xlink="http://www.w3.org/1999/xlink" width="42.049" height="49.984" viewBox="0 0 42.049 49.984">
  <defs>
    <clipPath id="clip-path">
      <rect id="Rectángulo_5754" data-name="Rectángulo 5754" width="42.049" height="49.984" transform="translate(0 0)" fill="none"/>
    </clipPath>
  </defs>
  <g id="Grupo_54684-2" data-name="Grupo 54684" clip-path="url(#clip-path)">
    <path id="Trazado_148375" data-name="Trazado 148375" d="M42.048,10.945a.733.733,0,0,0-1.465,0v2.04H37.654V7.927a.733.733,0,0,0-.733-.732,2,2,0,0,1-2-2,.732.732,0,0,0-.732-.732H12.648a.732.732,0,0,0-.732.732,2,2,0,0,1-2,2,.732.732,0,0,0-.732.732v5.058H6.2V1.465H37.29a3.3,3.3,0,0,1,3.294,3.294V7.443a.731.731,0,0,0,.731.732h0a.732.732,0,0,0,.732-.732V4.759A4.765,4.765,0,0,0,37.29,0H4.637A4.643,4.643,0,0,0,0,4.638V33.874a.732.732,0,0,0,1.464,0V30.727c0-2.365,1.645-3.107,3.276-3.26V39a5.517,5.517,0,0,0-3.276,1.725V37.291a.732.732,0,1,0-1.464,0v7.172a5.527,5.527,0,0,0,5.521,5.521H39.864A2.185,2.185,0,0,0,42.047,47.8a2.221,2.221,0,0,0-2.252-2.183,2.475,2.475,0,0,1,0-2.312,2.221,2.221,0,0,0,2.247-2.17C42.051,34.278,42.049,10.988,42.048,10.945ZM9.182,27.433V32.48a.732.732,0,0,0,.732.732,2,2,0,0,1,2,2,.731.731,0,0,0,.732.732h21.54a.732.732,0,0,0,.732-.732,2,2,0,0,1,2-2,.733.733,0,0,0,.733-.732V27.433h2.929V39.064a2.166,2.166,0,0,0-.719-.122H6.2V27.433Zm31.4-1.464h-2.93V14.449h2.93ZM10.646,8.581A3.476,3.476,0,0,0,13.3,5.926H33.533a3.478,3.478,0,0,0,2.656,2.655V31.825a3.479,3.479,0,0,0-2.656,2.656H13.3a3.478,3.478,0,0,0-2.656-2.656ZM9.182,25.969H6.2V14.449H9.182ZM4.637,1.465h.1V13.014a5.607,5.607,0,0,0-3.276,1.222v-9.6A3.177,3.177,0,0,1,4.637,1.465M1.464,27.22V17.743c0-2.365,1.645-3.107,3.276-3.261V26A5.607,5.607,0,0,0,1.464,27.22Zm38.4,14.623H5.521a2.62,2.62,0,0,0,0,5.24H28.514a.732.732,0,1,0,0-1.464H5.521a1.156,1.156,0,1,1,0-2.312H38.24a3.563,3.563,0,0,0-.005,2.312h-6.3a.732.732,0,1,0,0,1.464h7.933a.719.719,0,0,1,0,1.437H5.521a4.057,4.057,0,0,1,0-8.114H39.864a.719.719,0,0,1,0,1.437Z" fill="#f28705"/>
    <path id="Trazado_148376" data-name="Trazado 148376" d="M13.965,14.732a5.089,5.089,0,0,1,2.307.524l-2.989,7.658a.739.739,0,0,0-.033.429l.145.664a3.583,3.583,0,0,0,3.482,2.805h.689a3.584,3.584,0,0,0,3.482-2.805l.145-.665a.766.766,0,0,0-.032-.428L18.345,15.7c.111.005.225.008.346.008a6.049,6.049,0,0,0,2.642-.544,4.717,4.717,0,0,1,1.352-.391V29.032h-2.77a3.667,3.667,0,0,0-3.185,1.857l-.754,1.332a.732.732,0,0,0,.637,1.093h4.41a.732.732,0,0,0,0-1.464H17.869L18,31.611A2.2,2.2,0,0,1,19.915,30.5h7a2.2,2.2,0,0,1,1.911,1.114l.135.239H24.44a.732.732,0,1,0,0,1.464h5.782a.732.732,0,0,0,.637-1.093L30.1,30.889a3.667,3.667,0,0,0-3.185-1.857H24.15V14.773a4.719,4.719,0,0,1,1.351.391,6.054,6.054,0,0,0,2.643.544c.121,0,.235,0,.346-.008l-2.816,7.214a.746.746,0,0,0-.032.428l.145.665a3.584,3.584,0,0,0,3.482,2.805h.689a3.583,3.583,0,0,0,3.482-2.805l.145-.664a.763.763,0,0,0-.033-.429l-2.989-7.658a5.141,5.141,0,0,1,2.307-.524.733.733,0,1,0,0-1.465,6.049,6.049,0,0,0-2.642.544,5.232,5.232,0,0,1-4.168,0,6.023,6.023,0,0,0-1.91-.51v-1.02a2.646,2.646,0,1,0-1.465,0V13.3a6,6,0,0,0-1.911.51,4.625,4.625,0,0,1-2.083.433,4.63,4.63,0,0,1-2.084-.433,6.053,6.053,0,0,0-2.642-.544.733.733,0,1,0,0,1.465Zm15.649,2.117,2.185,5.6H27.428Zm.344,8.5h-.689a2.114,2.114,0,0,1-1.991-1.435h4.671a2.113,2.113,0,0,1-1.991,1.435M22.236,9.739a1.182,1.182,0,1,1,1.182,1.181,1.183,1.183,0,0,1-1.182-1.181m-5.015,7.11,2.186,5.6H15.036Zm.345,8.5h-.689a2.114,2.114,0,0,1-1.991-1.435h4.671A2.114,2.114,0,0,1,17.566,25.348Z" fill="#f28705"/>
  </g>
</svg>
