<svg xmlns="http://www.w3.org/2000/svg" xmlns:xlink="http://www.w3.org/1999/xlink" width="52.329" height="49.836" viewBox="0 0 52.329 49.836">
  <defs>
    <clipPath id="clip-path">
      <rect id="Rectángulo_5755" data-name="Rectángulo 5755" width="52.329" height="49.836" transform="translate(0 0.001)" fill="none"/>
    </clipPath>
  </defs>
  <g id="Grupo_54686" data-name="Grupo 54686" transform="translate(0 0)">
    <g id="Grupo_54685" data-name="Grupo 54685" clip-path="url(#clip-path)">
      <path id="Trazado_148377" data-name="Trazado 148377" d="M49.867,44.9H49.3a7.89,7.89,0,0,1-.661-1.259.766.766,0,1,0-1.416.587c.095.229.2.452.312.672H17.463a2.462,2.462,0,0,0-.669.093,8.918,8.918,0,0,1-1.126-4.564c0-.334.015-.664.043-.986H30.4a.767.767,0,1,0,0-1.534H16.357l1.8-1.951h29.37a9.663,9.663,0,0,0-.738,1.951H36.714a.767.767,0,0,0,0,1.534h9.808c-.03.311-.047.626-.049.943a.767.767,0,0,0,.764.77h0a.766.766,0,0,0,.766-.764,8.207,8.207,0,0,1,1.289-4.434h.572a2.462,2.462,0,1,0,0-4.925H40.285l8.779-8.779a2.639,2.639,0,0,0,0-3.732l-.193-.193a2.638,2.638,0,0,0-3.6-.126l-1.357-1.357.462-.462a2.165,2.165,0,0,0,.474-2.356L44.23,12.5A1.7,1.7,0,0,0,43,11.477l-1.066-1.066a.767.767,0,1,0-1.084,1.084l.524.524L29.29,24.1l-3.553-3.553L37.818,8.467l.471.47a.767.767,0,1,0,1.084-1.084L38.361,6.841a1.7,1.7,0,0,0-1.023-1.233h0L35.81,4.983a2.169,2.169,0,0,0-2.357.475l-.462.462L31.634,4.563a2.636,2.636,0,0,0-.125-3.6L31.316.773a2.639,2.639,0,0,0-3.732,0l-9.54,9.54a2.639,2.639,0,0,0,0,3.732l.193.193a2.637,2.637,0,0,0,3.6.125l1.357,1.358-.463.462a2.165,2.165,0,0,0-.474,2.356l.624,1.527a1.7,1.7,0,0,0,1.216,1.02l-3.843,4.585a2.619,2.619,0,0,0-3.46,3.32L15.048,30.6a.767.767,0,0,0,1.04,1.127L17.7,30.24l1.9,1.9L5.324,47.6a2.185,2.185,0,1,1-3.088-3.087l11.2-10.336a.767.767,0,0,0-1.04-1.127L1.2,43.387a3.718,3.718,0,0,0,2.52,6.45h.077A3.684,3.684,0,0,0,6.45,48.641l4.594-4.977a8.829,8.829,0,0,0,1.233,2.628,1.783,1.783,0,0,0,1.453.747h1.292a2.458,2.458,0,0,0,2.44,2.786H49.867a2.462,2.462,0,1,0,0-4.925M50.8,33.5a.93.93,0,0,1-.929.929H19.574l1.274-1.38a2.616,2.616,0,0,0,2.614-.479H49.867A.931.931,0,0,1,50.8,33.5ZM27.671,24.649,23.232,28.37,21.468,26.6l3.721-4.438Zm-3.344,6.384a2.626,2.626,0,0,0-.16-1.446l4.585-3.844a1.7,1.7,0,0,0,1.019,1.216l1.527.625a2.167,2.167,0,0,0,2.357-.475l.462-.462L35.474,28a2.644,2.644,0,0,0-.305,3.029ZM47.005,19.089a1.1,1.1,0,0,1,.782.324l.193.193a1.106,1.106,0,0,1,0,1.564l-9.54,9.539a1.1,1.1,0,0,1-1.563,0l-.193-.193a1.108,1.108,0,0,1,0-1.564l9.539-9.539A1.1,1.1,0,0,1,47.005,19.089Zm-2.819.193-7.633,7.633L35.2,25.563l7.633-7.633ZM30.3,25.263,42.534,13.025a.16.16,0,0,1,.117-.05.2.2,0,0,1,.036,0,.166.166,0,0,1,.124.1l.624,1.527a.635.635,0,0,1-.139.692L32.571,26.025a.637.637,0,0,1-.692.14l-1.528-.625a.17.17,0,0,1-.056-.277ZM20.1,13.478a1.1,1.1,0,0,1-.782-.324l-.192-.193a1.106,1.106,0,0,1,0-1.564l9.539-9.539a1.106,1.106,0,0,1,1.564,0l.193.193a1.106,1.106,0,0,1,0,1.564l-9.54,9.539a1.1,1.1,0,0,1-.782.324m2.82-.193,7.632-7.633L31.907,7l-7.632,7.633Zm.89,3.982L34.537,6.542a.64.64,0,0,1,.693-.14l1.527.625a.161.161,0,0,1,.1.123.164.164,0,0,1-.046.154L24.575,19.542a.17.17,0,0,1-.277-.056l-.625-1.527A.635.635,0,0,1,23.813,17.267ZM18.165,28.088a1.084,1.084,0,0,1,1.851-.766l2.5,2.5a1.084,1.084,0,0,1-1.534,1.533l-2.5-2.5A1.08,1.08,0,0,1,18.165,28.088ZM13.526,45.4a7.743,7.743,0,0,1-1.227-3.1l1.837-1.991c0,.038,0,.076,0,.114a10.625,10.625,0,0,0,1.189,5.076H13.731a.253.253,0,0,1-.2-.1m36.341,2.888h-32.4a.93.93,0,1,1,0-1.859h32.4a.93.93,0,0,1,0,1.859" fill="#f28705"/>
      <path id="Trazado_148378" data-name="Trazado 148378" d="M21.446,41.391a.767.767,0,1,0,0,1.533H39.3a.767.767,0,1,0,0-1.533Z" fill="#f28705"/>
    </g>
  </g>
</svg>
