<svg id="Grupo_54440" data-name="Grupo 54440" xmlns="http://www.w3.org/2000/svg" xmlns:xlink="http://www.w3.org/1999/xlink" width="177.588" height="177.588" viewBox="0 0 177.588 177.588">
  <defs>
    <clipPath id="clip-path">
      <rect id="Rectángulo_5488" data-name="Rectángulo 5488" width="177.588" height="177.588" fill="none"/>
    </clipPath>
  </defs>
  <g id="Grupo_54440-2" data-name="Grupo 54440" clip-path="url(#clip-path)">
    <path id="Trazado_147203" data-name="Trazado 147203" d="M177.588,88.794A88.794,88.794,0,1,1,88.794,0a88.793,88.793,0,0,1,88.794,88.794" fill="#f28705"/>
    <path id="Trazado_147204" data-name="Trazado 147204" d="M163.281,88.793A74.488,74.488,0,1,1,88.793,14.305a74.487,74.487,0,0,1,74.488,74.488Z" fill="#fff"/>
    <rect id="Rectángulo_5483" data-name="Rectángulo 5483" width="84.986" height="69.228" transform="translate(46.301 60.643)" fill="gray"/>
    <rect id="Rectángulo_5484" data-name="Rectángulo 5484" width="84.986" height="11.331" transform="translate(46.301 73.213)" fill="#ab693d"/>
    <rect id="Rectángulo_5485" data-name="Rectángulo 5485" width="84.986" height="14.164" transform="translate(46.301 84.545)" fill="#da9065"/>
    <rect id="Rectángulo_5486" data-name="Rectángulo 5486" width="84.986" height="9.915" transform="translate(46.301 63.298)" fill="#da9065"/>
    <rect id="Rectángulo_5487" data-name="Rectángulo 5487" width="84.986" height="5.666" transform="translate(46.301 57.633)" fill="#699949"/>
    <path id="Trazado_147205" data-name="Trazado 147205" d="M58.22,84.545,46.3,96.464V92.456l7.911-7.911Z" fill="#ab693d"/>
    <path id="Trazado_147206" data-name="Trazado 147206" d="M66.719,84.545,52.555,98.709H48.546L62.711,84.545Z" fill="#ab693d"/>
    <path id="Trazado_147207" data-name="Trazado 147207" d="M49.722,84.545,46.3,87.966V84.545Z" fill="#ab693d"/>
    <path id="Trazado_147208" data-name="Trazado 147208" d="M75.217,84.545,61.053,98.709H57.044L71.209,84.545Z" fill="#ab693d"/>
    <path id="Trazado_147209" data-name="Trazado 147209" d="M83.716,84.545,69.552,98.709H65.543L79.708,84.545Z" fill="#ab693d"/>
    <path id="Trazado_147210" data-name="Trazado 147210" d="M92.215,84.545,78.051,98.709H74.042L88.207,84.545Z" fill="#ab693d"/>
    <path id="Trazado_147211" data-name="Trazado 147211" d="M100.713,84.545,86.549,98.709H82.54L96.705,84.545Z" fill="#ab693d"/>
    <path id="Trazado_147212" data-name="Trazado 147212" d="M109.212,84.545,95.048,98.709H91.039L105.2,84.545Z" fill="#ab693d"/>
    <path id="Trazado_147213" data-name="Trazado 147213" d="M117.71,84.545,103.546,98.709H99.537L113.7,84.545Z" fill="#ab693d"/>
    <path id="Trazado_147214" data-name="Trazado 147214" d="M126.209,84.545,112.045,98.709h-4.009L122.2,84.545Z" fill="#ab693d"/>
    <path id="Trazado_147215" data-name="Trazado 147215" d="M131.287,84.545v3.421L120.543,98.709h-4.008L130.7,84.545Z" fill="#ab693d"/>
    <path id="Trazado_147216" data-name="Trazado 147216" d="M131.287,92.455v4.008l-2.245,2.246h-4.009Z" fill="#ab693d"/>
    <path id="Trazado_147217" data-name="Trazado 147217" d="M131.287,98.709v19.83H46.3V98.709a4.248,4.248,0,0,1,7.966-2.057,2.833,2.833,0,0,1,4.782,2.057H72.888a2.415,2.415,0,0,0,2.292-1.654l.316-.942a2.415,2.415,0,0,1,2.292-1.653h1.5A2.414,2.414,0,0,1,81,95.168a2.42,2.42,0,0,0,1.71.708h.336a2.417,2.417,0,0,1,2.162,1.337l.082.159a2.415,2.415,0,0,0,2.162,1.337h22.585l.637-.637a4.186,4.186,0,0,1,5.92,0,4.248,4.248,0,0,1,.525.64Z" fill="#ba8b5d"/>
    <path id="Trazado_147218" data-name="Trazado 147218" d="M130.574,113.577l-2.3-2.3a2.435,2.435,0,0,0-2.81-.456,2.435,2.435,0,0,1-2.439-.151l-1.9-1.266a2.433,2.433,0,0,0-2.439-.152l-3.057,1.528a2.437,2.437,0,0,0-1.345,2.178v2.26a2.435,2.435,0,0,0,1.844,2.362l2.909.727a2.44,2.44,0,0,1,1.435,1.011l1.588,2.383a2.433,2.433,0,0,0,2.025,1.084h4.762a2.435,2.435,0,0,0,2.434-2.435V115.3A2.433,2.433,0,0,0,130.574,113.577Z" fill="#68737f"/>
    <path id="Trazado_147219" data-name="Trazado 147219" d="M112.63,117.366l1.9-1.9a4.006,4.006,0,1,1,5.666,5.665l-1.9,1.9a4.006,4.006,0,0,1-5.666-5.666Z" fill="#4f5761"/>
    <path id="Trazado_147220" data-name="Trazado 147220" d="M110.916,125.026l-.051.025a5.559,5.559,0,0,1-5.96-.631l-1.662-1.329a5.56,5.56,0,0,1,2.56-9.827l1.89-.315a5.558,5.558,0,0,1,4.846,1.553l.122.121a5.562,5.562,0,0,1,1.52,5.023l-.3,1.5A5.56,5.56,0,0,1,110.916,125.026Z" fill="#68737f"/>
    <path id="Trazado_147221" data-name="Trazado 147221" d="M110.535,110.069l-.637-.959a2.584,2.584,0,0,0-3.308-.882l-6.069,3.031a2.572,2.572,0,0,1-.835.252l-7.267.909a2.585,2.585,0,0,0-2.245,2.885,2.611,2.611,0,0,0,.253.836l.529,1.056a2.586,2.586,0,0,1-.162,2.59l-.233.35a2.585,2.585,0,0,0,.717,3.585,2.541,2.541,0,0,0,.473.249l2.286.914a2.584,2.584,0,0,0,3.027-.849l1.594-2.125a2.586,2.586,0,0,1,3.5-.6,2.585,2.585,0,0,0,3.584-.716l.041-.064,4.789-7.662A2.586,2.586,0,0,0,110.535,110.069Z" fill="#3e454d"/>
    <path id="Trazado_147222" data-name="Trazado 147222" d="M91.384,110.284l1.9-1.9a4.006,4.006,0,1,1,5.666,5.665l-1.9,1.9a4.006,4.006,0,0,1-5.666-5.666" fill="#4f5761"/>
    <path id="Trazado_147223" data-name="Trazado 147223" d="M51.967,80.295a1.417,1.417,0,1,1-1.416,1.416,1.416,1.416,0,0,1,1.416-1.416" fill="#8c5428"/>
    <path id="Trazado_147224" data-name="Trazado 147224" d="M54.8,77.462a1.417,1.417,0,1,1-1.416,1.416A1.416,1.416,0,0,1,54.8,77.462" fill="#8c5428"/>
    <path id="Trazado_147225" data-name="Trazado 147225" d="M49.134,77.462a1.417,1.417,0,1,1-1.416,1.416,1.416,1.416,0,0,1,1.416-1.416" fill="#8c5428"/>
    <path id="Trazado_147226" data-name="Trazado 147226" d="M51.967,74.63a1.417,1.417,0,1,1-1.416,1.416,1.416,1.416,0,0,1,1.416-1.416" fill="#8c5428"/>
    <path id="Trazado_147227" data-name="Trazado 147227" d="M57.632,80.295a1.417,1.417,0,1,1-1.416,1.416,1.416,1.416,0,0,1,1.416-1.416" fill="#8c5428"/>
    <path id="Trazado_147228" data-name="Trazado 147228" d="M60.465,77.462a1.417,1.417,0,1,1-1.416,1.416,1.416,1.416,0,0,1,1.416-1.416" fill="#8c5428"/>
    <path id="Trazado_147229" data-name="Trazado 147229" d="M57.632,74.63a1.417,1.417,0,1,1-1.416,1.416,1.416,1.416,0,0,1,1.416-1.416" fill="#8c5428"/>
    <path id="Trazado_147230" data-name="Trazado 147230" d="M63.3,80.295a1.417,1.417,0,1,1-1.416,1.416A1.416,1.416,0,0,1,63.3,80.295" fill="#8c5428"/>
    <path id="Trazado_147231" data-name="Trazado 147231" d="M66.131,77.462a1.417,1.417,0,1,1-1.416,1.416,1.416,1.416,0,0,1,1.416-1.416" fill="#8c5428"/>
    <path id="Trazado_147232" data-name="Trazado 147232" d="M63.3,74.63a1.417,1.417,0,1,1-1.416,1.416A1.416,1.416,0,0,1,63.3,74.63" fill="#8c5428"/>
    <path id="Trazado_147233" data-name="Trazado 147233" d="M68.964,80.295a1.417,1.417,0,1,1-1.416,1.416,1.416,1.416,0,0,1,1.416-1.416" fill="#8c5428"/>
    <path id="Trazado_147234" data-name="Trazado 147234" d="M71.8,77.462a1.417,1.417,0,1,1-1.416,1.416A1.416,1.416,0,0,1,71.8,77.462" fill="#8c5428"/>
    <path id="Trazado_147235" data-name="Trazado 147235" d="M68.964,74.63a1.417,1.417,0,1,1-1.416,1.416,1.416,1.416,0,0,1,1.416-1.416" fill="#8c5428"/>
    <path id="Trazado_147236" data-name="Trazado 147236" d="M74.63,80.295a1.417,1.417,0,1,1-1.416,1.416,1.416,1.416,0,0,1,1.416-1.416" fill="#8c5428"/>
    <path id="Trazado_147237" data-name="Trazado 147237" d="M77.463,77.462a1.417,1.417,0,1,1-1.416,1.416,1.416,1.416,0,0,1,1.416-1.416" fill="#8c5428"/>
    <path id="Trazado_147238" data-name="Trazado 147238" d="M74.63,74.63a1.417,1.417,0,1,1-1.416,1.416A1.416,1.416,0,0,1,74.63,74.63" fill="#8c5428"/>
    <path id="Trazado_147239" data-name="Trazado 147239" d="M80.295,80.295a1.417,1.417,0,1,1-1.416,1.416,1.416,1.416,0,0,1,1.416-1.416" fill="#8c5428"/>
    <path id="Trazado_147240" data-name="Trazado 147240" d="M83.128,77.462a1.417,1.417,0,1,1-1.416,1.416,1.416,1.416,0,0,1,1.416-1.416" fill="#8c5428"/>
    <path id="Trazado_147241" data-name="Trazado 147241" d="M80.295,74.63a1.417,1.417,0,1,1-1.416,1.416,1.416,1.416,0,0,1,1.416-1.416" fill="#8c5428"/>
    <path id="Trazado_147242" data-name="Trazado 147242" d="M85.961,80.295a1.417,1.417,0,1,1-1.416,1.416,1.416,1.416,0,0,1,1.416-1.416" fill="#8c5428"/>
    <path id="Trazado_147243" data-name="Trazado 147243" d="M88.794,77.462a1.417,1.417,0,1,1-1.416,1.416,1.416,1.416,0,0,1,1.416-1.416" fill="#8c5428"/>
    <path id="Trazado_147244" data-name="Trazado 147244" d="M85.961,74.63a1.417,1.417,0,1,1-1.416,1.416,1.416,1.416,0,0,1,1.416-1.416" fill="#8c5428"/>
    <path id="Trazado_147245" data-name="Trazado 147245" d="M91.627,80.295a1.417,1.417,0,1,1-1.416,1.416,1.416,1.416,0,0,1,1.416-1.416" fill="#8c5428"/>
    <path id="Trazado_147246" data-name="Trazado 147246" d="M94.46,77.462a1.417,1.417,0,1,1-1.416,1.416,1.416,1.416,0,0,1,1.416-1.416" fill="#8c5428"/>
    <path id="Trazado_147247" data-name="Trazado 147247" d="M91.627,74.63a1.417,1.417,0,1,1-1.416,1.416,1.416,1.416,0,0,1,1.416-1.416" fill="#8c5428"/>
    <path id="Trazado_147248" data-name="Trazado 147248" d="M97.293,80.295a1.417,1.417,0,1,1-1.416,1.416,1.416,1.416,0,0,1,1.416-1.416" fill="#8c5428"/>
    <path id="Trazado_147249" data-name="Trazado 147249" d="M100.126,77.462a1.417,1.417,0,1,1-1.416,1.416,1.415,1.415,0,0,1,1.416-1.416" fill="#8c5428"/>
    <path id="Trazado_147250" data-name="Trazado 147250" d="M97.293,74.63a1.417,1.417,0,1,1-1.416,1.416,1.416,1.416,0,0,1,1.416-1.416" fill="#8c5428"/>
    <path id="Trazado_147251" data-name="Trazado 147251" d="M102.958,80.295a1.417,1.417,0,1,1-1.416,1.416,1.416,1.416,0,0,1,1.416-1.416" fill="#8c5428"/>
    <path id="Trazado_147252" data-name="Trazado 147252" d="M105.791,77.462a1.417,1.417,0,1,1-1.416,1.416,1.416,1.416,0,0,1,1.416-1.416" fill="#8c5428"/>
    <path id="Trazado_147253" data-name="Trazado 147253" d="M102.958,74.63a1.417,1.417,0,1,1-1.416,1.416,1.416,1.416,0,0,1,1.416-1.416" fill="#8c5428"/>
    <path id="Trazado_147254" data-name="Trazado 147254" d="M108.624,80.295a1.417,1.417,0,1,1-1.416,1.416,1.416,1.416,0,0,1,1.416-1.416" fill="#8c5428"/>
    <path id="Trazado_147255" data-name="Trazado 147255" d="M111.457,77.462a1.417,1.417,0,1,1-1.416,1.416,1.416,1.416,0,0,1,1.416-1.416" fill="#8c5428"/>
    <path id="Trazado_147256" data-name="Trazado 147256" d="M108.624,74.63a1.417,1.417,0,1,1-1.416,1.416,1.416,1.416,0,0,1,1.416-1.416" fill="#8c5428"/>
    <path id="Trazado_147257" data-name="Trazado 147257" d="M114.29,80.295a1.417,1.417,0,1,1-1.416,1.416,1.416,1.416,0,0,1,1.416-1.416" fill="#8c5428"/>
    <path id="Trazado_147258" data-name="Trazado 147258" d="M117.123,77.462a1.417,1.417,0,1,1-1.416,1.416,1.416,1.416,0,0,1,1.416-1.416" fill="#8c5428"/>
    <path id="Trazado_147259" data-name="Trazado 147259" d="M114.29,74.63a1.417,1.417,0,1,1-1.416,1.416,1.416,1.416,0,0,1,1.416-1.416" fill="#8c5428"/>
    <path id="Trazado_147260" data-name="Trazado 147260" d="M119.955,80.295a1.417,1.417,0,1,1-1.416,1.416,1.416,1.416,0,0,1,1.416-1.416" fill="#8c5428"/>
    <path id="Trazado_147261" data-name="Trazado 147261" d="M122.788,77.462a1.417,1.417,0,1,1-1.416,1.416,1.416,1.416,0,0,1,1.416-1.416" fill="#8c5428"/>
    <path id="Trazado_147262" data-name="Trazado 147262" d="M119.955,74.63a1.417,1.417,0,1,1-1.416,1.416,1.416,1.416,0,0,1,1.416-1.416" fill="#8c5428"/>
    <path id="Trazado_147263" data-name="Trazado 147263" d="M125.621,80.295a1.417,1.417,0,1,1-1.416,1.416,1.416,1.416,0,0,1,1.416-1.416" fill="#8c5428"/>
    <path id="Trazado_147264" data-name="Trazado 147264" d="M128.454,77.462a1.417,1.417,0,1,1-1.416,1.416,1.416,1.416,0,0,1,1.416-1.416" fill="#8c5428"/>
    <path id="Trazado_147265" data-name="Trazado 147265" d="M125.621,74.63a1.417,1.417,0,1,1-1.416,1.416,1.416,1.416,0,0,1,1.416-1.416" fill="#8c5428"/>
    <path id="Trazado_147266" data-name="Trazado 147266" d="M89.919,122.788H87.67a4.54,4.54,0,0,1-4.541-4.541V116.6a4.541,4.541,0,0,1,3.649-4.453l2.249-.45a4.541,4.541,0,0,1,5.432,4.453v2.1a4.541,4.541,0,0,1-4.54,4.541" fill="#68737f"/>
    <path id="Trazado_147267" data-name="Trazado 147267" d="M77.062,113.073l.051-.024a5.559,5.559,0,0,1,5.96.63l1.662,1.329a5.56,5.56,0,0,1-2.56,9.827l-1.89.315a5.561,5.561,0,0,1-4.846-1.553l-.122-.121a5.562,5.562,0,0,1-1.52-5.023l.3-1.5A5.56,5.56,0,0,1,77.062,113.073Z" fill="#4f5761"/>
    <path id="Trazado_147268" data-name="Trazado 147268" d="M84.545,102.958h0a2.833,2.833,0,1,1-2.833,2.833,2.833,2.833,0,0,1,2.833-2.833" fill="#68737f"/>
    <path id="Trazado_147269" data-name="Trazado 147269" d="M104.375,98.709h0a2.833,2.833,0,1,1-2.833,2.833,2.833,2.833,0,0,1,2.833-2.833" fill="#68737f"/>
    <path id="Trazado_147270" data-name="Trazado 147270" d="M98.709,88.794h0a2.833,2.833,0,1,1-2.833,2.833,2.833,2.833,0,0,1,2.833-2.833" fill="#68737f"/>
    <path id="Trazado_147271" data-name="Trazado 147271" d="M111.457,84.545h0a2.833,2.833,0,1,1-2.833,2.833,2.833,2.833,0,0,1,2.833-2.833" fill="#68737f"/>
    <path id="Trazado_147272" data-name="Trazado 147272" d="M67.548,88.794h0a2.833,2.833,0,1,1-2.833,2.833,2.832,2.832,0,0,1,2.833-2.833" fill="#68737f"/>
    <path id="Trazado_147273" data-name="Trazado 147273" d="M47.474,115.949l1.9-1.9a4.006,4.006,0,1,1,5.666,5.665l-1.9,1.9a4.006,4.006,0,0,1-5.666-5.666" fill="#4f5761"/>
    <path id="Trazado_147274" data-name="Trazado 147274" d="M59.757,100.125h0a3.541,3.541,0,1,1-3.541,3.541,3.541,3.541,0,0,1,3.541-3.541" fill="#68737f"/>
    <path id="Trazado_147275" data-name="Trazado 147275" d="M54.745,123.415a3.472,3.472,0,0,0,3.986,1.368l5.983-1.995,7.917-.99a3.049,3.049,0,0,0,2.648-3.4,3.187,3.187,0,0,0-.068-.361l-.255-1.018a3.052,3.052,0,0,1,.421-2.431,3.049,3.049,0,0,0-1.4-4.523l-1.822-.729a2.893,2.893,0,0,0-3.12.64L67.807,111.2a2.891,2.891,0,0,1-3.649.362,2.892,2.892,0,0,0-3.918.671l-5.384,7.178A3.472,3.472,0,0,0,54.745,123.415Z" fill="#68737f"/>
    <path id="Trazado_147276" data-name="Trazado 147276" d="M76.046,57.632H68.964l.928-6.49.488-3.424a7.433,7.433,0,0,1,4.986,5.834Z" fill="#7ab355"/>
    <path id="Trazado_147277" data-name="Trazado 147277" d="M82.5,54.479l.63,3.153H76.046l.229-1.374a10.464,10.464,0,0,1,8.27-8.541A7.484,7.484,0,0,0,82.5,54.479" fill="#7ab355"/>
    <path id="Trazado_147278" data-name="Trazado 147278" d="M73.24,57.632H68.964l.928-6.49a12.218,12.218,0,0,1,3.293,6.212Z" fill="#699949"/>
    <path id="Trazado_147279" data-name="Trazado 147279" d="M64.715,57.632l.549-1.1a5.786,5.786,0,0,0-1.965-7.4,10.835,10.835,0,0,1,8.5,8.5Z" fill="#7ab355"/>
    <path id="Trazado_147280" data-name="Trazado 147280" d="M83.128,57.632H80.269l.054-.278a12.259,12.259,0,0,1,2.038-4.719,7.552,7.552,0,0,0,.137,1.844Z" fill="#699949"/>
    <path id="Trazado_147281" data-name="Trazado 147281" d="M88.794,57.632l-.549-1.1a5.786,5.786,0,0,1,1.965-7.4,10.835,10.835,0,0,0-8.5,8.5Z" fill="#7ab355"/>
    <path id="Trazado_147282" data-name="Trazado 147282" d="M67.133,71.382l-2-2,1.588-1.589a5.628,5.628,0,0,1,4.006-1.659H71.8A2.836,2.836,0,0,0,74.63,63.3h2.833A5.673,5.673,0,0,1,71.8,68.964H70.724a2.816,2.816,0,0,0-2,.83Z" fill="#ffefd6"/>
    <path id="Trazado_147283" data-name="Trazado 147283" d="M86.376,71.382l-1.659-1.66a2.574,2.574,0,0,0-1.832-.758,5.428,5.428,0,0,1-5.422-5.423V63.3h2.832v.243a2.593,2.593,0,0,0,2.59,2.59,5.39,5.39,0,0,1,3.835,1.588l1.659,1.66Z" fill="#ffefd6"/>
  </g>
</svg>
