<svg xmlns="http://www.w3.org/2000/svg" xmlns:xlink="http://www.w3.org/1999/xlink" width="48.93" height="48.931" viewBox="0 0 48.93 48.931">
  <defs>
    <clipPath id="clip-path">
      <rect id="Rectángulo_5762" data-name="Rectángulo 5762" width="48.93" height="48.931" fill="none"/>
    </clipPath>
  </defs>
  <g id="Grupo_54692" data-name="Grupo 54692" transform="translate(0 0)">
    <g id="Grupo_54691" data-name="Grupo 54691" transform="translate(0 0)" clip-path="url(#clip-path)">
      <path id="Trazado_148385" data-name="Trazado 148385" d="M12.506,15.348H24.658a.717.717,0,0,0,0-1.434H12.506a.717.717,0,0,0,0,1.434" transform="translate(-0.893 -1.051)" fill="#f28705"/>
      <path id="Trazado_148386" data-name="Trazado 148386" d="M12.506,21.364h0l9.954-.007a.718.718,0,0,0,0-1.434l-9.955.007a.717.717,0,0,0,0,1.434" transform="translate(-0.893 -1.506)" fill="#f28705"/>
      <path id="Trazado_148387" data-name="Trazado 148387" d="M12.506,27.381h0l8.33-.007a.718.718,0,0,0,0-1.434l-8.33.007a.717.717,0,0,0,0,1.434" transform="translate(-0.893 -1.961)" fill="#f28705"/>
      <path id="Trazado_148388" data-name="Trazado 148388" d="M12.506,33.4h0l8.487-.007a.718.718,0,0,0,0-1.434l-8.488.007a.717.717,0,0,0,0,1.434" transform="translate(-0.893 -2.415)" fill="#f28705"/>
      <path id="Trazado_148389" data-name="Trazado 148389" d="M24.466,37.975h0l-11.958.007a.718.718,0,0,0,0,1.434l11.958-.007a.717.717,0,0,0,0-1.434" transform="translate(-0.895 -2.87)" fill="#f28705"/>
      <path id="Trazado_148390" data-name="Trazado 148390" d="M24.309,43.993h0L12.508,44a.718.718,0,0,0,0,1.434l11.8-.007a.717.717,0,0,0,0-1.434" transform="translate(-0.895 -3.325)" fill="#f28705"/>
      <path id="Trazado_148391" data-name="Trazado 148391" d="M48.93,25.5a.816.816,0,0,0-.043-.275l-3.6-9.9a.858.858,0,0,0-.716-.531H41.11a5.055,5.055,0,0,0-4.317-4.271v-3.6a1.667,1.667,0,0,0-1.665-1.665H34.095V4.367A1.667,1.667,0,0,0,32.43,2.7H31.394V1.665A1.667,1.667,0,0,0,29.729,0H1.665A1.667,1.667,0,0,0,0,1.665V42a1.667,1.667,0,0,0,1.665,1.665H2.7v1.037a1.667,1.667,0,0,0,1.667,1.665l1.032,0v.9a1.667,1.667,0,0,0,1.665,1.665H29.453a.734.734,0,0,0,.512-.215l6.616-6.585a.713.713,0,0,0,.212-.507V36.641h1.36a.717.717,0,0,0,0-1.434H29.285a2.5,2.5,0,0,1,2.384-1.773h8.9a2.5,2.5,0,0,1,2.384,1.773h-1.01a.717.717,0,0,0,0,1.434h1.832a.717.717,0,0,0,.717-.717A3.928,3.928,0,0,0,40.566,32H38.2V16.238l5.41-.012L40.34,25.221a.741.741,0,0,0-.043.284,4.316,4.316,0,0,0,8.632,0Zm-1.74-.746H42.037l2.576-7.084Zm-7.534-9.957H32.58a3.612,3.612,0,0,1,7.076,0ZM4.366,44.937a.231.231,0,0,1-.231-.231V15.389a.717.717,0,0,0-1.434,0V42.235H1.665A.231.231,0,0,1,1.434,42V1.665a.231.231,0,0,1,.231-.231H29.729a.231.231,0,0,1,.231.231V2.7H4.366A1.667,1.667,0,0,0,2.7,4.367v7.439a.717.717,0,0,0,1.434,0V4.367a.231.231,0,0,1,.231-.231H32.43a.231.231,0,0,1,.231.231v.895H7.064A1.667,1.667,0,0,0,5.4,6.927V44.934Zm25.8,1.541V42.509a.231.231,0,0,1,.231-.231h3.951Zm5.3-30.23h1.3V31.994h-1.3ZM34.033,32H31.669a3.927,3.927,0,0,0-3.922,3.923.716.716,0,0,0,.716.716h6.9v4.2H30.4a1.666,1.666,0,0,0-1.664,1.665V47.5H7.064a.231.231,0,0,1-.231-.231V6.927A.231.231,0,0,1,7.064,6.7H35.128a.231.231,0,0,1,.231.231v3.606a5.057,5.057,0,0,0-4.235,4.26H27.664a.856.856,0,0,0-.715.531l-3.6,9.9a.723.723,0,0,0-.042.284,4.316,4.316,0,0,0,8.631,0,.741.741,0,0,0-.043-.284l-3.271-8.994,5.41.011V32Zm-8.988-7.251,2.576-7.084L30.2,24.749Zm5.37,1.434a2.884,2.884,0,0,1-5.586,0Zm14.2,2.166a2.888,2.888,0,0,1-2.793-2.166h5.585a2.888,2.888,0,0,1-2.793,2.166" transform="translate(0 0)" fill="#f28705"/>
    </g>
  </g>
</svg>
