<svg xmlns="http://www.w3.org/2000/svg" xmlns:xlink="http://www.w3.org/1999/xlink" width="46.687" height="48.931" viewBox="0 0 46.687 48.931">
  <defs>
    <clipPath id="clip-path">
      <rect id="Rectángulo_5761" data-name="Rectángulo 5761" width="46.687" height="48.931" fill="none"/>
    </clipPath>
  </defs>
  <g id="Grupo_54690" data-name="Grupo 54690" transform="translate(0 0)">
    <g id="Grupo_54689" data-name="Grupo 54689" transform="translate(0 0)" clip-path="url(#clip-path)">
      <path id="Trazado_148382" data-name="Trazado 148382" d="M22.293,9.713a5.729,5.729,0,1,0-5.729,5.73,5.736,5.736,0,0,0,5.729-5.73m-10.025,0a4.3,4.3,0,1,1,4.3,4.3A4.3,4.3,0,0,1,12.268,9.713Z" transform="translate(-0.791 -0.291)" fill="#f28705"/>
      <path id="Trazado_148383" data-name="Trazado 148383" d="M18.4,7.611l-2.3,2.725-.873-1.21-1.162.84,1.948,2.7L19.5,8.535Z" transform="translate(-1.027 -0.556)" fill="#f28705"/>
      <rect id="Rectángulo_5757" data-name="Rectángulo 5757" width="12.893" height="1.434" transform="translate(5.031 17.349)" fill="#f28705"/>
      <rect id="Rectángulo_5758" data-name="Rectángulo 5758" width="12.893" height="1.434" transform="translate(5.031 20.982)" fill="#f28705"/>
      <rect id="Rectángulo_5759" data-name="Rectángulo 5759" width="12.893" height="1.434" transform="translate(5.031 24.513)" fill="#f28705"/>
      <rect id="Rectángulo_5760" data-name="Rectángulo 5760" width="7.158" height="1.434" transform="translate(5.031 28.059)" fill="#f28705"/>
      <path id="Trazado_148384" data-name="Trazado 148384" d="M45.048,40.59,41.662,38.6l-.727,1.236,3.385,1.992A1.894,1.894,0,1,1,42.4,45.092l-9.613-5.656,1.922-3.266,5,2.941.728-1.236L35.42,34.926a2.443,2.443,0,0,0-3.875-2.8V27.392a2.755,2.755,0,0,0,0-2.7V0H7.59L0,7.6v18.3H1.434V8.616H8.6V1.434H30.111V23.412l-5.868-3.453a2.755,2.755,0,0,0-3.194,4.463L15.883,33.2A2.754,2.754,0,0,0,12.564,37.2H1.434v-9.81H0V38.631H14.329l3.717,2.187h-8v3.3h-2.4v4.816H29.634V44.116h-2.39v-3.3h-3.6A2.738,2.738,0,0,0,23.9,38.8c-.015-.058-.032-.116-.052-.173H27.72a2.443,2.443,0,0,0,4.325,2.033l9.627,5.664a3.328,3.328,0,0,0,3.376-5.737ZM7.17,7.182H2.445L7.17,2.45ZM21.708,21.664a1.32,1.32,0,0,1,1.809-.469l6.3,3.707a1.321,1.321,0,0,1-1.34,2.277l-6.3-3.707a1.322,1.322,0,0,1-.467-1.808Zm8.4,6.955V32.85l-3.273-1.921,1.356-2.3a2.755,2.755,0,0,0,.947.17A2.787,2.787,0,0,0,30.111,28.618Zm-7.848-3.432,4.672,2.75-5.122,8.706-4.673-2.749Zm-8,11.741a1.321,1.321,0,1,1,1.34-2.278l6.3,3.707a1.321,1.321,0,1,1-1.34,2.277Zm11.55,5.325v1.864H21.282V45.55H28.2V47.5H9.081V45.55H19.835V44.116H11.483V42.252ZM23.15,37.2l1.233-2.1,3.561,2.1Zm1.96-3.331,1-1.7L30.04,34.47l-1,1.706ZM30.968,39.7a1.009,1.009,0,1,1-1.739-1.023l3.086-5.244a1.008,1.008,0,0,1,1.739,1.022Z" transform="translate(0 0)" fill="#f28705"/>
    </g>
  </g>
</svg>
