<svg id="Grupo_54380" data-name="Grupo 54380" xmlns="http://www.w3.org/2000/svg" xmlns:xlink="http://www.w3.org/1999/xlink" width="179.28" height="179.28" viewBox="0 0 179.28 179.28">
  <defs>
    <clipPath id="clip-path">
      <rect id="Rectángulo_5474" data-name="Rectángulo 5474" width="179.28" height="179.28" fill="none"/>
    </clipPath>
  </defs>
  <g id="Grupo_54379" data-name="Grupo 54379" clip-path="url(#clip-path)">
    <path id="Trazado_146301" data-name="Trazado 146301" d="M37.734,152.127c0-.084,15.456-13.2,51.9-13.2,35.406,0,51.907,13.119,51.907,13.2Z" fill="#f6cc90"/>
    <path id="Trazado_146302" data-name="Trazado 146302" d="M89.64,138.923q-3.392,0-6.542.146c31.017,1.432,45.535,12.98,45.535,13.058h12.913C141.546,152.043,125.045,138.923,89.64,138.923Z" fill="#f0c17f"/>
    <path id="Trazado_146303" data-name="Trazado 146303" d="M113.211,47.565a21.967,21.967,0,0,1-15.6,14.359A22.763,22.763,0,0,1,94.18,40.962a22.2,22.2,0,0,1,15.713-14.676,22.645,22.645,0,0,1,3.318,21.279" fill="#c5e866"/>
    <path id="Trazado_146304" data-name="Trazado 146304" d="M109.893,26.286a20.308,20.308,0,0,0-6.519,2.806,22.675,22.675,0,0,1,1.481,18.473A21.827,21.827,0,0,1,95.8,59.132a18.529,18.529,0,0,0,1.807,2.791,21.962,21.962,0,0,0,15.6-14.358,22.646,22.646,0,0,0-3.318-21.279" fill="#b2d94b"/>
    <path id="Trazado_146305" data-name="Trazado 146305" d="M89.146,90.927a1.9,1.9,0,0,1-1.813-2.467c.465-1.486,11.457-36.551,16.812-49.683a1.9,1.9,0,0,1,3.517,1.435C102.367,53.2,91.071,89.232,90.957,89.6A1.9,1.9,0,0,1,89.146,90.927Z" fill="#6c8a13"/>
    <path id="Trazado_146306" data-name="Trazado 146306" d="M89.146,147.108a1.9,1.9,0,0,1-1.9-1.9V88.128a1.9,1.9,0,1,1,3.8,0v57.081a1.9,1.9,0,0,1-1.9,1.9" fill="#6c8a13"/>
    <path id="Trazado_146307" data-name="Trazado 146307" d="M101.864,105.157a32.365,32.365,0,0,1-12.046-.431S85.4,87,99.205,73.152a34.333,34.333,0,0,1,31.843-9.786,35.062,35.062,0,0,1-6.262,27.913" fill="#9cc042"/>
    <path id="Trazado_146308" data-name="Trazado 146308" d="M131.048,63.367a31.5,31.5,0,0,0-11.132-.5,21.523,21.523,0,0,1,2.776.5A35.058,35.058,0,0,1,116.43,91.28L93.509,105.158c-.254.036-.505.068-.753.1a35,35,0,0,0,9.108-.1L124.786,91.28a35.058,35.058,0,0,0,6.262-27.913" fill="#85aa18"/>
    <path id="Trazado_146309" data-name="Trazado 146309" d="M73.272,95.861a26.733,26.733,0,0,1,10.213,23.618s-13.3,5.088-25.291-4.365a27.021,27.021,0,0,1-10.533-23.87A27.222,27.222,0,0,1,73.272,95.861Z" fill="#c5e866"/>
    <path id="Trazado_146310" data-name="Trazado 146310" d="M59.151,75.843A33.984,33.984,0,0,0,89.3,88.924s6.474-17.077-5.6-32.464A34.356,34.356,0,0,0,53.226,42.967a35.138,35.138,0,0,0,5.925,32.876" fill="#9cc042"/>
    <path id="Trazado_146311" data-name="Trazado 146311" d="M89.146,142.561a1.9,1.9,0,0,1-1.9-1.9,37.035,37.035,0,0,0-12.119-28,42.583,42.583,0,0,0-12.107-8.059,1.9,1.9,0,1,1,1.378-3.539,45.934,45.934,0,0,1,13.328,8.828,41.276,41.276,0,0,1,13.318,30.767A1.9,1.9,0,0,1,89.146,142.561Z" fill="#6c8a13"/>
    <path id="Trazado_146312" data-name="Trazado 146312" d="M121.579,112.319a21.889,21.889,0,0,1-21.051,2.287s-.74-11.755,9.623-18.92a22.126,22.126,0,0,1,21.328-2.479A22.622,22.622,0,0,1,121.579,112.319Z" fill="#c5e866"/>
    <path id="Trazado_146313" data-name="Trazado 146313" d="M131.479,93.207a21.689,21.689,0,0,0-12.553-1.27,18.2,18.2,0,0,1,4.2,1.27,22.623,22.623,0,0,1-9.9,19.112,22.111,22.111,0,0,1-8.4,3.59,21.8,21.8,0,0,0,16.756-3.59,22.623,22.623,0,0,0,9.9-19.112" fill="#b2d94b"/>
    <path id="Trazado_146314" data-name="Trazado 146314" d="M89.145,142.561a1.9,1.9,0,0,1-1.9-1.81,38.767,38.767,0,0,1,3.05-15.068c3.064-7.522,9.887-17.846,24.986-24.315a1.9,1.9,0,0,1,1.495,3.491c-11.171,4.786-18.9,12.275-22.963,22.257a35.317,35.317,0,0,0-2.774,13.457,1.9,1.9,0,0,1-1.808,1.986Z" fill="#6c8a13"/>
    <path id="Trazado_146315" data-name="Trazado 146315" d="M88.5,90.039A1.9,1.9,0,0,1,86.808,89C79.545,74.721,67.273,62.27,67.149,62.146a1.9,1.9,0,0,1,2.7-2.675c.519.524,12.817,13,20.347,27.808a1.9,1.9,0,0,1-1.691,2.76" fill="#6c8a13"/>
    <path id="Trazado_146316" data-name="Trazado 146316" d="M89.743,106.537a1.9,1.9,0,0,1-1.572-2.962c.523-.775,12.986-19.074,28.15-27.9a1.9,1.9,0,0,1,1.91,3.282c-14.42,8.391-26.789,26.558-26.912,26.74A1.9,1.9,0,0,1,89.743,106.537Z" fill="#6c8a13"/>
    <path id="Trazado_146317" data-name="Trazado 146317" d="M37.389,27.027H71.312a8.927,8.927,0,0,1,8.927,8.927V69.877A8.927,8.927,0,0,1,71.312,78.8H37.389a8.927,8.927,0,0,1-8.927-8.927V35.954a8.927,8.927,0,0,1,8.927-8.927" fill="#f0c419" fill-rule="evenodd"/>
    <path id="Trazado_146318" data-name="Trazado 146318" d="M80.238,45.015V69.877A8.927,8.927,0,0,1,71.311,78.8H37.388a8.927,8.927,0,0,1-8.927-8.927V63.922c8.052-7.739,25.228-20.13,51.777-18.907" fill="#f29c1f" fill-rule="evenodd"/>
    <path id="Trazado_146319" data-name="Trazado 146319" d="M39.174,30.6H37.389a5.356,5.356,0,0,0-5.357,5.356V69.877a5.356,5.356,0,0,0,5.357,5.356H71.311a5.356,5.356,0,0,0,5.357-5.356V35.954A5.356,5.356,0,0,0,71.311,30.6Z" fill="#f3d55b" fill-rule="evenodd"/>
    <path id="Trazado_146320" data-name="Trazado 146320" d="M76.668,44.934V69.876a5.356,5.356,0,0,1-5.356,5.356H37.389a5.356,5.356,0,0,1-5.356-5.356V60.735A66.223,66.223,0,0,1,47.209,51.21c1.562-.714,3.151-1.375,4.785-1.964a71.249,71.249,0,0,1,24.674-4.312" fill="#f0c419" fill-rule="evenodd"/>
    <path id="Trazado_146321" data-name="Trazado 146321" d="M51.993,42.1c-1.634.589-3.223,1.25-4.785,1.964V42.2a.894.894,0,0,1,.893-.893h2.973a.876.876,0,0,1,.821.554Z" fill="#3f5c6c" fill-rule="evenodd"/>
    <path id="Trazado_146322" data-name="Trazado 146322" d="M61.492,42.2V63.628a.893.893,0,0,1-.893.893H57.627a.873.873,0,0,1-.822-.554L50.78,49.345V63.628a.893.893,0,0,1-.893.893H48.1a.892.892,0,0,1-.892-.893V44.069c1.562-.714,3.151-1.375,4.785-1.964l5.927,14.381V42.2a.893.893,0,0,1,.893-.893H60.6a.893.893,0,0,1,.893.893" fill="#35495e" fill-rule="evenodd"/>
  </g>
</svg>
