<svg id="Grupo_54375" data-name="Grupo 54375" xmlns="http://www.w3.org/2000/svg" xmlns:xlink="http://www.w3.org/1999/xlink" width="179.28" height="179.28" viewBox="0 0 179.28 179.28">
  <defs>
    <clipPath id="clip-path">
      <rect id="Rectángulo_5467" data-name="Rectángulo 5467" width="179.28" height="179.28" fill="none"/>
    </clipPath>
  </defs>
  <g id="Grupo_54374" data-name="Grupo 54374" clip-path="url(#clip-path)">
    <path id="Trazado_146278" data-name="Trazado 146278" d="M154.564,67.586a2.742,2.742,0,0,1-3.209-2.424A12.968,12.968,0,0,0,139.761,53.5a2.193,2.193,0,0,1-1.97-2.083,18.706,18.706,0,0,0-30.3-13.853l1.087,4.822,24.035,28.967,10.636,8.657,4.539,4.231h8.1a8.495,8.495,0,0,0,8.5-8.472A8.4,8.4,0,0,0,154.564,67.586Z" fill="#60b9fe"/>
    <path id="Trazado_146279" data-name="Trazado 146279" d="M131.845,68a5.21,5.21,0,0,1-3.317-3.734,40.034,40.034,0,0,0-21.038-26.7,18.785,18.785,0,0,0-5.609,7.344l-1.045,6.074,20,28.877,8.422,2.1L139,84.24h10.358A30.485,30.485,0,0,0,131.845,68" fill="#1ca8ff"/>
    <path id="Trazado_146280" data-name="Trazado 146280" d="M148.175,98.608a4.527,4.527,0,0,1-5.3-4,21.405,21.405,0,0,0-19.136-19.249,3.618,3.618,0,0,1-3.251-3.438,30.9,30.9,0,0,0-20.626-27.8H91.01L32.255,105.126l1.4,13.334,5.113,5.014,7.371,2.62H150.351a14.021,14.021,0,0,0,14.035-13.981A13.873,13.873,0,0,0,148.175,98.608Z" fill="#8bcaff"/>
    <path id="Trazado_146281" data-name="Trazado 146281" d="M35.347,112.139A13.875,13.875,0,0,1,51.56,98.607a4.525,4.525,0,0,0,5.294-4A21.4,21.4,0,0,1,75.991,75.359a3.621,3.621,0,0,0,3.251-3.438,30.9,30.9,0,0,1,20.624-27.8,30.9,30.9,0,0,0-41.079,27.8,3.621,3.621,0,0,1-3.251,3.438A21.405,21.405,0,0,0,36.4,94.606a4.524,4.524,0,0,1-5.293,4,13.875,13.875,0,0,0-16.213,13.532A14.024,14.024,0,0,0,28.927,126.1H49.382A14.024,14.024,0,0,1,35.347,112.139Z" fill="#60b9fe"/>
    <path id="Trazado_146282" data-name="Trazado 146282" d="M84.749,101.5A15.074,15.074,0,1,1,99.822,86.425,15.091,15.091,0,0,1,84.749,101.5m0-25.635A10.562,10.562,0,1,0,95.31,86.425,10.573,10.573,0,0,0,84.749,75.864" fill="#dbedff"/>
    <path id="Trazado_146283" data-name="Trazado 146283" d="M112.762,110.734h-7.429a2.256,2.256,0,0,1-1.855-3.54l6.3-9.1a1.654,1.654,0,0,0,.162-1.7,1.731,1.731,0,0,0-1.406-1.02,1.752,1.752,0,0,0-1.909,1.453,2.256,2.256,0,0,1-4.454-.721,6.258,6.258,0,0,1,11.863-1.61,6.171,6.171,0,0,1-.546,6.161l-3.846,5.559h3.125a2.256,2.256,0,0,1,0,4.512Z" fill="#dbedff"/>
  </g>
</svg>
