<svg id="Grupo_54470" data-name="Grupo 54470" xmlns="http://www.w3.org/2000/svg" xmlns:xlink="http://www.w3.org/1999/xlink" width="326.824" height="353.599" viewBox="0 0 326.824 353.599">
  <defs>
    <clipPath id="clip-path">
      <rect id="Rectángulo_5606" data-name="Rectángulo 5606" width="326.824" height="353.599" fill="none"/>
    </clipPath>
    <clipPath id="clip-path-3">
      <rect id="Rectángulo_5603" data-name="Rectángulo 5603" width="98.058" height="39.113" fill="none"/>
    </clipPath>
    <clipPath id="clip-path-4">
      <rect id="Rectángulo_5604" data-name="Rectángulo 5604" width="71.589" height="81.59" fill="none"/>
    </clipPath>
  </defs>
  <g id="Grupo_54469" data-name="Grupo 54469" clip-path="url(#clip-path)">
    <g id="Grupo_54468" data-name="Grupo 54468">
      <g id="Grupo_54467" data-name="Grupo 54467" clip-path="url(#clip-path)">
        <path id="Trazado_147647" data-name="Trazado 147647" d="M9.882,46.448A46.781,46.781,0,1,0,56.662,0,46.615,46.615,0,0,0,9.882,46.448" transform="translate(2.003 0)" fill="#fff"/>
        <path id="Trazado_147648" data-name="Trazado 147648" d="M199.85,63.325c0,23.554,19.356,42.647,43.234,42.647s43.235-19.093,43.235-42.647-19.357-42.644-43.235-42.644S199.85,39.773,199.85,63.325" transform="translate(40.505 4.015)" fill="#fff"/>
        <path id="Trazado_147649" data-name="Trazado 147649" d="M187.186,78.491a5.969,5.969,0,1,0,5.969-5.887,5.928,5.928,0,0,0-5.969,5.887" transform="translate(37.938 14.094)" fill="#fff"/>
        <path id="Trazado_147650" data-name="Trazado 147650" d="M87.553,69.356a5.969,5.969,0,1,0,5.969-5.887,5.928,5.928,0,0,0-5.969,5.887" transform="translate(17.745 12.321)" fill="#fff"/>
        <path id="Trazado_147651" data-name="Trazado 147651" d="M175.118,88.746a3.827,3.827,0,1,0,3.827-3.775,3.8,3.8,0,0,0-3.827,3.775" transform="translate(35.492 16.495)" fill="#fff"/>
        <path id="Trazado_147652" data-name="Trazado 147652" d="M102.132,78.408a3.826,3.826,0,1,0,3.826-3.775,3.8,3.8,0,0,0-3.826,3.775" transform="translate(20.7 14.488)" fill="#fff"/>
        <path id="Trazado_147653" data-name="Trazado 147653" d="M100.629,300.9c19.3-16.558,21.234-43.82,17.91-67.807-.553-4-.55-8.285-2.841-11.614s-7.033-5.277-10.481-3.212c-2.86,1.712-3.808,5.317-5.192,8.36a23.663,23.663,0,0,1-8.556,9.973c-2.439,1.592-5.542,2.73-8.231,1.6-3.69-1.555-4.6-6.3-4.989-10.3q-1.09-11.181-2.18-22.359c-.391-4-.8-8.081-2.449-11.744s-4.778-6.906-8.717-7.578-8.448,2-8.849,6c-.167,1.662.342,3.317.4,4.987s-.527,3.586-2.066,4.21c-1.557.634-3.286-.334-4.611-1.38-4.574-3.61-7.932-8.519-11.1-13.418S32.4,176.68,28.17,172.665s-9.8-6.968-15.6-6.7S1,170.392.124,176.159c-.876,5.783,3.03,11.16,7.105,15.352A90.243,90.243,0,0,0,27.775,207.3c1.361.764,2.837,1.589,3.477,3.02,1.151,2.575-1.117,5.481-3.675,6.629-2.9,1.3-6.184,1.323-9.285,2.011s-6.357,2.412-7.239,5.479c-1.224,4.253,2.662,8.182,6.338,10.64A77.672,77.672,0,0,0,41.525,245.8c3.073.773,6.286,1.4,8.889,3.217s4.416,5.266,3.266,8.227-4.759,4.246-7.92,3.992-6.111-1.641-9.181-2.444c-5.746-1.507-12.849-.4-15.9,4.713-2,3.358-1.758,7.724-.194,11.321s4.284,6.558,7.128,9.252c9.938,9.419,22.15,16.571,35.442,19.673s25.3,3.081,37.573-2.855" transform="translate(0 32.214)" fill="#e0a30a"/>
        <path id="Trazado_147654" data-name="Trazado 147654" d="M101.9,318.038a175.42,175.42,0,0,0-10-32.263,358.649,358.649,0,0,0-18.322-37.087l-5.3-9.475c-1.749-3.107-3.483-6.188-5.366-9.1a179.435,179.435,0,0,0-11.787-16.1c-4-4.941-7.974-9.486-11.722-13.707s-7.339-8.079-10.752-11.462a143.423,143.423,0,0,0-17.285-14.761c-2.171-1.579-3.894-2.748-5.074-3.525-.568-.368-1.011-.657-1.347-.875a3.028,3.028,0,0,0-.473-.276,2.8,2.8,0,0,0,.431.34l1.3.935c1.15.817,2.847,2.024,4.989,3.635a151.574,151.574,0,0,1,17.084,14.9c3.381,3.4,6.929,7.272,10.662,11.5s7.678,8.789,11.653,13.729a181.624,181.624,0,0,1,11.706,16.063c1.869,2.9,3.584,5.95,5.334,9.066l5.3,9.473a367.9,367.9,0,0,1,18.34,36.987,178.6,178.6,0,0,1,10.116,32.1" transform="translate(0.905 32.886)" fill="#e0e0e0"/>
        <path id="Trazado_147655" data-name="Trazado 147655" d="M52.893,227.486a8.187,8.187,0,0,0,.216-1.745c.1-1.126.182-2.76.257-4.779.156-4.037.179-9.62.182-15.774s.1-11.725.322-15.749c.1-2.011.2-3.64.286-4.763a7.947,7.947,0,0,0,.044-1.758,7.945,7.945,0,0,0-.332,1.727c-.172,1.117-.352,2.744-.522,4.757-.354,4.029-.541,9.617-.542,15.781.013,6.073.026,11.569.036,15.767-.007,1.9-.016,3.5-.022,4.778a8,8,0,0,0,.073,1.758" transform="translate(10.702 35.508)" fill="#e0e0e0"/>
        <path id="Trazado_147656" data-name="Trazado 147656" d="M9.021,216.729a11.217,11.217,0,0,0,2.089.033c1.341-.018,3.28-.056,5.675-.025,4.793.021,11.411.283,18.7.888s13.864,1.458,18.6,2.2c2.373.355,4.284.693,5.607.919a11.5,11.5,0,0,0,2.071.285,11.181,11.181,0,0,0-2.014-.572c-1.307-.313-3.21-.731-5.578-1.155-4.729-.879-11.315-1.8-18.628-2.424a184.78,184.78,0,0,0-18.765-.672c-2.4.038-4.345.155-5.685.265a11.09,11.09,0,0,0-2.075.256" transform="translate(1.828 41.965)" fill="#e0e0e0"/>
        <path id="Trazado_147657" data-name="Trazado 147657" d="M76.554,277.223a2.63,2.63,0,0,0,.29-.663c.186-.528.415-1.17.692-1.95.593-1.694,1.387-4.171,2.327-7.242,1.886-6.141,4.22-14.707,6.668-24.192s4.7-18.066,6.455-24.237l2.1-7.3.559-1.992a2.594,2.594,0,0,0,.147-.71,2.771,2.771,0,0,0-.29.665c-.186.527-.415,1.169-.692,1.948-.593,1.7-1.387,4.171-2.327,7.242-1.886,6.141-4.22,14.707-6.669,24.2s-4.7,18.061-6.454,24.234c-.864,3-1.571,5.47-2.1,7.3-.225.8-.409,1.454-.56,1.992a2.618,2.618,0,0,0-.147.711" transform="translate(15.514 40.558)" fill="#e0e0e0"/>
        <path id="Trazado_147658" data-name="Trazado 147658" d="M17.476,253.594a2.834,2.834,0,0,0,.712.209l2.066.461,7.609,1.614c6.426,1.366,15.278,3.352,25.057,5.56s18.662,4.118,25.118,5.351c3.228.619,5.844,1.091,7.659,1.382.838.129,1.53.235,2.091.324a2.8,2.8,0,0,0,.738.061,2.814,2.814,0,0,0-.711-.21l-2.066-.459c-1.906-.406-4.479-.951-7.608-1.616-6.426-1.365-15.28-3.352-25.061-5.561s-18.658-4.116-25.113-5.35c-3.228-.619-5.845-1.091-7.661-1.382l-2.091-.322a2.773,2.773,0,0,0-.738-.062" transform="translate(3.542 49.226)" fill="#e0e0e0"/>
        <path id="Trazado_147659" data-name="Trazado 147659" d="M69.548,130.113a1.677,1.677,0,0,1-1.508-.941l-3.6-7.448a1.646,1.646,0,0,1,.019-1.477,1.67,1.67,0,0,1,1.2-.875,5.187,5.187,0,0,0,3.4-2.311,4.606,4.606,0,0,0,.716-3.611,4.757,4.757,0,0,0-2.339-2.889A5.37,5.37,0,0,0,63.353,110a6.213,6.213,0,0,0-4.066,6.6,1.671,1.671,0,0,1-3.31.462A9.555,9.555,0,0,1,62.4,106.823a8.671,8.671,0,0,1,6.692.859,8.077,8.077,0,0,1,3.927,4.97,7.916,7.916,0,0,1-1.159,6.221A8.716,8.716,0,0,1,68.276,122l2.778,5.74a1.654,1.654,0,0,1-.783,2.214,1.682,1.682,0,0,1-.723.164" transform="translate(11.328 20.673)" fill="#f28705"/>
        <path id="Trazado_147660" data-name="Trazado 147660" d="M70.666,128.187a1.354,1.354,0,0,1-.593,1.827,1.372,1.372,0,0,1-1.84-.59,1.352,1.352,0,0,1,.593-1.826,1.37,1.37,0,0,1,1.84.589" transform="translate(13.799 24.741)" fill="#f28705"/>
        <path id="Trazado_147661" data-name="Trazado 147661" d="M30.884,108.061a1.169,1.169,0,0,1-1.052-.657l-2.516-5.2a1.146,1.146,0,0,1,.013-1.032,1.17,1.17,0,0,1,.837-.611,3.622,3.622,0,0,0,2.375-1.613,3.223,3.223,0,0,0,.5-2.522,3.325,3.325,0,0,0-1.634-2.017,3.747,3.747,0,0,0-2.849-.39,4.337,4.337,0,0,0-2.84,4.611,1.167,1.167,0,0,1-2.312.322A6.674,6.674,0,0,1,25.891,91.8a6.059,6.059,0,0,1,4.674.6,5.644,5.644,0,0,1,2.742,3.471,5.526,5.526,0,0,1-.809,4.345,6.1,6.1,0,0,1-2.5,2.18l1.94,4.007a1.154,1.154,0,0,1-.547,1.546,1.166,1.166,0,0,1-.5.115" transform="translate(4.327 17.775)" fill="#f28705"/>
        <path id="Trazado_147662" data-name="Trazado 147662" d="M31.665,106.716a.943.943,0,0,1-.415,1.275.957.957,0,0,1-1.284-.411.946.946,0,0,1,.415-1.277.959.959,0,0,1,1.284.412" transform="translate(6.052 20.616)" fill="#f28705"/>
        <path id="Trazado_147663" data-name="Trazado 147663" d="M204.047,107.837a1.154,1.154,0,0,1-.148,1.226l-3.659,4.483a1.171,1.171,0,0,1-1.859-.061,3.629,3.629,0,0,0-2.485-1.441A3.07,3.07,0,0,0,192.249,115a3.688,3.688,0,0,0,.864,2.725,4.4,4.4,0,0,0,5.413.576,1.172,1.172,0,0,1,1.615.331,1.148,1.148,0,0,1-.334,1.6,6.756,6.756,0,0,1-8.43-.964,5.947,5.947,0,0,1-1.454-4.45,5.394,5.394,0,0,1,6.289-5.077,6.116,6.116,0,0,1,3.055,1.312l2.819-3.456a1.172,1.172,0,0,1,1.642-.171,1.156,1.156,0,0,1,.32.4" transform="translate(38.489 20.805)" fill="#f28705"/>
        <path id="Trazado_147664" data-name="Trazado 147664" d="M201.938,105.369a.959.959,0,0,1,1.339-.174.944.944,0,0,1,.176,1.329.959.959,0,0,1-1.339.174.943.943,0,0,1-.176-1.329" transform="translate(40.888 20.383)" fill="#f28705"/>
        <path id="Trazado_147665" data-name="Trazado 147665" d="M193.918,17.716a1.154,1.154,0,0,1-.148,1.226l-3.659,4.483a1.171,1.171,0,0,1-1.859-.061,3.629,3.629,0,0,0-2.485-1.441,3.28,3.28,0,0,0-2.51.629,3.315,3.315,0,0,0-1.138,2.33,3.689,3.689,0,0,0,.864,2.725,4.4,4.4,0,0,0,5.413.576,1.171,1.171,0,0,1,1.615.332,1.147,1.147,0,0,1-.334,1.6,6.756,6.756,0,0,1-8.43-.964,5.946,5.946,0,0,1-1.454-4.45,5.394,5.394,0,0,1,6.289-5.077,6.116,6.116,0,0,1,3.055,1.312l2.819-3.456a1.172,1.172,0,0,1,1.642-.171,1.156,1.156,0,0,1,.32.4" transform="translate(36.436 3.31)" fill="#f28705"/>
        <path id="Trazado_147666" data-name="Trazado 147666" d="M191.808,15.249a.959.959,0,0,1,1.339-.174.944.944,0,0,1,.176,1.329.959.959,0,0,1-1.339.174.943.943,0,0,1-.176-1.329" transform="translate(38.835 2.888)" fill="#f28705"/>
        <path id="Trazado_147667" data-name="Trazado 147667" d="M115.4,31.461a1.521,1.521,0,0,1,1.369.854l3.269,6.759a1.489,1.489,0,0,1-.018,1.34,1.512,1.512,0,0,1-1.087.8,4.713,4.713,0,0,0-3.087,2.1,4.189,4.189,0,0,0-.649,3.278,4.315,4.315,0,0,0,2.124,2.621,4.868,4.868,0,0,0,3.7.508,5.64,5.64,0,0,0,3.69-5.992,1.516,1.516,0,0,1,3-.418,8.671,8.671,0,0,1-5.827,9.3,7.875,7.875,0,0,1-6.072-.779,7.341,7.341,0,0,1-3.565-4.511,7.187,7.187,0,0,1,1.052-5.646,7.924,7.924,0,0,1,3.251-2.834l-2.521-5.209a1.511,1.511,0,0,1,1.366-2.158" transform="translate(22.711 6.107)" fill="#f28705"/>
        <path id="Trazado_147668" data-name="Trazado 147668" d="M112.15,30.124a1.226,1.226,0,0,1,.539-1.656,1.242,1.242,0,0,1,1.669.535,1.227,1.227,0,0,1-.539,1.657,1.246,1.246,0,0,1-1.669-.536" transform="translate(22.702 5.5)" fill="#f28705"/>
        <path id="Trazado_147669" data-name="Trazado 147669" d="M209.122,143.244a1.519,1.519,0,0,1,1.367.854l3.269,6.759a1.488,1.488,0,0,1-.018,1.341,1.514,1.514,0,0,1-1.087.794,4.711,4.711,0,0,0-3.087,2.1,4.191,4.191,0,0,0-.649,3.277,4.312,4.312,0,0,0,2.124,2.621,4.868,4.868,0,0,0,3.7.507,5.639,5.639,0,0,0,3.69-5.992,1.516,1.516,0,0,1,3-.418,8.67,8.67,0,0,1-5.827,9.3,7.87,7.87,0,0,1-6.072-.779,7.341,7.341,0,0,1-3.565-4.511,7.187,7.187,0,0,1,1.052-5.646,7.923,7.923,0,0,1,3.251-2.834l-2.52-5.209a1.51,1.51,0,0,1,1.366-2.158" transform="translate(41.706 27.807)" fill="#f28705"/>
        <path id="Trazado_147670" data-name="Trazado 147670" d="M205.873,141.908a1.227,1.227,0,0,1,.539-1.657,1.244,1.244,0,0,1,1.669.534,1.228,1.228,0,0,1-.539,1.659,1.245,1.245,0,0,1-1.669-.535" transform="translate(41.698 27.199)" fill="#f28705"/>
        <path id="Trazado_147671" data-name="Trazado 147671" d="M242.228,179.936s-6.387-4.877-15.7,10.466-13.074,24.305-13.074,24.305-2.4,3.182-4.551.838-4.867-8.753-8.87-7.917c-4.152.867-5.816,5.279-5.517,11.959s.416,21.338.421,22.663c0,1.3-.878,3.155-2.6,1.791s-11.318-13.627-16.907-8.759-1.674,23.341-1.286,25.369-.064,2.849-1.051,3.274-3.822-4-6.694-7.376-6.8-6.793-9.789-3.716-4.844,16.6,6.589,39.583l6,10.307,12.041.189c25.793-1.155,36.821-9.3,38.094-13.379s-3.637-5.85-8-6.717-9.636-1.2-9.737-2.26.4-1.854,2.38-2.495,20.158-6.154,21.755-13.365-13.854-9.633-15.887-10.472-.826-2.5.324-3.127c1.171-.635,14.157-7.611,20.193-10.575s9.126-6.541,7.886-10.569c-1.2-3.884-8.16-3.152-11.265-3.89s-1.458-4.363-1.458-4.363,6.092-7.592,15.127-23.1,1.448-18.752,1.448-18.752" transform="translate(31.281 34.787)" fill="#d39305"/>
        <path id="Trazado_147672" data-name="Trazado 147672" d="M233.024,191.311s-.053.116-.173.334l-.54.962-2.108,3.684c-1.834,3.2-4.521,7.8-7.863,13.485-6.681,11.363-16.041,26.984-26.436,44.2S176.11,286.8,169.373,298.13l-7.965,13.423-2.168,3.649-.571.943c-.131.211-.207.315-.207.315s.054-.116.173-.334.309-.549.54-.962l2.108-3.683c1.834-3.2,4.521-7.8,7.863-13.484,6.681-11.363,16.042-26.985,26.44-44.209s19.79-32.816,26.527-44.144c3.357-5.659,6.076-10.242,7.965-13.424l2.168-3.649.572-.945c.13-.211.206-.315.206-.315" transform="translate(32.116 37.138)" fill="#e0e0e0"/>
        <path id="Trazado_147673" data-name="Trazado 147673" d="M195.187,210.643a3.844,3.844,0,0,1,.244.826c.135.537.308,1.32.512,2.287.405,1.937.9,4.626,1.384,7.6.47,2.938.895,5.594,1.221,7.626.153.915.28,1.687.384,2.308a3.791,3.791,0,0,1,.108.854,3.815,3.815,0,0,1-.25-.825c-.134-.537-.307-1.319-.5-2.29-.386-1.942-.841-4.636-1.329-7.613-.491-2.933-.934-5.585-1.275-7.614-.158-.915-.29-1.686-.4-2.307a3.817,3.817,0,0,1-.1-.855" transform="translate(39.558 40.89)" fill="#e0e0e0"/>
        <path id="Trazado_147674" data-name="Trazado 147674" d="M199.29,229.742c-.022-.1,5.518-1.349,12.371-2.789s12.427-2.529,12.449-2.429-5.517,1.349-12.372,2.791-12.426,2.528-12.448,2.428" transform="translate(40.391 43.584)" fill="#e0e0e0"/>
        <path id="Trazado_147675" data-name="Trazado 147675" d="M185.018,250.442a4.043,4.043,0,0,1,.885.023l2.4.179c2.025.148,4.824.34,7.918.439s5.9.105,7.933.088c.956,0,1.761-.011,2.405-.017a4.048,4.048,0,0,1,.885.037,4.231,4.231,0,0,1-.879.107c-.568.044-1.389.094-2.405.135-2.033.082-4.846.124-7.951.018s-5.908-.333-7.93-.549c-1.01-.11-1.828-.209-2.391-.3a4.028,4.028,0,0,1-.87-.165" transform="translate(37.498 48.614)" fill="#e0e0e0"/>
        <path id="Trazado_147676" data-name="Trazado 147676" d="M177.673,234.751a3.455,3.455,0,0,1,.421.7l1.021,1.962c.849,1.663,2,3.974,3.246,6.534s2.36,4.889,3.146,6.582q.541,1.189.916,2.013a3.457,3.457,0,0,1,.29.761,3.436,3.436,0,0,1-.421-.7l-1.022-1.962c-.848-1.665-2-3.974-3.245-6.535s-2.36-4.889-3.147-6.581l-.915-2.013a3.484,3.484,0,0,1-.29-.761" transform="translate(36.009 45.57)" fill="#e0e0e0"/>
        <path id="Trazado_147677" data-name="Trazado 147677" d="M162.655,252.173a5.654,5.654,0,0,1,.529.9c.344.654.787,1.5,1.319,2.51,1.1,2.126,2.594,5.074,4.225,8.341s3.091,6.236,4.129,8.391l1.214,2.561a5.648,5.648,0,0,1,.4.961,5.523,5.523,0,0,1-.529-.9c-.344-.654-.788-1.5-1.319-2.51-1.1-2.126-2.594-5.075-4.226-8.342s-3.09-6.235-4.128-8.39l-1.214-2.563a5.6,5.6,0,0,1-.4-.961" transform="translate(32.966 48.952)" fill="#e0e0e0"/>
        <path id="Trazado_147678" data-name="Trazado 147678" d="M172.377,271.452a6.6,6.6,0,0,1,1.122,0l3.05.117c2.575.1,6.132.215,10.063.236s7.491-.041,10.068-.107l3.051-.078a6.6,6.6,0,0,1,1.122.013,6.423,6.423,0,0,1-1.115.13c-.718.06-1.759.13-3.049.195-2.576.135-6.141.245-10.08.217s-7.5-.183-10.074-.345c-1.287-.085-2.328-.165-3.046-.235a6.573,6.573,0,0,1-1.112-.143" transform="translate(34.936 52.691)" fill="#e0e0e0"/>
        <path id="Trazado_147679" data-name="Trazado 147679" d="M310.766,293.872c0,.118-67.368.215-150.451.215-83.112,0-150.465-.1-150.465-.215s67.353-.215,150.465-.215c83.083,0,150.451.1,150.451.215" transform="translate(1.996 57.005)" fill="#263238"/>
        <path id="Trazado_147680" data-name="Trazado 147680" d="M230.051,268.947,217.4,209.018s-7.418-28.882-32.957-38.835l-1.762-.537c-.038-.014-2.423-.738-2.461-.752-1.027-.4-5.22-1.717-6.321-2.057-34.435-11.852-43.571-8.768-79.452,3.39,0,0-15.943,4.257-23.669,24.9s-22.516,52.938-22.516,52.938l35.8,12.551,6.861-10.12v69.239h98.459l-2.717-31.872-.474-39.258" transform="translate(9.781 30.936)" fill="#f7d469"/>
        <path id="Trazado_147681" data-name="Trazado 147681" d="M120.593,171.542a5.512,5.512,0,0,1-.821.757,10.749,10.749,0,0,1-1.033.81c-.419.295-.879.656-1.438.979a26.578,26.578,0,0,1-4.031,2.078,27.969,27.969,0,0,1-10.869,2.11,26.779,26.779,0,0,1-4.522-.418c-.641-.091-1.205-.252-1.7-.369a10.97,10.97,0,0,1-1.264-.363,5.508,5.508,0,0,1-1.048-.4c.026-.086,1.536.441,4.065.828a29.415,29.415,0,0,0,4.473.322,29.376,29.376,0,0,0,10.719-2.081,29.3,29.3,0,0,0,4.021-1.97c2.2-1.305,3.4-2.357,3.453-2.287" transform="translate(19.023 33.299)" fill="#fafafa"/>
        <g id="Grupo_54463" data-name="Grupo 54463" transform="translate(100.701 306.845)" opacity="0.3">
          <g id="Grupo_54462" data-name="Grupo 54462">
            <g id="Grupo_54461" data-name="Grupo 54461" clip-path="url(#clip-path-3)">
              <path id="Trazado_147682" data-name="Trazado 147682" d="M83.73,257.906,91.8,267.16h7.933v10.076l82.052,18.84-.669-7.848-77.195-26.317H90.989l-6.238-4.948Z" transform="translate(-83.73 -256.963)"/>
            </g>
          </g>
        </g>
        <path id="Trazado_147683" data-name="Trazado 147683" d="M112.057,253.979l-6.843-1.259S88.991,235.1,85.95,234.851c-2.5-.207-16.3-.073-21.112-.019a1.66,1.66,0,0,0-.044,3.32l16.306.628.078,1.3L64.85,240.3c-1.662.127-2.729,2.74,2.593,3.212l13.656.481v.844l-13.848,1.921c-.7.1-2.541.453-2.558,1.154,0,0-.837,1.723,3.108,2.213,1.354.168,13.376-.228,13.376-.228l-.464,1.072-12.445,2.667A1.756,1.756,0,0,0,68.8,257.1l13.3-1.225,13.05,10.349H112.6Z" transform="translate(12.807 45.568)" fill="#ffc09d"/>
        <path id="Trazado_147684" data-name="Trazado 147684" d="M206.807,254.439l-39.823,7.776-4.04-28.116" transform="translate(33.025 45.444)" fill="#f7d469"/>
        <path id="Trazado_147685" data-name="Trazado 147685" d="M174.334,252.416l-73.812-2.368.012,25.331,48.97,9.657,34.387,5.45c21.372,0,38.465-19.475,35.155-40.438l-.09.024Z" transform="translate(20.373 48.54)" fill="#f7d469"/>
        <path id="Trazado_147686" data-name="Trazado 147686" d="M194.653,251.952a5.993,5.993,0,0,1-.956.067l-2.744.078-10.092.182c-8.522.123-20.3.266-33.3.143s-24.786-.595-33.294-1.165c-4.253-.283-7.692-.555-10.064-.793l-2.731-.277a5.929,5.929,0,0,1-.948-.136,6.113,6.113,0,0,1,.959.02l2.738.17c2.376.168,5.817.38,10.071.609,8.507.468,20.271.869,33.274,1s24.771.044,33.294.025h10.094l2.745.03a6.008,6.008,0,0,1,.957.05" transform="translate(20.373 48.538)" fill="#f7d469"/>
        <path id="Trazado_147687" data-name="Trazado 147687" d="M100.553,250.24a2.647,2.647,0,0,1,.028.45c.007.321.017.757.028,1.312.012,1.179.03,2.861.052,4.993.02,4.335.049,10.49.083,17.9l-.142-.176c8.335,1.776,18.326,3.972,29.082,6.213,14.748,3.1,28.17,5.543,37.93,7.041,4.88.744,8.838,1.29,11.576,1.649l3.153.412.819.118a1.405,1.405,0,0,1,.277.054,1.292,1.292,0,0,1-.281-.011l-.824-.075c-.75-.079-1.811-.191-3.164-.332-2.745-.309-6.711-.81-11.6-1.515-9.778-1.421-23.22-3.821-37.973-6.92-10.759-2.241-20.745-4.464-29.07-6.281l-.144-.032V274.9c.029-7.412.053-13.568.07-17.9.02-2.132.036-3.814.048-4.993.011-.555.019-.991.026-1.312a2.645,2.645,0,0,1,.028-.45" transform="translate(20.344 48.577)" fill="#263238"/>
        <path id="Trazado_147688" data-name="Trazado 147688" d="M96.463,196.982a6.7,6.7,0,0,1,.053-1.236c.051-.793.131-1.939.162-3.357a57.3,57.3,0,0,0-.773-11.032c-.756-4.245-1.714-8.114-3.2-10.519a8.435,8.435,0,0,0-2.2-2.467c-.646-.454-1.06-.622-1.04-.663a.956.956,0,0,1,.308.1,5.327,5.327,0,0,1,.827.425,8.015,8.015,0,0,1,2.369,2.443A17.8,17.8,0,0,1,94.96,175.3a51.688,51.688,0,0,1,1.372,5.986,50.976,50.976,0,0,1,.652,11.113c-.071,1.426-.2,2.573-.3,3.364a6.647,6.647,0,0,1-.221,1.219" transform="translate(18.132 32.555)" fill="#263238"/>
        <path id="Trazado_147689" data-name="Trazado 147689" d="M162.812,173.578c.119,0,.216,16.839.216,37.606s-.1,37.609-.216,37.609-.216-16.835-.216-37.609.1-37.606.216-37.606" transform="translate(32.954 33.695)" fill="#263238"/>
        <path id="Trazado_147690" data-name="Trazado 147690" d="M187.275,244.432c0,.08-1.257.042-3.252.287a26.7,26.7,0,0,0-3.459.669,26.122,26.122,0,0,0-7.827,3.517,26.576,26.576,0,0,0-2.789,2.137c-1.5,1.327-2.3,2.289-2.363,2.237a3.45,3.45,0,0,1,.516-.712,17.492,17.492,0,0,1,1.64-1.748,23.123,23.123,0,0,1,2.772-2.243A24.293,24.293,0,0,1,180.464,245a23.292,23.292,0,0,1,3.526-.588,17.587,17.587,0,0,1,2.405-.069,3.456,3.456,0,0,1,.879.085" transform="translate(33.965 47.43)" fill="#263238"/>
        <g id="Grupo_54466" data-name="Grupo 54466" transform="translate(108.93 213.781)" opacity="0.3">
          <g id="Grupo_54465" data-name="Grupo 54465">
            <g id="Grupo_54464" data-name="Grupo 54464" clip-path="url(#clip-path-4)">
              <path id="Trazado_147691" data-name="Trazado 147691" d="M96.929,260.619c12.44-7.374,20.2-19.59,27.791-31.844s14.653-25.12,25.174-35.009c4.832-4.541,10.483-8.373,12.267-14.737l-18.91,14.921L90.573,254.1Z" transform="translate(-90.573 -179.028)"/>
            </g>
          </g>
        </g>
        <path id="Trazado_147692" data-name="Trazado 147692" d="M69.536,220.339a34.593,34.593,0,0,0-6.374,1.2,31.927,31.927,0,0,0-4.2,1.841,9.786,9.786,0,0,1-1.734.824,7.583,7.583,0,0,1,1.585-1.089,22.622,22.622,0,0,1,4.212-1.983,17.125,17.125,0,0,1,4.585-.865,6.637,6.637,0,0,1,1.929.072" transform="translate(11.598 42.755)" fill="#263238"/>
        <path id="Trazado_147693" data-name="Trazado 147693" d="M69.536,220.339a34.593,34.593,0,0,0-6.374,1.2,31.927,31.927,0,0,0-4.2,1.841,9.786,9.786,0,0,1-1.734.824,7.583,7.583,0,0,1,1.585-1.089,22.622,22.622,0,0,1,4.212-1.983,17.125,17.125,0,0,1,4.585-.865,6.637,6.637,0,0,1,1.929.072" transform="translate(11.598 42.755)" fill="#263238"/>
        <path id="Trazado_147694" data-name="Trazado 147694" d="M175.032,243.334a11.407,11.407,0,0,0-2.871-1.314,14.888,14.888,0,0,0-8.493.529c-3.524,1.032-7.176,3.51-11.692,5.372a17.21,17.21,0,0,1-7.508,1.426,20.407,20.407,0,0,1-7.847-2.392c-2.52-1.249-4.865-2.655-7.25-3.756a22.078,22.078,0,0,0-7.232-2.028,23.708,23.708,0,0,0-12.444,2.234,22.568,22.568,0,0,0-6.93,5.055l-.9,1.01c-.231.306-.429.57-.6.793l-.375.482c-.088.107-.135.161-.141.156a.722.722,0,0,1,.1-.18l.342-.509.569-.822.879-1.044a22.031,22.031,0,0,1,6.921-5.216,23.054,23.054,0,0,1,5.7-1.952,23.29,23.29,0,0,1,6.913-.4,22.352,22.352,0,0,1,7.371,2.04c2.415,1.108,4.767,2.516,7.265,3.752a20.074,20.074,0,0,0,7.679,2.357,16.868,16.868,0,0,0,7.335-1.373c4.464-1.814,8.163-4.282,11.748-5.295a14.8,14.8,0,0,1,8.634-.4,8.813,8.813,0,0,1,2.158.984l.5.357c.112.082.167.127.162.133" transform="translate(20.419 46.721)" fill="#fafafa"/>
        <path id="Trazado_147695" data-name="Trazado 147695" d="M198.658,217.429a6.842,6.842,0,0,0-1.5-.281,7.276,7.276,0,0,0-3.905,1.187c-1.533.854-3.015,2.4-5.109,3.569a6.692,6.692,0,0,1-3.636.908,9.914,9.914,0,0,1-3.827-1.208c-1.22-.61-2.35-1.292-3.521-1.755a16.5,16.5,0,0,0-9.631-.776,16.568,16.568,0,0,0-3.922,1.391c-.884.441-1.34.751-1.364.714-.008-.013.1-.1.314-.248a9.222,9.222,0,0,1,.969-.613,15.13,15.13,0,0,1,3.933-1.54,16.595,16.595,0,0,1,6.266-.288,15.841,15.841,0,0,1,3.6.971c1.211.474,2.355,1.161,3.556,1.761a9.6,9.6,0,0,0,3.657,1.171,6.317,6.317,0,0,0,3.42-.836c2.029-1.1,3.549-2.634,5.145-3.483a7.183,7.183,0,0,1,4.069-1.091,3.9,3.9,0,0,1,1.128.262,1.433,1.433,0,0,1,.357.186" transform="translate(32.883 42.117)" fill="#fafafa"/>
        <path id="Trazado_147696" data-name="Trazado 147696" d="M171.027,208a2.938,2.938,0,0,1-.565-.1c-.184-.036-.407-.1-.676-.141l-.933-.123a16.1,16.1,0,0,0-5.922.6,36.342,36.342,0,0,0-8.1,3.624,78.236,78.236,0,0,1-9.644,5.2,20.681,20.681,0,0,1-5.511,1.5,14.2,14.2,0,0,1-5.317-.363,24.594,24.594,0,0,1-4.468-1.772c-1.346-.663-2.577-1.311-3.726-1.846a15.961,15.961,0,0,0-5.7-1.711,10.249,10.249,0,0,0-1.626.049,2.979,2.979,0,0,1-.572.036,2.88,2.88,0,0,1,.56-.122,8.452,8.452,0,0,1,1.645-.13,15.43,15.43,0,0,1,5.819,1.6c1.167.521,2.409,1.157,3.755,1.8a24.84,24.84,0,0,0,4.414,1.711,13.931,13.931,0,0,0,5.164.327,20.509,20.509,0,0,0,5.4-1.477,81.928,81.928,0,0,0,9.609-5.15,35.522,35.522,0,0,1,8.214-3.574,15.546,15.546,0,0,1,6.022-.474l.938.164c.269.059.492.133.673.182a2.8,2.8,0,0,1,.544.182" transform="translate(23.971 40.253)" fill="#fafafa"/>
        <path id="Trazado_147697" data-name="Trazado 147697" d="M187.756,186.644a4.64,4.64,0,0,1-.889.512c-.586.3-1.44.73-2.524,1.2a23.933,23.933,0,0,1-3.938,1.354,14.611,14.611,0,0,1-5.1.345c-1.809-.189-3.484-.571-5.018-.776a14.678,14.678,0,0,0-4.077-.074,8.931,8.931,0,0,0-3.509,1.286c-.01-.012.054-.078.186-.192a4.5,4.5,0,0,1,.622-.445,7.515,7.515,0,0,1,2.653-.948,14.111,14.111,0,0,1,4.177-.019c1.559.189,3.238.558,5.01.742a18.32,18.32,0,0,0,8.878-1.552c1.092-.431,1.963-.816,2.57-1.071a4.827,4.827,0,0,1,.961-.361" transform="translate(32.975 36.231)" fill="#fafafa"/>
        <path id="Trazado_147698" data-name="Trazado 147698" d="M100.4,198.331a4.423,4.423,0,0,0-1.471-.351,6.234,6.234,0,0,0-3.808,1.4c-.72.505-1.466,1.131-2.356,1.708a8.75,8.75,0,0,1-3.147,1.253,14.928,14.928,0,0,1-7.619-.9c-2.574-.923-4.88-2.1-7.086-2.868a19.027,19.027,0,0,0-3.185-.865,13.472,13.472,0,0,0-2.861-.172,9.164,9.164,0,0,0-3.981,1.057c-.86.479-1.257.868-1.287.832-.01-.011.085-.11.278-.289a5.435,5.435,0,0,1,.924-.687,8.873,8.873,0,0,1,4.046-1.217,13.454,13.454,0,0,1,2.938.123,18.906,18.906,0,0,1,3.26.843c2.244.762,4.563,1.93,7.1,2.837a14.773,14.773,0,0,0,7.4.918,8.483,8.483,0,0,0,3.027-1.164c.871-.546,1.63-1.158,2.374-1.656a6.228,6.228,0,0,1,3.992-1.318,3,3,0,0,1,1.122.3,1.067,1.067,0,0,1,.339.219" transform="translate(12.891 38.281)" fill="#fafafa"/>
        <path id="Trazado_147699" data-name="Trazado 147699" d="M133.766,251.062c.011-.011.1.068.267.227a6.022,6.022,0,0,1,.654.763,7.857,7.857,0,0,1,1.358,3.418,7.748,7.748,0,0,1-1.1,5.311c-1.1,1.778-2.986,3.185-4.043,5.226a4.94,4.94,0,0,0-.414,3.211,12.125,12.125,0,0,0,1.079,2.947c.908,1.8,1.747,3.55,1.715,5.167a4.154,4.154,0,0,1-1.555,3.29,2.7,2.7,0,0,1-.918.437.979.979,0,0,1-.351.038,3.946,3.946,0,0,0,1.165-.607,4.06,4.06,0,0,0,1.353-3.157c-.007-1.521-.831-3.187-1.768-4.995a12.2,12.2,0,0,1-1.137-3.041,5.328,5.328,0,0,1,.441-3.477,12.947,12.947,0,0,1,2.079-2.8,20.193,20.193,0,0,0,2.017-2.448,7.552,7.552,0,0,0,1.137-5.059,8.161,8.161,0,0,0-1.194-3.364c-.468-.716-.814-1.053-.782-1.083" transform="translate(26.338 48.737)" fill="#fafafa"/>
        <path id="Trazado_147700" data-name="Trazado 147700" d="M162.3,287.1a1.477,1.477,0,0,1-.311-.269,3.342,3.342,0,0,1-.643-.992,5.57,5.57,0,0,1,.21-4.258,8.678,8.678,0,0,1,1.614-2.532c.707-.814,1.544-1.6,2.385-2.446a13.527,13.527,0,0,0,2.309-2.88,9.687,9.687,0,0,0,1.112-3.754c.274-2.717-.218-5.326-.356-7.721a13.3,13.3,0,0,1,.8-6.32,7.218,7.218,0,0,1,2.732-3.321,5.032,5.032,0,0,1,1.07-.5,1.485,1.485,0,0,1,.4-.093,11.091,11.091,0,0,0-1.379.734,7.315,7.315,0,0,0-2.544,3.3,13.326,13.326,0,0,0-.689,6.175,44.345,44.345,0,0,1,.39,7.793,10.019,10.019,0,0,1-1.173,3.914,13.672,13.672,0,0,1-2.4,2.955c-1.721,1.671-3.336,3.137-4,4.815a5.522,5.522,0,0,0-.336,4.08,5.289,5.289,0,0,0,.8,1.322" transform="translate(32.634 48.92)" fill="#fafafa"/>
        <path id="Trazado_147701" data-name="Trazado 147701" d="M182.3,292.285a5.3,5.3,0,0,1-.926.58,7.985,7.985,0,0,1-3.016.855,13.088,13.088,0,0,1-4.931-.549,26.924,26.924,0,0,1-5.974-2.741,39.9,39.9,0,0,0-7.068-3.512,17.041,17.041,0,0,0-8.919-.3,54.381,54.381,0,0,0-9.484,3.258,56.223,56.223,0,0,1-10.261,3.517,18.383,18.383,0,0,1-5.532.309,14.907,14.907,0,0,1-5.161-1.518c-3.18-1.579-5.718-3.864-8.308-5.723A26.3,26.3,0,0,0,108.766,284l-1.013-.48c-.34-.146-.694-.256-1.035-.385a16.915,16.915,0,0,0-2.069-.613,20.855,20.855,0,0,0-7.838-.315,21.947,21.947,0,0,0-6.227,1.845c-.44.191-.836.434-1.233.635a9.279,9.279,0,0,0-1.106.653c-.343.226-.678.431-.986.645l-.842.658a14.521,14.521,0,0,0-1.348,1.182,9.185,9.185,0,0,0-.916.942c-.227.25-.408.448-.545.6a1.264,1.264,0,0,1-.2.195,1.364,1.364,0,0,1,.164-.222l.514-.631a8.562,8.562,0,0,1,.891-.976,13.83,13.83,0,0,1,1.333-1.22l.838-.678c.307-.221.642-.435.985-.668a9.443,9.443,0,0,1,1.108-.676c.4-.209.8-.459,1.239-.658a21.931,21.931,0,0,1,6.288-1.928,21.1,21.1,0,0,1,7.964.269,17.179,17.179,0,0,1,2.111.614c.349.129.71.241,1.057.388l1.037.485a26.546,26.546,0,0,1,4.017,2.472c2.613,1.866,5.149,4.13,8.26,5.665a14.479,14.479,0,0,0,5.019,1.471,18.028,18.028,0,0,0,5.4-.3,56.39,56.39,0,0,0,10.182-3.486,54.17,54.17,0,0,1,9.567-3.255,17.366,17.366,0,0,1,9.113.351,39.7,39.7,0,0,1,7.11,3.587,27.067,27.067,0,0,0,5.886,2.773,13.153,13.153,0,0,0,4.85.614,8.294,8.294,0,0,0,2.991-.767c.642-.3.949-.528.965-.5" transform="translate(16.905 54.676)" fill="#fafafa"/>
        <path id="Trazado_147702" data-name="Trazado 147702" d="M129.964,190.317h0a17.239,17.239,0,0,0,18.062-15.631c.482-5.446.864-10.1.864-10.1s14.158-.355,16.128-14.109,3.7-45.7,3.7-45.7a48.925,48.925,0,0,0-49.244-.193L117.21,105.9l-3.644,66.355a17.2,17.2,0,0,0,16.4,18.066" transform="translate(23.012 19.031)" fill="#ffc09d"/>
        <path id="Trazado_147703" data-name="Trazado 147703" d="M144.559,136.7c.006-.15,1.219-.235,3.175-.252.508.011.914-.051.985-.314a2.71,2.71,0,0,0-.172-1.468c-.328-1.317-.66-2.652-1.008-4.049-1.37-5.763-2.242-10.488-1.947-10.557s1.644,4.545,3.014,10.308l.924,4.07a3.159,3.159,0,0,1,0,2.1,1.316,1.316,0,0,1-.965.682,3.273,3.273,0,0,1-.867,0c-1.948-.18-3.149-.367-3.143-.517" transform="translate(29.298 23.306)" fill="#263238"/>
        <path id="Trazado_147704" data-name="Trazado 147704" d="M145.908,154.814a32.681,32.681,0,0,1-17.422-7.432s2.98,10.464,16.988,11.007Z" transform="translate(26.041 28.61)" fill="#ff9b6c"/>
        <path id="Trazado_147705" data-name="Trazado 147705" d="M168.655,108.9s-8.728,3.621-19.486-2.468c-7.059-4-15.423-6.217-17.369-4.87s-2.753,8.753-10.064,10.526c0,0-.293,14.2-5.957,13.381s-.885-22.57-.885-22.57l14.3-5.987,15.349-2.017,14.2,2.787,10.908,3.618Z" transform="translate(22.905 18.42)" fill="#263238"/>
        <path id="Trazado_147706" data-name="Trazado 147706" d="M118.174,116.9c-.224-.133-9.168-4.028-10.1,5.43s8.828,8.43,8.87,8.162,1.226-13.591,1.226-13.591" transform="translate(21.892 22.517)" fill="#ffc09d"/>
        <path id="Trazado_147707" data-name="Trazado 147707" d="M113.979,126.144c-.039-.035-.177.1-.47.2a1.675,1.675,0,0,1-1.242-.094c-.971-.463-1.662-2.132-1.542-3.84a5.431,5.431,0,0,1,.7-2.314,1.922,1.922,0,0,1,1.372-1.144.848.848,0,0,1,.934.546c.1.277.023.46.072.481.024.026.22-.139.182-.537a1.057,1.057,0,0,0-.316-.628,1.27,1.27,0,0,0-.895-.33,2.345,2.345,0,0,0-1.877,1.3,5.6,5.6,0,0,0-.833,2.581c-.126,1.912.682,3.79,2.019,4.319a1.8,1.8,0,0,0,1.543-.1c.318-.205.388-.412.357-.432" transform="translate(22.304 23)" fill="#ff9b6c"/>
        <path id="Trazado_147708" data-name="Trazado 147708" d="M128.865,105.074a32.661,32.661,0,0,1-6.339,5.635,11.1,11.1,0,0,1-8.136,1.71c-2.772-.633-5.222-3.016-5.335-5.838s2.664-5.575,5.442-4.971a2.955,2.955,0,1,1,1.749-5.289c-2.413-.448-2.684-4.252-.761-5.769s4.741-1.185,7.016-.267,4.366,2.336,6.766,2.848c3.764.8,7.629-.752,10.958-2.672s6.494-4.27,10.206-5.288c4.556-1.25,9.478-.337,13.837,1.478a22.327,22.327,0,0,1,9.4,6.808,12.932,12.932,0,0,1,2.467,11.015c-1.048,3.753-4.565,6.87-8.488,6.885,0,0-8.819.882-16-4.408s-22.308-4.59-22.308-4.59Z" transform="translate(22.102 16.422)" fill="#263238"/>
        <path id="Trazado_147709" data-name="Trazado 147709" d="M114.489,92.526c-.018.03.171.179.548.438s.954.613,1.714,1.04a31.322,31.322,0,0,0,6.867,2.712,33.334,33.334,0,0,0,10.929,1.031c4.173-.271,8.551-1.608,13.109-2.715s9.062-1.663,12.96-.711a12.416,12.416,0,0,1,8.321,5.886,9.316,9.316,0,0,1,.718,6.864,15.327,15.327,0,0,1-1.1,2.4c.028.02.2-.149.5-.5a6.967,6.967,0,0,0,.975-1.771,9.422,9.422,0,0,0-.45-7.307c-1.377-2.912-4.64-5.481-8.74-6.472-4.122-1.06-8.825-.491-13.423.631-4.617,1.125-8.911,2.459-12.947,2.77a34.168,34.168,0,0,1-10.677-.8c-5.991-1.446-9.211-3.7-9.306-3.5" transform="translate(23.204 17.959)" fill="#455a64"/>
        <path id="Trazado_147710" data-name="Trazado 147710" d="M110.937,104.765c-.107.054.2.979,1.232,2.152a9.759,9.759,0,0,0,11.214,2.407c1.424-.646,2.091-1.362,2.017-1.456-.09-.13-.888.355-2.274.787a10.56,10.56,0,0,1-10.445-2.243c-1.082-.961-1.607-1.73-1.743-1.648" transform="translate(22.48 20.336)" fill="#455a64"/>
        <path id="Trazado_147711" data-name="Trazado 147711" d="M113.411,100.852c-.243.113.487,1.832,2.333,3.089s3.714,1.343,3.734,1.077c.057-.288-1.531-.775-3.155-1.909-1.642-1.108-2.662-2.411-2.913-2.257" transform="translate(22.976 19.575)" fill="#455a64"/>
        <path id="Trazado_147712" data-name="Trazado 147712" d="M163.9,112.99c.126.03.4-.436.467-1.283a5.178,5.178,0,0,0-.843-3.178,5.234,5.234,0,0,0-2.585-2.053c-.809-.279-1.347-.223-1.37-.1-.083.273,1.876.814,3.1,2.7,1.24,1.875.945,3.871,1.23,3.908" transform="translate(32.34 20.631)" fill="#263238"/>
        <path id="Trazado_147713" data-name="Trazado 147713" d="M168.768,100.544c-.281-.117-1.333,2.388-3.822,4.453-2.451,2.109-5.11,2.737-5.039,3.031-.012.264,3,.045,5.7-2.26,2.725-2.276,3.425-5.192,3.162-5.223" transform="translate(32.409 19.517)" fill="#455a64"/>
        <path id="Trazado_147714" data-name="Trazado 147714" d="M155.987,121.595a2.141,2.141,0,0,1-2.33,1.864,2.042,2.042,0,0,1-1.941-2.186,2.142,2.142,0,0,1,2.327-1.866,2.043,2.043,0,0,1,1.944,2.189" transform="translate(30.747 23.178)" fill="#263238"/>
        <path id="Trazado_147715" data-name="Trazado 147715" d="M158.083,121.538c-.3.241-1.755-1.15-4.042-1.441-2.281-.322-4.114.628-4.326.318-.1-.139.229-.6,1.029-1.034a5.917,5.917,0,0,1,3.507-.595,5.662,5.662,0,0,1,3.171,1.49c.634.627.806,1.156.66,1.262" transform="translate(30.34 23.049)" fill="#263238"/>
        <path id="Trazado_147716" data-name="Trazado 147716" d="M138.682,119.191a2.141,2.141,0,0,1-2.33,1.864,2.042,2.042,0,0,1-1.941-2.186A2.143,2.143,0,0,1,136.74,117a2.043,2.043,0,0,1,1.942,2.189" transform="translate(27.24 22.711)" fill="#263238"/>
        <path id="Trazado_147717" data-name="Trazado 147717" d="M140.612,119.24c-.3.241-1.757-1.151-4.043-1.441-2.28-.322-4.113.628-4.325.318-.1-.139.226-.6,1.029-1.034a5.9,5.9,0,0,1,3.506-.595,5.666,5.666,0,0,1,3.173,1.49c.631.627.806,1.156.66,1.262" transform="translate(26.799 22.602)" fill="#263238"/>
        <path id="Trazado_147718" data-name="Trazado 147718" d="M140,114.078c-.451.4-2.166-.842-4.481-1.057-2.309-.273-4.248.582-4.6.1-.167-.232.142-.818.992-1.378a6.169,6.169,0,0,1,7.414.783c.713.725.89,1.362.678,1.555" transform="translate(26.525 21.518)" fill="#263238"/>
        <path id="Trazado_147719" data-name="Trazado 147719" d="M157.991,116.945c.1.269-.293.72-1.127,1.078a6.807,6.807,0,0,1-6.647-1.038c-.682-.595-.918-1.144-.74-1.368.4-.467,2.1.336,4.26.644,2.153.365,4.021.121,4.254.684" transform="translate(30.284 22.416)" fill="#263238"/>
        <path id="Trazado_147720" data-name="Trazado 147720" d="M143.185,137.158c.238.014.406.442.375.954s-.25.917-.489.9-.405-.442-.374-.955.25-.916.488-.9" transform="translate(28.92 26.625)" fill="#263238"/>
        <path id="Trazado_147721" data-name="Trazado 147721" d="M116.081,131.993c.022.007-.012.221-.207.555a2.908,2.908,0,0,1-1.207,1.09,3.045,3.045,0,0,1-2.426.143,3.49,3.49,0,0,1-2.082-2.106,3.688,3.688,0,0,1,.295-2.936,3.739,3.739,0,0,1,1.8-1.618,3.892,3.892,0,0,1,1.591-.333c.384.007.589.067.586.092a6.433,6.433,0,0,0-2.046.516,3.568,3.568,0,0,0-1.578,1.53,3.387,3.387,0,0,0-.236,2.613,3.158,3.158,0,0,0,1.814,1.874,2.794,2.794,0,0,0,2.154-.048,3.752,3.752,0,0,0,1.544-1.371" transform="translate(22.29 24.612)" fill="#455a64"/>
        <path id="Trazado_147722" data-name="Trazado 147722" d="M122.7,183.79s4.636-6.5,7.548-10.155c3.529-4.425,5.633-8.241,5.633-10.308V152.373s4.393-1.034,5.021,3.927,0,6.2,0,6.2,18.45-12.336,19.7-11.441c2.2,1.571-1.97,4.866-1.97,4.866l-11.245,10.089,6.4-2.012a3.005,3.005,0,0,1,3.748,1.871,2.94,2.94,0,0,1-1.143,3.393l-3.79,3.26,1.906-.761a2.939,2.939,0,0,1,3.709,1.384,2.861,2.861,0,0,1-.476,3.266l-3.453,3.654,1.618-.855a2.113,2.113,0,0,1,2.87.9,2.056,2.056,0,0,1-.574,2.547l-20.651,16.214Z" transform="translate(24.868 29.315)" fill="#ffc09d"/>
        <path id="Trazado_147723" data-name="Trazado 147723" d="M137.585,198.914s-.087-.075-.257-.24l-.757-.748-2.933-2.932-11.007-11.074-.081-.081.067-.093c1.351-1.9,2.82-3.936,4.413-6.088.8-1.075,1.626-2.179,2.5-3.3s1.78-2.252,2.63-3.475A33.644,33.644,0,0,0,134.544,167a8.3,8.3,0,0,0,1.179-4.479q-.005-4.877-.012-10.118v-.164l.154-.03a4.687,4.687,0,0,1,3.335.546,4.134,4.134,0,0,1,1.21,1.266,5.819,5.819,0,0,1,.606,1.632,25.9,25.9,0,0,1,.374,3.424c.03.578.041,1.16.016,1.747a6.012,6.012,0,0,1-.285,1.8l-.305-.266c2.848-1.9,5.8-3.818,8.853-5.732,1.526-.956,3.076-1.911,4.66-2.843a47.969,47.969,0,0,1,4.926-2.62,6.478,6.478,0,0,1,.711-.256,2.084,2.084,0,0,1,.4-.075.828.828,0,0,1,.253.017.523.523,0,0,1,.226.143,1.55,1.55,0,0,1,.625,1.45,5.026,5.026,0,0,1-1.481,2.569c-.669.716-1.435,1.3-2.122,1.945q-1.057.949-2.106,1.888l-8.2,7.356-.2-.353,3.749-1.176,1.846-.578c.31-.1.6-.195.925-.284a3.033,3.033,0,0,1,1.009-.111,3.2,3.2,0,0,1,2.933,2.336,3.157,3.157,0,0,1-1.28,3.426l.017-.013-3.793,3.255-.2-.32,1.856-.738a3.206,3.206,0,0,1,2.045-.131,3.091,3.091,0,0,1,2.275,2.994,3.051,3.051,0,0,1-.631,1.819c-.417.493-.835.9-1.246,1.341l-2.419,2.549-.2-.262,1.737-.906a2.273,2.273,0,0,1,1.981.043,2.212,2.212,0,0,1,.749,3.345,3.7,3.7,0,0,1-.682.615q-.346.272-.689.539l-1.348,1.053-2.575,2.007-8.537,6.641-5.408,4.189-1.408,1.079c-.316.241-.479.352-.479.352s.164-.144.481-.4l1.406-1.128,5.372-4.276,8.443-6.689,2.544-2.01,1.334-1.053.681-.537a3.363,3.363,0,0,0,.625-.566,1.9,1.9,0,0,0-.654-2.875,1.951,1.951,0,0,0-1.7-.03l-1.716.905-.889.468.688-.73q1.178-1.252,2.408-2.559c.4-.435.849-.878,1.218-1.317a2.7,2.7,0,0,0,.553-1.608,2.725,2.725,0,0,0-2.013-2.633,2.824,2.824,0,0,0-1.8.122l-1.856.743-1.061.425.865-.745,3.786-3.264.008-.008.01-.006a2.762,2.762,0,0,0,1.114-3,2.794,2.794,0,0,0-2.565-2.035,4.935,4.935,0,0,0-1.79.38l-1.845.582-3.748,1.181-.92.289.717-.642q4-3.6,8.2-7.369,1.048-.94,2.106-1.891c.7-.651,1.449-1.229,2.087-1.912a4.679,4.679,0,0,0,1.365-2.318,1.114,1.114,0,0,0-.468-1.075c-.051-.124-.267-.055-.491,0a5.956,5.956,0,0,0-.661.238,47.928,47.928,0,0,0-4.872,2.592c-1.579.929-3.127,1.881-4.652,2.835-3.046,1.911-6,3.827-8.847,5.717l-.528.351.222-.619a6.031,6.031,0,0,0,.243-1.631c.025-.57.016-1.14-.013-1.71a25.645,25.645,0,0,0-.361-3.357,5.438,5.438,0,0,0-.554-1.513,3.73,3.73,0,0,0-1.079-1.132,4.287,4.287,0,0,0-3.022-.5l.153-.193q-.005,5.232-.011,10.118c-.006.411.012.8-.025,1.232a6.522,6.522,0,0,1-.271,1.2,14.417,14.417,0,0,1-.937,2.206,33.926,33.926,0,0,1-2.426,3.912c-.859,1.226-1.776,2.372-2.653,3.48s-1.7,2.214-2.505,3.284c-1.6,2.142-3.08,4.171-4.44,6.06l-.014-.174c4.622,4.739,8.306,8.518,10.847,11.122l2.9,3,.752.783c.168.179.254.279.254.279" transform="translate(24.838 29.28)" fill="#ff9b6c"/>
        <path id="Trazado_147724" data-name="Trazado 147724" d="M152.949,194.045,96.335,268.258c-8.593,11.264-24.081,15.385-36.947,9.271-9.406-4.471-16.3-13.858-10.533-33.182L103.088,207.5l32.963-31.587Z" transform="translate(9.474 34.149)" fill="#f7d469"/>
        <path id="Trazado_147725" data-name="Trazado 147725" d="M58.046,277.576s.21.1.611.308l1.772.931a24.289,24.289,0,0,0,7.4,1.97,25.23,25.23,0,0,0,5.546-.1,29.048,29.048,0,0,0,3.127-.547c.538-.122,1.073-.3,1.625-.447a15.166,15.166,0,0,0,1.66-.541,32.638,32.638,0,0,0,6.8-3.318,26.738,26.738,0,0,0,6.381-5.536c3.864-4.539,7.858-9.721,12.173-15.25s8.854-11.5,13.64-17.773c9.553-12.559,20-26.41,30.91-40.985l1.739-2.325.014.275-16.893-18.133.29.02c-11.541,9.457-22.222,18.487-31.906,26.53s-18.348,15.12-25.678,20.882-13.29,10.252-17.44,13.263c-2.063,1.522-3.695,2.647-4.783,3.428l-1.246.875c-.281.195-.431.287-.431.287s.135-.112.408-.318l1.224-.905c1.074-.8,2.692-1.945,4.74-3.486,4.122-3.047,10.054-7.566,17.357-13.357s15.956-12.879,25.612-20.95,20.335-17.1,31.873-26.574l.154-.127.136.146,16.9,18.126.123.131-.107.143q-.866,1.157-1.739,2.325c-10.914,14.575-21.368,28.42-30.94,40.967-4.794,6.267-9.352,12.221-13.672,17.752S97.095,265.954,93.2,270.494a27,27,0,0,1-6.466,5.568,32.807,32.807,0,0,1-6.872,3.315,15.368,15.368,0,0,1-1.674.536c-.557.148-1.1.321-1.639.441a28.852,28.852,0,0,1-3.155.534,25.23,25.23,0,0,1-5.586.063,23.886,23.886,0,0,1-7.421-2.057c-.781-.413-1.361-.754-1.757-.972s-.588-.346-.588-.346" transform="translate(10.815 34.102)" fill="#263238"/>
        <path id="Trazado_147726" data-name="Trazado 147726" d="M102.182,245.368a15.423,15.423,0,0,0-1.98-1.127,12.04,12.04,0,0,0-6.087-.762,21.826,21.826,0,0,0-4.2.869c-1.477.444-3.015,1.071-4.641,1.708a47.807,47.807,0,0,1-5.2,1.8,16.489,16.489,0,0,1-5.908.572,20.57,20.57,0,0,1-5.72-1.574c-1.769-.728-3.41-1.556-5-2.271-3.15-1.457-6.212-2.4-8.838-2.255a9.567,9.567,0,0,0-5.714,2.061,9.181,9.181,0,0,0-1.509,1.688,3.013,3.013,0,0,1,.28-.524,6.619,6.619,0,0,1,1.118-1.291,9.54,9.54,0,0,1,5.808-2.238c2.7-.191,5.841.751,9.019,2.2,1.6.709,3.244,1.528,4.995,2.243a20.329,20.329,0,0,0,5.6,1.536,16.217,16.217,0,0,0,5.756-.551,49.067,49.067,0,0,0,5.164-1.766c1.63-.627,3.177-1.244,4.683-1.681a21.562,21.562,0,0,1,4.272-.83,11.869,11.869,0,0,1,6.187.912,6.7,6.7,0,0,1,1.909,1.279" transform="translate(9.604 46.978)" fill="#fafafa"/>
        <path id="Trazado_147727" data-name="Trazado 147727" d="M114.731,227.259a2.984,2.984,0,0,0,.216-1.471,4.155,4.155,0,0,0-2.5-3.019,14.084,14.084,0,0,0-2.749-.832,14.666,14.666,0,0,1-3.216-1.023,20.79,20.79,0,0,1-6.057-4.712,75.946,75.946,0,0,0-5.307-5.457,13.928,13.928,0,0,0-5.323-3.019,9.2,9.2,0,0,0-4.119-.279c-.971.174-1.476.412-1.491.369a1.422,1.422,0,0,1,.357-.184,5.739,5.739,0,0,1,1.1-.349,8.925,8.925,0,0,1,4.232.149,13.933,13.933,0,0,1,5.5,3.012,69.591,69.591,0,0,1,5.362,5.462,20.855,20.855,0,0,0,5.915,4.65c2.077,1.023,4.288,1.1,5.926,1.94a4.276,4.276,0,0,1,2.534,3.273,2.311,2.311,0,0,1-.174,1.145,1.073,1.073,0,0,1-.209.345" transform="translate(17.062 40.202)" fill="#fafafa"/>
        <path id="Trazado_147728" data-name="Trazado 147728" d="M245.451,62.893l-2.475.164-4.9,7.83.328,4.905s-3.81.486-3.79-5.967-.357-4.785-.357-4.785-8.125.5-8.847-.152c-.526-.476-1.283-8.473-1.658-12.813a4.71,4.71,0,0,1,3.039-4.959,3.574,3.574,0,0,1,.867-.176c2.025-.134,12.486.819,12.486.819l4.275-.282Z" transform="translate(45.345 9.11)" fill="#455a64"/>
        <path id="Trazado_147729" data-name="Trazado 147729" d="M248.918,63.75,246.27,47.043l-4.238.279,1.1,16.469Z" transform="translate(49.054 9.132)" fill="#455a64"/>
        <path id="Trazado_147730" data-name="Trazado 147730" d="M194.889,72.919a1.259,1.259,0,0,1,.356.086,2.226,2.226,0,0,1,.415.16,3.509,3.509,0,0,1,.539.279,6.056,6.056,0,0,1,2.465,2.918A5.964,5.964,0,0,1,199.111,79a5.349,5.349,0,0,1-1.1,2.875,6.31,6.31,0,0,1-2.723,2.054,5.612,5.612,0,0,1-6.707-1.759,6.254,6.254,0,0,1-1.346-3.121,5.339,5.339,0,0,1,.476-3.039,6.02,6.02,0,0,1,1.7-2.074,6.112,6.112,0,0,1,3.595-1.33,3.612,3.612,0,0,1,.609.021,2.266,2.266,0,0,1,.439.066,1.174,1.174,0,0,1,.352.1c-.008.047-.5-.084-1.391-.02a6.164,6.164,0,0,0-3.411,1.4,5.8,5.8,0,0,0-1.569,1.991A5,5,0,0,0,187.633,79,5.559,5.559,0,0,0,197.7,81.638a5.022,5.022,0,0,0,1.057-2.663,5.759,5.759,0,0,0-.374-2.5,6.106,6.106,0,0,0-2.271-2.889c-.742-.492-1.236-.621-1.22-.666" transform="translate(37.938 14.094)" fill="#263238"/>
        <path id="Trazado_147731" data-name="Trazado 147731" d="M180.04,85.211a1.832,1.832,0,0,1,.842.3,3.9,3.9,0,0,1,1.882,3.53,3.419,3.419,0,0,1-.7,1.85,3.809,3.809,0,0,1-6.915-1.814,3.419,3.419,0,0,1,.313-1.951,3.941,3.941,0,0,1,3.393-2.146,1.842,1.842,0,0,1,.883.149c-.007.039-.32-.031-.873.018a3.891,3.891,0,0,0-2.114.893,3.236,3.236,0,0,0-1.205,2.984,3.429,3.429,0,0,0,6.2,1.628,3.229,3.229,0,0,0,.437-3.186,3.855,3.855,0,0,0-1.394-1.814c-.457-.314-.764-.406-.75-.444" transform="translate(35.492 16.497)" fill="#263238"/>
        <path id="Trazado_147732" data-name="Trazado 147732" d="M200.21,57.906s.025-.234.1-.687.186-1.137.33-2.012l.249-1.485c.117-.54.3-1.119.467-1.753s.363-1.315.565-2.043a7.44,7.44,0,0,1,.374-1.106c.147-.376.3-.762.451-1.161a40.57,40.57,0,0,1,6.086-10.8,42.9,42.9,0,0,1,12.356-10.825l2.023-1.156c.7-.347,1.437-.657,2.167-.992.741-.312,1.456-.709,2.241-.956l2.358-.8c.4-.131.795-.275,1.2-.4l1.244-.293,2.524-.588c.855-.173,1.735-.246,2.615-.375a22.506,22.506,0,0,1,2.672-.277,40.462,40.462,0,0,1,5.512.02c.931.08,1.876.1,2.817.227q1.4.24,2.827.484c.473.091.956.144,1.426.265l1.407.388c.938.272,1.9.5,2.837.813a45.861,45.861,0,0,1,5.534,2.354l1.364.691c.227.118.459.227.683.352l.649.412,2.617,1.663c.849.6,1.651,1.273,2.486,1.909.406.333.848.627,1.229.994l1.152,1.094a48.386,48.386,0,0,1,4.379,4.7q.942,1.32,1.9,2.653l.476.668.415.709.826,1.427.829,1.433.7,1.509.693,1.519.346.762c.1.26.184.528.278.793l1.092,3.188q.39,1.644.782,3.3a45.544,45.544,0,0,1,.569,13.746,45.679,45.679,0,0,1-3.873,13.215q-.783,1.517-1.557,3.024-.92,1.422-1.832,2.836l-.461.7-.521.657-1.039,1.31-1.04,1.3-1.151,1.194-1.147,1.191-.574.588-.624.535q-1.247,1.069-2.482,2.126a48.479,48.479,0,0,1-5.389,3.524l-1.383.787c-.458.265-.957.445-1.432.671-.965.42-1.906.884-2.876,1.261l-2.943.992-.731.246c-.247.069-.5.118-.747.18-.5.113-1,.229-1.491.344a46.158,46.158,0,0,1-5.942.968c-.987.08-1.975.072-2.951.111l-1.46.043c-.486,0-.967-.059-1.448-.085q-1.441-.1-2.862-.2c-.943-.1-1.867-.306-2.789-.453a40.4,40.4,0,0,1-5.357-1.294,22.415,22.415,0,0,1-2.528-.9c-.821-.334-1.66-.615-2.446-.988l-2.309-1.174c-.381-.193-.76-.387-1.138-.577q-.536-.342-1.067-.676l-2.1-1.339c-.7-.429-1.3-.985-1.944-1.463-.627-.5-1.265-.974-1.864-1.48l-1.683-1.606a42.659,42.659,0,0,1-9.378-13.453,40.4,40.4,0,0,1-3.3-11.935c-.054-.422-.107-.833-.158-1.232a7.337,7.337,0,0,1-.1-1.163q-.029-1.134-.054-2.118c-.01-.656-.047-1.261-.03-1.814q.065-.826.118-1.5.108-1.329.167-2.034c.04-.457.071-.69.071-.69s0,.238-.028.695-.07,1.149-.124,2.034q-.043.672-.1,1.5c-.01.552.034,1.156.051,1.809s.048,1.359.075,2.109a7.311,7.311,0,0,0,.1,1.16c.054.4.109.806.167,1.228a40.574,40.574,0,0,0,3.349,11.858,42.527,42.527,0,0,0,9.37,13.334c.552.524,1.111,1.052,1.677,1.589.6.5,1.23.968,1.855,1.463.641.472,1.235,1.026,1.934,1.446q1.03.656,2.084,1.323c.351.221.7.444,1.061.666l1.129.571,2.293,1.159c.782.367,1.614.642,2.429.972a21.976,21.976,0,0,0,2.509.893,40.163,40.163,0,0,0,5.315,1.273c.915.142,1.83.344,2.765.442l2.838.2c.477.025.955.086,1.436.081l1.448-.044c.967-.042,1.946-.036,2.924-.116a45.486,45.486,0,0,0,5.886-.967l1.477-.344c.247-.06.5-.109.741-.178l.723-.245,2.915-.986c.96-.375,1.892-.835,2.847-1.253.47-.224.965-.4,1.418-.666l1.37-.78a48.52,48.52,0,0,0,5.334-3.5l2.457-2.108.617-.529.569-.585,1.134-1.176,1.14-1.183,1.028-1.29,1.028-1.3.516-.652.455-.7,1.814-2.809,1.539-2.992a45.265,45.265,0,0,0,3.833-13.084,45.193,45.193,0,0,0-.562-13.609l-.772-3.271q-.543-1.587-1.081-3.16c-.091-.26-.174-.525-.273-.783l-.344-.753-.684-1.506-.687-1.494-.82-1.42-.817-1.415-.41-.7-.473-.663-1.875-2.629a48.153,48.153,0,0,0-4.333-4.661l-1.14-1.084c-.376-.363-.813-.656-1.215-.985-.826-.633-1.62-1.3-2.461-1.9l-2.592-1.651-.642-.41c-.221-.124-.451-.232-.676-.35l-1.351-.685a45.539,45.539,0,0,0-5.479-2.342c-.93-.31-1.881-.537-2.809-.808l-1.4-.388c-.465-.121-.944-.173-1.413-.265q-1.411-.242-2.8-.484c-.932-.128-1.869-.149-2.791-.229a40.2,40.2,0,0,0-5.466-.032,21.7,21.7,0,0,0-2.652.27c-.871.125-1.745.2-2.593.363l-2.506.58-1.235.283c-.4.124-.795.266-1.191.4q-1.183.4-2.343.787c-.779.242-1.49.638-2.226.943-.725.33-1.455.635-2.155.978q-1.017.579-2.011,1.142a42.748,42.748,0,0,0-12.32,10.711A40.728,40.728,0,0,0,202.9,47.719q-.236.593-.458,1.152a7.214,7.214,0,0,0-.382,1.1q-.312,1.085-.582,2.031c-.174.628-.363,1.2-.487,1.742q-.146.813-.268,1.477-.242,1.306-.37,2c-.087.45-.142.681-.142.681" transform="translate(40.504 3.903)" fill="#263238"/>
        <path id="Trazado_147733" data-name="Trazado 147733" d="M92.479,63.607c.012.047-.494.115-1.292.513a6.118,6.118,0,0,0-2.605,2.6,5.737,5.737,0,0,0-.676,2.437,5,5,0,0,0,.725,2.769,5.562,5.562,0,0,0,10.311-1.411,5.018,5.018,0,0,0-.058-2.862,5.79,5.79,0,0,0-1.316-2.164,6.153,6.153,0,0,0-3.216-1.8c-.876-.17-1.382-.1-1.383-.147a1.126,1.126,0,0,1,.362-.057,2.253,2.253,0,0,1,.444-.012,3.506,3.506,0,0,1,.606.051,6.108,6.108,0,0,1,3.407,1.752,6.016,6.016,0,0,1,1.436,2.263,5.335,5.335,0,0,1,.1,3.074,6.248,6.248,0,0,1-1.715,2.938,5.62,5.62,0,0,1-6.873.941,6.291,6.291,0,0,1-2.452-2.366,5.344,5.344,0,0,1-.738-2.987,5.981,5.981,0,0,1,.765-2.565,6.064,6.064,0,0,1,2.8-2.6,3.5,3.5,0,0,1,.569-.213,2.351,2.351,0,0,1,.432-.109,1.177,1.177,0,0,1,.363-.042" transform="translate(17.743 12.32)" fill="#263238"/>
        <path id="Trazado_147734" data-name="Trazado 147734" d="M105.3,74.756c.007.039-.308.094-.8.351a3.871,3.871,0,0,0-1.6,1.634,3.225,3.225,0,0,0,.045,3.215,3.433,3.433,0,0,0,6.357-.871,3.243,3.243,0,0,0-.833-3.107,3.888,3.888,0,0,0-1.99-1.14c-.545-.116-.864-.082-.866-.123a1.826,1.826,0,0,1,.9-.042,3.941,3.941,0,0,1,3.107,2.538,3.422,3.422,0,0,1,.072,1.974,3.812,3.812,0,0,1-7.085.971,3.4,3.4,0,0,1-.468-1.92,3.914,3.914,0,0,1,2.3-3.278,1.844,1.844,0,0,1,.873-.2" transform="translate(20.698 14.491)" fill="#263238"/>
        <path id="Trazado_147735" data-name="Trazado 147735" d="M57.6,39H54.918l-5.856-8.1V25.575s-4.148-.253-3.66,6.711-.04,5.191-.04,5.191-8.807.033-9.54.794c-.532.552-.772,9.238-.865,13.949a5.1,5.1,0,0,0,3.64,5.137,3.865,3.865,0,0,0,.948.127c2.2,0,13.419-1.773,13.419-1.773H57.6Z" transform="translate(7.085 4.964)" fill="#f28705"/>
        <path id="Trazado_147736" data-name="Trazado 147736" d="M61.224,35.592l-1.65,18.222h-4.6V35.959Z" transform="translate(11.143 6.909)" fill="#f28705"/>
        <path id="Trazado_147737" data-name="Trazado 147737" d="M103.449,46.493s-.028-.254-.06-.75-.076-1.241-.133-2.2q-.042-.727-.093-1.62c-.061-.593-.188-1.236-.292-1.936s-.23-1.452-.356-2.257a8.063,8.063,0,0,0-.266-1.231c-.111-.42-.224-.851-.34-1.3A43.958,43.958,0,0,0,96.75,22.9,46.16,46.16,0,0,0,84.929,9.793l-2.01-1.488c-.706-.46-1.449-.881-2.185-1.331L79.619,6.3a9.17,9.17,0,0,0-1.152-.632l-2.413-1.15c-.408-.191-.812-.4-1.228-.579l-1.289-.466-2.615-.948c-.889-.291-1.817-.48-2.738-.728l-1.393-.353c-.233-.056-.464-.127-.7-.172l-.718-.107A43.585,43.585,0,0,0,59.5.49c-1-.035-2.012-.131-3.027-.117L53.393.53c-.516.036-1.038.032-1.553.1l-1.55.236c-1.034.17-2.084.29-3.126.5a49.533,49.533,0,0,0-6.195,1.8c-.511.186-1.026.373-1.539.561-.259.1-.518.182-.773.287l-.744.357-3,1.438c-.981.528-1.921,1.143-2.894,1.715-.474.3-.981.559-1.436.9L29.216,9.447a52.325,52.325,0,0,0-5.27,4.446q-1.173,1.284-2.361,2.582l-.593.648c-.184.228-.356.468-.534.7L19.4,19.236l-1.069,1.42-.936,1.517L16.457,23.7l-.469.765c-.14.264-.263.539-.4.807q-.785,1.619-1.576,3.252-.628,1.7-1.262,3.415a48.956,48.956,0,0,0-2.4,14.547A48.986,48.986,0,0,0,12.75,61.039q.631,1.714,1.262,3.416.79,1.634,1.576,3.253l.4.807.469.765.934,1.528.934,1.518,1.069,1.419,1.062,1.413.533.7.6.648q1.185,1.3,2.361,2.583a52.218,52.218,0,0,0,5.271,4.447l1.366,1.016c.452.342.961.6,1.436.9.973.573,1.912,1.188,2.895,1.716q1.506.724,3,1.438l.746.357c.255.105.515.191.773.287.514.189,1.028.375,1.539.561a49.549,49.549,0,0,0,6.2,1.8c1.04.213,2.093.333,3.126.5l1.55.236c.516.067,1.037.064,1.553.1l3.074.158c1.019.014,2.029-.082,3.031-.117a43.588,43.588,0,0,0,5.875-.677l.718-.109c.237-.045.468-.115.7-.171l1.392-.355c.92-.248,1.85-.436,2.74-.728l2.615-.948,1.289-.466,1.227-.579,2.414-1.15a9.162,9.162,0,0,0,1.151-.633l1.115-.67c.736-.451,1.482-.872,2.185-1.333l2.011-1.488a46.172,46.172,0,0,0,11.82-13.107c.338-.558.686-1.1,1-1.644l.814-1.667.783-1.6c.124-.264.265-.517.37-.782l.3-.794,1.118-3.008c.328-.965.524-1.918.773-2.8q.175-.666.34-1.3a7.8,7.8,0,0,0,.266-1.232q.191-1.205.357-2.256c.1-.7.23-1.342.291-1.936.034-.595.065-1.136.093-1.619q.087-1.438.133-2.2c.032-.5.06-.75.06-.75s0,.254-.016.75-.052,1.243-.091,2.2q-.032.729-.072,1.625c-.054.595-.174,1.241-.272,1.943s-.216,1.458-.338,2.266a7.807,7.807,0,0,1-.256,1.237q-.161.634-.332,1.3c-.244.89-.434,1.848-.758,2.819q-.529,1.444-1.106,3.026c-.1.264-.194.531-.292.8s-.245.522-.368.788l-.779,1.616q-.4.824-.809,1.68c-.315.548-.661,1.094-1,1.656A46.27,46.27,0,0,1,85.118,83.432l-2.019,1.5c-.71.466-1.456.892-2.2,1.348q-.557.337-1.121.678a9.222,9.222,0,0,1-1.158.639L76.2,88.766c-.409.193-.818.4-1.235.585l-1.3.473-2.633.96c-.895.3-1.832.488-2.758.742l-1.4.359c-.236.057-.469.127-.707.174l-.724.11a43.63,43.63,0,0,1-5.92.694c-1.01.037-2.028.136-3.052.123l-3.1-.153c-.52-.035-1.045-.031-1.565-.1L50.238,92.5c-1.043-.17-2.1-.29-3.152-.5a49.83,49.83,0,0,1-6.252-1.81l-1.554-.565c-.26-.1-.524-.183-.781-.289l-.752-.358L34.72,87.527C33.729,87,32.778,86.376,31.8,85.8c-.479-.3-.992-.565-1.448-.908l-1.383-1.025a52.494,52.494,0,0,1-5.319-4.483q-1.189-1.3-2.385-2.6l-.6-.654-.539-.708L19.05,74l-1.078-1.432-.947-1.531-.943-1.542-.474-.773-.4-.814q-.792-1.635-1.594-3.283-.633-1.718-1.272-3.447A49.3,49.3,0,0,1,9.924,46.486,49.226,49.226,0,0,1,12.346,31.8q.637-1.73,1.272-3.446.8-1.648,1.594-3.281c.135-.271.259-.548.4-.814l.473-.773.943-1.54.945-1.531,1.078-1.431,1.075-1.426c.18-.235.352-.476.538-.706l.6-.656,2.385-2.6A52.349,52.349,0,0,1,28.97,9.117l1.382-1.025c.456-.343.969-.6,1.448-.906.981-.577,1.93-1.2,2.921-1.727l3.027-1.447.752-.358c.256-.106.522-.192.781-.289L40.834,2.8A49.872,49.872,0,0,1,47.084.99c1.049-.214,2.109-.333,3.153-.5L51.8.251c.52-.067,1.045-.062,1.565-.1L56.464,0c1.026-.013,2.043.086,3.054.123a43.606,43.606,0,0,1,5.92.694l.724.11c.238.047.471.117.707.174l1.4.359c.926.252,1.862.444,2.757.74l2.633.96c.435.158.867.316,1.3.473.419.186.825.392,1.235.585L78.62,5.383a9.313,9.313,0,0,1,1.159.64L80.9,6.7c.738.455,1.487.881,2.2,1.347l2.018,1.5A46.263,46.263,0,0,1,96.958,22.777a43.8,43.8,0,0,1,5.114,12.385q.17.67.332,1.3a7.985,7.985,0,0,1,.256,1.238q.18,1.213.338,2.266c.1.7.218,1.348.272,1.943q.04.9.072,1.625.06,1.442.091,2.2c.018.5.016.751.016.751" transform="translate(2.011 0)" fill="#263238"/>
        <path id="Trazado_147738" data-name="Trazado 147738" d="M151.11,57.359h-.032a1.243,1.243,0,0,1-1.215-1.269l.283-11.013a1.236,1.236,0,0,1,.52-.974,1.249,1.249,0,0,1,1.1-.177,7.957,7.957,0,0,0,6.232-.774,7.174,7.174,0,0,0,3.529-4.477,7.272,7.272,0,0,0-1.145-5.6,8.005,8.005,0,0,0-5.141-3.551,9.252,9.252,0,0,0-9.976,6.021,1.248,1.248,0,0,1-1.585.763,1.233,1.233,0,0,1-.77-1.574,11.834,11.834,0,0,1,12.786-7.644,10.506,10.506,0,0,1,6.773,4.631,9.738,9.738,0,0,1,1.484,7.517,9.649,9.649,0,0,1-4.717,6.06,10.662,10.662,0,0,1-6.632,1.334l-.244,9.52a1.242,1.242,0,0,1-1.245,1.206" transform="translate(28.949 5.227)" fill="#f28705"/>
        <path id="Trazado_147739" data-name="Trazado 147739" d="M151.935,57.262a1.823,1.823,0,1,1-1.823-1.81,1.817,1.817,0,0,1,1.823,1.81" transform="translate(30.055 10.764)" fill="#f28705"/>
        <path id="Trazado_147740" data-name="Trazado 147740" d="M37.743,162.242a8.686,8.686,0,0,1-5.2-1.64,8.277,8.277,0,0,1-3.182-5.671,7.418,7.418,0,0,1,7.151-8.561,8.462,8.462,0,0,1,4.924,1.2l3.286-6.183a1.249,1.249,0,0,1,1.684-.516,1.233,1.233,0,0,1,.521,1.672l-3.972,7.473a1.25,1.25,0,0,1-1.962.321,5.78,5.78,0,0,0-4.331-1.5,4.944,4.944,0,0,0-4.825,5.8,5.806,5.806,0,0,0,2.2,3.984,6.931,6.931,0,0,0,8.546-.739,1.251,1.251,0,0,1,1.762.014,1.231,1.231,0,0,1-.016,1.749,9.482,9.482,0,0,1-6.589,2.595" transform="translate(5.939 27.319)" fill="#f28705"/>
        <path id="Trazado_147741" data-name="Trazado 147741" d="M43.865,137.5a1.4,1.4,0,0,1,1.874-.628,1.385,1.385,0,0,1,.633,1.86,1.4,1.4,0,0,1-1.874.628,1.384,1.384,0,0,1-.633-1.86" transform="translate(8.861 26.542)" fill="#f28705"/>
        <path id="Trazado_147742" data-name="Trazado 147742" d="M248.121,144.907a1.25,1.25,0,0,1-1.011-.512l-4.988-6.849a1.234,1.234,0,0,1,.582-1.887,5.752,5.752,0,0,0,3.27-3.191,5.171,5.171,0,0,0,.059-4.132,5.347,5.347,0,0,0-3.153-2.733,5.9,5.9,0,0,0-4.571.195,6.82,6.82,0,0,0-3.121,7.934,1.234,1.234,0,0,1-.795,1.561,1.246,1.246,0,0,1-1.572-.788,9.276,9.276,0,0,1,4.363-10.915,8.406,8.406,0,0,1,6.529-.318,7.841,7.841,0,0,1,4.6,4.054,7.637,7.637,0,0,1-.037,6.106A8.387,8.387,0,0,1,245,137.279l4.125,5.665a1.232,1.232,0,0,1-.279,1.728,1.25,1.25,0,0,1-.73.235" transform="translate(47.099 23.831)" fill="#f28705"/>
        <path id="Trazado_147743" data-name="Trazado 147743" d="M249.472,143.024a1.381,1.381,0,0,1-.265,1.945,1.4,1.4,0,0,1-1.959-.262,1.383,1.383,0,0,1,.265-1.946,1.4,1.4,0,0,1,1.959.263" transform="translate(50.053 27.658)" fill="#f28705"/>
      </g>
    </g>
  </g>
</svg>
